<?xml version="1.0" encoding="utf-8"?>
<!-- Generator: Adobe Illustrator 16.0.0, SVG Export Plug-In . SVG Version: 6.00 Build 0)  -->
<!DOCTYPE svg PUBLIC "-//W3C//DTD SVG 1.1//EN" "http://www.w3.org/Graphics/SVG/1.1/DTD/svg11.dtd">
<svg version="1.1" id="Layer_1" xmlns="http://www.w3.org/2000/svg" xmlns:xlink="http://www.w3.org/1999/xlink" x="0px" y="0px"
	 width="640px" height="640px" viewBox="0 0 640 640" enable-background="new 0 0 640 640" xml:space="preserve">
<path fill-rule="evenodd" clip-rule="evenodd" fill="#40495B" d="M131.723,485.509c0.004-0.995,0.008-1.99,0.012-2.985
	c0.801-0.127,1.444-0.475,1.451-1.377c0.026-3.088,0.027-6.177,0.002-9.265c-0.007-0.905-0.658-1.246-1.457-1.371
	c-0.324-3.995-0.32-7.991-0.001-11.987c1.849-0.26,1.509-1.699,1.509-2.893c0.011-36.084,0.011-72.168,0.001-108.252
	c0-1.2,0.318-2.633-1.535-2.87c-0.312-3.745-0.294-7.489,0.008-11.233c0.538-0.26,0.53-0.516-0.007-0.765
	c-0.315-1.743-0.308-3.486-0.007-5.229c1.297-4.011,1.321-8.021-0.009-12.029c-1.216-12.088,0.985-23.818,3.372-35.593
	c7.283-35.93,15.927-71.552,24.035-107.294c0.557-2.456,0.03-3.618-1.999-5.148c-12.059-9.096-19.575-20.769-19.739-36.392
	c-0.11-10.468-0.866-20.95,3.328-31.002c6.227-14.925,21.904-25.883,37.595-25.977c0.771,0.879,1.816,0.664,2.787,0.665
	c16.782,0.009,33.564,0.012,50.348-0.002c1.079-0.001,2.276,0.305,3.097-0.784c2.739-0.334,5.479-0.337,8.218-0.015
	c3.907,1.725,8.013,0.55,12.018,0.734c1.982,0.091,4.218,0.901,6.035-0.77c3.974-0.381,7.948-0.361,11.923-0.016
	c1.035,1.354,2.525,0.842,3.829,0.842c45.73,0.024,91.461,0.024,137.191-0.002c1.302,0,2.795,0.518,3.82-0.854
	c3.218-0.361,6.436-0.346,9.653,0.002c0.771,1.15,1.973,0.868,3.056,0.869c11.814,0.015,23.629,0.013,35.443,0.004
	c0.973,0,2.017,0.204,2.784-0.678c16.552,1.209,29,9.528,35.515,24.286c7.59,17.192,7.114,35.211-0.531,52.635
	c-3.079,7.018-8.436,12.319-14.602,16.717c-1.641,1.17-2.278,1.993-1.772,4.139c5.207,22.068,10.375,44.146,15.334,66.27
	c3.868,17.256,7.875,34.487,10.932,51.916c-1.016,1.218-0.704,2.632-0.4,3.931c0.965,4.138,1.319,8.306,1.316,12.559
	c-0.038,70.038-0.028,140.076,0,210.115c0,1.443-0.507,3.011,0.593,4.325c0.554,21.031-16.603,42.935-38.154,48.785
	c-5.837,1.584-11.773,2.174-17.794,2.173c-91.75-0.006-183.499,0.039-275.249-0.042c-28.613-0.026-51.701-23.062-52.042-51.644
	c-0.102-8.493,0.047-16.987,0.081-25.481C133.912,492.52,133.92,487.545,131.723,485.509z M182.738,546.347
	c1.283,1.177,2.86,0.655,4.301,0.655c91.272,0.024,182.544,0.012,273.816,0.049c3.892,0.002,7.707-0.125,11.381-1.531
	c2.326-0.733,4.08-2.874,6.621-2.954c2.543-0.079,4.295-1.896,4.856-3.562c1.479-4.385,5.517-7.751,5.106-12.852
	c-0.049-0.62,0.17-1.34,0.905-1.454c2.646-0.414,2.006-2.448,2.007-4.078c0.018-72.561,0.014-145.12,0.029-217.681
	c0.001-1.519,0.063-3.103-0.758-4.366c-2.514-3.875-3.446-8.176-3.792-12.673c-0.069-0.911-0.644-1.278-1.465-1.389
	c-1.163-2.32-1.569-4.798-1.542-7.367c0.853-5.158-1.182-10.003-2-14.923c-0.498-2.987-0.156-6.269-1.631-9.026
	c-0.931-1.742-1.25-3.215,0.037-4.766c0.82-0.988,1.025-2.397,0.549-3.161c-1.858-2.974-4.031-5.751-6.088-8.602l0.08-0.083
	c0.18-3.451,1.471-7.371,0.262-10.236c-1.603-3.803-0.748-8.586-4.396-11.569c-0.286-0.234-0.225-0.941-0.254-1.432
	c-0.448-7.556-2.073-14.853-4.277-22.09c-0.528-1.734-1.941-3.145-1.76-5.156c0.312-3.438-1.562-6.293-2.577-9.405
	c-1.136-3.477-2.683-4.802-6.157-3.255c-0.3,0.133-0.749,0.015-1.104-0.079c-9.09-2.382-18.246-1.452-27.423-0.686
	c-3.456,0.288-6.888,1.495-10.38,0.736c-5.013-1.088-10.058-1.54-15.18-1.427c-1.359,0.031-3.531,0.583-3.469-1.6
	c0.05-1.819,2.078-1.349,3.364-1.349c6.845,0.003,13.684-0.143,20.519,0.688c8.587,1.045,16.945-2.183,25.585-1.546
	c6.126,0.451,6.667-0.777,4.144-6.268c-0.63-1.371-1.451-1.807-2.83-1.921c-1.973-0.163-3.931-0.514-5.893-0.805
	c-0.795-0.118-1.406-0.538-1.617-1.344c-0.18-0.684,0.069-1.426,0.78-1.408c2.772,0.069,4.803-2.524,7.397-2.32
	c5.498,0.433,10.557-2.146,16.104-1.825c2.502,0.145,6.054-0.644,6.992-4.313c5.482-4.33,9.424-9.595,9.695-16.867
	c0.167-4.472,0.176-8.962-0.01-13.433c-0.41-9.894-7.666-17.683-17.299-18.228c-5.943-0.336-11.925,0.015-17.889,0.057
	c-1.372-0.033-2.744-0.095-4.116-0.095c-41.831,0.009-83.662,0.022-125.493,0.039c-39.083,0.016-78.165,0.036-117.248,0.055
	c-2.419-0.372-4.841-0.307-7.265-0.058c-4.122-0.027-8.25-0.203-12.366-0.051c-8.399,0.312-14.831,5.611-17.042,13.768
	c-1.333,4.92-0.731,9.937-0.695,14.904c0.093,12.844,7.685,21.451,20.252,23.267c0,0.392,0,0.783-0.001,1.175
	c-1.867-0.173-2.948,0.256-3.15,2.532c-0.163,1.828-0.548,3.65-0.659,5.519c-0.159,2.659-1.398,4.043-4.167,2.562
	c-1.503-0.805-3.077-0.943-4.708-0.851c-2.102,0.118-3.882,0.195-4.036-2.855c-0.1-1.984-2.147-1.676-3.618-1.585
	c-1.384,0.086-1.687,1.274-1.339,2.179c0.94,2.441,2.41,4.629,3.153,7.211c0.461,1.604,2.771,0.579,3.906,1.57
	c-0.019,0.295,0.036,0.568-0.059,0.771c-3.135,6.695-2.525,7.746,4.446,7.722c0.858-0.003,1.753,0.08,2.571,0.325
	c3.005,0.9,3.986-0.198,3.331-3.152c-0.515-2.32,0.633-3.195,2.838-3.204c1.608-0.006,3.764,0.462,4.726-0.374
	c3.442-2.993,7.377-1.473,11.086-1.837c1.298-0.127,2.769,0.143,2.728,1.779c-0.039,1.542-1.57,1.836-2.796,1.891
	c-2.613,0.116-5.237-0.02-7.852,0.085c-1.225,0.049-2.847-0.671-3.356,1.377c-0.48,1.927,1.102,2.203,2.167,2.917
	c-2.597-0.343-3.265,1.218-3.772,3.403c-3.836,16.487-7.855,32.934-11.661,49.428c-5.459,23.663-11.2,47.265-15.623,71.156
	c-1.603,0.625-1.145,2.041-1.147,3.201c-0.027,12.177-0.024,24.354,0.002,36.532c0.002,1.042-0.455,2.313,0.953,2.932
	c0.381,14.517,0.323,29.033-0.013,43.55c-1.579,3.483-1.583,6.967,0.002,10.45c0.09,0.982,0.259,1.965,0.259,2.948
	c-0.003,19.436-0.007,38.87-0.062,58.305c-0.012,4.098,0.41,8.206-0.192,12.296c-1.402,0.62-0.945,1.886-0.948,2.927
	c-0.027,11.776-0.024,23.554-0.011,35.33c0.001,1.079-0.276,2.279,0.902,3.023c0.38,2.464,0.308,4.928,0.037,7.395
	c-0.736,0.367-0.501,0.639,0.086,0.876c3.081,16.376,10.053,23.297,25.189,25.001C182.636,546.016,182.643,546.183,182.738,546.347z
	 M173.517,156.238c2.387,0.088,5.042,0.254,5.146-2.223c0.114-2.705-2.659-0.983-4.059-1.508c-0.111-0.042-0.258,0.007-0.367-0.038
	c-2.213-0.905-4.525-0.141-4.664,1.894C169.382,157.19,172.285,155.877,173.517,156.238z"/>
<path fill-rule="evenodd" clip-rule="evenodd" fill="#393F44" d="M514.867,520.733c-1.1-1.314-0.593-2.882-0.593-4.325
	c-0.028-70.039-0.038-140.077,0-210.115c0.003-4.253-0.352-8.421-1.316-12.559c-0.304-1.299-0.615-2.713,0.4-3.931
	c1.117,3.857,1.712,7.785,1.71,11.808c-0.029,72.045-0.053,144.089-0.082,216.134C514.985,518.74,514.908,519.736,514.867,520.733z"
	/>
<path fill-rule="evenodd" clip-rule="evenodd" fill="#393F44" d="M131.704,344.509c1.853,0.237,1.535,1.67,1.535,2.87
	c0.01,36.084,0.01,72.168-0.001,108.252c0,1.193,0.34,2.633-1.509,2.893c-0.051-21.932-0.132-43.862-0.143-65.794
	C131.578,376.656,131.662,360.583,131.704,344.509z"/>
<path fill-rule="evenodd" clip-rule="evenodd" fill="#393F44" d="M417.547,73.644c-1.025,1.372-2.519,0.854-3.82,0.854
	c-45.73,0.026-91.461,0.027-137.191,0.002c-1.304,0-2.794,0.512-3.829-0.842c16.216-0.064,32.433-0.168,48.649-0.184
	c31.195-0.029,62.392-0.008,93.588,0.002C415.811,73.476,416.68,73.585,417.547,73.644z"/>
<path fill-rule="evenodd" clip-rule="evenodd" fill="#393F44" d="M234.512,73.724c-0.821,1.089-2.018,0.783-3.097,0.784
	c-16.783,0.014-33.565,0.011-50.348,0.002c-0.971,0-2.016,0.215-2.787-0.665C197.023,73.273,215.768,73.465,234.512,73.724z"/>
<path fill-rule="evenodd" clip-rule="evenodd" fill="#393F44" d="M468.483,73.841c-0.768,0.882-1.812,0.677-2.784,0.678
	c-11.814,0.009-23.629,0.011-35.443-0.004c-1.083-0.001-2.284,0.282-3.056-0.869C440.962,73.451,454.725,73.164,468.483,73.841z"/>
<path fill-rule="evenodd" clip-rule="evenodd" fill="#393F44" d="M131.731,470.511c0.799,0.125,1.45,0.466,1.457,1.371
	c0.025,3.088,0.024,6.177-0.002,9.265c-0.007,0.902-0.65,1.25-1.451,1.377C131.733,478.519,131.732,474.515,131.731,470.511z"/>
<path fill-rule="evenodd" clip-rule="evenodd" fill="#393F44" d="M131.723,485.509c2.197,2.036,2.189,7.011-0.014,9.016
	C131.713,491.52,131.718,488.514,131.723,485.509z"/>
<path fill-rule="evenodd" clip-rule="evenodd" fill="#393F44" d="M260.783,73.673c-1.817,1.671-4.053,0.861-6.035,0.77
	c-4.005-0.185-8.111,0.991-12.018-0.734C248.748,73.697,254.766,73.686,260.783,73.673z"/>
<path fill-rule="evenodd" clip-rule="evenodd" fill="#393F44" d="M131.689,315.252c1.331,4.008,1.306,8.018,0.009,12.029
	C131.695,323.271,131.692,319.262,131.689,315.252z"/>
<path fill-rule="evenodd" clip-rule="evenodd" fill="#393F44" d="M131.705,332.511c0.537,0.249,0.545,0.505,0.007,0.765
	C131.71,333.021,131.708,332.766,131.705,332.511z"/>
<path fill-rule="evenodd" clip-rule="evenodd" fill="#FAFCFC" d="M157.661,301.079c4.423-23.891,10.164-47.493,15.623-71.156
	c3.805-16.495,7.825-32.941,11.661-49.428c0.508-2.185,1.175-3.746,3.772-3.403c4.023-0.011,8.046-0.021,12.069-0.032
	c0.474,0,0.947-0.001,1.421-0.002c1.524,0,3.048,0,4.572,0l0.343,0.11l0.343-0.112c0.254,0.084,0.508,0.168,0.763,0.253
	c-0.219,6.3-1.261,12.504-2.192,18.72c-0.242,0.417-0.697,0.837-0.692,1.251c0.109,8.71-3.664,16.66-5.162,25.079
	c-1.919,10.787-4.413,21.578-6.927,32.309c-1.976,8.437-3.364,17.015-5.457,25.419c-1.292,5.188-2.745,10.292-2.811,15.677
	c-2.576,5.487-2.044,11.509-2.065,17.176c-0.245,69.181-0.156,138.363-0.188,207.545c-0.001,1.898,0.288,3.707,0.733,5.521
	c-0.853,0.614-0.719,1.481-0.601,2.344c-0.003,4.697-0.007,9.396-0.011,14.093c-0.047,0.986-0.096,1.974-0.144,2.961
	c-0.1,0.149-0.097,0.298,0.009,0.443c-15.137-1.704-22.109-8.625-25.19-25.002c-0.029-0.291-0.058-0.584-0.086-0.875
	c0.271-2.467,0.343-4.931-0.037-7.395c0.235-13.76,0.572-27.52,0.057-41.28c0.603-4.09,0.181-8.198,0.192-12.296
	c0.055-19.435,0.059-38.869,0.062-58.305c0-0.983-0.169-1.966-0.259-2.948c0.38-3.484,0.384-6.968-0.002-10.45
	c0.336-14.517,0.394-29.033,0.013-43.55c0.079-1.364,0.225-2.729,0.225-4.093C157.697,326.793,157.675,313.936,157.661,301.079z"/>
<path fill-rule="evenodd" clip-rule="evenodd" fill="#FBFCFB" d="M200.623,99.504c39.083-0.019,78.166-0.039,117.248-0.055
	c41.831-0.017,83.662-0.03,125.493-0.039c1.372,0,2.744,0.062,4.115,0.095c0.138,1.374,1.407,1.216,2.237,1.628
	c8.564,4.248,10.391,15.266,3.711,22.005c-3.84,3.875-8.887,3.68-13.57,3.729c-21.73,0.229-43.465,0.114-65.197,0.116
	c-61.825,0.007-123.651,0.008-185.476,0.019c-4.535,0-4.9,0.353-4.911,4.905c-0.016,6.369,0.031,12.739,0.051,19.108
	c-0.272,0.106-0.544,0.213-0.815,0.319c-12.568-1.816-20.16-10.423-20.253-23.267c-0.036-4.967-0.639-9.984,0.695-14.904
	c2.211-8.157,8.643-13.457,17.042-13.768c4.116-0.152,8.244,0.023,12.364,0.051C195.771,100.362,198.194,100.239,200.623,99.504z
	 M196.953,101.467c-6.093-0.021-9.675,3.151-9.713,8.602c-0.039,5.615,3.678,9.367,9.312,9.401c4.869,0.028,9.375-4.137,9.43-8.718
	C206.055,104.683,202.948,101.487,196.953,101.467z"/>
<path fill-rule="evenodd" clip-rule="evenodd" fill="#EDD0B2" d="M184.325,151.015c-0.021-6.369-0.067-12.739-0.052-19.108
	c0.011-4.552,0.376-4.904,4.911-4.905c61.825-0.011,123.651-0.012,185.476-0.019c21.732-0.002,43.467,0.112,65.197-0.116
	c4.684-0.049,9.73,0.146,13.57-3.729c6.68-6.739,4.854-17.757-3.711-22.005c-0.83-0.412-2.1-0.254-2.237-1.628
	c5.965-0.042,11.946-0.393,17.89-0.057c9.633,0.545,16.889,8.334,17.299,18.228c0.186,4.471,0.177,8.961,0.01,13.433
	c-0.271,7.272-4.213,12.537-9.695,16.867c-2.091,0.346-3.662,1.837-5.766,2.37c-4.576,1.158-9.199,0.444-13.766,0.98
	c-0.236-0.126-0.473-0.127-0.71-0.003c-0.995-0.053-1.99-0.152-2.985-0.152c-73.911,0.001-147.823,0.009-221.734,0.027
	c-1.118,0-2.234,0.133-3.352,0.203c-0.199-0.138-0.394-0.133-0.585,0.016c-7.797-0.438-15.595-0.277-23.393-0.049
	c-0.211-0.125-0.423-0.125-0.634,0c-1.789,0.006-3.578,0.011-5.367,0.016c-0.211-0.125-0.419-0.121-0.625,0.013
	c-1.544,0.001-3.088,0.002-4.632,0.003c-0.201-0.135-0.407-0.141-0.617-0.019C187.319,151.26,185.822,151.138,184.325,151.015z"/>
<path fill-rule="evenodd" clip-rule="evenodd" fill="#E9A677" d="M484.205,277.145c-0.027,2.568,0.379,5.046,1.542,7.367
	c0.772,4.664,1.689,9.31,2.288,13.997c1.318,10.326,0.599,20.713,0.608,31.07c0.058,62.982,0.012,125.963,0.038,188.945
	c0.004,7.292-2.044,13.739-6.959,19.232c-3.006,3.361-7.066,5.008-10.904,7.035c-2.008,0.265-4.015,0.528-6.021,0.792
	c-0.805-0.079-1.61-0.159-2.414-0.237c-1.098-3.574,0.183-7.12,0.18-10.689c-0.088-77.09,0.07-154.18-0.188-231.269
	c-0.046-13.881,1.162-27.63,2.607-41.333c1.584-15.032,1.178-30.258,4.379-45.123c0.926,0.919,1.037,2.162,1.395,3.33
	c1.649,5.393,2.08,11.112,4.396,16.322c0,0-0.08,0.083-0.078,0.081c0.173,5.388,1.912,10.468,3.226,15.61
	C480.408,260.534,481.412,269.053,484.205,277.145z"/>
<path fill-rule="evenodd" clip-rule="evenodd" fill="#3F4757" d="M475.152,236.584c-2.316-5.21-2.747-10.93-4.396-16.322
	c-0.357-1.168-0.469-2.41-1.395-3.33c-0.809-7.642-2.919-15.007-4.763-22.429c-0.944-4.321-2.205-8.604-2.737-12.976
	c-0.44-3.632-1.858-4.492-5.46-4.481c-51.235,0.153-102.472,0.109-153.708,0.139c-31.488,0.018-62.978,0.08-94.466,0.123
	c-0.255-0.084-0.509-0.169-0.763-0.253c-0.229-0.32-0.458-0.31-0.686,0.002c-1.524,0-3.048,0-4.572,0
	c-0.475-0.599-0.948-0.589-1.421,0.002c-4.023,0.011-8.046,0.021-12.069,0.032c-1.065-0.714-2.647-0.99-2.167-2.917
	c0.51-2.048,2.132-1.328,3.356-1.377c2.614-0.104,5.238,0.031,7.852-0.085c1.226-0.055,2.757-0.349,2.796-1.891
	c0.041-1.636-1.429-1.906-2.728-1.779c-3.709,0.364-7.644-1.156-11.086,1.837c-0.962,0.836-3.117,0.368-4.726,0.374
	c-2.205,0.009-3.353,0.883-2.838,3.204c0.655,2.954-0.325,4.052-3.331,3.152c-0.818-0.245-1.712-0.328-2.571-0.325
	c-6.971,0.023-7.581-1.027-4.446-7.722c0.095-0.203,0.04-0.475,0.059-0.771c-1.135-0.991-3.445,0.035-3.906-1.57
	c-0.743-2.583-2.213-4.771-3.153-7.211c-0.348-0.905-0.045-2.093,1.339-2.179c1.47-0.091,3.518-0.398,3.618,1.585
	c0.153,3.05,1.934,2.973,4.036,2.855c1.632-0.092,3.205,0.046,4.708,0.851c2.769,1.481,4.008,0.097,4.167-2.562
	c0.111-1.869,0.496-3.691,0.659-5.519c0.203-2.276,1.284-2.705,3.15-2.532c88.467,0.003,176.934,0.007,265.399-0.011
	c1.319,0,2.782,0.463,3.897-0.736c0.216-0.146,0.432-0.291,0.647-0.436c4.566-0.537,9.189,0.178,13.766-0.98
	c2.104-0.533,3.675-2.024,5.766-2.37c-0.938,3.668-4.49,4.458-6.992,4.313c-5.547-0.321-10.605,2.257-16.104,1.825
	c-2.595-0.204-4.625,2.389-7.397,2.32c-0.711-0.018-0.96,0.725-0.78,1.408c0.211,0.806,0.822,1.226,1.617,1.344
	c1.962,0.292,3.92,0.643,5.893,0.805c1.379,0.114,2.2,0.55,2.83,1.921c2.523,5.49,1.982,6.719-4.144,6.268
	c-8.64-0.637-16.998,2.591-25.585,1.546c-6.835-0.831-13.674-0.686-20.519-0.688c-1.286,0-3.314-0.471-3.364,1.349
	c-0.063,2.183,2.109,1.63,3.469,1.6c5.122-0.113,10.167,0.338,15.18,1.427c3.492,0.759,6.924-0.448,10.38-0.736
	c9.177-0.767,18.333-1.697,27.423,0.686c0.355,0.094,0.805,0.212,1.104,0.079c3.475-1.547,5.021-0.222,6.157,3.255
	c1.016,3.112,2.889,5.967,2.577,9.405c-0.182,2.011,1.231,3.422,1.76,5.156c2.204,7.237,3.829,14.534,4.277,22.09
	c0.029,0.491-0.032,1.198,0.254,1.432c3.647,2.983,2.793,7.767,4.396,11.569C476.623,229.213,475.332,233.133,475.152,236.584z
	 M228.477,169.06c-1.973-0.152-3.85,0.098-4.034,2.037c-0.136,1.435,1.633,1.6,2.863,1.638c2.008,0.063,3.626-1.119,3.734-2.887
	C231.125,168.464,229.221,169.278,228.477,169.06z M210.152,172.8c1.37-0.193,3.472,0.446,3.542-1.167
	c0.082-1.909-2.04-1.025-3.16-1.045c-1.193-0.021-3.294-0.821-3.421,0.933C206.96,173.614,209.169,172.332,210.152,172.8z"/>
<path fill-rule="evenodd" clip-rule="evenodd" fill="#4B454C" d="M470.818,544.791c3.838-2.027,7.898-3.674,10.904-7.035
	c4.915-5.493,6.963-11.94,6.959-19.232c-0.026-62.982,0.02-125.963-0.038-188.945c-0.01-10.357,0.71-20.745-0.608-31.07
	c-0.599-4.687-1.516-9.333-2.288-13.997c0.821,0.111,1.396,0.478,1.465,1.389c0.346,4.498,1.278,8.798,3.792,12.673
	c0.82,1.263,0.759,2.848,0.758,4.366c-0.016,72.561-0.012,145.12-0.029,217.681c-0.001,1.63,0.639,3.664-2.007,4.078
	c-0.735,0.114-0.954,0.834-0.905,1.454c0.41,5.101-3.627,8.467-5.106,12.852c-0.562,1.665-2.313,3.482-4.856,3.562
	c-2.541,0.08-4.295,2.221-6.621,2.954C471.939,544.934,471.395,544.831,470.818,544.791z"/>
<path fill-rule="evenodd" clip-rule="evenodd" fill="#4B454C" d="M452.804,151.763c-1.115,1.199-2.578,0.736-3.897,0.736
	c-88.466,0.018-176.933,0.014-265.399,0.011c0.001-0.392,0.001-0.783,0.002-1.175c0.271-0.106,0.543-0.213,0.815-0.319
	c1.498,0.122,2.995,0.244,4.492,0.366l0.303,0.192l0.314-0.173c1.544-0.001,3.088-0.002,4.632-0.003
	c0.001,0,0.316,0.176,0.316,0.176l0.309-0.189c1.789-0.005,3.578-0.01,5.367-0.016c0.211,0,0.423,0,0.634,0
	c7.798-0.228,15.596-0.389,23.392,0.049c0,0,0.297,0.155,0.297,0.155l0.289-0.171c1.117-0.07,2.234-0.203,3.352-0.203
	c73.912-0.018,147.823-0.026,221.734-0.027c0.995,0,1.99,0.099,2.985,0.152C452.75,151.471,452.771,151.618,452.804,151.763z"/>
<path fill-rule="evenodd" clip-rule="evenodd" fill="#393F44" d="M470.818,544.791c0.576,0.04,1.121,0.143,1.418,0.729
	c-3.674,1.406-7.489,1.533-11.381,1.531c-91.272-0.037-182.544-0.024-273.816-0.049c-1.44,0-3.018,0.521-4.301-0.655
	c7.743-0.031,15.486-0.089,23.229-0.091c83.317-0.012,166.636-0.008,249.952-0.053c2.957-0.002,5.985,0.516,8.877-0.62
	C466.804,545.319,468.811,545.056,470.818,544.791z"/>
<path fill-rule="evenodd" clip-rule="evenodd" fill="#A6A09D" d="M464.797,545.583c-2.892,1.136-5.92,0.618-8.877,0.62
	c-83.316,0.045-166.635,0.041-249.952,0.053c-7.743,0.002-15.486,0.06-23.229,0.091c-0.096-0.164-0.102-0.331-0.02-0.503
	c-0.105-0.146-0.108-0.294-0.009-0.443c0.5-0.004,1.001-0.009,1.502-0.013c1.746,0.043,3.491,0.124,5.236,0.124
	c60.792,0.008,121.583,0.018,182.375,0.008c18.974-0.003,37.946-0.06,56.919-0.091c1.757-0.002,3.513-0.003,5.27-0.005
	c8.238-0.013,16.479-0.026,24.718-0.04c1.217-0.013,2.435-0.026,3.652-0.04C463.187,545.424,463.992,545.504,464.797,545.583z"/>
<path fill-rule="evenodd" clip-rule="evenodd" fill="#3F4757" d="M484.205,277.145c-2.793-8.092-3.797-16.61-5.905-24.869
	c-1.313-5.143-3.053-10.223-3.226-15.61c2.055,2.852,4.228,5.629,6.086,8.604c0.477,0.764,0.271,2.173-0.549,3.161
	c-1.287,1.551-0.968,3.023-0.037,4.766c1.475,2.757,1.133,6.039,1.631,9.026C483.023,267.141,485.058,271.986,484.205,277.145z"/>
<path fill-rule="evenodd" clip-rule="evenodd" fill="#393F44" d="M157.462,471.292c0.516,13.761,0.179,27.521-0.057,41.28
	c-1.178-0.744-0.901-1.944-0.902-3.023c-0.013-11.776-0.016-23.554,0.011-35.33C156.517,473.178,156.06,471.912,157.462,471.292z"/>
<path fill-rule="evenodd" clip-rule="evenodd" fill="#393F44" d="M157.661,301.079c0.015,12.857,0.036,25.714,0.033,38.572
	c0,1.364-0.146,2.729-0.225,4.093c-1.408-0.619-0.95-1.89-0.953-2.932c-0.026-12.178-0.029-24.355-0.002-36.532
	C156.516,303.119,156.058,301.703,157.661,301.079z"/>
<path fill-rule="evenodd" clip-rule="evenodd" fill="#3F4757" d="M173.517,156.238c-1.232-0.361-4.135,0.952-3.944-1.875
	c0.139-2.035,2.451-2.799,4.664-1.894c0.109,0.045,0.256-0.004,0.367,0.038c1.4,0.525,4.173-1.197,4.059,1.508
	C178.56,156.492,175.904,156.326,173.517,156.238z"/>
<path fill-rule="evenodd" clip-rule="evenodd" fill="#393F44" d="M157.455,387.293c0.387,3.482,0.383,6.966,0.002,10.45
	C155.872,394.26,155.876,390.776,157.455,387.293z"/>
<path fill-rule="evenodd" clip-rule="evenodd" fill="#EDD0B2" d="M200.623,99.504c-2.429,0.735-4.853,0.858-7.267-0.058
	C195.782,99.197,198.204,99.132,200.623,99.504z"/>
<path fill-rule="evenodd" clip-rule="evenodd" fill="#393F44" d="M157.442,519.967c0.028,0.291,0.057,0.584,0.086,0.875
	C156.941,520.605,156.706,520.334,157.442,519.967z"/>
<path fill-rule="evenodd" clip-rule="evenodd" fill="#F6EBD3" d="M184.986,295.762c0.066-5.385,1.519-10.489,2.811-15.677
	c2.093-8.404,3.481-16.982,5.457-25.419c2.514-10.73,5.008-21.521,6.927-32.309c1.499-8.419,5.271-16.369,5.162-25.079
	c-0.005-0.414,0.45-0.833,0.691-1.251c1.718,4.929,1.718,4.929,5.232,1.498c70.739-1.734,141.49-0.26,212.233-0.756
	c1.75,0.004,3.498,0.009,5.247,0.014c3.424,0.787,6.028,3.696,9.733,3.758l-0.004-0.003c0.082,1.508,1.08,2.321,2.269,2.991
	c0.013,2.003,2.054,2.91,2.413,4.925c0.955,5.353,0.727,10.661,0.215,15.991c-0.748,7.774-2.104,15.473-2.674,23.277
	c-0.596,8.163-1.606,16.296-2.441,24.441c-0.91,8.882-2.207,17.745-2.623,26.651c-0.346,7.41-2.074,14.635-2.252,22.032
	c-0.212-0.129-0.469-0.217-0.633-0.39c-16.342-17.31-32.664-34.637-49.019-51.933c-4.788-5.063-9.565-10.151-15.362-14.123
	c-2.466-2.235-5.221-4.038-8.212-5.487l-0.137-0.025c-15.97-9.204-33.167-11.628-51.229-9.284
	c-16.591,2.079-31.202,8.559-43.181,20.272c-19.889,19.448-38.475,40.151-57.464,60.462c-6.637,7.098-4.247,17.507,4.682,22.197
	c-0.175,1.479-0.19,2.999-0.551,4.433c-2.934,11.672,6.989,21.438,16.886,21c23.276-1.032,46.596,0.316,69.905-0.134
	c16.11-0.312,32.233-0.106,48.349-0.029c2.934,0.015,4.046-0.806,2.704-3.697c-1.205-2.601-2.516-5.162-3.55-7.83
	c-3.964-10.222-7.485-20.67-13.934-29.689c-4.324-6.047-9.891-10.84-17.787-10.432c-7.258,0.375-11.282-3.088-13.942-9.155
	c-1.225-2.795,0.002-8.917,2.03-11.137c8.222-8.997,16.833-7.215,26.193-4.356c3.446,1.053,5.512,4.063,8.844,5.036
	c2.688,3.98,6.119,7.081,10.587,8.96c3.891,4.368,6.134,9.82,9.537,14.509c6.05,8.333,11.018,17.371,16.389,26.118
	c5.656,9.209,11.01,18.779,13.818,29.396c1.298,4.909,4.525,9.214,4.457,14.527c-1.495,0.057-2.989,0.154-4.484,0.165
	c-11.239,0.087-22.479,0.158-33.721,0.233c-8.413,1.964-12.318,9.452-8.908,17.081c-0.033,0.239-0.037,0.479-0.014,0.72
	c-0.184,0.162-0.553,0.406-0.522,0.474c1.094,2.465,2.187,6.995,3.355,7.016c6.173,0.11,12.191,3.582,18.101,1.968
	c4.602-1.258,9.016-1,13.521-1.18c4.219-0.168,8.449-0.029,12.675-0.025c-0.006,30.66,0.001,61.32-0.062,91.981
	c-0.003,1.411,0.958,3.397-1.423,4.074c-0.899-1.335-1.96-2.62-1.443-4.413c0.304-1.053,0.966-2.224-0.532-2.867
	c-1.492-0.641-2.975,0.621-2.984,1.443c-0.034,2.879,0.448,5.757-1.651,8.193c1.455,1.249,1.49,3.673,3.616,4.365
	c-0.804,3.139-3.795,3.745-6.038,5.219c0.146-3.324-2.409-5.965-2.356-9.276c0.005-0.268-0.339-0.669-0.614-0.784
	c-0.565-0.235-1.019,0.206-1.169,0.643c-0.238,0.691-0.277,1.452-0.396,2.185c-0.178,1.11-0.728,1.927-1.937,1.854
	c-1.2-0.07-1.577-0.963-1.769-2.057c-0.407-2.32,0.812-3.873,2.456-5.101c3.523-2.634,4.602-5.998,4.384-10.383
	c-0.36-7.232-0.055-14.495-0.123-21.744c-0.022-2.318,0.382-4.01,2.901-4.983c2.896-1.119,1.268-3.914,1.589-5.965
	c0.221-1.403,0.068-2.641-1.888-2.987c-2.303-0.409-2.615-2.288-2.596-4.331c0.053-5.624-0.016-11.25,0.032-16.874
	c0.021-2.509-0.839-4.183-3.595-4.158c-2.006,0.019-3.275-0.751-3.961-2.698c-0.752-2.132-2.044-2.415-2.84-0.145
	c-0.911,2.603-2.727,2.872-5.006,2.842c-3.718-0.048-7.238,0.381-10.939,1.582c-4.494,1.458-10.04,2.132-14.193-0.407
	c-4.282-2.618-8.293-1.769-12.534-1.623c-1.233,0.042-2.462,0.27-3.69,0.428c-2.352,0.303-3.27-0.538-3.337-3.082
	c-0.107-4.011-3.236-8.69-6.5-8.554c-6.376,0.27-13.049-2.976-19.147,1.234c-1.148,0.793-2.106,0.178-3.145-0.262
	c-4.812-2.036-9.59-2.029-14.439,0.035c-2.851,1.213-6.346,2.997-8.892,1.059c-3.299-2.512-6.641-2.423-10.229-2.438
	c-1.109-0.004-2.587,0.295-3.068-0.874c-2.142-5.205-5.071-3.981-8.332-1.248c-0.36,0.302-0.908,0.393-1.378,0.553
	c-7.28,2.483-14.696,1.796-22.132,1.007c-3.243-0.344-6.406,0.434-9.526,1.186c-2.495,0.603-1.487,3.145-2.326,4.682
	c-0.235,0.433-0.471,1.05-0.852,1.19c-2.795,1.034-2.503,3.337-2.465,5.596c0.046,2.624-0.03,5.25,0.023,7.874
	c0.039,1.863-0.343,3.963-1.91,4.623c-3.84,1.621-3.428,4.651-3.367,7.768c0.067,3.498,0.085,7.002-0.014,10.498
	c-0.047,1.689,0.397,2.828,2.027,3.564c3.493,1.576,3.191,6.767,7.342,7.883c0.333,0.089,0.29,1.604,0.409,2.457
	c0.893,6.46-3.441,10.858-6.277,15.842c-0.17,0.302-0.541,0.533-0.869,0.694c-3.589,1.755-4.74,4.908-4.827,8.587
	c-0.046,1.904-0.163,3.539-2.621,3.69c-0.948,0.059-1.641,0.614-1.769,1.631c-0.105,0.848,0.316,1.493,1.071,1.778
	c1.321,0.499,3.25,0.244,3.201,2.41c-0.057,2.445-2.347,1.172-3.445,1.916c-0.205,0.139-0.451,0.216-0.673,0.328
	c-0.665,0.339-1.505,0.678-1.386,1.539c0.137,0.997,1.108,0.794,1.815,0.818c1.499,0.053,2.96-0.336,4.422-0.493
	c2.683-0.287,5.751-1.2,7.609,1.99c-6.75,0.002-13.5,0.005-20.25,0.007c0.227-0.418,0.434-1.19,0.685-1.204
	c3.875-0.217,2.48-1.779,1.693-4.242c-0.929-2.905-1.765-6.413,1.174-9.16c1.563-1.462,1.026-2.626-0.822-3.35
	c-2.323-0.911-4.511-1.631-4.289,2.31c0.061,1.08-0.539,2.012-1.781,1.959c-1.238-0.052-1.137-1.129-1.145-1.979
	c-0.024-2.622-0.012-5.245,0.001-7.867c0.006-1.13,0.315-2.103,1.724-1.729c4.267,1.133,4.914-1.471,5.013-4.728
	c0.404-13.328-0.871-26.687,0.716-39.996c0.099-0.829,0.067-1.928-0.394-2.52c-1.577-2.026-1.374-4.398-0.963-6.479
	c0.656-3.312,0.021-6.334-0.666-9.488c-0.412-1.891,0.143-4.059-3.106-3.484c-0.927,0.165-2.196-0.808-2.246-2.133
	c-0.092-2.491-0.082-4.992,0.004-7.484c0.04-1.139,0.824-1.78,1.985-1.834c1.371-0.063,1.658,0.838,1.656,1.952
	c-0.002,1.618,0.371,3.097,1.613,4.685c1.112-2.072,1.555-3.701,0.871-5.843c-1.223-3.83-1.407-7.763-0.322-11.766
	c1.421-5.244,0.914-10.659,0.74-15.996c-0.058-1.778,0.009-4.649-3.637-3.313c-1.972,0.723-2.854-0.592-3.025-2.626
	c-0.596-7.076,0.104-9.922,2.736-9.495c2.869,0.466,2.523-1.05,2.527-2.689c0.005-1.657,0.313-3.227-2.543-2.651
	c-2.215,0.445-2.697-1.625-2.694-3.531c0.001-1.565,0.603-3.154,2.263-2.672c4.928,1.431,4.43-2.078,4.421-4.754
	c-0.013-3.966-0.34-7.939-0.729-11.891c-0.197-2.017,1.304-3.813,0.476-5.868c-1.224-3.035-1.327-5.937,0.729-8.808
	c0.778-1.086,0.708-2.8-0.132-3.931c-1.175-1.581-1.025-3.276-1.028-5.005c-0.01-5.371,0.003-10.741-0.009-16.111
	c-0.002-1.108,0.321-2.492-0.721-3.156c-3.144-2.005-2.24-4.759-1.354-7.31C189.333,298.475,188.844,296.316,184.986,295.762z
	 M266.345,410.502c-2.77-0.012-3.198,1.355-2.536,3.497c0.739-1.019,1.479-2.038,2.192-3.481l0.308-0.17l-0.138-0.139
	C266.17,410.209,266,410.518,266.345,410.502z M261.155,392.625c-2.461-1.161-4.806-2.519-7.713-2.472
	c-6.729,0.11-13.461-0.019-20.19,0.079c-7.182,0.104-12.31,5.203-12.412,12.162c-0.102,6.982,4.837,11.893,12.374,12.059
	c5.855,0.13,11.727-0.209,17.571,0.072c6.568,0.315,11.311-2.187,14.376-7.96c0.25,0.747,0.94,2.197,1.31,0.677
	c0.466-1.917,1.348-3.695,1.698-5.59C269.21,396.002,266.572,392.154,261.155,392.625z M304.914,414.393c0-0.025,0-0.053,0-0.079
	c3.746,0,7.507,0.206,11.235-0.048c5.805-0.396,10.548-5.767,10.601-11.633c0.058-6.348-4.324-12.032-10.186-12.289
	c-7.603-0.333-15.253-0.384-22.847,0.059c-6.554,0.38-10.638,5.858-10.398,12.806c0.207,6.003,4.964,10.872,11.105,11.155
	C297.914,414.525,301.417,414.393,304.914,414.393z M235.101,212.507c-6.215,0.01-8.862,2.512-8.845,8.359
	c0.016,5.521,3.565,8.866,9.164,8.935c4.227,0.052,8.977-3.763,8.856-8.451C244.138,215.943,240.681,212.498,235.101,212.507z
	 M388.123,446.548c0,1.689,0.259,3.482-0.045,5.175c-1.227,6.83-0.886,13.738-0.38,20.524c0.688,9.228,0.696,18.397,0.11,27.597
	c-0.059,0.922-0.381,1.797,0.838,2.047c1.098,0.226,2.098-0.152,2.366-1.285c0.254-1.072,0.26-2.227,0.225-3.34
	c-0.402-12.533,1.172-25.145-1.479-37.592c-0.73-3.429,1.062-6.515,1.437-9.782c0.486-4.224-0.071-8.411-1.433-12.47
	c-0.284-0.85,0.501-2.404-0.904-2.437c-1.498-0.034-1.372,1.521-1.337,2.604C387.621,440.566,388.76,443.461,388.123,446.548z
	 M271.678,413.406c2.569-1.986,4.614-3.742,4.078-6.978c-0.152-0.922-0.256-1.745-1.409-1.823c-0.966-0.066-2.026,0.297-2.045,1.203
	C272.25,408.229,270.734,410.523,271.678,413.406z M306.6,421.759c-1.541,0.069-3.225,0.127-3.372,1.463
	c-0.192,1.733,1.564,1.46,2.756,1.542c0.248,0.018,0.507,0.051,0.747,0.004c1.858-0.358,5.038,2.414,5.322-0.465
	C312.345,421.324,308.092,423.199,306.6,421.759z"/>
<path fill-rule="evenodd" clip-rule="evenodd" fill="#EECEAF" d="M428.747,196.783c-1.749-0.004-3.497-0.01-5.247-0.014
	c-0.204-2.322-1.898-2.317-3.578-2.245c-5.345,0.23-10.703,0.859-16.023,0.611c-3.416-0.159-6.896,0.729-10.285-0.461
	c-1.375-0.482-2.236-1.34-2.155-2.678c0.103-1.704,1.632-1.131,2.646-1.212c1.608-0.128,3.413,0.258,4.486-2.176
	c-2.614-0.011-4.632-0.237-6.843,0.963c-4.264,2.313-8.689,4.519-13.875,3.501c-0.554-0.109-1.209,0.224-1.805,0.398
	c-3.926,1.149-7.897,0.357-11.813,0.056c-1.458-0.112-4.15-0.152-3.352-3.252c0.203-0.789-0.688-1.123-1.252-0.955
	c-4.54,1.355-10.1-3.06-13.947,2.439c-0.168,0.24-1.133-0.108-1.729-0.128c-1.121-0.038-2.245-0.008-3.365-0.061
	c-1.002-0.047-2.421,1.535-2.877-0.031c-0.409-1.4,1.248-2.667,2.469-2.779c3.556-0.325,6.777-1.876,10.504-1.854
	c31.248,0.194,62.498,0.082,93.747,0.155c3.152,0.008,6.634-1.808,9.447,1.319c0.368,0.409,1.484,0.306,2.074-0.279
	c0.174-0.172,0.115-0.939,0.025-0.967c-2.917-0.868-3.192-5.201-7.505-4.77c-8.509,0.852-17.1,0.392-25.67,0.337
	c-55.879-0.36-111.763-0.009-167.642-0.316c-13.066-0.072-26.12,1.86-39.187,0.159c-1.632-0.212-3.318-0.249-3.262,2.317
	c0.05,2.324,1.556,2.155,3.083,2.155c8.625-0.001,17.25,0,25.875,0c9.5,0,19-0.028,28.5,0.036c1.17,0.008,3.414-0.719,3.056,1.471
	c-0.536,3.284,1.662,2.703,3.367,2.984c2.031,0.334,4.276-0.644,6.133,1.215c-5.75-1.154-11.251,2.904-17.09,0.443
	c-1.148-0.485-3.093-0.528-3.995,0.138c-2.19,1.619-4.513,1.056-6.815,1.215c-4.936,0.34-9.827-0.952-14.821-0.093
	c-3.267,0.562-6.258-1.714-9.771-1.56c-4.85,0.211-9.679,0.646-14.522,0.882c-0.854,0.042-1.996,0.088-1.993-1.109
	c0.004-1.195,1.144-1.061,2-1.117c2.444-0.161,5.113,0.557,7.199-1.57c-4.267-2.35-9.591,0.221-13.185-3.686
	c-0.67-3.237,0.573-5.475,3.69-6.439c1.267-0.392,2.706-0.3,4.065-0.3c79.154-0.013,158.308-0.011,237.46-0.01
	c0.999,0,1.998-0.001,2.996,0.025c0.947,0.025,1.959,0.41,2.041,1.318c0.285,3.129,2.614,5.81,1.465,9.352
	c-0.606,1.869,0.014,4.373,3.128,4.291c1.844,7.422,3.954,14.787,4.763,22.429c-3.201,14.865-2.795,30.092-4.379,45.124
	c-1.445,13.702-2.653,27.452-2.607,41.333c0.258,77.089,0.1,154.179,0.188,231.269c0.003,3.569-1.277,7.115-0.18,10.689
	c-1.219,0.012-2.437,0.025-3.653,0.039c-0.206-1.359-1.226-1.365-2.259-1.364c-6.743,0.003-13.485,0.005-20.229-0.001
	c-1.05,0-2.04,0.057-2.23,1.404c-1.757,0.002-3.513,0.003-5.27,0.006c-0.854-2.485-2.963-1.359-4.471-1.36
	c-80.01-0.059-160.019-0.052-240.028-0.052c-0.03-0.907-0.47-1.454-1.39-1.578c0.004-4.697,0.008-9.396,0.01-14.094
	c1.399-0.211,1.376-1.279,1.396-2.32c1.497-0.006,2.994-0.012,4.491-0.018c6.75-0.002,13.5-0.005,20.25-0.007c0.75,0,1.5,0,2.25,0
	c2.5,0.005,5,0.008,7.5,0.012c2,0.001,4,0.003,6,0.005c12,0.002,24,0.003,36,0.006c36.833-0.001,73.665-0.024,110.497,0.032
	c3.774,0.006,7.453-0.189,11.002-1.554c2.243-1.474,5.234-2.08,6.038-5.219c2.223-1.695,3.268-3.915,2.995-6.722
	c2.381-0.677,1.42-2.663,1.423-4.074c0.063-30.661,0.056-61.321,0.061-91.981c1.877-1.459,4.061-0.384,6.066-0.739
	c1.976-0.351,4.208,0.911,5.941-0.942c4.885-0.555,9.684-1.261,11.974-6.555c4.368-7.54,0.278-16.354-8.287-17.857
	c-5.231-0.119-10.464-0.238-15.695-0.357c0.067-5.313-3.16-9.618-4.458-14.527c-2.809-10.617-8.162-20.188-13.818-29.396
	c-5.371-8.747-10.339-17.784-16.389-26.118c-3.403-4.689-5.646-10.141-9.538-14.509c-1.119-3.406-3.34-6.269-4.687-9.597
	c-0.774-1.913-1.316-4.356-3.604-5.419c-1.541-4.549-4.475-8.481-6.023-12.973c-1.381-4.009-4.456-7.387-4.428-11.899
	c3.033,0.067,5.887,0.984,8.726,1.904c10.493,3.399,18.018,10.783,25.334,18.594c16.805,17.94,33.722,35.776,50.738,53.515
	c5.12,5.339,13.834,4.566,18.46-1.168c4.239-5.256,3.752-10.791,1.03-16.474c0.7-0.724,0.632-1.178-0.446-1.281l-0.28,0.141
	c0.179-7.398,1.907-14.623,2.253-22.033c0.416-8.906,1.713-17.769,2.623-26.651c0.835-8.145,1.846-16.278,2.441-24.441
	c0.569-7.805,1.926-15.503,2.674-23.277c0.512-5.33,0.74-10.638-0.215-15.991c-0.359-2.015-2.4-2.921-2.413-4.925
	c0.059-1.614,0.157-3.26-2.269-2.99l0.004,0.003c-0.312-3.873-3.355-4.362-6.242-4.981
	C430.878,195.269,429.256,194.52,428.747,196.783z"/>
<path fill-rule="evenodd" clip-rule="evenodd" fill="#F7EDD5" d="M188.75,526.008c-1.497,0.006-2.994,0.012-4.491,0.017
	c-0.264-0.007-0.529-0.014-0.794-0.021c-0.445-1.813-0.734-3.622-0.733-5.521c0.033-69.182-0.057-138.364,0.188-207.545
	c0.021-5.667-0.511-11.688,2.065-17.176c3.858,0.555,4.348,2.713,3.185,6.06c-0.886,2.55-1.79,5.305,1.354,7.31
	c1.042,0.664,0.718,2.048,0.721,3.156c0.012,5.37,0,10.74,0.009,16.111c0.003,1.729-0.147,3.424,1.028,5.005
	c0.841,1.131,0.911,2.845,0.132,3.931c-2.056,2.871-1.952,5.772-0.729,8.808c0.828,2.055-0.673,3.852-0.476,5.868
	c0.389,3.951,0.716,7.925,0.729,11.891c0.009,2.676,0.507,6.185-4.421,4.754c-1.661-0.482-2.262,1.106-2.263,2.672
	c-0.003,1.906,0.479,3.977,2.694,3.531c2.856-0.575,2.549,0.994,2.543,2.651c-0.004,1.64,0.342,3.155-2.527,2.689
	c-2.632-0.427-3.333,2.419-2.736,9.495c0.171,2.034,1.053,3.349,3.025,2.626c3.646-1.337,3.58,1.534,3.637,3.313
	c0.174,5.337,0.681,10.752-0.74,15.996c-1.084,4.003-0.901,7.936,0.322,11.766c0.684,2.142,0.242,3.771-0.871,5.843
	c-1.242-1.588-1.615-3.066-1.613-4.685c0.002-1.114-0.285-2.015-1.656-1.952c-1.161,0.054-1.945,0.695-1.985,1.834
	c-0.086,2.492-0.097,4.993-0.004,7.484c0.049,1.325,1.318,2.298,2.246,2.133c3.249-0.574,2.694,1.594,3.106,3.484
	c0.688,3.154,1.322,6.177,0.666,9.488c-0.411,2.08-0.614,4.452,0.963,6.479c0.46,0.592,0.493,1.69,0.394,2.52
	c-1.587,13.31-0.312,26.668-0.716,39.996c-0.099,3.257-0.746,5.86-5.013,4.728c-1.409-0.374-1.718,0.599-1.724,1.729
	c-0.013,2.622-0.025,5.245-0.001,7.867c0.008,0.851-0.093,1.928,1.145,1.979c1.242,0.053,1.841-0.879,1.781-1.959
	c-0.222-3.94,1.966-3.221,4.289-2.31c1.849,0.724,2.385,1.888,0.822,3.35c-2.938,2.747-2.103,6.255-1.174,9.16
	c0.787,2.463,2.182,4.025-1.693,4.242C189.185,524.817,188.978,525.59,188.75,526.008z"/>
<path fill-rule="evenodd" clip-rule="evenodd" fill="#ECD3BC" d="M464.599,194.503c-3.114,0.082-3.734-2.422-3.128-4.291
	c1.149-3.542-1.18-6.223-1.465-9.352c-0.082-0.908-1.094-1.293-2.041-1.318c-0.998-0.026-1.997-0.025-2.996-0.025
	c-79.152,0-158.306-0.002-237.46,0.01c-1.36,0-2.799-0.092-4.065,0.3c-3.117,0.964-4.36,3.202-3.69,6.439
	c-0.952,2.722-1.75,5.409-1.592,8.415c0.124,2.332,0.982,3.078,3.105,2.844c-3.515,3.431-3.515,3.431-5.232-1.498
	c0.933-6.216,1.975-12.42,2.193-18.72c31.488-0.043,62.978-0.104,94.466-0.123c51.236-0.03,102.473,0.014,153.708-0.139
	c3.602-0.011,5.02,0.85,5.46,4.481C462.394,185.899,463.654,190.182,464.599,194.503z"/>
<path fill-rule="evenodd" clip-rule="evenodd" fill="#F6EBD3" d="M182.854,542.439c0.92,0.124,1.359,0.671,1.39,1.578
	c-0.01,0.457-0.021,0.913-0.031,1.37c-0.501,0.004-1.002,0.009-1.502,0.013C182.758,544.413,182.806,543.426,182.854,542.439z"/>
<path fill-rule="evenodd" clip-rule="evenodd" fill="#F6EBD3" d="M183.465,526.003c0.265,0.008,0.53,0.015,0.794,0.021
	c-0.021,1.042,0.002,2.11-1.396,2.321C182.746,527.484,182.613,526.617,183.465,526.003z"/>
<path fill-rule="evenodd" clip-rule="evenodd" fill="#40495B" d="M200.786,177.059c0.473-0.591,0.946-0.601,1.421-0.002
	C201.733,177.058,201.26,177.059,200.786,177.059z"/>
<path fill-rule="evenodd" clip-rule="evenodd" fill="#40495B" d="M206.779,177.057c0.228-0.312,0.456-0.322,0.686-0.002
	l-0.343,0.112L206.779,177.057z"/>
<path fill-rule="evenodd" clip-rule="evenodd" fill="#ECD3BC" d="M196.953,101.467c5.995,0.021,9.102,3.216,9.029,9.285
	c-0.055,4.582-4.561,8.747-9.43,8.718c-5.634-0.034-9.351-3.786-9.312-9.401C187.278,104.618,190.86,101.445,196.953,101.467z"/>
<path fill-rule="evenodd" clip-rule="evenodd" fill="#40495B" d="M452.804,151.763c-0.032-0.145-0.054-0.292-0.063-0.439
	c0.237-0.124,0.474-0.123,0.71,0.003C453.235,151.472,453.02,151.617,452.804,151.763z"/>
<path fill-rule="evenodd" clip-rule="evenodd" fill="#40495B" d="M224.67,151.401l-0.289,0.171c0,0-0.297-0.156-0.297-0.155
	C224.276,151.269,224.471,151.263,224.67,151.401z"/>
<path fill-rule="evenodd" clip-rule="evenodd" fill="#40495B" d="M194.69,151.384l-0.309,0.189c0,0-0.315-0.176-0.316-0.176
	C194.271,151.264,194.479,151.259,194.69,151.384z"/>
<path fill-rule="evenodd" clip-rule="evenodd" fill="#40495B" d="M200.692,151.368c-0.211,0-0.423,0-0.634,0
	C200.269,151.243,200.48,151.243,200.692,151.368z"/>
<path fill-rule="evenodd" clip-rule="evenodd" fill="#40495B" d="M189.434,151.4l-0.314,0.173l-0.303-0.192
	C189.026,151.26,189.232,151.266,189.434,151.4z"/>
<path fill-rule="evenodd" clip-rule="evenodd" fill="#40495B" d="M228.477,169.06c0.744,0.218,2.648-0.596,2.563,0.788
	c-0.108,1.768-1.726,2.949-3.734,2.887c-1.23-0.039-2.999-0.204-2.863-1.638C224.627,169.158,226.504,168.908,228.477,169.06z"/>
<path fill-rule="evenodd" clip-rule="evenodd" fill="#40495B" d="M210.152,172.8c-0.983-0.468-3.192,0.814-3.039-1.28
	c0.127-1.754,2.228-0.954,3.421-0.933c1.12,0.02,3.242-0.863,3.16,1.045C213.624,173.246,211.522,172.606,210.152,172.8z"/>
<path fill-rule="evenodd" clip-rule="evenodd" fill="#ECD3BC" d="M184.212,545.388c0.011-0.457,0.021-0.913,0.031-1.37
	c80.01,0,160.019-0.007,240.028,0.052c1.508,0.001,3.617-1.125,4.471,1.36c-18.973,0.03-37.945,0.087-56.919,0.09
	c-60.792,0.01-121.583,0-182.375-0.008C187.703,545.512,185.958,545.431,184.212,545.388z"/>
<path fill-rule="evenodd" clip-rule="evenodd" fill="#ECD3BC" d="M434.012,545.424c0.19-1.348,1.181-1.404,2.23-1.404
	c6.743,0.006,13.485,0.004,20.229,0.001c1.033-0.001,2.053,0.005,2.259,1.364C450.49,545.397,442.25,545.411,434.012,545.424z"/>
<path fill-rule="evenodd" clip-rule="evenodd" fill="#F7EDD5" d="M382.249,524.502c-3.549,1.364-7.228,1.56-11.002,1.554
	c-36.832-0.057-73.665-0.033-110.497-0.032c-0.131-1.754-1.232-2.28-2.808-2.256c-1.493,0.021-2.999-0.121-4.477,0.029
	c-2.109,0.213-3.272-0.48-3.491-2.702c-0.267-2.72-2.249-3.663-4.606-4.002c-4.365-0.627-9.081-0.29-12.813,1.152
	c-2.941,1.138-4.966,5.322-7.805,7.772c-2-0.002-4-0.004-6-0.005c-2.01-2.138-5.466-2.144-7.5-0.012c-0.75,0-1.5,0-2.25,0
	c-1.857-3.19-4.926-2.277-7.609-1.99c-1.462,0.157-2.923,0.546-4.422,0.493c-0.707-0.024-1.678,0.179-1.815-0.818
	c-0.119-0.861,0.721-1.2,1.386-1.539c0.223-0.112,0.468-0.189,0.673-0.328c1.098-0.744,3.388,0.529,3.445-1.916
	c0.049-2.166-1.88-1.911-3.201-2.41c-0.755-0.285-1.177-0.931-1.071-1.778c0.127-1.017,0.82-1.572,1.769-1.631
	c2.458-0.151,2.575-1.786,2.621-3.69c0.087-3.679,1.238-6.832,4.827-8.587c0.328-0.161,0.698-0.393,0.869-0.694
	c2.836-4.983,7.169-9.382,6.277-15.842c-0.119-0.854-0.076-2.368-0.409-2.457c-4.151-1.116-3.849-6.307-7.342-7.883
	c-1.63-0.736-2.074-1.875-2.027-3.564c0.099-3.496,0.082-7,0.014-10.498c-0.061-3.116-0.473-6.146,3.367-7.768
	c1.567-0.66,1.949-2.76,1.91-4.623c-0.054-2.624,0.023-5.25-0.023-7.874c-0.039-2.259-0.33-4.562,2.465-5.596
	c0.381-0.141,0.616-0.758,0.852-1.19c0.839-1.537-0.169-4.079,2.326-4.682c3.12-0.752,6.283-1.529,9.526-1.186
	c7.436,0.789,14.852,1.477,22.132-1.007c0.47-0.16,1.018-0.251,1.378-0.553c3.261-2.733,6.189-3.957,8.332,1.248
	c0.481,1.169,1.958,0.87,3.068,0.874c3.589,0.015,6.931-0.074,10.229,2.438c2.546,1.938,6.041,0.154,8.892-1.059
	c4.85-2.064,9.628-2.071,14.439-0.035c1.039,0.439,1.997,1.055,3.145,0.262c6.098-4.21,12.771-0.965,19.147-1.234
	c3.264-0.137,6.393,4.543,6.5,8.554c0.068,2.544,0.986,3.385,3.337,3.082c1.229-0.158,2.457-0.386,3.69-0.428
	c4.241-0.146,8.252-0.995,12.534,1.623c4.153,2.539,9.699,1.865,14.193,0.407c3.701-1.201,7.222-1.63,10.939-1.582
	c2.279,0.03,4.095-0.239,5.006-2.842c0.796-2.271,2.088-1.987,2.84,0.145c0.686,1.947,1.955,2.717,3.961,2.698
	c2.756-0.024,3.615,1.649,3.595,4.158c-0.048,5.624,0.021,11.25-0.032,16.874c-0.02,2.043,0.293,3.922,2.596,4.331
	c1.956,0.347,2.108,1.584,1.888,2.987c-0.321,2.051,1.308,4.846-1.589,5.965c-2.52,0.974-2.924,2.665-2.901,4.983
	c0.068,7.249-0.237,14.512,0.123,21.744c0.218,4.385-0.86,7.749-4.384,10.383c-1.645,1.228-2.863,2.78-2.456,5.101
	c0.191,1.094,0.568,1.986,1.769,2.057c1.209,0.072,1.759-0.744,1.937-1.854c0.118-0.732,0.157-1.493,0.396-2.185
	c0.15-0.437,0.604-0.878,1.169-0.643c0.275,0.115,0.619,0.517,0.614,0.784C379.84,518.537,382.396,521.178,382.249,524.502z"/>
<path fill-rule="evenodd" clip-rule="evenodd" fill="#FBFCFB" d="M329.82,265.615c-0.028,4.513,3.047,7.891,4.428,11.899
	c1.549,4.492,4.482,8.424,6.023,12.974c0.049,0.727-0.174,1.659,0.193,2.147c2.738,3.646,0.528,4.007-2.489,3.908
	c-3.332-0.973-5.397-3.983-8.844-5.036c-9.36-2.858-17.972-4.641-26.193,4.356c-2.028,2.22-3.255,8.342-2.03,11.137
	c2.66,6.067,6.685,9.53,13.942,9.155c7.896-0.408,13.463,4.384,17.787,10.432c6.448,9.02,9.97,19.468,13.934,29.689
	c1.034,2.668,2.345,5.229,3.55,7.83c1.342,2.892,0.229,3.712-2.704,3.697c-16.116-0.077-32.239-0.282-48.349,0.029
	c-23.309,0.45-46.628-0.898-69.905,0.134c-9.897,0.438-19.82-9.328-16.886-21c0.36-1.434,0.376-2.953,0.552-4.433
	c6.348,1.959,10.939-0.666,15.206-5.236c18.137-19.424,36.231-38.894,54.729-57.969C295.681,266.012,311.853,262.358,329.82,265.615
	z M271.995,338.238c-0.021,6.934,4.312,12.738,9.791,12.158c6.173-0.651,12.185-3.591,11.996-11.827
	c-0.127-5.54-4.825-10.553-10.15-10.57C275.733,327.973,272.018,331.242,271.995,338.238z"/>
<path fill-rule="evenodd" clip-rule="evenodd" fill="#424A5A" d="M329.82,265.615c-17.968-3.257-34.139,0.396-47.056,13.715
	c-18.499,19.075-36.593,38.545-54.729,57.969c-4.267,4.57-8.858,7.195-15.206,5.236c-8.929-4.69-11.319-15.1-4.683-22.197
	c18.989-20.311,37.575-41.014,57.464-60.462c11.979-11.714,26.59-18.194,43.181-20.272c1.855,1.188,3.826,0.708,5.766,0.348
	c2.708-0.501,5.374-1.044,7.919,0.675c0.974,0.657,2.193,0.484,3.294,0.287c5.422-0.971,10.647,0.431,15.512,2.263
	c2.215,0.835,4.632-0.015,6.647,1.706c3.417,2.92,7.729,3.664,12.092,4.006c0,0,0.137,0.025,0.135,0.026
	c-0.792,1.674-0.141,2.999,1.317,3.702c2.151,1.04,4.257,2.534,6.896,1.783c5.797,3.972,10.574,9.06,15.362,14.123
	c16.354,17.296,32.677,34.623,49.019,51.933c0.164,0.173,0.421,0.261,0.633,0.39c-0.001,0.001,0.279-0.139,0.283-0.142
	c-0.283,0.573,0.117,0.916,0.442,1.284c2.722,5.683,3.209,11.218-1.03,16.474c-4.626,5.734-13.34,6.507-18.46,1.168
	c-17.017-17.739-33.934-35.575-50.738-53.515c-7.316-7.811-14.841-15.195-25.334-18.594
	C335.707,266.6,332.854,265.683,329.82,265.615z"/>
<path fill-rule="evenodd" clip-rule="evenodd" fill="#EDD0B2" d="M211.267,197.525c-2.123,0.233-2.981-0.512-3.105-2.844
	c-0.158-3.006,0.64-5.692,1.592-8.415c3.594,3.907,8.918,1.336,13.185,3.686c-2.086,2.126-4.755,1.409-7.199,1.57
	c-0.856,0.056-1.996-0.079-2,1.117c-0.003,1.197,1.139,1.151,1.993,1.109c4.843-0.236,9.673-0.671,14.522-0.882
	c3.513-0.154,6.505,2.122,9.771,1.56c4.995-0.859,9.886,0.433,14.821,0.093c2.302-0.159,4.625,0.403,6.815-1.215
	c0.902-0.667,2.847-0.624,3.995-0.138c5.838,2.461,11.34-1.598,17.09-0.443c-1.856-1.858-4.102-0.88-6.133-1.215
	c-1.706-0.281-3.903,0.299-3.367-2.984c0.358-2.189-1.886-1.462-3.056-1.471c-9.5-0.063-19-0.036-28.5-0.036
	c-8.625,0-17.25-0.001-25.875,0c-1.528,0-3.034,0.169-3.083-2.155c-0.056-2.566,1.63-2.53,3.262-2.317
	c13.067,1.701,26.121-0.231,39.187-0.159c55.879,0.308,111.763-0.044,167.642,0.316c8.57,0.055,17.161,0.515,25.67-0.337
	c4.313-0.432,4.588,3.902,7.505,4.77c0.09,0.027,0.148,0.795-0.025,0.967c-0.59,0.585-1.706,0.688-2.074,0.279
	c-2.813-3.127-6.295-1.312-9.447-1.319c-31.249-0.074-62.499,0.039-93.747-0.155c-3.727-0.022-6.948,1.528-10.504,1.854
	c-1.221,0.112-2.878,1.379-2.469,2.779c0.456,1.565,1.875-0.016,2.877,0.031c1.12,0.053,2.244,0.023,3.365,0.061
	c0.597,0.02,1.562,0.368,1.729,0.128c3.848-5.499,9.407-1.084,13.947-2.439c0.564-0.168,1.455,0.166,1.252,0.955
	c-0.799,3.1,1.894,3.141,3.352,3.252c3.915,0.301,7.887,1.093,11.813-0.056c0.596-0.175,1.251-0.508,1.805-0.398
	c5.186,1.018,9.611-1.188,13.875-3.501c2.211-1.2,4.229-0.974,6.843-0.963c-1.073,2.434-2.878,2.048-4.486,2.176
	c-1.015,0.081-2.544-0.492-2.646,1.212c-0.081,1.338,0.78,2.195,2.155,2.678c3.39,1.191,6.869,0.303,10.285,0.461
	c5.32,0.249,10.679-0.38,16.023-0.611c1.68-0.072,3.374-0.077,3.578,2.245C352.757,197.266,282.006,195.792,211.267,197.525z
	 M309.412,194.479c7.536-0.279,14.443,0.815,21.32-0.643c1.4-0.297,3.568-0.238,3.232-2.178c-0.28-1.623-0.964-3.674-3.014-4.354
	c-1.723-0.569-3.263-0.219-4.107,1.498c-0.468,0.951-0.893,1.695-2.03,1.928c-3.616,0.74-7.124,2.079-10.942,1.572
	C312.433,192.112,310.879,192.153,309.412,194.479z M351.038,192.576c2.21,0.35,3.515,1.014,4.742-0.56
	C354.296,191.404,353.11,191.264,351.038,192.576z M285.041,193.22c0.206,0.09,0.458,0.295,0.606,0.237
	c0.149-0.059,0.193-0.379,0.284-0.586c-0.205-0.09-0.457-0.296-0.604-0.237C285.178,192.693,285.131,193.012,285.041,193.22z"/>
<path fill-rule="evenodd" clip-rule="evenodd" fill="#40495B" d="M408.46,390.412c8.565,1.503,12.655,10.317,8.287,17.857
	c-1.021,0.689-2.299,0.769-3.255,1.736c-2.544,2.573-5.63,3.604-9.35,3.565c-14.248-0.146-28.498-0.152-42.746,0.003
	c-3.961,0.043-7.509-2.832-11.581-1.343l-0.055,0.042c-0.243-2.557-2.008-3.795-4.11-4.739c-3.41-7.629,0.495-15.117,8.908-17.081
	c0.836,0.767,1.872,0.555,2.849,0.555c16.076,0.01,32.151,0.011,48.228,0.003C406.608,391.011,407.65,391.232,408.46,390.412z"/>
<path fill-rule="evenodd" clip-rule="evenodd" fill="#424A5A" d="M265.16,406.565c-3.065,5.773-7.808,8.275-14.376,7.96
	c-5.844-0.281-11.715,0.058-17.571-0.072c-7.537-0.166-12.476-5.076-12.374-12.059c0.102-6.959,5.23-12.059,12.412-12.162
	c6.729-0.098,13.462,0.031,20.19-0.079c2.907-0.047,5.252,1.311,7.713,2.472C265.155,396.507,266.199,401.236,265.16,406.565z"/>
<path fill-rule="evenodd" clip-rule="evenodd" fill="#424A5A" d="M304.914,414.393c-3.497,0-7,0.133-10.489-0.029
	c-6.141-0.283-10.898-5.152-11.105-11.155c-0.239-6.947,3.845-12.426,10.398-12.806c7.594-0.442,15.244-0.392,22.847-0.059
	c5.861,0.257,10.243,5.941,10.186,12.289c-0.053,5.866-4.796,11.236-10.601,11.633c-3.729,0.254-7.489,0.048-11.235,0.048
	C304.914,414.34,304.914,414.367,304.914,414.393z"/>
<path fill-rule="evenodd" clip-rule="evenodd" fill="#ECD3BC" d="M235.101,212.507c5.58-0.009,9.037,3.437,9.175,8.843
	c0.12,4.688-4.63,8.503-8.856,8.451c-5.598-0.068-9.147-3.414-9.164-8.935C226.239,215.019,228.886,212.517,235.101,212.507z"/>
<path fill-rule="evenodd" clip-rule="evenodd" fill="#F7EDD5" d="M388.123,446.548c0.637-3.087-0.502-5.981-0.602-8.958
	c-0.035-1.083-0.161-2.639,1.337-2.604c1.405,0.032,0.62,1.587,0.904,2.437c1.361,4.059,1.919,8.246,1.433,12.47
	c-0.375,3.268-2.167,6.354-1.437,9.782c2.65,12.447,1.076,25.059,1.479,37.592c0.035,1.113,0.029,2.268-0.225,3.34
	c-0.269,1.133-1.269,1.511-2.366,1.285c-1.219-0.25-0.896-1.125-0.838-2.047c0.586-9.199,0.578-18.369-0.11-27.597
	c-0.506-6.786-0.847-13.694,0.38-20.524C388.382,450.03,388.123,448.237,388.123,446.548z"/>
<path fill-rule="evenodd" clip-rule="evenodd" fill="#ECD3BC" d="M404.773,414.824c-1.733,1.854-3.966,0.592-5.941,0.942
	c-2.006,0.355-4.189-0.72-6.066,0.739c-4.225-0.004-8.455-0.143-12.674,0.025c-4.506,0.18-8.92-0.078-13.521,1.18
	c-5.909,1.614-11.928-1.857-18.101-1.968c-1.169-0.021-2.262-4.551-3.355-7.016c-0.03-0.067,0.339-0.312,0.522-0.474
	c1.248,1.469,2.156,3.288,4.124,4.02c0,0,0.055-0.042,0.056-0.043c2.558,2.664,5.94,2.18,9.096,2.219
	C374.199,414.635,389.486,414.709,404.773,414.824z"/>
<path fill-rule="evenodd" clip-rule="evenodd" fill="#4B454C" d="M360.021,248.888c-4.363-0.342-8.675-1.085-12.092-4.006
	c-2.016-1.721-4.433-0.871-6.647-1.706c-4.864-1.833-10.09-3.234-15.512-2.263c-1.101,0.197-2.32,0.37-3.294-0.287
	c-2.545-1.719-5.211-1.176-7.919-0.675c-1.939,0.36-3.91,0.84-5.766-0.348C326.854,237.26,344.051,239.684,360.021,248.888z"/>
<path fill-rule="evenodd" clip-rule="evenodd" fill="#F7EDD5" d="M391.282,512.562c0.272,2.807-0.772,5.026-2.995,6.722
	c-2.126-0.692-2.161-3.116-3.616-4.365c2.1-2.437,1.617-5.314,1.651-8.193c0.01-0.822,1.492-2.084,2.984-1.443
	c1.498,0.644,0.836,1.814,0.532,2.867C389.322,509.941,390.383,511.227,391.282,512.562z"/>
<path fill-rule="evenodd" clip-rule="evenodd" fill="#F3F5EC" d="M337.976,296.544c3.018,0.099,5.228-0.263,2.489-3.908
	c-0.367-0.488-0.145-1.421-0.193-2.147c2.287,1.063,2.829,3.506,3.604,5.419c1.347,3.328,3.567,6.191,4.687,9.597
	C344.095,303.625,340.664,300.524,337.976,296.544z"/>
<path fill-rule="evenodd" clip-rule="evenodd" fill="#F7EDD5" d="M265.16,406.565c1.039-5.329-0.005-10.059-4.005-13.94
	c5.417-0.471,8.055,3.377,7.013,9.027c-0.351,1.895-1.232,3.673-1.698,5.59C266.101,408.763,265.41,407.313,265.16,406.565z"/>
<path fill-rule="evenodd" clip-rule="evenodd" fill="#393F44" d="M408.46,390.412c-0.81,0.82-1.852,0.599-2.825,0.599
	c-16.076,0.008-32.151,0.007-48.228-0.003c-0.977,0-2.013,0.212-2.849-0.555c11.241-0.075,22.481-0.146,33.721-0.233
	c1.495-0.011,2.989-0.108,4.484-0.165C397.996,390.174,403.229,390.293,408.46,390.412z"/>
<path fill-rule="evenodd" clip-rule="evenodd" fill="#F7EDD5" d="M271.678,413.406c-0.944-2.883,0.572-5.178,0.624-7.598
	c0.019-0.906,1.079-1.27,2.045-1.203c1.153,0.078,1.257,0.901,1.409,1.823C276.292,409.664,274.248,411.42,271.678,413.406z"/>
<path fill-rule="evenodd" clip-rule="evenodd" fill="#EDD0B2" d="M428.747,196.783c0.509-2.263,2.131-1.515,3.491-1.223
	c2.887,0.619,5.931,1.108,6.242,4.981C434.775,200.479,432.171,197.57,428.747,196.783z"/>
<path fill-rule="evenodd" clip-rule="evenodd" fill="#F7EDD5" d="M306.6,421.759c1.492,1.44,5.746-0.435,5.453,2.544
	c-0.284,2.879-3.463,0.106-5.322,0.465c-0.24,0.047-0.499,0.014-0.747-0.004c-1.191-0.082-2.948,0.191-2.756-1.542
	C303.375,421.886,305.059,421.828,306.6,421.759z"/>
<path fill-rule="evenodd" clip-rule="evenodd" fill="#4B454C" d="M368.369,254.399c-2.64,0.75-4.745-0.744-6.896-1.783
	c-1.458-0.704-2.109-2.028-1.317-3.702C363.148,250.361,365.903,252.164,368.369,254.399z"/>
<path fill-rule="evenodd" clip-rule="evenodd" fill="#4B454C" d="M349.761,412.273c-1.968-0.731-2.876-2.551-4.124-4.02
	c-0.023-0.241-0.02-0.48,0.014-0.72C347.753,408.479,349.518,409.717,349.761,412.273z"/>
<path fill-rule="evenodd" clip-rule="evenodd" fill="#F7EDD5" d="M266.345,410.502c-1.058,1.459-1.797,2.479-2.536,3.497
	C263.146,411.857,263.575,410.49,266.345,410.502z"/>
<path fill-rule="evenodd" clip-rule="evenodd" fill="#EDD0B2" d="M438.477,200.538c2.426-0.27,2.327,1.376,2.269,2.99
	C439.557,202.859,438.559,202.046,438.477,200.538z"/>
<polygon fill-rule="evenodd" clip-rule="evenodd" fill="#F7EDD5" points="266,410.518 266.17,410.209 266.309,410.348 "/>
<path fill-rule="evenodd" clip-rule="evenodd" fill="#F6EBD3" d="M224.75,526.018c2.839-2.45,4.864-6.635,7.805-7.772
	c3.732-1.442,8.448-1.779,12.813-1.152c2.357,0.339,4.339,1.282,4.606,4.002c0.218,2.222,1.381,2.915,3.491,2.702
	c1.478-0.15,2.984-0.008,4.477-0.029c1.575-0.024,2.676,0.502,2.808,2.256C248.75,526.021,236.75,526.02,224.75,526.018z"/>
<path fill-rule="evenodd" clip-rule="evenodd" fill="#4B454C" d="M404.773,414.824c-15.287-0.115-30.574-0.189-45.861-0.375
	c-3.155-0.039-6.538,0.445-9.096-2.219c4.071-1.488,7.619,1.387,11.58,1.344c14.248-0.155,28.498-0.149,42.746-0.003
	c3.72,0.038,6.806-0.992,9.35-3.565c0.956-0.968,2.234-1.047,3.255-1.736C414.457,413.563,409.658,414.27,404.773,414.824z"/>
<path fill-rule="evenodd" clip-rule="evenodd" fill="#F6EBD3" d="M211.25,526.001c2.034-2.132,5.49-2.126,7.5,0.012
	C216.251,526.009,213.75,526.006,211.25,526.001z"/>
<path fill-rule="evenodd" clip-rule="evenodd" fill="#F6EBD3" d="M434.108,321.987c-0.325-0.368-0.726-0.711-0.442-1.284
	C434.74,320.81,434.809,321.264,434.108,321.987z"/>
<path fill-rule="evenodd" clip-rule="evenodd" fill="#F6EBD3" d="M271.995,338.238c0.022-6.996,3.738-10.266,11.636-10.239
	c5.325,0.018,10.023,5.03,10.15,10.57c0.189,8.236-5.822,11.176-11.996,11.827C276.307,350.977,271.974,345.172,271.995,338.238z"/>
<path fill-rule="evenodd" clip-rule="evenodd" fill="#EECEAF" d="M309.412,194.479c1.467-2.326,3.021-2.367,4.459-2.176
	c3.818,0.507,7.326-0.832,10.942-1.572c1.138-0.233,1.563-0.977,2.03-1.928c0.845-1.717,2.385-2.067,4.107-1.498
	c2.05,0.679,2.733,2.73,3.014,4.354c0.336,1.939-1.832,1.88-3.232,2.178C323.855,195.294,316.948,194.2,309.412,194.479z"/>
<path fill-rule="evenodd" clip-rule="evenodd" fill="#EECEAF" d="M351.038,192.576c2.072-1.313,3.258-1.172,4.742-0.56
	C354.553,193.59,353.248,192.926,351.038,192.576z"/>
<path fill-rule="evenodd" clip-rule="evenodd" fill="#EECEAF" d="M285.041,193.219c0.091-0.207,0.137-0.525,0.287-0.585
	c0.146-0.059,0.398,0.147,0.604,0.237c-0.091,0.207-0.135,0.527-0.284,0.586C285.499,193.515,285.247,193.31,285.041,193.219z"/>
</svg>
