<?xml version="1.0" encoding="utf-8"?>
<!-- Generator: Adobe Illustrator 16.0.0, SVG Export Plug-In . SVG Version: 6.00 Build 0)  -->
<!DOCTYPE svg PUBLIC "-//W3C//DTD SVG 1.1//EN" "http://www.w3.org/Graphics/SVG/1.1/DTD/svg11.dtd">
<svg version="1.1" id="Layer_1" xmlns="http://www.w3.org/2000/svg" xmlns:xlink="http://www.w3.org/1999/xlink" x="0px" y="0px"
	 width="640px" height="640px" viewBox="0 0 640 640" enable-background="new 0 0 640 640" xml:space="preserve">
<path fill-rule="evenodd" clip-rule="evenodd" fill="#1F323B" d="M132.696,465.437c-8.01-13.132-13.003-27.295-13.242-42.736
	c-0.464-30.068,8.519-56.727,31.12-77.325c5.514-5.024,9.343-10.382,12.817-16.723c9.943-18.146,22.792-33.734,42.114-42.644
	c3.51-1.619,5.457-3.721,7.25-7.122c18.965-35.942,46.655-61.559,87.303-70.286c36.045-7.738,67.873,2.407,95.789,25.708
	c15.721,13.122,27.941,29.115,37.081,47.438c0.588,1.178,1.245,1.978,2.475,2.558c22.998,10.846,38.193,29.125,48.891,51.619
	c1.046,2.2,2.31,3.919,4.338,5.364c15.722,11.203,24.845,27.058,30.643,44.958c5.784,17.86,7.45,36.064,2.54,54.504
	c-0.188,0.707-0.09,1.492-0.125,2.24c-2.749,7.506-5.702,14.92-9.894,21.771c-3.588,3.954-6.561,8.425-10.402,12.176
	c-12.398,12.106-27.742,18.773-43.986,23.606c-29.244,8.699-59.309,12.995-89.563,16.172c-0.231-0.1-0.452-0.081-0.662,0.057
	c-1.479,0.181-2.957,0.361-4.435,0.542c-2.491-0.485-4.893,0.355-7.341,0.51c-23.328,1.475-46.634,1.521-69.953-0.456
	c-29.503-2.5-58.724-6.68-87.488-13.778C172.467,497.294,148.662,488.059,132.696,465.437z M383.774,260.68l0.042,0.028
	c-0.232-0.58-0.398-1.233-1.25-1.122l0.033-0.185c-4.262-5.32-9.971-8.904-15.535-12.568c-11.132-7.33-23.198-12.357-36.615-13.659
	c-2.354-0.243-4.709-0.713-7.06-0.694c-18.81,0.155-35.856,5.969-50.918,17.043c-18.628,13.696-32.956,31.013-41.852,52.536
	c-1.184,2.863-2.807,4.683-6.011,5.389c-3.509,0.773-6.915,2.09-10.064,3.929c-16.273,9.498-26.591,23.7-32.429,41.348
	c-0.793,2.397-1.777,4.143-4.095,5.334c-3.546,1.82-6.863,4.055-9.745,6.865c-13.335,13.004-20.255,29.084-22.115,47.366
	c-1.141,11.208,0.292,22.14,5.931,32.194c1.952,4.979,5.44,8.88,9.117,12.576c11.928,11.988,27.641,15.797,43.256,19.779
	c2.46,1.959,5.624,0.773,8.281,1.852c0.723,0.167,1.446,0.334,2.168,0.501c10.585,2.751,21.381,4.487,32.144,6.28
	c6.498,1.082,12.969,2.803,19.665,2.439c0.754,0.048,1.507,0.096,2.262,0.144c1.176,0.689,2.462,0.663,3.758,0.575
	c0.799,0.639,1.641,0.959,2.729,0.835c3.11-0.355,6.187,0.227,9.281,0.439c13.229,0.907,26.436,2.391,39.732,1.724
	c12.264,0.527,24.47-0.681,36.653-1.63c23.645-1.843,47.032-5.577,70.121-11.072c13.922-3.313,27.896-6.486,40.325-14.083
	l-0.039,0.014c2.171-0.286,3.77-1.553,5.233-3.051c5.666-3.861,10.421-8.563,13.604-14.72c2.205-2.622,3.514-5.727,4.518-8.93
	c5.765-18.369,2.867-36.003-5.063-53.014c-4.126-8.851-9.438-16.972-17.848-22.531c-0.921-1.416-2.356-2.178-3.771-2.966
	c-2.499-1.393-5.092-2.675-6.432-5.438c0.012-0.222-0.092-0.35-0.311-0.384c-0.774-3.792-2.004-7.409-4.127-10.681l0.037-0.032
	c-7.834-16.208-19.166-28.918-36.572-34.912c-4.553-1.568-6.971-4.072-8.727-8.221c-3.709-8.767-8.543-16.911-14.578-24.308
	c-2.342-2.481-4-5.583-6.871-7.585l0.05,0.024c-0.045-1.275-0.752-2.04-1.901-2.463l-0.249,0.016c0.033-0.517-0.208-0.749-0.724-0.7
	l-0.054-0.324c-0.821-0.838-1.644-1.678-2.466-2.517c-0.226-0.22-0.451-0.439-0.676-0.659
	C384.337,261.202,384.056,260.94,383.774,260.68z"/>
<path fill-rule="evenodd" clip-rule="evenodd" fill="#E2E5E0" d="M132.696,465.437c15.966,22.622,39.771,31.857,65.269,38.15
	c28.764,7.099,57.985,11.278,87.488,13.778c23.319,1.978,46.625,1.931,69.953,0.456c2.448-0.154,4.85-0.995,7.341-0.51
	c-0.93,2.657-3.169,1.243-4.774,1.364c-2.005,0.149-2.984,1.613-4.352,2.574c-0.647,0.455-0.3,1.188,0.242,1.544
	c4.115,2.698,1.483,5.257-0.255,7.658c-1.393,1.925-2.787,3.762-2.848,6.255c-12.188,1.014-24.403,0.878-36.613,0.769
	c-14.043-0.124-28.008-1.304-41.977-2.821c-11.227-1.219-22.367-2.898-33.498-4.68c-14.59-2.334-29.007-5.707-43.082-10.04
	c-14.999-4.618-29.972-9.784-43.02-18.96c-9.527-6.699-17.788-14.559-20.405-26.57C131.527,471.468,130.849,468.322,132.696,465.437
	z M350.934,520.912c-0.424-0.558-0.574-0.941-0.814-1.01c-0.174-0.05-0.607,0.275-0.679,0.51c-0.138,0.453-0.036,0.97,0.602,0.939
	C350.334,521.338,350.613,521.078,350.934,520.912z"/>
<path fill-rule="evenodd" clip-rule="evenodd" fill="#E6E7E1" d="M511.795,464.759c4.191-6.851,7.145-14.265,9.894-21.771
	c1.104-0.01,1.848,0.64,2.551,1.381c9.741,10.26,13.493,22.48,10.088,36.115c-2.461,9.852-8.572,17.908-16.476,24.379
	c-9.809,8.031-21.088,13.607-32.533,18.795c-4.854,2.201-9.989,3.871-15.121,5.35c-9.911,2.855-19.729,6.071-29.83,8.24
	c-13.209,2.836-26.596,4.275-40.039,3.072c-6.052-0.543-12.479-0.286-18.083-3.557c1.303-2.602,3.18-4.504,6.276-4.48
	c8.29,0.063,16.102-2.71,24.111-4.193c7.86-1.455,15.691-3.3,23.462-5.37c5.675-1.512,11.123-3.734,17.002-4.804
	c5.489-0.998,10.516-4.306,15.915-6.085c11.639-3.837,22.225-9.581,31.774-17.155c8.562-6.792,13.556-15.57,13.479-26.815
	C514.254,466.098,514.247,464.5,511.795,464.759z"/>
<path fill-rule="evenodd" clip-rule="evenodd" fill="#DEE0DA" d="M511.795,464.759c2.452-0.259,2.459,1.339,2.471,3.102
	c0.076,11.245-4.918,20.023-13.479,26.815c-9.55,7.574-20.136,13.318-31.774,17.155c-5.399,1.779-10.426,5.087-15.915,6.085
	c-5.879,1.069-11.327,3.292-17.002,4.804c-7.771,2.07-15.602,3.915-23.462,5.37c-8.01,1.483-15.821,4.256-24.111,4.193
	c-3.097-0.023-4.974,1.879-6.276,4.48c-0.25,0.001-0.499-0.001-0.748-0.006c-0.272-1.448-0.545-2.867-2.463-2.993
	c-1.634-0.107-2.108,0.777-2.044,2.202c-8.834-2.965-17.484,0.535-26.229,0.74c0.061-2.493,1.455-4.33,2.848-6.255
	c1.738-2.401,4.37-4.96,0.255-7.658c-0.542-0.355-0.89-1.089-0.242-1.544c1.367-0.961,2.347-2.425,4.352-2.574
	c1.605-0.121,3.845,1.293,4.774-1.364c1.478-0.181,2.956-0.361,4.435-0.541c0.166,0.171,0.333,0.341,0.499,0.511
	c0.054-0.189,0.108-0.379,0.163-0.568c30.254-3.177,60.318-7.473,89.563-16.172c16.244-4.833,31.588-11.5,43.986-23.606
	C505.234,473.184,508.207,468.713,511.795,464.759z"/>
<path fill-rule="evenodd" clip-rule="evenodd" fill="#E4BB89" d="M452.054,243.16c0.124-4.811,1.818-8.86,6.255-11.121
	c9.865-5.027,19.717-10.103,29.777-14.714c6.432-2.946,13.664,0.31,16.501,6.697c2.785,6.271,0.361,13.333-5.882,16.494
	c-9.439,4.778-18.975,9.369-28.439,14.095C461.063,259.208,451.92,251.576,452.054,243.16z"/>
<path fill-rule="evenodd" clip-rule="evenodd" fill="#E4BB89" d="M151.622,216.283c1.391-0.13,2.917,0.403,4.38,1.136
	c9.253,4.631,18.538,9.201,27.735,13.939c5.597,2.885,8.646,8.566,7.698,13.711c-1.151,6.237-5.344,9.963-12.126,10.841
	c-1.938,0.251-3.709-0.171-5.422-1.012c-9.621-4.723-19.311-9.313-28.837-14.221c-5.741-2.959-8.175-9.197-6.514-15.266
	C139.956,220.219,145.41,216.33,151.622,216.283z"/>
<path fill-rule="evenodd" clip-rule="evenodd" fill="#E4BB89" d="M412.475,146.151c0.241,2.288-0.923,4.547-2.049,6.749
	c-4.19,8.19-8.448,16.346-12.743,24.483c-2.147,4.069-5.382,6.864-10.05,7.583c-9.11,1.403-16.186-6.936-13.259-15.972
	c1.33-4.105,3.577-7.926,5.523-11.818c3.007-6.01,5.915-12.085,9.24-17.918c2.854-5.007,8.958-7.238,14.196-5.772
	C408.555,134.948,412.438,140.184,412.475,146.151z"/>
<path fill-rule="evenodd" clip-rule="evenodd" fill="#E4BB89" d="M257.307,185.061c-4.275,0.117-7.703-1.782-9.631-5.368
	c-5.187-9.644-10.32-19.338-14.896-29.278c-2.903-6.306,0.146-13.037,6.263-16.009c6.025-2.929,12.546-1.042,15.965,5.226
	c4.883,8.951,9.63,18,13.892,27.258C273.164,176.157,267.176,185.175,257.307,185.061z"/>
<path fill-rule="evenodd" clip-rule="evenodd" fill="#E4BB89" d="M310.114,144.657c0.005-5.372-0.088-10.746,0.028-16.116
	c0.146-6.714,5.066-11.763,11.438-11.944c6.437-0.183,12.414,4.784,12.601,11.307c0.329,11.484,0.287,22.987,0.083,34.477
	c-0.102,5.755-6.184,10.438-12.641,10.334c-5.815-0.093-11.094-5.006-11.445-10.819c-0.173-2.864-0.061-5.745-0.068-8.619
	C310.104,150.404,310.109,147.53,310.114,144.657z"/>
<path fill-rule="evenodd" clip-rule="evenodd" fill="#E4BB89" d="M431.864,215.833c-5.007,0.002-8.96-2.815-10.371-7.088
	c-1.676-5.078-0.471-10.074,3.675-12.628c8.281-5.101,16.646-10.087,25.184-14.745c5.401-2.947,11.332-1.032,14.248,3.92
	c3.095,5.257,2.203,11.103-3.012,14.507c-8.142,5.316-16.414,10.465-25.091,14.902C434.929,215.502,433.245,215.983,431.864,215.833
	z"/>
<path fill-rule="evenodd" clip-rule="evenodd" fill="#E4BB89" d="M211.061,215.806c-2.07,0.08-3.974-0.57-5.692-1.598
	c-7.386-4.421-14.78-8.83-22.063-13.415c-4.4-2.77-6.539-6.886-5.52-12.128c0.964-4.959,4.336-7.6,9.165-8.675
	c2.417-0.539,4.471,0.307,6.412,1.415c8.013,4.572,16.021,9.157,23.931,13.905c4.972,2.985,6.706,7.691,5.106,12.796
	C221.022,212.494,216.084,215.85,211.061,215.806z"/>
<path fill-rule="evenodd" clip-rule="evenodd" fill="#E4BB89" d="M149.963,299.176c-6.352,0.011-10.76-4.454-10.73-10.866
	c0.028-6.183,4.668-10.906,10.822-11.016c6.132-0.11,11.446,5.255,11.354,11.462C161.322,294.603,156.311,299.164,149.963,299.176z"
	/>
<path fill-rule="evenodd" clip-rule="evenodd" fill="#E4BB89" d="M504.782,288.308c0.03,6.393-4.785,10.881-11.634,10.845
	c-5.979-0.032-10.37-4.362-10.455-10.312c-0.096-6.704,4.742-11.652,11.358-11.615C499.928,277.259,504.754,282.241,504.782,288.308
	z"/>
<path fill-rule="evenodd" clip-rule="evenodd" fill="#E6E7E1" d="M376.99,535.967c-0.064-1.425,0.41-2.31,2.044-2.202
	c1.918,0.126,2.19,1.545,2.463,2.993C379.946,536.766,378.374,536.906,376.99,535.967z"/>
<path fill-rule="evenodd" clip-rule="evenodd" fill="#F9FBFB" d="M152.092,444.484c-5.639-10.055-7.072-20.986-5.931-32.194
	c1.859-18.282,8.779-34.362,22.115-47.366c2.881-2.811,6.198-5.045,9.745-6.865c2.318-1.191,3.302-2.937,4.095-5.334
	c5.837-17.647,16.156-31.85,32.429-41.348c3.149-1.839,6.555-3.155,10.064-3.929c3.205-0.706,4.828-2.526,6.011-5.389
	c8.896-21.523,23.224-38.84,41.852-52.536c15.062-11.074,32.108-16.888,50.918-17.043c2.351-0.02,4.706,0.451,7.059,0.694
	c-0.755,0.757-1.759,0.568-2.675,0.709c-1.789-0.5-3.316,0.638-3.535,1.882c-0.5,2.842-2.693,5.304-1.963,8.36
	c0.376,1.576-1.28,3.881,1.568,4.617c0.065,0.199,0.063,0.398-0.007,0.595c-0.277,1.56-1.692,2.557-1.668,4.407
	c0.054,4.133-1.358,5.354-5.513,5.5c-2.359,0.083-5.001-0.542-7.028,0.312c-6.171,2.599-12.13,5.711-18.117,8.735
	c-1.676,0.847-3.149,2.086-3.027,4.314c-6.652-0.67-10.74,2.767-13.456,8.401c-2.901-0.472-1.635,2.741-2.915,3.389
	c-5.797,2.937-7.574,9.176-11.083,13.847c-4.438,5.91-7.319,13.023-8.759,20.501c-0.262,1.359-1.338,1.709-2.703,2.083
	c-4.285,1.175-8.772,2.788-11.621,6.02c-1.987,2.256-4.333,3.076-6.565,4.475c-3.013-0.832-5.864-2.515-9.215-1.033
	c-4.881,2.158-8.799,4.452-7.875,14.457c-1.875,0.246-1.812,1.726-1.386,2.831c0.873,2.262,0.574,3.566-1.826,4.683
	c-1.44,0.669-2.393,2.184-2.924,4.08c-1.324,4.733,0.137,11.127-6.898,12.836c-0.168,0.041-0.253,0.398-0.39,0.601
	c-2.396,3.562-6.057,5.776-9.661,7.565c-2.284,1.132-4.469,3.112-5.03,4.469c-2.618,6.324-9.739,9.931-10.25,17.37
	c-0.015,0.214-0.277,0.405-0.411,0.616c-1.308,2.057-1.878,4.25-1.813,6.736c0.098,3.733,0.635,7.701-0.413,11.145
	c-0.917,3.012-1.044,4.414,2.145,5.121c0.879,0.194,1.272,0.717,1.199,1.588c-0.097,1.162-0.939,1.339-1.873,1.344
	c-2.374,0.013-4.748-0.009-7.121,0.029c-1.191,0.019-2.64-0.348-2.874,1.521c-0.125,0.633-0.355,1.15-1.071,1.34
	c-4.632,1.231-7.301,4.52-9.626,8.51C152.678,439.521,153.394,442.225,152.092,444.484z"/>
<path fill-rule="evenodd" clip-rule="evenodd" fill="#F3E2C4" d="M152.092,444.484c1.301-2.26,0.585-4.963,1.978-7.354
	c2.325-3.99,4.994-7.278,9.626-8.51c0.716-0.189,0.946-0.707,1.071-1.34c2.744-0.014,5.489,0,8.232-0.052
	c1.512-0.028,2.832,0.46,3.416,1.83c2.909,6.819,9.001,10.817,14.287,15.246c6.375,5.343,14.232,8.425,22.294,10.755
	c12.16,3.516,24.62,5.627,36.995,8.144c2.425,0.493,4.886,1.596,7.256,1.421c6.8-0.5,13.37,1.178,20.011,1.841
	c15.706,1.569,31.407,2.711,47.189,2.75c0.013,7.471,0.024,14.941,0.037,22.413c-13.297,0.667-26.504-0.816-39.732-1.724
	c-3.095-0.213-6.171-0.795-9.281-0.439c-1.088,0.124-1.929-0.196-2.729-0.835c-0.947-2.19-2.306-1.686-3.758-0.575
	c-0.754-0.048-1.508-0.096-2.262-0.144c-1.4-1.872-3.277-2.355-5.55-2.205c-1.966,0.132-4.095,0.325-5.913-0.258
	c-6.772-2.168-13.892-2.435-20.792-3.936c-5.21-1.134-10.688-1.161-15.825-3.086c-1.172-0.438-2.729-0.652-3.729,0.765
	c-0.722-0.167-1.445-0.334-2.168-0.501c-2.109-3.528-5.336-2.063-8.281-1.852c-15.615-3.982-31.329-7.791-43.256-19.779
	C157.532,453.364,154.044,449.464,152.092,444.484z"/>
<path fill-rule="evenodd" clip-rule="evenodd" fill="#E4BB89" d="M384.619,261.463c0.225,0.22,0.45,0.439,0.676,0.659
	c0.043,3.639,0.133,3.729,2.466,2.517c0,0,0.054,0.324,0.05,0.328c-0.087,0.578,0.154,0.813,0.728,0.696
	c0,0,0.249-0.016,0.244-0.013c-1.016,2.102-0.111,2.713,1.906,2.461c0,0-0.05-0.024-0.05-0.023
	c-0.399,3.267,3.332,7.385,6.871,7.584c6.035,7.397,10.869,15.541,14.578,24.308c1.756,4.148,4.174,6.653,8.727,8.221
	c17.406,5.994,28.738,18.704,36.572,34.912c-2.338-0.133-3.379,0.833-3.175,3.298c0.184,2.22,0.025,4.467,0.046,6.703
	c0.008,0.852-0.28,2.05,0.538,2.428c3.798,1.757,2.339,6.906,5.821,8.837c0.283,0.157,0.478,1.056,0.297,1.378
	c-2.284,4.098-0.294,8.123,0.019,12.195c0.171,2.232,0.962,4.061,2.124,5.834c0.494,0.754,2.043,0.976,1.392,2.276
	c-0.549,1.095-1.767,0.56-2.702,0.688c-0.24-0.055-0.557-0.029-0.709-0.175c-2.373-2.29-2.996-6.734-7.693-6.23
	c-0.161,0.017-0.344-1.099-0.672-1.582c-5.118-7.565-8.773-8.39-13.42-1.767c-3.136-1.572-6.39-3.053-9.948-2.177
	c-2.729,0.673-5.31,1.948-7.956,2.956c0.038-6.355-1.772-12.467-2.459-18.727c0.618-0.896,1.068-1.785,2.185-2.402
	c7.313-4.052,7.493-12.864,2.993-19.314c-2.957-4.238-7.345-4.646-11.73-5.4c-2.158-3.244-5.485-5.058-8.895-6.382
	c-2.475-0.961-3.219-2.487-3.972-4.74c-2.07-6.201-6.146-10.525-12.725-12.099c-0.751-1.486-1.502-2.974-2.253-4.46
	c-1.274-4.965-5.319-8.51-6.838-13.35c-0.053-3.08-0.292-6.024-4.46-6.091l-0.032,0.013c0.249-1.45-0.12-2.602-1.239-3.681
	c-1.717-1.653-3.973-3.115-2.55-6.232c0.423-0.928-0.518-1.905-1.66-2.063c-1.081-0.149-1.943-0.536-2.313-1.593
	c-0.815-2.34-2.519-3.458-4.832-4.188c-1.955-0.618-3.84-1.943-2.724-4.429c1.014-2.257,3.104-2.389,5.102-1.354
	c2.303,1.192,4.239,1.415,5.759-1.111c0.748-1.243,3.711-1.458,2.433-3.415c-1.034-1.583-2.572,0.51-3.919,0.844
	c-1.09,0.27-2.27,0.366-3.147-0.588c-0.563-0.613-0.74-1.519-0.017-1.972c1.664-1.038,1.719-2.578,1.753-4.234
	c0.021-0.938,0.483-1.679,1.499-1.883c0.739-0.149,1.005,0.384,1.426,0.884c3.354,3.986,8.34,6.099,11.686,10.129
	c0.785,0.945,1.553,0.075,2.182-0.537c0,0-0.033,0.185-0.037,0.188c-0.147,1.012,0.535,1.085,1.254,1.119l-0.042-0.028
	C384.056,260.941,384.337,261.202,384.619,261.463z"/>
<path fill-rule="evenodd" clip-rule="evenodd" fill="#E2B67E" d="M324.485,491.629c-0.013-7.472-0.024-14.942-0.036-22.413
	c0,0.001,0-0.05,0-0.05c3.621,0.297,7.176-0.264,10.766-0.631c14.133-1.445,27.46-5.404,40.132-11.848
	c4.986-2.535,9.313-6.086,14.313-8.541c0.691,0.48,0.662,1.27,0.917,1.961c1.248,3.401,0.108,7.22,2.037,10.563
	c0.633,1.096,0.95,1.996,2.306,1.785c6.119-0.953,12.33-1.545,18.324-3.016c8.748-2.146,17.339-4.935,25.997-7.448
	c0.235,0.864-0.435,2.811,1.704,1.361c1.08-0.73,1.723,0.063,1.889,0.954c0.246,1.313,0.596,2.799-0.614,3.854
	c-0.807,0.703-1.356,0.021-1.703-0.692c-0.7-1.44-1.692-2.189-3.272-1.352c-1.526,0.809-1.765,2.227-1.771,3.824
	c-0.006,1.635,0.446,2.395,2.264,2.65c2.171,0.306,3.992,1.375,2.105,4.006c-0.473,0.658-1.648,0.976-0.955,2.062
	c0.559,0.876,1.575,0.485,2.407,0.591c4.067,0.518,8.496-1.398,12.193,1.871c0.336,0.298,1.504-0.049,2.107-0.401
	c3.08-1.796,6.758-2.007,9.82-4.058c1.657-1.111,3.704-2.662,6.17-1.818c-12.429,7.597-26.403,10.77-40.325,14.083
	c-23.089,5.495-46.477,9.229-70.121,11.072C348.955,490.948,336.749,492.156,324.485,491.629z"/>
<path fill-rule="evenodd" clip-rule="evenodd" fill="#E2B883" d="M461.746,386.75c0.936-0.129,2.153,0.406,2.702-0.688
	c0.651-1.301-0.897-1.522-1.392-2.276c-1.162-1.773-1.953-3.602-2.124-5.834c-0.313-4.072-2.303-8.098-0.019-12.195
	c0.181-0.322-0.014-1.221-0.297-1.378c-3.482-1.931-2.023-7.08-5.821-8.837c-0.818-0.378-0.53-1.576-0.538-2.428
	c-0.021-2.236,0.138-4.483-0.046-6.703c-0.204-2.465,0.837-3.431,3.175-3.298c0,0-0.037,0.032-0.038,0.032
	c-1.213,4.562,0.803,7.874,4.128,10.681c0.219,0.034,0.322,0.162,0.309,0.384c-1.97,0.65-1.18,2.491-2.145,3.911
	c3.362-0.484,5.455,1.17,7.332,2.846c1.539,1.372,3.019,2.079,5.018,1.646c8.409,5.56,13.722,13.681,17.848,22.531
	c7.93,17.011,10.827,34.645,5.063,53.014c-1.004,3.203-2.313,6.308-4.518,8.93c-1.719-11.083-10.127-21.209-22.641-19.845
	c2.634-9.427,3.157-18.768-0.895-28.002C465.041,395.124,463.44,390.917,461.746,386.75z M465.36,366.885
	c0.584-0.962,2.908-0.883,1.683-2.824c-0.286-0.452-1.182-1.05-1.423-0.914C464.049,364.025,464.938,365.436,465.36,366.885z"/>
<path fill-rule="evenodd" clip-rule="evenodd" fill="#DFAF76" d="M467.742,427.242c12.514-1.364,20.922,8.762,22.641,19.845
	c-3.183,6.156-7.938,10.858-13.604,14.72c-2.451-0.196-4.761-0.148-5.233,3.051l0.039-0.014c-2.466-0.844-4.513,0.707-6.17,1.818
	c-3.063,2.051-6.74,2.262-9.82,4.058c-0.604,0.353-1.771,0.699-2.107,0.401c-3.697-3.27-8.126-1.354-12.193-1.871
	c-0.832-0.105-1.849,0.285-2.407-0.591c-0.693-1.086,0.482-1.403,0.955-2.062c1.887-2.631,0.065-3.7-2.105-4.006
	c-1.817-0.256-2.27-1.016-2.264-2.65c0.007-1.598,0.245-3.016,1.771-3.824c1.58-0.838,2.572-0.089,3.272,1.352
	c0.347,0.713,0.896,1.396,1.703,0.692c1.21-1.056,0.86-2.541,0.614-3.854c-0.166-0.891-0.809-1.685-1.889-0.954
	c-2.139,1.449-1.469-0.497-1.704-1.361c4.471-2.75,9.347-4.803,13.591-7.945C458.986,439.488,463.864,433.813,467.742,427.242z"/>
<path fill-rule="evenodd" clip-rule="evenodd" fill="#E8C493" d="M382.6,259.401c-0.629,0.612-1.396,1.482-2.182,0.537
	c-3.346-4.03-8.332-6.143-11.686-10.129c-0.421-0.5-0.687-1.033-1.426-0.884c-1.016,0.205-1.479,0.946-1.499,1.883
	c-0.034,1.656-0.089,3.197-1.753,4.234c-0.724,0.453-0.547,1.359,0.017,1.972c0.878,0.955,2.058,0.858,3.147,0.588
	c1.347-0.334,2.885-2.427,3.919-0.844c1.278,1.957-1.685,2.172-2.433,3.415c-1.52,2.526-3.456,2.304-5.759,1.111
	c-1.997-1.034-4.088-0.902-5.102,1.354c-1.116,2.485,0.769,3.811,2.724,4.429c2.313,0.73,4.017,1.848,4.832,4.188
	c0.369,1.057,1.231,1.443,2.313,1.593c1.143,0.157,2.083,1.135,1.66,2.063c-1.423,3.118,0.833,4.58,2.55,6.232
	c1.119,1.079,1.488,2.23,1.24,3.68c-1.262-0.074-2.011-0.979-2.733-1.814c-4.013-4.64-8.557-8.671-13.488-12.318
	c-9.683-7.159-20.188-12.177-32.398-12.99c-0.409-2.772,0.633-5.667-0.706-8.361c0.069-0.197,0.072-0.396,0.006-0.595
	c-0.778-5.505,1.444-10.217,3.931-14.859c0.916-0.141,1.92,0.048,2.675-0.709c13.418,1.301,25.484,6.329,36.616,13.659
	C372.629,250.497,378.338,254.081,382.6,259.401z"/>
<path fill-rule="evenodd" clip-rule="evenodd" fill="#F6E7CF" d="M214.915,479.192c1-1.417,2.557-1.203,3.729-0.765
	c5.138,1.925,10.615,1.952,15.825,3.086c6.9,1.501,14.02,1.768,20.792,3.936c1.817,0.583,3.946,0.39,5.913,0.258
	c2.273-0.15,4.15,0.333,5.55,2.205c-6.696,0.363-13.167-1.357-19.665-2.439C236.296,483.68,225.5,481.943,214.915,479.192z"/>
<path fill-rule="evenodd" clip-rule="evenodd" fill="#E4BB89" d="M471.99,362.612c-1.999,0.433-3.479-0.274-5.018-1.646
	c-1.877-1.676-3.97-3.33-7.332-2.846c0.965-1.42,0.175-3.261,2.145-3.911c1.342,2.763,3.935,4.045,6.434,5.438
	C469.634,360.435,471.069,361.196,471.99,362.612z"/>
<path fill-rule="evenodd" clip-rule="evenodd" fill="#E4BB89" d="M461.477,353.825c-3.325-2.807-5.341-6.119-4.128-10.681
	C459.473,346.416,460.702,350.033,461.477,353.825z"/>
<path fill-rule="evenodd" clip-rule="evenodd" fill="#E8C493" d="M397.51,275.672c-3.539-0.199-7.271-4.318-6.871-7.584
	C393.51,270.089,395.168,273.19,397.51,275.672z"/>
<path fill-rule="evenodd" clip-rule="evenodd" fill="#F6E7CF" d="M204.466,476.84c2.945-0.211,6.172-1.677,8.281,1.852
	C210.09,477.613,206.926,478.799,204.466,476.84z"/>
<path fill-rule="evenodd" clip-rule="evenodd" fill="#E2B67E" d="M471.546,464.857c0.473-3.199,2.782-3.247,5.233-3.051
	C475.315,463.305,473.717,464.571,471.546,464.857z"/>
<path fill-rule="evenodd" clip-rule="evenodd" fill="#F6E7CF" d="M268.985,488.056c1.452-1.11,2.811-1.615,3.758,0.575
	C271.448,488.719,270.162,488.745,268.985,488.056z"/>
<path fill-rule="evenodd" clip-rule="evenodd" fill="#E8C493" d="M387.761,264.639c-2.333,1.212-2.423,1.122-2.466-2.517
	C386.117,262.961,386.939,263.801,387.761,264.639z"/>
<path fill-rule="evenodd" clip-rule="evenodd" fill="#E8C493" d="M390.688,268.111c-2.018,0.252-2.922-0.359-1.906-2.461
	C389.937,266.071,390.644,266.836,390.688,268.111z"/>
<path fill-rule="evenodd" clip-rule="evenodd" fill="#E8C493" d="M383.816,260.708c-0.719-0.034-1.401-0.107-1.254-1.119
	C383.418,259.475,383.584,260.128,383.816,260.708z"/>
<path fill-rule="evenodd" clip-rule="evenodd" fill="#E8C493" d="M384.619,261.463c-0.282-0.261-0.563-0.522-0.845-0.784
	C384.056,260.94,384.337,261.202,384.619,261.463z"/>
<path fill-rule="evenodd" clip-rule="evenodd" fill="#E8C493" d="M388.538,265.663c-0.573,0.117-0.814-0.118-0.728-0.696
	C388.33,264.914,388.571,265.146,388.538,265.663z"/>
<path fill-rule="evenodd" clip-rule="evenodd" fill="#E2E5E0" d="M367.844,516.713c-0.055,0.189-0.109,0.379-0.163,0.568
	c-0.166-0.17-0.333-0.34-0.499-0.511C367.392,516.632,367.612,516.613,367.844,516.713z"/>
<path fill-rule="evenodd" clip-rule="evenodd" fill="#DEE0DA" d="M350.934,520.912c-0.32,0.166-0.6,0.426-0.892,0.439
	c-0.638,0.03-0.739-0.486-0.602-0.939c0.071-0.234,0.505-0.56,0.679-0.51C350.359,519.971,350.51,520.354,350.934,520.912z"/>
<path fill-rule="evenodd" clip-rule="evenodd" fill="#FBFAEF" d="M323.837,249.338c1.339,2.694,0.297,5.589,0.705,8.361
	c-0.015,12.979-0.034,25.956-0.034,38.934c0,1.085-0.32,2.282,0.757,3.121c-0.062,0.62-0.276,1.15-0.861,1.464
	c-0.212,0.271-0.424,0.542-0.637,0.813c-3.452,5.71-2.772,11.388,0.139,17.046c0.198,1.596,0.569,3.189,0.57,4.784
	c0.015,48.436-0.009,96.87-0.026,145.306c0,0,0,0.051,0,0.05c-15.783-0.039-31.484-1.181-47.19-2.75
	c-6.642-0.663-13.211-2.341-20.011-1.841c-2.371,0.175-4.831-0.928-7.256-1.421c-12.375-2.517-24.835-4.628-36.995-8.144
	c-8.062-2.33-15.919-5.412-22.294-10.755c-5.286-4.429-11.378-8.427-14.287-15.246c-0.584-1.37-1.904-1.858-3.416-1.83
	c-2.743,0.052-5.488,0.038-8.232,0.052c0.233-1.869,1.683-1.503,2.874-1.521c2.373-0.038,4.747-0.017,7.121-0.029
	c0.934-0.005,1.776-0.182,1.873-1.344c0.073-0.871-0.32-1.394-1.199-1.588c-3.189-0.707-3.061-2.109-2.145-5.121
	c1.048-3.443,0.511-7.411,0.413-11.145c-0.064-2.486,0.505-4.68,1.813-6.736c0.133-0.211,0.396-0.402,0.411-0.616
	c0.51-7.439,7.632-11.046,10.25-17.37c0.561-1.356,2.747-3.337,5.03-4.469c3.604-1.789,7.265-4.004,9.661-7.565
	c0.137-0.202,0.222-0.56,0.39-0.601c7.035-1.709,5.574-8.103,6.898-12.836c0.531-1.896,1.483-3.411,2.924-4.08
	c2.4-1.116,2.698-2.421,1.826-4.683c-0.426-1.105-0.49-2.585,1.385-2.831c0.219,0.292,0.49,0.558,0.649,0.879
	c3.324,6.674,10.244,8.629,16.51,4.655c5.542-3.514,6.475-10.029,2.455-15.849c-0.775-1.123-2.313-1.58-2.524-3.109
	c2.232-1.398,4.579-2.219,6.565-4.475c2.849-3.231,7.336-4.845,11.621-6.02c1.365-0.374,2.441-0.724,2.703-2.083
	c1.44-7.478,4.321-14.591,8.759-20.501c3.509-4.671,5.285-10.91,11.083-13.847c1.28-0.648,0.014-3.861,2.915-3.389
	c-1.502,8.85,2.273,14.494,10.472,15.909c6.941,1.198,12.916-3.475,14.08-11.44c0.756-5.178-5.564-12.399-11.095-12.869
	c-0.122-2.229,1.351-3.467,3.027-4.314c5.986-3.024,11.945-6.137,18.117-8.735c2.027-0.853,4.669-0.229,7.028-0.312
	c4.155-0.146,5.567-1.367,5.513-5.5C322.145,251.895,323.56,250.897,323.837,249.338z M256.747,359.723
	c-8.429-0.031-13.892,5.563-14.027,14.092c-0.142,8.939,6.439,14.15,13.575,14.34c7.938,0.211,14.962-6.695,14.895-14.226
	C271.12,366.255,264.508,359.751,256.747,359.723z M202.459,405.42c-7.116-0.085-12.99,5.104-12.906,11.751
	c0.106,8.378,5.045,12.243,11.817,12.902c6.807,0.662,12.942-5.772,12.775-12.802C214.01,411.525,208.474,405.035,202.459,405.42z
	 M293.43,435.469c-6.804,0.016-11.842,4.939-11.634,11.7c0.223,7.313,4.034,12.311,11.897,12.338
	c6.818,0.024,12.063-5.159,12.075-11.981C305.779,440.652,300.459,435.452,293.43,435.469z M307.254,402.639
	c0.015-5.902-5.079-11.375-10.543-11.328c-6.48,0.058-11.178,4.662-11.205,10.985c-0.027,6.402,4.699,11.345,10.848,11.343
	C302.215,413.637,307.239,408.566,307.254,402.639z M281.022,342.192c0.041,6.671,3.878,10.706,10.066,10.822
	c7.82,0.147,11.279-5.736,11.478-10.688c0.178-4.42-4.538-11.354-11.317-11.077C285.576,331.48,280.987,336.258,281.022,342.192z
	 M240.292,448.997c6.217-0.019,10.645-4.364,10.689-10.488c0.045-6.116-4.887-11.259-10.697-11.154
	c-5.61,0.101-10.994,5.64-10.922,11.239C229.436,444.385,234.302,449.016,240.292,448.997z"/>
<path fill-rule="evenodd" clip-rule="evenodd" fill="#EFD8B4" d="M288.483,272.606c5.531,0.47,11.851,7.691,11.095,12.869
	c-1.164,7.965-7.138,12.639-14.08,11.44c-8.198-1.415-11.974-7.059-10.472-15.909C277.744,275.374,281.831,271.937,288.483,272.606z
	"/>
<path fill-rule="evenodd" clip-rule="evenodd" fill="#EFD8B4" d="M231.382,331.322c0.212,1.529,1.749,1.986,2.524,3.109
	c4.02,5.819,3.088,12.335-2.455,15.849c-6.267,3.974-13.186,2.019-16.51-4.655c-0.16-0.321-0.431-0.587-0.649-0.879
	c-0.924-10.005,2.994-12.299,7.875-14.457C225.518,328.808,228.369,330.49,231.382,331.322z"/>
<path fill-rule="evenodd" clip-rule="evenodd" fill="#FBFAEF" d="M327.773,233.883c-2.486,4.642-4.709,9.354-3.931,14.859
	c-2.848-0.735-1.191-3.041-1.567-4.617c-0.73-3.056,1.463-5.519,1.963-8.36C324.457,234.521,325.984,233.383,327.773,233.883z"/>
<path fill-rule="evenodd" clip-rule="evenodd" fill="#F6E7CF" d="M325.265,299.754c-1.077-0.839-0.757-2.036-0.757-3.121
	c0-12.978,0.02-25.955,0.034-38.934c12.211,0.813,22.717,5.831,32.399,12.99c4.932,3.647,9.476,7.678,13.488,12.318
	c0.723,0.835,1.472,1.74,2.733,1.814c-0.001,0.001,0.031-0.012,0.032-0.012c0.871,2.48,1.564,5.092,4.459,6.091
	c1.519,4.839,5.563,8.385,6.838,13.35c-0.848,0.572-1.466,2.141-2.754,1.12c-3.153-2.497-6-0.557-8.713,0.641
	c-5.627,2.482-7.951,8.228-6.225,14.538c1.495,5.466,6.471,9.273,12.018,8.321c4.62-0.793,8.597-3.37,10.306-8.048
	c1.595-4.365,0.593-8.5-2.379-12.111c6.579,1.573,10.654,5.897,12.725,12.099c0.753,2.253,1.497,3.779,3.972,4.74
	c3.409,1.324,6.736,3.138,8.894,6.383c-1.44,0.956-2.826,2.011-4.331,2.85c-4.133,2.303-6.311,5.874-6.185,10.485
	c0.131,4.705,1.55,8.709,6.059,11.586c3.612,2.306,7.247,1.994,11.011,2.195c0.687,6.26,2.497,12.371,2.458,18.727
	c-2.636,3.918-5.302,7.743-4.642,12.939c0.456,3.593,2.598,6.361,3.88,9.54c-2.095,6.419-4.647,12.65-7.683,18.684
	c-0.729-0.112-1.536-0.06-2.173-0.364c-8.207-3.938-15.88-4.543-22.187,3.472c-2.874,3.653-4.676,7.602-3.787,12.49
	c0.846,4.649,4.142,7.79,6.524,11.502c-0.022,0.234-0.06,0.468-0.11,0.697c-0.93,0.013-1.381,0.538-1.51,1.41
	c-5,2.456-9.327,6.007-14.313,8.542c-12.672,6.443-25.999,10.402-40.132,11.848c-3.59,0.367-7.145,0.928-10.766,0.631
	c0.018-48.436,0.041-96.87,0.026-145.306c-0.001-1.595-0.372-3.188-0.571-4.782c4.056,2.654,7.973,5.137,13.378,4.029
	c6.108-1.252,11.379-7.267,11.012-13.584c-0.373-6.431-6.419-12.336-12.419-12.869C331.766,296.291,328.844,298.912,325.265,299.754
	z M382.107,384.492c-10.582-0.878-17.07,8.314-16.896,14.699c0.251,9.227,5.702,15.553,15.212,16.057
	c8.479,0.451,16.781-7.8,16.253-14.944C395.994,391.074,390.586,384.51,382.107,384.492z M337.141,440.77
	c6.296,0.862,12.011-4.337,12.061-10.793c0.046-5.975-4.887-10.746-10.838-11.061c-7.405-0.393-11.507,6.143-11.555,11.073
	C326.752,435.879,331.494,440.734,337.141,440.77z M364,340.25c-5.478-0.017-10.158,4.429-10.213,9.703
	c-0.061,5.738,4.52,10.372,10.338,10.458c5.749,0.087,9.838-4.2,9.861-10.339C374.008,344.541,369.663,340.269,364,340.25z"/>
<path fill-rule="evenodd" clip-rule="evenodd" fill="#E8C493" d="M412.902,418.938c3.035-6.033,5.588-12.265,7.682-18.685
	c2.187,0.039,4.093,0.987,5.994,1.904c5.876,2.836,15.848-1.799,17.881-7.916c2.346-7.059,0.227-12.615-5.207-17.246
	c4.646-6.623,8.302-5.799,13.42,1.767c0.328,0.483,0.511,1.599,0.672,1.582c4.697-0.504,5.32,3.94,7.693,6.23
	c0.152,0.146,0.469,0.12,0.709,0.175c1.694,4.167,3.295,8.374,5.102,12.49c4.052,9.234,3.528,18.575,0.895,28.002
	c-3.878,6.57-8.756,12.246-14.91,16.804c-4.244,3.143-9.12,5.195-13.591,7.945c-8.658,2.514-17.249,5.302-25.997,7.448
	c-5.994,1.471-12.205,2.063-18.324,3.016c-1.355,0.211-1.673-0.689-2.306-1.785c-1.929-3.343-0.789-7.161-2.037-10.563
	c-0.255-0.691-0.226-1.48-0.917-1.961c0.129-0.873,0.58-1.398,1.511-1.411c0.538,0.004,1.075,0.007,1.612,0.011
	c1.908-0.233,3.668,0.371,5.451,0.915c6.958,2.124,15.267-0.748,17.867-7.39c1.399-3.572,3.172-7.508,1.25-12.369
	C416.092,424.718,413.055,422.514,412.902,418.938z"/>
<path fill-rule="evenodd" clip-rule="evenodd" fill="#DFAF76" d="M439.252,376.996c5.434,4.631,7.553,10.188,5.207,17.246
	c-2.033,6.117-12.005,10.752-17.881,7.916c-1.901-0.917-3.808-1.865-5.994-1.904c-1.281-3.178-3.423-5.946-3.879-9.539
	c-0.66-5.196,2.006-9.021,4.642-12.939c2.647-1.008,5.228-2.283,7.957-2.956C432.862,373.943,436.116,375.424,439.252,376.996z"/>
<path fill-rule="evenodd" clip-rule="evenodd" fill="#EFD8B4" d="M418.889,359.049c-3.764-0.201-7.398,0.11-11.011-2.195
	c-4.509-2.877-5.928-6.881-6.059-11.586c-0.126-4.611,2.052-8.183,6.185-10.485c1.505-0.839,2.891-1.894,4.331-2.85
	c4.387,0.753,8.774,1.161,11.731,5.399c4.5,6.45,4.32,15.263-2.993,19.314C419.957,357.264,419.507,358.152,418.889,359.049z"/>
<path fill-rule="evenodd" clip-rule="evenodd" fill="#EFD8B4" d="M386.745,308.711c2.972,3.611,3.974,7.746,2.379,12.111
	c-1.709,4.678-5.686,7.255-10.306,8.048c-5.547,0.952-10.522-2.854-12.018-8.321c-1.727-6.31,0.598-12.056,6.225-14.538
	c2.713-1.197,5.56-3.138,8.713-0.641c1.288,1.021,1.906-0.548,2.754-1.12C385.243,305.737,385.994,307.225,386.745,308.711z"/>
<path fill-rule="evenodd" clip-rule="evenodd" fill="#E8C493" d="M377.654,290.901c-2.895-1-3.588-3.611-4.459-6.091
	C377.362,284.877,377.602,287.822,377.654,290.901z"/>
<path fill-rule="evenodd" clip-rule="evenodd" fill="#E4BB89" d="M465.36,366.885c-0.422-1.449-1.312-2.859,0.26-3.738
	c0.241-0.136,1.137,0.462,1.423,0.914C468.269,366.002,465.944,365.923,465.36,366.885z"/>
<path fill-rule="evenodd" clip-rule="evenodd" fill="#E8C493" d="M256.747,359.723c7.761,0.028,14.373,6.532,14.442,14.206
	c0.068,7.53-6.957,14.437-14.895,14.226c-7.136-0.189-13.717-5.4-13.575-14.34C242.855,365.285,248.318,359.691,256.747,359.723z"/>
<path fill-rule="evenodd" clip-rule="evenodd" fill="#E2B883" d="M325.265,299.754c3.579-0.842,6.501-3.463,10.61-3.099
	c6,0.533,12.046,6.438,12.419,12.869c0.367,6.317-4.903,12.332-11.012,13.584c-5.405,1.107-9.322-1.375-13.378-4.029
	c-2.91-5.66-3.589-11.337-0.138-17.048c0.213-0.271,0.425-0.542,0.637-0.813C324.988,300.904,325.203,300.374,325.265,299.754z"/>
<path fill-rule="evenodd" clip-rule="evenodd" fill="#E8C493" d="M202.459,405.42c6.014-0.385,11.55,6.105,11.687,11.852
	c0.167,7.029-5.968,13.464-12.775,12.802c-6.772-0.659-11.711-4.524-11.817-12.902C189.469,410.523,195.344,405.335,202.459,405.42z
	"/>
<path fill-rule="evenodd" clip-rule="evenodd" fill="#EFD8B4" d="M293.43,435.469c7.029-0.017,12.35,5.184,12.338,12.057
	c-0.013,6.822-5.257,12.006-12.075,11.981c-7.863-0.027-11.674-5.025-11.897-12.338C281.588,440.408,286.626,435.484,293.43,435.469
	z"/>
<path fill-rule="evenodd" clip-rule="evenodd" fill="#E8C493" d="M307.254,402.639c-0.015,5.928-5.039,10.998-10.9,11
	c-6.148,0.002-10.875-4.94-10.848-11.343c0.027-6.323,4.725-10.928,11.205-10.985C302.175,391.264,307.269,396.736,307.254,402.639z
	"/>
<path fill-rule="evenodd" clip-rule="evenodd" fill="#E8C493" d="M281.022,342.192c-0.036-5.935,4.554-10.712,10.227-10.943
	c6.779-0.276,11.495,6.657,11.317,11.077c-0.199,4.952-3.657,10.836-11.478,10.688C284.901,352.898,281.063,348.863,281.022,342.192
	z"/>
<path fill-rule="evenodd" clip-rule="evenodd" fill="#E8C493" d="M240.292,448.997c-5.99,0.019-10.856-4.612-10.93-10.403
	c-0.071-5.6,5.312-11.139,10.922-11.239c5.81-0.104,10.742,5.038,10.697,11.154C250.937,444.633,246.509,448.979,240.292,448.997z"
	/>
<path fill-rule="evenodd" clip-rule="evenodd" fill="#F6E7CF" d="M324.403,301.218c-0.212,0.271-0.424,0.541-0.637,0.813
	C323.979,301.76,324.191,301.489,324.403,301.218z"/>
<path fill-rule="evenodd" clip-rule="evenodd" fill="#EFD8B4" d="M412.902,418.938c0.152,3.575,3.189,5.779,4.449,8.964
	c1.922,4.861,0.149,8.797-1.25,12.369c-2.601,6.642-10.909,9.514-17.867,7.39c-1.783-0.544-3.543-1.148-5.451-0.915
	c-0.334-0.592-0.894-0.703-1.503-0.708c-2.383-3.712-5.679-6.853-6.524-11.502c-0.889-4.889,0.913-8.837,3.787-12.49
	c6.307-8.015,13.979-7.409,22.187-3.472C411.366,418.879,412.174,418.826,412.902,418.938z"/>
<path fill-rule="evenodd" clip-rule="evenodd" fill="#EFD8B4" d="M382.107,384.492c8.479,0.018,13.887,6.582,14.569,15.812
	c0.528,7.145-7.774,15.396-16.253,14.944c-9.51-0.504-14.961-6.83-15.212-16.057C365.037,392.807,371.525,383.614,382.107,384.492z"
	/>
<path fill-rule="evenodd" clip-rule="evenodd" fill="#E4BB89" d="M337.141,440.77c-5.646-0.035-10.389-4.891-10.332-10.78
	c0.048-4.931,4.149-11.466,11.555-11.073c5.951,0.314,10.884,5.086,10.838,11.061C349.151,436.433,343.437,441.632,337.141,440.77z"
	/>
<path fill-rule="evenodd" clip-rule="evenodd" fill="#E4BB89" d="M364,340.25c5.663,0.019,10.008,4.291,9.986,9.822
	c-0.023,6.139-4.112,10.426-9.861,10.339c-5.818-0.086-10.398-4.72-10.338-10.458C353.842,344.679,358.522,340.233,364,340.25z"/>
<path fill-rule="evenodd" clip-rule="evenodd" fill="#E2B67E" d="M391.28,446.038c0.609,0.005,1.169,0.116,1.503,0.708
	c-0.537-0.004-1.074-0.007-1.612-0.011C391.221,446.506,391.258,446.272,391.28,446.038z"/>
</svg>
