<?xml version="1.0" encoding="utf-8"?>
<!-- Generator: Adobe Illustrator 16.0.0, SVG Export Plug-In . SVG Version: 6.00 Build 0)  -->
<!DOCTYPE svg PUBLIC "-//W3C//DTD SVG 1.1//EN" "http://www.w3.org/Graphics/SVG/1.1/DTD/svg11.dtd">
<svg version="1.1" id="Layer_1" xmlns="http://www.w3.org/2000/svg" xmlns:xlink="http://www.w3.org/1999/xlink" x="0px" y="0px"
	 width="640px" height="640px" viewBox="0 0 640 640" enable-background="new 0 0 640 640" xml:space="preserve">
<path fill-rule="evenodd" clip-rule="evenodd" fill="#313537" d="M127.653,473.493c-23.582-17.764-37.23-41.933-43.752-70.138
	c-3.646-15.767-3.449-32.005-2.69-48.228c1.342-28.703,10.092-55.225,22.57-80.712c9.16-18.712,21.19-35.549,35.047-51.052
	c31.677-35.441,70.535-59.738,115.794-73.894c14.194-4.439,28.708-7.44,43.539-9.033c6.45-0.692,12.944-1.119,19.343-1.13
	c30.317-0.053,59.646,5.504,87.718,17.156c37.992,15.77,71.077,38.51,98.145,69.643c13.81,15.884,25.338,33.346,34.561,52.279
	c7.693,15.795,13.936,32.196,17.327,49.43c3.394,17.239,4.701,34.714,3.612,52.369c-0.958,15.512-3.824,30.479-9.642,44.921
	c-7.066,17.543-17.621,32.524-31.98,44.829c-1.551,1.174-1.981,3.732-4.532,3.673c-5.602,3.737-11.31,7.296-17.338,10.315
	c-0.503,0.24-1.006,0.48-1.507,0.722c-8.386,3.86-17.384,5.821-26.171,8.436c-0.488,0.074-0.978,0.147-1.466,0.222
	c-0.84-0.109-1.615,0.008-2.237,0.647c-7.096-0.097-13.537,3.331-20.631,3.636c-7.08,0.304-13.941,3.034-21.066,3.043
	c-68.236,0.09-136.471,0.075-204.707,0.018c-3.189-0.003-6.411-0.52-9.563-1.092c-11.676-2.123-23.327-4.369-34.989-6.568
	c-6.22-1.717-12.439-3.434-18.659-5.15c-0.593-0.736-1.496-0.711-2.297-0.936c-0.454-0.476-0.996-0.553-1.599-0.353
	c-0.246-0.058-0.491-0.116-0.736-0.174c-0.207-0.725-0.835-0.776-1.424-0.892c-3.43-1.722-6.86-3.443-10.291-5.164
	c-1.673-1.039-3.346-2.077-5.019-3.115C131.225,475.966,129.439,474.729,127.653,473.493z M489.611,248.561l0.057,0.003
	c0.008-1.429-1.194-2.126-1.951-3.036c-8.432-10.136-17.721-19.387-27.867-27.845c-13.814-11.516-28.513-21.615-44.634-29.614
	c-9.348-4.771-18.824-9.236-28.901-12.292c-12.463-4.914-25.391-8.074-38.585-10.23c-1.01,0.222-1.797-1.389-2.905-0.355
	c-7.326-1.431-14.784-1.564-22.183-1.756c-24.149-0.628-47.542,3.84-70.145,12.072c-59.188,21.556-103.1,60.263-130.382,117.316
	c-9.867,20.634-15.254,42.491-16.507,65.295c-1.005,18.286,0.181,36.402,6.707,53.762c3.287,8.742,7.293,17.156,13.364,24.405
	l-0.014-0.096c0.054,0.265,0.108,0.528,0.162,0.793c5.654,7.87,12.454,14.511,20.612,19.813c9.248,6.011,19.494,9.449,30.109,11.804
	c13.057,2.895,26.131,6.452,39.547,6.494c69.715,0.223,139.43,0.086,209.145,0.047c1.317-0.001,2.774,0.449,3.917-0.688
	c9.951-0.808,19.742-2.609,29.531-4.534c13.067-2.569,25.689-6.264,36.69-14.022c14.159-9.984,24.36-23.125,30.324-39.464
	c1.473-3.305,2.924-6.529,3.907-10.117c6.548-23.892,6.249-47.864,1.635-71.948c-0.232-1.217,0.432-3.51-2.03-3.758
	c-0.144-0.067-0.294-0.088-0.451-0.062c0,0-0.014-0.095-0.019-0.089l-0.054-0.229c0.833,0.064,1.149-0.373,1.114-1.15
	c-0.062-0.605-0.049-1.23-0.196-1.813c-4.435-17.454-10.892-34.104-19.744-49.81c-4.649-8.25-9.657-16.253-15.718-23.558
	C492.893,251.899,491.595,249.938,489.611,248.561z"/>
<path fill-rule="evenodd" clip-rule="evenodd" fill="#ECA46D" d="M528.749,330.452c0,0,0.014,0.095,0.009,0.1
	c0.008,0.208,0.021,0.412,0.033,0.616c0.141-0.187,0.281-0.373,0.422-0.56c2.463,0.248,1.799,2.541,2.031,3.758
	c4.614,24.084,4.913,48.057-1.635,71.948c-0.983,3.588-2.435,6.813-3.908,10.115c-0.229-2.856-1.021-5.952,0.271-8.487
	c1.507-2.959,0.689-5.861,0.994-8.772c0.179-1.709-1.093-2.174-2.339-2.323c-1.945-0.234-1.256,1.387-1.379,2.332
	c-0.5,3.822-1.021,7.644-0.788,11.52c0.063,1.035-0.085,2.074-1.499,2.102c-1.18,0.023-1.383-0.802-1.485-1.741
	c-0.061-0.561,0.069-1.289-0.899-1.407c-1.784,1.684,1.063,5.185-1.937,6.048c-2.198,0.632-4.707,0.18-7.078,0.211
	c-0.249,0.003-0.5,0.012-0.749,0.006c-1.82-0.044-2.93,0.774-2.797,2.661c0.173,2.441-1.114,3.155-3.277,3.573
	c-3.442,0.664-7.301,0.521-9.578,4.085c-0.265,0.415-1.117,0.533-1.724,0.639c-4.431,0.768-8.666,1.875-12.924,3.599
	c-5.509,2.231-11.486,3.656-17.633,3.472c-0.702-0.021-1.563,0.145-2.1,0.554c-4.382,3.333-9.971,4.775-14.806,5.018
	c-7.961,0.399-15.369,2.952-23.1,3.695c-3.441,0.33-5.777,2.993-9.309,2.779c-5.541-0.336-11.179-0.441-15.328,4.438
	c-0.646,0.759-1.773,0.928-2.754,0.254c-4.58-3.146-9.602-1.818-14.461-1.219c-1.583,0.197-4.08-0.84-4.744,1.146
	c-1.272,3.811-3.478,3.249-6.063,1.912c-1.238-0.641-2.334-0.772-2.512,0.819c-0.561,5.034-3.476,7.516-8.259,8.422
	c-0.976,0.185-1.759,1.334-2.655,2.006c-0.559,0.419-0.957,0.884-0.358,1.497c2.845,2.913-0.233,3.047-1.698,3.039
	c-3.857-0.019-3.645,1.996-2.752,4.604c-24.588,0.001-49.174,0.008-73.761-0.016c-1.563-0.001-3.171,0.364-4.563-1.015
	c-1.66-1.646-3.614-1.589-5.356-0.02c-0.802,0.723-1.617,1.057-2.676,1.054c-8.113-0.018-16.226-0.002-24.338-0.02
	c-1.099-0.002-2.467,0.146-2.407-1.545c0.06-1.681,1.479-1.534,2.522-1.406c5.947,0.729,11.769-0.002,17.71-0.589
	c11.007-1.087,22.127-1.372,33.21-0.883c3.549,0.157,6.581-0.961,10.592-2.428c-3.979-1.233-7.365-0.005-11.457-1.356
	c3.975-1.287,7.051-0.829,10.012-0.704c3.828,0.161,5.986-1.224,6.267-5.121c0.106-1.474,0.808-2.563,2.277-2.384
	c5.676,0.691,11.066-1.532,16.632-1.483c2.438,0.021,3.682-0.819,4.356-2.954c5.595-0.068,10.966-1.715,16.483-2.332
	c5.544,1.897,10.962,0.498,16.06-1.359c3.47-1.266,7.873-0.096,10.463-3.765c0.091-0.128,0.584-0.166,0.705-0.051
	c2.221,2.112,4.918,0.797,7.383,1.132c1.875,0.254,2.914,0.123,2.899-2.043c-0.016-2.317,0.885-2.054,2.828-1.459
	c3.489,1.07,8.789,3.327,10.542,0.887c3.243-4.517,9.191-0.624,11.667-5.224c0.247-0.459,1.409-0.077,2.053,0.389
	c0.715,0.519,1.447,1.146,2.283,0.239c0.774-0.839,0.922-2.001,0.241-2.756c-3.802-4.209-0.492-4.036,2.468-4.158
	c0.36-0.016,0.709-0.232,1.072-0.311c5.421-1.173,5.421-1.172,4.333-6.32c0.473-0.138,0.999-0.185,1.41-0.426
	c5.655-3.323,5.653-3.332,9.085,2.205c1.374,2.22,2.119,0.73,2.738-0.527c1.78-3.621,6.448-2.715,8.71-5.592
	c0.115-0.147,0.986,0.096,1.34,0.371c1.6,1.249,1.965,0.512,2.35-1.107c0.512-2.146,1.585-3.94,4.257-3.961
	c2.022-0.015,2.455-1.418,2.347-3.084c-0.17-2.608-0.024-5.018,2.82-6.293c0.378-0.17,0.791-0.777,0.795-1.184
	c0.032-3.902,3.809-4.907,5.752-7.282c1.734-2.12,3.668-3.895,5.192-6.363c1.83-2.964,2.189-6.567,4.844-9.181
	c3.883-3.822,8.59-6.09,13.35-8.372c0.889-0.426,2.226-0.489,2.288-1.632c0.267-4.889,4.451-8.785,3.318-14.09
	c-0.42-1.963,3.96-6.337,5.93-6.17c2.879,0.246,5.729-0.168,7.354-2.398c1.998-2.747,3.477-5.793,5.949-8.314
	c1.108-1.13,0.741-3.781,0.898-5.754c0.374-4.686,3.646-7.745,8.381-7.565c1.721,0.065,3.429,0.47,5.143,0.72
	c-0.123,0.828-0.641,2.021-0.285,2.405c0.688,0.744,1.755,0.234,2.635-0.242C527.599,330.792,528.191,330.653,528.749,330.452z"/>
<path fill-rule="evenodd" clip-rule="evenodd" fill="#F9FAFB" d="M125.678,436.285c-6.07-7.249-10.076-15.663-13.363-24.405
	c-6.526-17.359-7.712-35.476-6.707-53.762c1.253-22.804,6.641-44.661,16.507-65.295c27.282-57.054,71.194-95.76,130.382-117.316
	c22.603-8.232,45.996-12.7,70.145-12.072c7.398,0.192,14.856,0.326,22.183,1.756c-0.823,1.55-2.389,1.618-3.781,2.265
	c-3.162,1.469-7.541,1.231-9.039,5.479l0.003-0.004c-0.989,0.007-1.489,0.51-1.514,1.494l0.005-0.004
	c-1.834,0.656-3.687,1.186-4.784,3.096c-0.665,1.155-2.103,1.735-3.273,1.313c-5.247-1.886-9.978,1.019-14.962,1.452
	c-1.929,0.167-4.009-0.447-5.819,0.835c-4.678,3.311-10.491,1.96-15.581,3.725c-2.937,1.019-7.094-1.819-8.932,2.841
	c-0.052,0.132-0.482,0.217-0.7,0.167c-3.897-0.902-6.529,1.364-9.135,3.654c-1.043,0.917-2.313,0.693-3.507,0.951
	c-3.421,0.738-6.831,1.534-10.224,2.426c-4.408,1.16-7.497,4.563-11.705,6.043c-1.977,0.696-5.127-0.612-5.89,2.753
	c-0.493,0.008-0.987,0.016-1.481,0.024c-1.115-1.227-2.869-1.238-3.741-0.49c-2.423,2.079-5.705,2.491-8.053,4.534
	c-1.583,1.378-4.583,1.169-4.724,4.169c-0.111,0.35-0.117,0.807-0.348,1.035c-4.21,4.163-10.714,5.166-14.209,10.487
	c-0.695,1.059-2.97,1.231-4.497,2.017c-3.55,1.828-5.345,5.2-7.741,7.925c-1.747,1.986-4.021,3.422-5.48,5.64
	c-2.308-0.46-4.471,0.475-6.708,0.694c-3.249-1.066-8.926,4.1-9.014,8.2c-0.334,1.896-2.177,2.596-3.222,3.934
	c-5.305,6.786-10.843,13.39-16.299,20.058c-4.428-0.79-2.261,3.754-4.095,5.229c-0.767,0.617-1.139,2.787,0.763,3.691
	c0.108,0.051,0.239,0.055,0.359,0.081c0.037,0.227,0.043,0.452,0.019,0.681c0.208,0.271,0.417,0.542,0.625,0.813
	c0.06,0.75,0.119,1.498,0.179,2.246c-2.294,0.408-1.49,2.242-1.556,3.577c-0.081,1.632-0.092,3.185-1.336,4.491
	c-4.08,4.285-5.521,9.927-7.698,15.188c-1.179,2.673-2.665,5.256-3.48,8.036c-2.475,8.435-4.972,16.854-6.965,25.442
	c-2.037,8.773-2.589,17.621-3.041,26.519c-0.669,13.201,1.095,26.258,2.509,39.332c-0.85,6.978-2.087,13.902-1.78,21.005
	C125.088,430.944,126.409,433.528,125.678,436.285z"/>
<path fill-rule="evenodd" clip-rule="evenodd" fill="#ECAD77" d="M524.732,328.909c-1.714-0.25-3.422-0.654-5.143-0.72
	c-4.734-0.18-8.007,2.88-8.381,7.565c-0.157,1.973,0.21,4.624-0.898,5.754c-2.473,2.521-3.951,5.567-5.949,8.314
	c-1.624,2.23-4.475,2.645-7.354,2.398c-1.97-0.167-6.35,4.207-5.93,6.17c1.133,5.305-3.052,9.201-3.318,14.09
	c-0.063,1.143-1.399,1.206-2.288,1.632c-4.76,2.282-9.467,4.55-13.35,8.372c-2.654,2.613-3.014,6.217-4.844,9.181
	c-1.524,2.469-3.458,4.243-5.192,6.363c-1.943,2.375-5.72,3.38-5.752,7.282c-0.004,0.406-0.417,1.014-0.795,1.184
	c-2.845,1.275-2.99,3.685-2.82,6.293c0.108,1.666-0.324,3.069-2.347,3.084c-2.672,0.021-3.745,1.814-4.257,3.961
	c-0.385,1.619-0.75,2.356-2.35,1.107c-0.354-0.275-1.225-0.519-1.34-0.371c-2.262,2.877-6.93,1.971-8.71,5.592
	c-0.619,1.258-1.364,2.747-2.738,0.527c-3.432-5.537-10.025-7.326-9.085-2.205s-0.322,5.573-5.743,6.746
	c-0.363,0.078-0.712,0.295-1.072,0.311c-2.96,0.122-6.27-0.051-2.468,4.158c0.681,0.755,0.533,1.917-0.241,2.756
	c-0.836,0.906-1.568,0.279-2.283-0.239c-0.644-0.466-1.806-0.848-2.053-0.389c-2.476,4.6-8.424,0.707-11.667,5.224
	c-1.753,2.44-7.053,0.184-10.542-0.887c-1.943-0.595-2.844-0.858-2.828,1.459c0.015,2.166-1.024,2.297-2.899,2.043
	c-2.465-0.335-5.162,0.98-7.383-1.132c-0.121-0.115-0.614-0.077-0.705,0.051c-2.59,3.669-6.993,2.499-10.463,3.765
	c-5.098,1.857-10.516,3.257-16.06,1.359c0.42-0.239,0.813-0.611,1.262-0.697c12.718-2.448,24.983-6.182,36.85-11.502
	c14.732-6.606,28.307-14.907,40.903-24.981c12.873-10.294,24.294-21.882,34.225-35.07c9.29-12.335,16.955-25.481,21.575-40.206
	c4.578-14.587,6.56-29.507,4.874-44.894c-1.012-9.225-2.784-18.111-6.88-26.467c0.043-1.1-0.949-1.531-1.469-2.267
	c-0.014-2.069-0.957-3.731-2.288-5.224c-0.873-4.024-3.72-7.023-5.912-10.207c-4.991-7.248-10.674-14.027-17.096-20.109
	c-6.199-5.87-12.469-11.663-19.726-16.254c-0.268-0.226-0.535-0.451-0.802-0.677l-0.008-0.015c-0.235-0.953-0.303-1.992-0.737-2.842
	c-1.309-2.555-0.691-3.727,2.006-5.106c3.3-1.686,4.704,0.802,6.925,1.797c5.322,2.386,10.477,4.867,13.395,10.365
	c0.365,0.687,1.404,1.507,2.07,1.458c2.693-0.202,4.482,1.89,5.83,3.199c3.847,3.738,6.565,8.637,11.576,11.198
	c1.362,0.697-0.139,2.825,0.935,2.771c4.704-0.233,4.463,4.796,7.315,6.623c1.542,0.988,4.021,1.514,4.572,3.856
	c0.603,2.561,2.539,3.5,4.787,4.107c0,0-0.057-0.003-0.059-0.003c-0.711,3.67,2.5,4.004,4.537,5.338
	c6.061,7.304,11.068,15.308,15.718,23.558c8.853,15.706,15.31,32.355,19.744,49.81c0.147,0.583,0.135,1.208,0.194,1.813
	c-0.697,0.072-1.084,0.438-1.112,1.151c0,0,0.054,0.229,0.057,0.225c-0.556,0.199-1.148,0.338-1.665,0.618
	c-0.88,0.477-1.947,0.986-2.635,0.242C524.092,330.93,524.609,329.737,524.732,328.909l0.297-0.165l-0.132-0.132L524.732,328.909z"
	/>
<path fill-rule="evenodd" clip-rule="evenodd" fill="#EC9A60" d="M349.982,472.909c-0.893-2.607-1.105-4.622,2.752-4.604
	c1.465,0.008,4.543-0.126,1.698-3.039c-0.599-0.613-0.2-1.078,0.358-1.497c0.896-0.672,1.68-1.821,2.655-2.006
	c4.783-0.906,7.698-3.388,8.259-8.422c0.178-1.592,1.273-1.46,2.512-0.819c2.585,1.337,4.79,1.898,6.063-1.912
	c0.664-1.986,3.161-0.949,4.744-1.146c4.859-0.6,9.881-1.928,14.461,1.219c0.98,0.674,2.108,0.505,2.754-0.254
	c4.149-4.88,9.787-4.774,15.328-4.438c3.531,0.214,5.867-2.449,9.309-2.779c7.73-0.743,15.139-3.296,23.1-3.695
	c4.835-0.242,10.424-1.685,14.806-5.018c0.536-0.409,1.397-0.575,2.1-0.554c6.146,0.185,12.124-1.24,17.633-3.472
	c4.258-1.724,8.493-2.831,12.924-3.599c0.606-0.105,1.459-0.224,1.724-0.639c2.277-3.563,6.136-3.421,9.578-4.085
	c2.163-0.418,3.45-1.132,3.277-3.573c-0.133-1.887,0.977-2.705,2.797-2.661c0.249,0.006,0.5-0.003,0.749-0.006
	c2.371-0.031,4.88,0.421,7.078-0.211c3-0.863,0.152-4.364,1.937-6.048c0.969,0.118,0.839,0.847,0.899,1.407
	c0.103,0.939,0.306,1.765,1.485,1.741c1.414-0.027,1.562-1.066,1.499-2.102c-0.233-3.876,0.288-7.697,0.788-11.52
	c0.123-0.945-0.566-2.566,1.379-2.332c1.246,0.149,2.518,0.614,2.339,2.323c-0.305,2.911,0.513,5.813-0.994,8.772
	c-1.292,2.535-0.5,5.631-0.271,8.487c-5.963,16.341-16.164,29.481-30.323,39.466c-11.001,7.759-23.623,11.453-36.69,14.022
	c-9.789,1.925-19.58,3.727-29.532,4.534C402.793,472.45,376.382,472.97,349.982,472.909z M384.406,454.056
	c0.314-0.427,0.654-0.685,0.652-0.941c0-0.275-0.321-0.55-0.502-0.824c-0.229,0.227-0.608,0.431-0.647,0.688
	C383.868,453.241,384.158,453.556,384.406,454.056z"/>
<path fill-rule="evenodd" clip-rule="evenodd" fill="#ECAD77" d="M349.982,472.909c26.399,0.061,52.811-0.459,79.173,1.543
	c-1.142,1.137-2.599,0.687-3.916,0.688c-69.715,0.039-139.43,0.176-209.145-0.047c-13.416-0.042-26.49-3.6-39.547-6.494
	c-10.615-2.354-20.861-5.793-30.109-11.804c-8.158-5.302-14.958-11.942-20.612-19.813c0.62-0.402,0.706-0.695-0.162-0.792
	l0.014,0.096c0.73-2.757-0.59-5.341-0.707-8.05c-0.308-7.103,0.93-14.027,1.778-21.007c1.449-0.012,1.916,1.305,2.246,2.179
	c3.681,9.738,11.118,16.086,19.385,21.668c9.789,6.608,20.732,10.491,32.1,13.326c13.735,3.607,27.731,5.6,41.857,6.83
	c19.229,1.676,38.491,2.651,57.791,2.899c16.328,0.208,32.617-0.563,48.874-2.091c-0.675,2.135-1.918,2.975-4.356,2.954
	c-5.566-0.049-10.957,2.175-16.632,1.483c-1.47-0.179-2.171,0.91-2.277,2.384c-0.28,3.897-2.438,5.282-6.267,5.121
	c-2.961-0.125-6.037-0.583-10.012,0.704c4.092,1.352,7.478,0.123,11.457,1.356c-4.011,1.467-7.043,2.585-10.592,2.428
	c-11.083-0.489-22.203-0.204-33.21,0.883c-5.941,0.587-11.763,1.318-17.71,0.589c-1.043-0.128-2.463-0.274-2.522,1.406
	c-0.06,1.691,1.309,1.543,2.407,1.545c8.112,0.018,16.225,0.002,24.338,0.02c1.059,0.003,1.874-0.331,2.676-1.054
	c1.742-1.569,3.696-1.626,5.356,0.02c1.393,1.379,3,1.014,4.563,1.015C300.808,472.917,325.395,472.91,349.982,472.909z"/>
<path fill-rule="evenodd" clip-rule="evenodd" fill="#F6E6CE" d="M347.729,165.546c13.194,2.156,26.122,5.316,38.585,10.23
	c-2.666,0.143-4.724,1.967-7.232,2.62c-1.461,0.38-1.676,1.723-0.689,2.963c0.854,1.073,2.119,1.544,3.254,2.232
	c1.545,0.938,4.483,0.561,4.314,3.601c-1.394,0.048-2.653-0.365-3.961-0.856c-4.164-1.567-8.319-3.229-12.605-4.379
	c-7.848-2.106-15.852-3.662-23.932-4.407c-4.239-0.392-8.354-2.59-12.807-1.001c-1.516,0.541-2.26-0.575-2.158-2.129l-0.005,0.004
	c0.958-0.039,1.464-0.535,1.514-1.494c0,0-0.003,0.004-0.003,0.004c5.026-2.043,10.061-4.07,15.066-6.166
	C347.402,166.63,347.515,165.966,347.729,165.546z"/>
<path fill-rule="evenodd" clip-rule="evenodd" fill="#EBCFAC" d="M489.668,248.563c-2.248-0.607-4.185-1.546-4.787-4.107
	c-0.551-2.342-3.03-2.868-4.572-3.856c-2.853-1.827-2.611-6.856-7.315-6.623c-1.073,0.054,0.428-2.075-0.935-2.771
	c-5.011-2.561-7.729-7.46-11.576-11.198c-1.348-1.309-3.137-3.401-5.83-3.199c-0.666,0.05-1.705-0.771-2.07-1.458
	c-2.918-5.498-8.072-7.979-13.395-10.365c-2.221-0.995-3.625-3.482-6.925-1.797c-2.697,1.379-3.314,2.551-2.006,5.106
	c0.435,0.85,0.502,1.889,0.737,2.842c-1.104,0.063-1.703-0.804-2.523-1.303c-3.884-2.361-7.106-5.867-11.785-6.856l-0.008-0.038
	c-0.252-0.229-0.504-0.458-0.756-0.686c-0.723-0.292-1.443-0.583-2.165-0.875c-0.249-0.247-0.498-0.494-0.747-0.741
	c-0.536-0.798-1.424-0.733-2.217-0.902c-0.272-0.44-0.545-0.882-0.817-1.323l0.001,0.004c0.865-1.614,2.243-3.812-0.667-4.235
	c-4.39-0.638-6.454-4.239-9.638-6.376c-1.338-0.897-1.329-2.269-0.396-3.164c0.984-0.946,2.347-0.108,2.816,0.82
	c0.768,1.515,1.842,1.805,3.311,1.724c0.857-0.047,1.585,0.065,2.26,0.905c1.672,2.082,5.245,1.993,7.554-0.021
	c16.121,7.999,30.819,18.098,44.634,29.614c10.146,8.458,19.436,17.709,27.867,27.845
	C488.474,246.438,489.676,247.134,489.668,248.563z"/>
<path fill-rule="evenodd" clip-rule="evenodd" fill="#F3DDBE" d="M415.216,188.069c-2.309,2.013-5.882,2.102-7.554,0.021
	c-0.675-0.839-1.402-0.952-2.26-0.905c-1.469,0.082-2.543-0.209-3.311-1.724c-0.47-0.928-1.832-1.766-2.816-0.82
	c-0.933,0.896-0.941,2.267,0.396,3.164c3.184,2.137,5.248,5.738,9.638,6.376c2.91,0.424,1.532,2.622,0.668,4.235
	c-8.006-3.741-16.011-7.482-24.017-11.223c0.169-3.041-2.77-2.664-4.314-3.602c-1.135-0.688-2.399-1.159-3.254-2.232
	c-0.986-1.241-0.771-2.583,0.689-2.963c2.509-0.653,4.566-2.478,7.232-2.62C396.392,178.833,405.868,183.298,415.216,188.069z"/>
<path fill-rule="evenodd" clip-rule="evenodd" fill="#FAFCF4" d="M347.729,165.546c-0.215,0.42-0.327,1.083-0.659,1.222
	c-5.006,2.096-10.04,4.123-15.066,6.166c1.498-4.247,5.877-4.009,9.039-5.478c1.393-0.646,2.958-0.714,3.781-2.265
	C345.933,164.158,346.72,165.768,347.729,165.546z"/>
<path fill-rule="evenodd" clip-rule="evenodd" fill="#EBCFAC" d="M494.146,253.898c-2.037-1.334-5.248-1.668-4.537-5.338
	C491.595,249.938,492.893,251.899,494.146,253.898z"/>
<path fill-rule="evenodd" clip-rule="evenodd" fill="#ECA46D" d="M528.69,330.229c0.028-0.714,0.415-1.079,1.112-1.151
	C529.84,329.856,529.523,330.294,528.69,330.229z"/>
<path fill-rule="evenodd" clip-rule="evenodd" fill="#F9FAFB" d="M125.664,436.189c0.867,0.097,0.782,0.39,0.162,0.792
	C125.772,436.718,125.718,436.454,125.664,436.189z"/>
<path fill-rule="evenodd" clip-rule="evenodd" fill="#ECAD77" d="M529.213,330.608c-0.141,0.187-0.281,0.373-0.422,0.56
	c-0.013-0.204-0.025-0.408-0.033-0.616C528.92,330.521,529.07,330.541,529.213,330.608z"/>
<path fill-rule="evenodd" clip-rule="evenodd" fill="#F3DDBE" d="M329.002,452.04c-16.256,1.528-32.545,2.299-48.874,2.091
	c-19.3-0.248-38.563-1.224-57.791-2.899c-14.126-1.23-28.122-3.223-41.857-6.83c0.626-1.789,3.25-3.855-0.898-4.946
	c-0.648-0.171-0.914-1.909-1.301-2.943c-0.781-2.088-1.312-4.299-2.32-6.267c-3.947-7.703-1.731-16.299,5.606-20.855
	c1.163-0.723,1.999-1.454,1.913-2.897c-0.074-1.247,0.535-2.204,1.457-2.886c3.854-2.854,7.383-6.402,12.858-5.734
	c1.843,0.224,3.736,0.053,5.606,0.023c0.844-0.013,1.794,0.178,2.353-0.743c2.048-3.376,5.03-2.108,7.964-1.771
	c6.601,0.76,9.468,7.956,15.85,9.017c0.154,0.024,0.307,0.388,0.363,0.617c1.162,4.74,5.738,5.145,9.055,7.146
	c2.28,4.781,5.15,8.947,11.154,8.971c16.499,0.064,32.999,0.064,49.498-0.01c4.127-0.019,8.142-3.735,9.337-7.723
	c1.016-3.388-0.979-6.298-1.002-9.482c0.705,0.072,1.782-0.213,1.904,0.698c0.542,4.061,2.913,2.97,5.094,1.785
	c2.033-1.104,3.886-2.214,6.276-2.826c2.471-0.632,6.521-1.337,4.869-6.294c-0.891-2.669-0.675-5.88,3.571-6.263
	c0.498-0.044,1.063-0.65,1.388-1.136c3.219-4.827,8.389-4.396,13.072-4.393c2.538,0.002,6.698-0.468,6.197,4.535
	c-0.028,0.278,0.647,0.855,1.052,0.916c4.197,0.631,2.553,3.436,2.083,5.691c-0.194,0.933-0.936,1.736-1.291,2.652
	c-0.835,2.155-0.301,4.177,1.05,5.9c1.281,1.637,2.977,0.861,4.468,0.281c3.662-1.423,7.441-1.811,11.326-1.562
	c2.992,0.19,4.736-1.896,6.429-3.82c0.972-1.105,2.101-2.226,3.379-2.036c6.275,0.931,7.216-6.848,12.47-7.443
	c0.088-0.011,0.2-0.174,0.229-0.284c1.331-5.176,6.582-6.72,9.697-10.259c0.98-1.115,1.144-1.979,1.246-3.152
	c2.643,0.203,4.85,1.678,7.286,2.486c1.927,0.639,4.124,1.273,5.624-0.309c2.485-2.619,4.623-5.71,4.939-9.406
	c0.199-2.33,0.791-4.525,1.883-6.353c2.389-3.997,2.7-7.839,0.512-11.913c5.453-1.792,6.701-7.924,11.107-10.815
	c0.255-0.167,0.192-0.96,0.129-1.441c-0.4-3.077,0.34-5.557,3.247-7.198c0.644-0.363,0.884-1.426,1.333-2.152
	c2.193-3.541,2.181-8.549,6.953-10.417c0.33-0.129,0.574-1.181,0.438-1.688c-0.98-3.627,1.028-6.515,2.128-9.678
	c2.511-7.217,3.896-14.795,6.915-21.856c2.635,1.843,5.511,2.59,8.75,2.263c2.505-0.253,3.828-2.749,6.264-3.013
	c0.289,1.591,1.139,1.623,1.896,0.456c0.793-1.223,1.707-2.2,3.113-2.469c4.155-0.796,5.848-2.764,3.879-6.279
	c-1.674-2.99-2.212-5.656-1.738-8.816c0.068-0.457-0.271-0.969-0.225-1.435c0.074-0.766,0.758-0.875,1.379-0.984
	c4.095,8.356,5.867,17.243,6.879,26.467c1.686,15.387-0.296,30.307-4.874,44.894c-4.62,14.725-12.285,27.871-21.575,40.206
	c-9.931,13.188-21.352,24.776-34.225,35.07c-12.597,10.074-26.171,18.375-40.903,24.981c-11.866,5.32-24.132,9.054-36.85,11.502
	c-0.448,0.086-0.842,0.458-1.262,0.697C339.968,450.325,334.597,451.972,329.002,452.04z M451.983,322.157
	c-0.001,5.324,3.008,9.449,6.926,9.497c5.845,0.072,9.968-4.11,10.186-10.331c0.116-3.336-5.215-8.19-8.951-8.15
	C455.274,313.224,451.983,316.848,451.983,322.157z"/>
<path fill-rule="evenodd" clip-rule="evenodd" fill="#F6E6CE" d="M402.482,376.909c-0.103,1.174-0.266,2.037-1.246,3.152
	c-3.115,3.539-8.366,5.083-9.697,10.259c-0.028,0.11-0.141,0.273-0.229,0.284c-5.254,0.596-6.194,8.374-12.47,7.443
	c-1.278-0.189-2.407,0.931-3.379,2.036c-1.692,1.925-3.437,4.011-6.429,3.82c-3.885-0.249-7.664,0.139-11.326,1.562
	c-1.491,0.58-3.187,1.355-4.468-0.281c-1.351-1.724-1.885-3.745-1.05-5.9c0.355-0.916,1.097-1.72,1.291-2.652
	c0.47-2.256,2.114-5.061-2.083-5.691c-0.404-0.061-1.08-0.638-1.052-0.916c0.501-5.003-3.659-4.533-6.197-4.535
	c-4.684-0.003-9.854-0.435-13.072,4.393c-0.325,0.485-0.89,1.092-1.388,1.136c-4.246,0.383-4.462,3.594-3.571,6.263
	c1.652,4.957-2.398,5.662-4.869,6.294c-2.39,0.612-4.243,1.722-6.276,2.826c-2.181,1.185-4.552,2.275-5.094-1.785
	c-0.122-0.911-1.199-0.626-1.904-0.698c-4.979-4.67-11.184-3.752-17.181-3.756c-12.069-0.007-24.14,0.082-36.209-0.026
	c-11.363-0.102-14.361,2.671-15.598,12.026c-3.316-2.002-7.893-2.406-9.055-7.146c-0.057-0.229-0.209-0.593-0.363-0.617
	c-6.382-1.061-9.249-8.257-15.85-9.017c-2.934-0.337-5.916-1.604-7.964,1.771c-0.559,0.921-1.509,0.73-2.353,0.743
	c-1.87,0.029-3.764,0.2-5.606-0.023c-5.476-0.668-9.005,2.881-12.858,5.734c-0.922,0.682-1.531,1.639-1.457,2.886
	c0.085,1.443-0.75,2.175-1.913,2.897c-7.338,4.557-9.554,13.152-5.606,20.855c1.009,1.968,1.539,4.179,2.32,6.267
	c0.387,1.034,0.652,2.772,1.301,2.943c4.148,1.091,1.524,3.157,0.898,4.946c-11.368-2.835-22.312-6.718-32.1-13.326
	c-8.268-5.582-15.704-11.93-19.385-21.668c-0.331-0.874-0.797-2.19-2.246-2.179c-1.412-13.072-3.176-26.129-2.507-39.33
	c0.451-8.897,1.004-17.745,3.041-26.519c1.993-8.588,4.49-17.008,6.965-25.442c0.815-2.78,2.301-5.363,3.48-8.036
	c2.048,0.388,1.45,2.028,1.483,3.285c0.155,5.825-0.332,11.666,0.747,17.467c0.733,3.945,5.191,8.026,8.793,7.739
	c3.809-0.304,6.33-3.489,6.199-8.268c-0.116-4.241,0.318-8.423,0.807-12.609c0.427-3.661,3.084-6.243,6.682-6.065
	c5.734,0.283,11.899-0.22,15.163,6.241c0.159,0.313,0.89,0.34,1.354,0.5c0.252,1.737,0.505,3.475,0.757,5.212
	c-0.723,0.514-0.72,1.015,0.024,1.504c0.551,4,1.896,7.184,5.78,9.5c5.84,3.483,12.146,5.107,18.653,5.299
	c4.078,0.119,8.205,1.887,12.313,0.203c2.631,3.699,6.306,5.135,10.747,5.289c4.039,0.14,5.287-3.582,7.957-5.313
	c0.144,1.73,1.683,1.908,2.754,1.944c6.277,0.21,12.587,0.614,18.836,0.204c6.451-0.423,13.088-0.759,18.725-4.71
	c1.422-0.996,2.815-2.08,4.71-1.933c-0.354,4.521,1.372,8.376,5.293,10.273c6.476,3.134,9.635,2.281,14.359-2.517
	c1.56-1.584,3.191-3.107,4.646-4.783c7.381-8.516,15.633-16.162,23.736-23.96c1.227,0.744,2.604,0.632,3.96,0.792
	c6.024,0.715,11.458-1.692,17.021-3.233c2.091-0.579,3.372-0.175,4.481,1.366c0.861,1.197,1.608,2.49,2.285,3.803
	c1.777,3.444,4.6,4.793,8.324,3.583c10.609-3.447,10.775-5.348,11.119-16.007c5.862,3.703,11.297,7.969,16.652,12.366
	c4.565,3.749,8.479,8.807,15.951,5.994c5.145-1.937,9.031-10.105,4.201-15.241c-3.33-3.54-7.534-6.065-10.51-9.912
	c1.557-5.504,5.047-9.441,9.982-12.15c1.743-0.956,3.579-1.78,4.854-3.355c4.192-5.177,0.681-11.523-6.167-14.338
	c-2.001-0.823-3.82-1.797-5.423-3.103c-5.395-4.395-4.966-11.371,1.006-14.313c3.598-1.772,7.263-1.171,10.359,1.541
	c1.773,1.554,3.56,2.156,5.654,0.702c3.55,3.604,7.649,6.652,11.145,10.253c7.709,7.941,15.245,16.076,21.834,25.016
	c-3.019,7.062-4.404,14.64-6.915,21.856c-1.1,3.163-3.108,6.051-2.128,9.678c0.137,0.508-0.107,1.56-0.438,1.688
	c-4.772,1.868-4.76,6.876-6.953,10.417c-0.449,0.727-0.689,1.789-1.333,2.152c-2.907,1.642-3.647,4.121-3.247,7.198
	c0.063,0.481,0.126,1.274-0.129,1.441c-4.406,2.892-5.654,9.023-11.106,10.814c-0.94-4.076-4.925-4.654-7.75-6.234
	c-4.644-2.597-12.423,0.532-13.929,5.089c-1.596,4.827-3.232,9.617-4.031,14.699C396.06,371.063,397.01,373.647,402.482,376.909z
	 M343.252,333.409c-1,0-2.002-0.045-2.999,0.008c-5.159,0.271-8.472,3.952-9.058,9.545c-0.649,6.217,3.084,9.967,7.744,10.434
	c4.824,0.483,9.584,1.39,14.412,1.792c7.046,0.589,14.09,1.232,21.111,2.057c4.814,0.565,10.375-3.306,11.423-8.281
	c0.889-4.216-2.972-10.681-7.117-11.748C367.119,334.217,355.032,335.228,343.252,333.409z M289.982,368.045
	c-1.304,3.408,1.353,5.364,4.267,6.611c4.969,2.125,10.336,2.745,15.669,2.053c1.965-0.255,3.267-1.819,4.453-4.112
	c2.181-4.217-1.184-7.451-0.563-11.163c0.137-0.821-1.064-0.862-1.639-1.28c-3.017-2.201-6.651-1.638-10.007-2.329
	C294.719,356.292,289.975,360.001,289.982,368.045z M163.23,383.339c-0.043,5.854,3.032,9.126,8.752,9.313
	c5.117,0.168,9.19-3.571,9.253-8.493c0.064-5.004-3.884-9.512-8.321-9.501C167.811,374.671,163.264,378.747,163.23,383.339z
	 M194.005,360.412c3.595-0.013,5.985-2.269,5.979-5.643c-0.005-3.311-2.886-6.35-6.017-6.347c-3.11,0.002-5.988,3.076-5.977,6.383
	C188.002,358.175,190.417,360.425,194.005,360.412z"/>
<path fill-rule="evenodd" clip-rule="evenodd" fill="#FAFCF4" d="M421.998,250.899c-2.095,1.455-3.881,0.852-5.654-0.702
	c-3.097-2.712-6.762-3.313-10.359-1.541c-5.972,2.941-6.4,9.918-1.006,14.313c1.603,1.306,3.422,2.28,5.423,3.103
	c6.848,2.815,10.359,9.161,6.167,14.338c-1.274,1.575-3.11,2.399-4.854,3.355c-4.936,2.709-8.426,6.646-9.982,12.15
	c-1.269,0.057-2.102-0.828-2.899-1.546c-8.921-8.032-18.89-14.518-29.388-20.267c-6.293-3.446-12.904-2.119-15.854,3.372
	c-3.091,5.758-0.82,11.285,5.87,14.981c5.542,3.062,10.969,6.34,15.977,10.252c-0.344,10.659-0.51,12.56-11.119,16.007
	c-3.725,1.21-6.547-0.139-8.324-3.583c-0.677-1.313-1.424-2.605-2.285-3.803c-1.109-1.541-2.391-1.945-4.481-1.366
	c-5.563,1.541-10.997,3.948-17.021,3.233c-1.356-0.16-2.733-0.048-3.961-0.792c0.049-0.244,0.048-0.513,0.155-0.728
	c3.044-6.133,2.559-9.265-2.045-13.1c-4.385-3.654-8.453-3.567-13.452,0.217c-8.737,6.615-15.848,14.865-23.111,22.959
	c-3.357,3.741-7.681,6.695-9.58,11.638c-1.895-0.147-3.288,0.937-4.71,1.933c-5.637,3.951-12.273,4.287-18.725,4.71
	c-6.249,0.41-12.559,0.006-18.836-0.204c-1.071-0.036-2.61-0.214-2.754-1.944c7.742-10.715,16.536-20.521,25.825-29.9
	c3.43-3.463,6.994-6.799,10.294-10.38c3.639-3.951,3.605-8.945,0.211-12.855c-3.554-4.093-9.235-4.922-13.571-2.169
	c-6.136,3.896-10.541,9.664-15.675,14.6c-8.344,8.021-15.4,17.258-22.414,26.478c-3.26,4.285-6.021,8.606-3.374,14.252
	c-4.108,1.684-8.235-0.084-12.313-0.203c-6.508-0.191-12.813-1.815-18.653-5.299c-3.883-2.316-5.229-5.5-5.78-9.5
	c0.753-0.513,0.728-1.014-0.024-1.504c-0.252-1.737-0.504-3.475-0.756-5.213c0.139-1.909,1.377-2.363,3.02-2.282
	c2.454,2.51,5.6,2.318,8.726,2.257c4.896-0.096,10.521-4.56,11.432-9.104c1.169-5.842-1.949-12.033-7.012-14.169
	c-3.08-1.299-6.161-1.768-9.391-0.717c-0.724-0.458-1.438-1.297-2.171-1.312c-4.372-0.084-6.901-2.733-9.292-5.949
	c-1.402-1.887-1.758-3.457-0.354-5.371c1.34-1.825,2.57-3.708,2.037-6.163l-0.001,0.003c1.004-0.01,1.51-0.507,1.486-1.522
	l-0.001,0.001c1.083,0.002,1.549-0.553,1.459-1.612c3.086-5.975,8.158-10.236,12.819-14.853c0.779-0.225,2.575,0.528,1.462-1.519
	c0.047-0.502,0.094-1.004,0.141-1.507c1.26-1.538,0.421-3.357,0.674-5.03c0.135-0.882-0.272-2.435,1.326-2.004
	c5.188,1.401,6.924-3.479,9.219-5.883c2.343-2.452,5.054-4.325,7.357-6.663c2.229-2.26,5.156-2.228,7.647-3.421
	c5.202-2.492,10.046-6.55,16.477-5.491c1.822-0.31,3.765-0.317,5.448-0.981c6.786-2.678,8.442-7.025,6.17-13.21
	c-1.746-4.752-6.549-6.33-11.649-6.012c0.763-3.366,3.913-2.058,5.89-2.753c4.208-1.481,7.297-4.883,11.705-6.043
	c3.393-0.893,6.803-1.688,10.224-2.426c1.194-0.258,2.464-0.034,3.507-0.951c2.605-2.29,5.237-4.557,9.135-3.654
	c0.218,0.05,0.648-0.035,0.7-0.167c1.838-4.66,5.995-1.822,8.932-2.841c5.09-1.765,10.903-0.414,15.581-3.725
	c1.811-1.283,3.891-0.668,5.819-0.835c4.984-0.434,9.716-3.338,14.962-1.452c1.171,0.421,2.608-0.159,3.273-1.313
	c1.098-1.91,2.95-2.44,4.784-3.096c-0.102,1.555,0.643,2.67,2.158,2.129c4.453-1.588,8.567,0.61,12.807,1.001
	c8.08,0.745,16.084,2.3,23.932,4.407c4.286,1.15,8.441,2.813,12.605,4.379c1.308,0.491,2.567,0.904,3.961,0.856
	c8.006,3.741,16.011,7.482,24.017,11.223c-0.001,0-0.002-0.004-0.002-0.004c0.038,0.587,0.124,1.143,0.817,1.323
	c0.793,0.169,1.681,0.104,2.217,0.902c0.249,0.248,0.498,0.495,0.747,0.741c0.722,0.292,1.442,0.584,2.165,0.875
	c0.252,0.229,0.504,0.458,0.756,0.687c0,0,0.008,0.038,0.008,0.037c0.048,1.258,0.923,2.013,1.752,2.754
	c7.608,6.8,12.831,15.132,16.24,24.716c1.789,5.029,1.949,4.954-3.541,5.512c-0.561,0.057-1.084,0.475-1.625,0.726
	C421.688,240.014,420.127,242.964,421.998,250.899z M235.25,271.905c5.952,0.82,10.54-3.717,16.084-5.318
	c6.626-1.915,12.954-5.083,19.668-6.391c4.677-0.911,8.981-2.634,13.401-4.034c5.367-1.7,6.884-4.801,6.285-10.311
	c-0.146-1.353-0.141-2.902-0.814-3.98c-1.488-2.379-3.258-4.89-6.331-5.143c-4.22-0.348-8.427,0.305-12.479,1.542
	c-5.678,1.735-11.289,3.689-16.961,5.441c-7.567,2.337-14.947,5.18-22.238,8.235c-4.449,1.864-7.088,7.06-6.156,11.258
	C226.827,268.244,230.693,271.905,235.25,271.905z M313.975,248.73c-0.901,6.462,5.841,11.97,12.325,9.695
	c3.628-1.273,7.415-2.086,11.118-3.151c10.283-2.954,20.75-5.155,31.219-7.279c5.932-1.202,9.806-5.162,8.972-10.702
	c-0.813-5.406-4.749-11.008-11.831-9.569c-15.234,3.094-30.538,5.956-45.204,11.324C315.809,240.794,313.966,243.564,313.975,248.73
	z M400.533,223.187c1.393,0.066,2.879,0.042,4.23-0.787c3.653-2.24,5.664-5.412,5.686-9.775c0.021-4.132-1.863-7.1-5.508-8.892
	c-10.504-5.161-21.445-9.169-32.717-12.304c-1.732-0.482-3.358-0.697-5.116-0.123c-4.155,1.359-7.319,5.644-7.412,10.205
	c-0.112,5.583,1.996,8.548,7.21,10.423c7.84,2.819,15.879,5.039,23.557,8.383C393.561,221.666,396.779,223.378,400.533,223.187z
	 M283.179,216.337c0.872,0,1.767,0.129,2.612-0.02c10.019-1.766,20.014-3.642,30.165-4.573c4.185-0.383,7.627-2.337,9.329-6.438
	c1.625-3.919,0.186-7.318-2.211-10.414c-2.806-3.625-6.603-4.623-10.98-3.899c-2.813,0.464-5.624,0.943-8.437,1.411
	c-7.578,1.258-15.192,2.333-22.724,3.83c-5.099,1.013-8.068,6.097-7.434,11.778C274.057,213.003,277.992,216.422,283.179,216.337z"
	/>
<path fill-rule="evenodd" clip-rule="evenodd" fill="#F4F6EE" d="M181.977,313.908c-1.643-0.081-2.881,0.373-3.02,2.282
	c-0.464-0.159-1.195-0.186-1.354-0.499c-3.264-6.461-9.429-5.958-15.163-6.241c-3.598-0.178-6.255,2.404-6.682,6.065
	c-0.489,4.187-0.923,8.368-0.807,12.609c0.131,4.778-2.39,7.964-6.199,8.268c-3.602,0.287-8.06-3.794-8.793-7.739
	c-1.079-5.801-0.592-11.642-0.747-17.467c-0.033-1.257,0.564-2.897-1.483-3.285c2.177-5.261,3.618-10.902,7.698-15.188
	c1.244-1.307,1.256-2.859,1.336-4.491c0.066-1.335-0.738-3.169,1.555-3.576c0.302,0.215,0.635,0.397,0.902,0.649
	c7.107,6.703,12.239,6.262,18.222-1.297c2.813-3.556,4.872-7.726,8.511-10.618c0.533,2.455-0.697,4.337-2.037,6.163
	c-1.405,1.914-1.049,3.484,0.354,5.371c2.391,3.216,4.92,5.865,9.292,5.949c0.733,0.015,1.448,0.854,2.171,1.312
	c-5.453,2.869-8.643,7.029-8.294,13.55C177.63,309.313,180.373,311.24,181.977,313.908z"/>
<path fill-rule="evenodd" clip-rule="evenodd" fill="#EBCFAC" d="M175.952,273.381c-3.639,2.892-5.698,7.062-8.511,10.618
	c-5.982,7.559-11.115,8-18.222,1.297c-0.267-0.252-0.6-0.435-0.902-0.649c-0.059-0.749-0.118-1.497-0.177-2.246
	c-0.208-0.271-0.417-0.542-0.626-0.813c0.024-0.229,0.018-0.454-0.019-0.681c0.031-3.317,1.295-6.227,2.973-9.001
	c5.457-6.668,10.994-13.271,16.299-20.058c1.045-1.338,2.888-2.037,3.222-3.934c3.004-2.733,6.009-5.467,9.014-8.2
	c2.237-0.22,4.4-1.154,6.708-0.695c5.023,3.034,8.778,6.791,7.605,13.354c-0.047,0.503-0.094,1.005-0.141,1.508
	c-0.955,0.054-1.41,0.591-1.462,1.518c-4.661,4.616-9.733,8.877-12.818,14.854c-0.869,0.191-1.419,0.669-1.46,1.611l0.001-0.001
	c-0.958,0.056-1.458,0.558-1.486,1.522L175.952,273.381z"/>
<path fill-rule="evenodd" clip-rule="evenodd" fill="#F4F6EE" d="M193.317,252.373c1.173-6.563-2.582-10.32-7.605-13.354
	c1.459-2.217,3.733-3.653,5.48-5.639c2.396-2.726,4.191-6.097,7.741-7.925c1.527-0.786,3.802-0.958,4.497-2.017
	c3.495-5.322,9.999-6.324,14.209-10.487c0.23-0.229,0.236-0.685,0.348-1.036c1.504,0.003,3.008,0.005,4.512,0.008
	c0.427,2.755,3.852,3.862,3.753,6.944c-0.094,2.941,1.623,3.586,4.288,3.626c1.825,0.027,4.264-1.365,5.478,1.388
	c-6.431-1.059-11.274,2.999-16.477,5.491c-2.491,1.193-5.419,1.161-7.647,3.421c-2.304,2.338-5.015,4.21-7.357,6.663
	c-2.295,2.404-4.031,7.284-9.219,5.883c-1.599-0.431-1.191,1.122-1.326,2.004C193.738,249.016,194.577,250.835,193.317,252.373z"/>
<path fill-rule="evenodd" clip-rule="evenodd" fill="#F6E6CE" d="M236.017,223.881c-1.214-2.753-3.652-1.361-5.478-1.388
	c-2.665-0.041-4.382-0.686-4.288-3.626c0.099-3.083-3.326-4.189-3.753-6.944c3.157-3.975,8.113-5.32,12.006-8.22
	c0.494-0.009,0.988-0.017,1.481-0.024c5.101-0.317,9.903,1.26,11.649,6.012c2.272,6.185,0.616,10.532-6.17,13.21
	C239.782,223.563,237.839,223.571,236.017,223.881z"/>
<path fill-rule="evenodd" clip-rule="evenodd" fill="#FAFCF4" d="M234.504,203.702c-3.893,2.899-8.849,4.245-12.006,8.22
	c-1.504-0.002-3.008-0.005-4.512-0.008c0.141-2.999,3.141-2.79,4.724-4.168c2.348-2.043,5.63-2.455,8.053-4.534
	C231.635,202.464,233.389,202.476,234.504,203.702z"/>
<path fill-rule="evenodd" clip-rule="evenodd" fill="#F4F6EE" d="M179.003,239.714c-3.005,2.733-6.009,5.467-9.014,8.2
	C170.077,243.813,175.755,238.647,179.003,239.714z"/>
<path fill-rule="evenodd" clip-rule="evenodd" fill="#F4F6EE" d="M150.468,271.905c-1.678,2.774-2.942,5.684-2.973,9.001
	c-0.12-0.025-0.251-0.029-0.359-0.081c-1.902-0.905-1.53-3.075-0.763-3.691C148.208,275.659,146.04,271.115,150.468,271.905z"/>
<path fill-rule="evenodd" clip-rule="evenodd" fill="#FAFCF4" d="M332.007,172.93c-0.05,0.959-0.556,1.456-1.514,1.494
	C330.518,173.44,331.018,172.938,332.007,172.93z"/>
<path fill-rule="evenodd" clip-rule="evenodd" fill="#F4F6EE" d="M147.515,281.587c0.209,0.271,0.417,0.543,0.626,0.813
	C147.931,282.129,147.723,281.857,147.515,281.587z"/>
<path fill-rule="evenodd" clip-rule="evenodd" fill="#F6E6CE" d="M429.512,236.687c0.541-0.251,1.064-0.669,1.625-0.726
	c5.49-0.558,5.33-0.483,3.541-5.512c-3.409-9.584-8.632-17.917-16.24-24.716c-0.829-0.741-1.704-1.497-1.752-2.754
	c4.679,0.989,7.901,4.495,11.785,6.856c0.82,0.499,1.42,1.366,2.523,1.303c0,0,0.008,0.015,0.007,0.015
	c0.267,0.226,0.535,0.451,0.803,0.677c7.257,4.591,13.526,10.384,19.726,16.254c6.422,6.082,12.104,12.861,17.096,20.109
	c2.192,3.184,5.039,6.183,5.912,10.207c-1.365,1.629-0.091,4.539,2.288,5.224c0.52,0.736,1.512,1.167,1.469,2.267
	c-0.62,0.109-1.304,0.218-1.378,0.984c-0.046,0.466,0.293,0.979,0.225,1.435c-0.474,3.16,0.064,5.826,1.738,8.816
	c1.969,3.516,0.276,5.483-3.879,6.279c-1.406,0.269-2.32,1.246-3.113,2.469c-0.758,1.167-1.607,1.135-1.896-0.456
	c2.382-3.458,3.752-7.348,1.224-11.012c-8.419-12.202-18.75-22.766-29.253-33.161C438.478,237.798,434.482,235.967,429.512,236.687z
	"/>
<path fill-rule="evenodd" clip-rule="evenodd" fill="#ECA46D" d="M424.911,425.265c-1.511-0.395-3.679,0.628-3.481-1.832
	c0.118-1.475,1.349-2.748,3.016-2.651c1.86,0.108,2.706,1.431,2.786,3.272C427.351,426.757,425.105,423.848,424.911,425.265z"/>
<path fill-rule="evenodd" clip-rule="evenodd" fill="#F3DDBE" d="M476.825,263.623c-2.379-0.686-3.653-3.595-2.288-5.224
	C475.868,259.892,476.812,261.554,476.825,263.623z"/>
<polygon fill-rule="evenodd" clip-rule="evenodd" fill="#ECA46D" points="524.732,328.909 524.897,328.612 525.029,328.744 "/>
<path fill-rule="evenodd" clip-rule="evenodd" fill="#EBCFAC" d="M431.804,211.829c-0.268-0.226-0.536-0.451-0.803-0.677
	C431.269,211.378,431.536,211.604,431.804,211.829z"/>
<path fill-rule="evenodd" clip-rule="evenodd" fill="#ECA46D" d="M384.406,454.056c-0.248-0.5-0.538-0.814-0.497-1.078
	c0.039-0.257,0.418-0.461,0.647-0.688c0.181,0.274,0.502,0.549,0.502,0.824C385.061,453.371,384.721,453.629,384.406,454.056z"/>
<path fill-rule="evenodd" clip-rule="evenodd" fill="#F4F6EE" d="M130.983,478.159c0.1,0.056,0.199,0.111,0.298,0.167
	C131.182,478.271,131.082,478.215,130.983,478.159L130.983,478.159z"/>
<path fill-rule="evenodd" clip-rule="evenodd" fill="#F3DDBE" d="M410.793,199.735c-0.693-0.181-0.779-0.736-0.817-1.323
	C410.248,198.854,410.521,199.295,410.793,199.735z"/>
<path fill-rule="evenodd" clip-rule="evenodd" fill="#F6E6CE" d="M413.757,201.379c-0.249-0.247-0.498-0.493-0.747-0.741
	C413.259,200.885,413.508,201.132,413.757,201.379z"/>
<path fill-rule="evenodd" clip-rule="evenodd" fill="#F6E6CE" d="M416.678,202.94c-0.252-0.229-0.504-0.458-0.756-0.687
	C416.174,202.483,416.426,202.712,416.678,202.94z"/>
<path fill-rule="evenodd" clip-rule="evenodd" fill="#EBCFAC" d="M238.987,412.161c1.236-9.355,4.234-12.128,15.598-12.026
	c12.069,0.108,24.14,0.02,36.209,0.026c5.997,0.004,12.201-0.914,17.181,3.756c0.022,3.185,2.018,6.095,1.002,9.482
	c-1.195,3.987-5.21,7.704-9.337,7.723c-16.499,0.074-32.999,0.074-49.498,0.01C244.137,421.108,241.267,416.942,238.987,412.161z"/>
<path fill-rule="evenodd" clip-rule="evenodd" fill="#EBCFAC" d="M429.512,236.687c4.971-0.72,8.966,1.111,12.449,4.559
	c10.503,10.395,20.834,20.958,29.253,33.161c2.528,3.664,1.158,7.554-1.224,11.012c-2.436,0.264-3.759,2.76-6.264,3.013
	c-3.239,0.327-6.115-0.42-8.75-2.263c-6.589-8.939-14.125-17.074-21.834-25.016c-3.495-3.602-7.595-6.65-11.145-10.253
	C420.127,242.964,421.688,240.014,429.512,236.687z"/>
<path fill-rule="evenodd" clip-rule="evenodd" fill="#EBCFAC" d="M402.482,376.909c-5.473-3.262-6.423-5.846-5.465-11.941
	c0.799-5.082,2.436-9.872,4.031-14.699c1.506-4.557,9.285-7.686,13.929-5.089c2.825,1.58,6.81,2.158,7.75,6.234
	c2.188,4.075,1.876,7.917-0.513,11.914c-1.092,1.827-1.684,4.022-1.883,6.353c-0.316,3.696-2.454,6.787-4.939,9.406
	c-1.5,1.582-3.697,0.947-5.624,0.309C407.332,378.587,405.125,377.112,402.482,376.909z"/>
<path fill-rule="evenodd" clip-rule="evenodd" fill="#EBCFAC" d="M451.983,322.157c0-5.31,3.291-8.934,8.16-8.984
	c3.736-0.04,9.067,4.814,8.951,8.15c-0.218,6.221-4.341,10.403-10.186,10.331C454.991,331.606,451.982,327.481,451.983,322.157z"/>
<path fill-rule="evenodd" clip-rule="evenodd" fill="#EBCFAC" d="M216.484,337.909c-2.646-5.646,0.114-9.967,3.374-14.252
	c7.014-9.22,14.07-18.457,22.414-26.478c5.134-4.936,9.539-10.704,15.675-14.6c4.336-2.753,10.018-1.924,13.571,2.169
	c3.395,3.91,3.428,8.904-0.211,12.855c-3.3,3.581-6.864,6.917-10.294,10.38c-9.289,9.379-18.083,19.186-25.825,29.9
	c-2.67,1.731-3.918,5.453-7.957,5.313C222.79,343.044,219.115,341.608,216.484,337.909z"/>
<path fill-rule="evenodd" clip-rule="evenodd" fill="#EBCFAC" d="M375.438,302.708c-5.008-3.912-10.435-7.19-15.977-10.252
	c-6.69-3.696-8.961-9.224-5.87-14.981c2.95-5.491,9.562-6.818,15.854-3.372c10.498,5.749,20.467,12.234,29.388,20.267
	c0.798,0.718,1.631,1.603,2.899,1.546c2.976,3.847,7.18,6.372,10.51,9.912c4.83,5.136,0.943,13.305-4.201,15.241
	c-7.473,2.813-11.386-2.245-15.951-5.994C386.734,310.677,381.3,306.411,375.438,302.708z"/>
<path fill-rule="evenodd" clip-rule="evenodd" fill="#EBCFAC" d="M280.212,333.391c1.899-4.942,6.223-7.896,9.58-11.638
	c7.264-8.094,14.374-16.344,23.111-22.959c4.999-3.784,9.067-3.871,13.452-0.217c4.604,3.835,5.089,6.967,2.045,13.1
	c-0.107,0.215-0.106,0.483-0.155,0.728c-8.102,7.798-16.354,15.444-23.735,23.96c-1.454,1.676-3.086,3.199-4.646,4.783
	c-4.725,4.798-7.884,5.65-14.359,2.517C281.584,341.767,279.859,337.912,280.212,333.391z"/>
<path fill-rule="evenodd" clip-rule="evenodd" fill="#EBCFAC" d="M343.252,333.409c11.78,1.818,23.867,0.808,35.517,3.806
	c4.146,1.067,8.006,7.532,7.117,11.748c-1.048,4.976-6.608,8.847-11.423,8.281c-7.021-0.824-14.065-1.468-21.111-2.057
	c-4.828-0.402-9.588-1.309-14.412-1.792c-4.66-0.467-8.394-4.217-7.744-10.434c0.586-5.593,3.898-9.273,9.058-9.545
	C341.25,333.364,342.252,333.409,343.252,333.409z"/>
<path fill-rule="evenodd" clip-rule="evenodd" fill="#F3DDBE" d="M289.982,368.045c-0.007-8.044,4.737-11.753,12.181-10.221
	c3.355,0.691,6.99,0.128,10.007,2.329c0.574,0.418,1.775,0.459,1.639,1.28c-0.621,3.712,2.743,6.946,0.563,11.163
	c-1.187,2.293-2.488,3.857-4.453,4.112c-5.333,0.692-10.7,0.072-15.669-2.053C291.334,373.409,288.678,371.453,289.982,368.045z"/>
<path fill-rule="evenodd" clip-rule="evenodd" fill="#F3DDBE" d="M163.23,383.339c0.034-4.592,4.581-8.668,9.684-8.681
	c4.438-0.011,8.386,4.497,8.321,9.501c-0.063,4.922-4.136,8.661-9.253,8.493C166.262,392.465,163.187,389.192,163.23,383.339z"/>
<path fill-rule="evenodd" clip-rule="evenodd" fill="#FAFCF4" d="M194.005,360.412c-3.589,0.013-6.003-2.237-6.014-5.606
	c-0.012-3.307,2.866-6.381,5.977-6.383c3.131-0.003,6.012,3.036,6.017,6.347C199.991,358.144,197.6,360.399,194.005,360.412z"/>
<path fill-rule="evenodd" clip-rule="evenodd" fill="#F4F6EE" d="M179.713,321.403c0.752,0.49,0.777,0.991,0.024,1.504
	C178.993,322.418,178.99,321.917,179.713,321.403z"/>
<path fill-rule="evenodd" clip-rule="evenodd" fill="#F6E6CE" d="M235.25,271.905c-4.557,0-8.423-3.661-9.542-8.7
	c-0.932-4.198,1.707-9.394,6.156-11.258c7.291-3.055,14.671-5.898,22.238-8.235c5.672-1.752,11.283-3.706,16.961-5.441
	c4.053-1.238,8.26-1.891,12.479-1.542c3.073,0.253,4.843,2.764,6.331,5.143c0.674,1.078,0.668,2.628,0.814,3.98
	c0.599,5.51-0.918,8.61-6.285,10.311c-4.42,1.4-8.725,3.123-13.401,4.034c-6.714,1.308-13.042,4.477-19.668,6.391
	C245.79,268.188,241.202,272.726,235.25,271.905z"/>
<path fill-rule="evenodd" clip-rule="evenodd" fill="#EBCFAC" d="M313.975,248.73c-0.009-5.166,1.834-7.937,6.599-9.682
	c14.666-5.368,29.969-8.229,45.204-11.324c7.082-1.439,11.018,4.163,11.831,9.569c0.834,5.54-3.04,9.5-8.972,10.702
	c-10.469,2.124-20.936,4.325-31.219,7.279c-3.703,1.064-7.49,1.878-11.118,3.151C319.816,260.7,313.074,255.192,313.975,248.73z"/>
<path fill-rule="evenodd" clip-rule="evenodd" fill="#EBCFAC" d="M400.533,223.187c-3.754,0.191-6.973-1.521-10.07-2.87
	c-7.678-3.344-15.717-5.564-23.557-8.383c-5.214-1.875-7.322-4.839-7.21-10.423c0.093-4.561,3.257-8.846,7.412-10.205
	c1.758-0.574,3.384-0.36,5.116,0.123c11.271,3.135,22.213,7.143,32.717,12.304c3.645,1.792,5.529,4.76,5.508,8.892
	c-0.021,4.364-2.032,7.535-5.686,9.775C403.412,223.229,401.926,223.253,400.533,223.187z"/>
<path fill-rule="evenodd" clip-rule="evenodd" fill="#EBCFAC" d="M283.179,216.337c-5.188,0.085-9.122-3.333-9.679-8.326
	c-0.635-5.681,2.335-10.765,7.434-11.778c7.531-1.497,15.146-2.572,22.724-3.83c2.813-0.467,5.624-0.946,8.437-1.411
	c4.377-0.723,8.174,0.275,10.98,3.899c2.396,3.095,3.836,6.495,2.211,10.414c-1.701,4.102-5.144,6.056-9.329,6.438
	c-10.151,0.931-20.146,2.807-30.165,4.573C284.946,216.466,284.051,216.337,283.179,216.337z"/>
<path fill-rule="evenodd" clip-rule="evenodd" fill="#F6E6CE" d="M181.977,313.908c-1.604-2.668-4.347-4.595-4.539-8.183
	c-0.349-6.521,2.841-10.681,8.294-13.55c3.229-1.051,6.311-0.582,9.391,0.717c5.063,2.136,8.181,8.327,7.012,14.169
	c-0.91,4.544-6.536,9.008-11.432,9.104C187.577,316.227,184.431,316.418,181.977,313.908z"/>
<path fill-rule="evenodd" clip-rule="evenodd" fill="#F4F6EE" d="M191.714,255.398c0.052-0.927,0.507-1.464,1.462-1.518
	C194.29,255.927,192.494,255.173,191.714,255.398z"/>
<path fill-rule="evenodd" clip-rule="evenodd" fill="#F4F6EE" d="M177.436,271.863c0.041-0.941,0.592-1.42,1.46-1.611
	C178.985,271.31,178.518,271.865,177.436,271.863z"/>
<path fill-rule="evenodd" clip-rule="evenodd" fill="#F4F6EE" d="M175.951,273.384c0.028-0.964,0.529-1.466,1.486-1.522
	C177.461,272.877,176.955,273.374,175.951,273.384z"/>
</svg>
