<?xml version="1.0" encoding="utf-8"?>
<!-- Generator: Adobe Illustrator 16.0.0, SVG Export Plug-In . SVG Version: 6.00 Build 0)  -->
<!DOCTYPE svg PUBLIC "-//W3C//DTD SVG 1.1//EN" "http://www.w3.org/Graphics/SVG/1.1/DTD/svg11.dtd">
<svg version="1.1" id="Layer_1" xmlns="http://www.w3.org/2000/svg" xmlns:xlink="http://www.w3.org/1999/xlink" x="0px" y="0px"
	 width="640px" height="640px" viewBox="0 0 640 640" enable-background="new 0 0 640 640" xml:space="preserve">
<g>
	<path fill-rule="evenodd" clip-rule="evenodd" fill="#513A39" d="M454.361,132.029c8.209,4.977,15.775,10.891,23.699,16.284
		c3.012,2.485,6.023,4.969,9.035,7.455c4.459,4.128,8.918,8.257,13.375,12.385c0.736,1.14,1.652,2.092,2.85,2.754
		c0.324,1.608,1.631,2.517,2.746,3.414c4.066,3.27,6.807,7.692,10.273,11.477c0.52,0.579,1.039,1.158,1.559,1.738
		c1.615,2.249,3.006,4.67,5.092,6.553c0.924,1.276,1.848,2.553,2.773,3.829c0.18,0.567,0.254,1.204,0.945,1.434
		c2.139,2.463,2.773,6.104,6.025,7.694c0.363,3.57,2.803,6.02,4.723,8.751c-0.012,1.031,0.568,1.729,1.309,2.338l-0.02-0.024
		c1.33,2.86,2.674,5.712,4.535,8.282c2.205,4.744,4.41,9.488,6.615,14.233c0.797,1.743,1.594,3.485,2.391,5.227l-0.008-0.012
		c2.795,8.053,5.59,16.104,8.385,24.156c-0.025,0.746-0.016,1.482,0.564,2.063c0.145,2.098,0.619,4.114,1.477,6.037
		c1.074,6.338,2.164,12.673,3.219,19.014c2.197,13.204,2.713,26.517,1.959,39.842c-1.85,32.757-10.871,63.51-26.938,92.083
		c-20.531,36.512-49.619,64.427-86.352,84.402c-31.922,17.36-66.293,26.546-102.273,30.247c-3.594,0.37-7.174,0.861-10.76,1.297
		c-13.746,0.04-27.493,0.079-41.239,0.12c-26.251-2.355-52.158-6.498-77.245-14.891c-1.205-0.422-2.41-0.842-3.615-1.263
		c-4.793-1.884-9.586-3.769-14.378-5.651c-1.104-0.844-2.362-1.33-3.71-1.608c-3.513-1.715-7.026-3.431-10.539-5.146
		c-0.819-0.853-1.809-1.379-2.979-1.563c-2.51-1.416-5.02-2.832-7.529-4.249c-0.118-0.233-0.305-0.323-0.562-0.267
		c-5.53-3.512-11.061-7.023-16.591-10.534l0.038,0.046c-0.295-0.236-0.589-0.473-0.884-0.709c-1.083-0.797-2.166-1.594-3.25-2.39
		c-4.359-3.466-8.718-6.931-13.077-10.396c-0.356-0.713-0.892-1.227-1.651-1.493c-1.51-1.398-3.02-2.796-4.529-4.194
		c-0.049-0.245-0.198-0.369-0.447-0.373c-2.92-2.943-5.865-5.861-8.742-8.847c-0.766-0.795-1.55-1.115-2.595-0.862
		c-0.041-1.283-0.708-2.206-1.692-2.947c-2.877-4.772-6.934-8.587-10.451-12.839c-1.167-1.464-2.333-2.928-3.5-4.391
		c-0.557-1.256-1.205-2.437-2.526-3.061c-0.3-0.474-0.6-0.947-0.899-1.422c-1.146-2.846-3.107-5.162-4.905-7.586
		c-0.606-0.721-1.213-1.441-1.82-2.162c-3.423-6.609-6.845-13.219-10.268-19.827c-0.814-1.392-1.628-2.783-2.442-4.175
		c-0.785-1.23-0.206-2.906-1.316-4.031c-0.053-0.581-0.193-1.099-0.886-1.211l0.06,0.017c0.006-3.588-2.3-6.38-3.525-9.503
		c-2.385-6.078-3.818-12.425-6.006-18.541l-0.085-0.074c0.112-0.203,0.224-0.406,0.336-0.61c-0.373-1.448-0.252-3.036-1.224-4.315
		c-0.465-2.348-0.606-4.789-1.968-6.879c-0.103-0.923-0.206-1.846-0.31-2.769c0.778-0.355,0.722-0.765,0.078-1.212
		c-0.339-2.29-0.678-4.579-1.017-6.869c0.119-1.385-0.089-2.719-0.612-4.006c0.018-1.67,0.221-3.364-0.644-4.92
		c-0.031-0.609-0.062-1.219-0.093-1.828c-0.037-1.001-0.075-2.003-0.112-3.004c-0.395-9.457-0.607-18.915-0.193-28.377
		c1.809-3.378,0.698-7.027,0.992-10.547c1.104-13.222,4.178-26.052,7.728-38.794c0.995-3.573,2.905-6.905,2.924-10.744
		c1.184-0.435,0.507-1.502,0.764-2.252c3.804-7.011,6.792-14.389,9.766-21.773c0.261-0.393,0.522-0.786,0.784-1.18
		c1.152-1.094,1.417-2.518,1.499-4.012c2.275-2.293,3.679-5.063,4.477-8.166c0,0-0.024,0.013-0.024,0.013
		c0.455-0.133,0.764-0.366,0.621-0.909c0.134-0.173,0.173-0.367,0.116-0.579c0.513-0.469,1.025-0.938,1.538-1.407
		c0.783-1.183,1.566-2.366,2.35-3.549c1.129-2.233,2.356-4.404,4.003-6.309c1.639-2.254,3.587-4.3,4.661-6.933
		c0.442-0.441,0.885-0.882,1.327-1.322c1.407-1.906,2.814-3.812,4.222-5.718c0.46-0.595,0.921-1.191,1.382-1.787
		c1.553-1.585,3.462-2.91,3.893-5.317c1.712-1.712,3.424-3.424,5.136-5.136c6.711-7.368,14.038-14.117,21.15-21.082
		c0.245,0.009,0.41-0.101,0.495-0.332c1.943-1.541,3.916-3.048,5.825-4.631c10.191-8.449,21.487-15.278,32.63-22.336
		c0.689-0.429,1.38-0.858,2.07-1.287c1.493-0.417,2.83-1.124,3.996-2.148c2.674-1.517,5.348-3.034,8.021-4.551
		c1.806,0,3.324-0.662,4.56-1.978c2.661-0.718,5.128-1.856,7.407-3.405c4.776-1.018,9.103-3.202,13.499-5.205
		c1.501-0.514,3.001-1.029,4.502-1.543c5.379-1.697,10.759-3.394,16.138-5.091c0.37-0.073,0.74-0.146,1.109-0.22
		c3.818-0.985,7.637-1.97,11.455-2.955c5.681-1.028,11.361-2.056,17.043-3.083c0.81,0.061,1.619,0.119,2.283-0.496
		c12.742-1.307,25.466-2.557,38.323-2.503c19.99,0.083,39.66,2.522,59.146,6.77c1.252,0.271,2.504,0.541,3.754,0.811
		c10.656,2.777,20.965,6.646,31.445,9.978c1.744,0.747,3.49,1.494,5.236,2.24c8.77,3.665,17.217,7.991,25.564,12.517
		C448.672,128.821,451.518,130.425,454.361,132.029z M506.641,213.502c-5.469-8.39-11.982-15.938-18.865-23.168
		c-14.617-15.351-31.143-28.287-49.512-38.866c-30.156-18.204-63.055-28.065-97.908-31.443c-35.482-3.44-69.947,1.289-103.33,14.058
		c-34.553,13.217-64.714,32.921-89.169,60.726c-29.263,33.269-47.958,71.422-51.111,116.26c-1.205,17.129-0.571,34.174,3.188,51.007
		c0.066,0.741,0.062,1.497,0.211,2.222c5.383,26.172,15.938,50.005,32.233,71.241c6.809,8.946,14.08,17.443,22.21,25.274
		c26.482,25.51,58.092,41.784,93.259,51.082c35.58,9.406,71.826,11.615,108.425,6.981c32.049-4.057,62.506-13.05,90.602-29.257
		c27.969-16.133,51.285-37.406,68.354-64.885c28.684-46.181,35.195-95.872,21.715-148.315c-2.506-9.749-6.158-19.087-10.529-28.241
		C520.646,236.105,514.477,224.353,506.641,213.502z"/>
	<path fill-rule="evenodd" clip-rule="evenodd" fill="#F7FCFA" d="M99.933,362.074c-3.759-16.833-4.393-33.878-3.188-51.007
		c3.153-44.838,21.848-82.991,51.111-116.26c24.456-27.804,54.617-47.508,89.169-60.726c33.383-12.769,67.848-17.498,103.33-14.058
		c34.854,3.378,67.752,13.24,97.908,31.443c-0.613,0.636-1.307,0.538-2.059,0.281c-4.805-1.639-9.678-3.022-14.629-4.171
		c-10.049-2.333-20.211-2.5-31.125-2.146c1.369,1.001,2.086,1.694,2.936,2.121c5.998,3.008,11.316,7.099,16.975,10.646
		c1.578,0.99,3.631,1.832,3.877,4.182c-12.197-0.651-24.039,1.866-35.57,5.165c-17.889,5.12-34.863,12.725-51.369,21.324
		c-21.28,11.086-41.289,24.18-60.475,38.541c-14.687,10.992-28.714,22.761-41.837,35.613
		c-12.855,12.591-25.086,25.754-36.035,40.015c-9.718,12.657-18.577,25.929-24.721,40.8c-2.918,7.065-2.787,14.213,0.035,21.152
		c2.613,6.428,6.287,12.199,13.067,15.156c2.885,3.671,7.267,3.712,11.253,4.306c4.43,0.658,4.783,0.038,3.418-4.245
		c-2.333-7.324-1.206-14.322,1.775-21.183c0.949-0.112,1.899-0.224,0.815-1.466c0.257-0.754,0.512-1.506,0.769-2.26
		c1.002-0.061,1.467-0.599,1.411-1.596c-0.008-1.438,0.392-2.707,1.53-3.667c2.364-0.666,3.923-1.747,2.309-4.469
		c4.465-9.339,10.55-17.692,16.7-25.893c9.697-12.928,21.036-24.452,32.49-35.858c9.785-9.745,20.492-18.38,31.001-27.278
		c10.132-8.58,21.162-15.963,31.526-24.224c5.65-3.564,11.262-7.189,16.959-10.673c5.459-3.339,10.643-7.16,16.574-9.691
		c0.816-0.46,3.18,1.634,2.402-1.456c0,0,0.016,0.011,0.016,0.012c1.844,0.053,3.52,0.041,5.266-1.131
		c4.123-2.772,8.473-5.253,12.791-7.678c6.215-3.49,12.949-6.052,19.441-9.056c2.057-0.952,3.672-2.419,4.541-4.586l0.018-0.011
		c1.354-0.002,2.705-0.024,4.057-0.003c1.75,0.027,1.998-1.052,1.852-2.445c0.338-0.528,0.85-0.649,1.43-0.61
		c1.365-0.287,3.402,1.102,3.828-1.532l0.012,0.023c1.08,0.094,2.146,0.16,2.313-1.334c3.068-1.227,6.137-2.454,9.205-3.681
		c3.264-0.476,6.451-1.259,9.568-2.339c5.242-0.03,10.484-0.06,15.727-0.089c2.832,2.484,6.869,2.419,9.814,4.876
		c5.047,4.209,9.58,8.773,12.676,14.632c-0.709,0.054-1.416,0.108-2.125,0.162c-0.303,0.174-0.604,0.347-0.904,0.521
		c-3.801,2.068-5.246,4.949-4.24,8.447c0.955,3.328,3.219,4.489,7.551,4.497c2.648,0.005,3.936-1.842,5.656-3.182
		c0.936,0.724,1.135,1.828,1.58,2.84c3.111,7.066,2.158,14.515,2.18,21.873c-18.959,2.436-36.162,9.895-52.854,18.696
		c-14.256,7.518-27.424,16.705-39.539,27.325c-5.414,4.745-10.887,9.524-13.752,16.497c-2.865,6.967-0.363,16.377,7.158,20.186
		c4.588,3.591,9.668,2.679,14.533,1.141c5.463-1.726,8.934-6.472,13.15-9.99c10.164-8.48,21.027-15.877,32.525-22.359
		c8.973-5.06,18.102-9.872,28.107-12.61c4.064-1.112,8.184-2.266,13.32-2.294c-1.967,1.741-3.18,3.223-4.73,4.123
		c-9.104,5.287-18.377,10.288-27.4,15.706c-3.791,2.276-8.17,3.776-11.059,7.422c-1.609-0.052-2.719,0.809-3.955,1.757
		c-2.451,1.884-4.428,4.283-7.152,5.899c-5.65,3.351-10.846,7.422-15.08,12.43c-2.666,3.153-4.006,7.095-2.287,11.386
		c-0.742,4.869-4.162,8.156-7.293,11.386c-7.953,8.208-16.51,15.795-25.615,22.714c-15.5,11.777-31.209,23.212-48.489,32.388
		c-8.643,4.589-17.245,9.213-26.304,12.898c-6.446,2.622-12.88,5.316-19.666,7.036c-4.701,1.19-9.938,1.65-13.88,4.12
		c-5.343,3.35-10.558,6.374-16.762,7.728c-4.147,0.903-8.331,1.176-12.52,1.633c-13.84,1.509-27.643,0.886-41.274-1.503
		c-14.206-2.488-27.925-6.451-40.83-13.473c-11.108-6.045-21.259-12.911-29.803-22.271c-6.853-7.509-12.514-15.746-16.996-24.832
		C101.619,362.913,101.184,362.007,99.933,362.074z M312.318,166.287c0.924-0.011,1.452-0.452,1.52-1.395
		c0.497-0.032,0.994-0.063,1.492-0.094c1.117,1.112,1.33,0.254,1.504-0.69c1.002-0.265,2.004-0.531,3.006-0.796
		c2.909,1.609,4.833,0.671,5.967-2.306c0.496-0.754,0.992-1.507,1.486-2.261c2.441-3.231,3.891-6.585,2.211-10.749
		c-3.252-8.061-9.606-10.577-17.053-9.963c-13.772,1.135-26.842,5.415-39.179,11.562c-7.262,3.619-11.83,9.412-11.281,18.194
		c0.319,5.115,3.165,8.743,8.231,10.072c4.041,2.368,8.424,1.706,12.405,0.492c6.019-1.836,11.78-4.516,17.651-6.836
		c1.089,0.047,2.171,0.083,2.305-1.42c1.758-0.747,3.518-1.494,5.275-2.24c1.963,0.83,4.083,2.103,4.459-1.57V166.287z
		 M207.301,229.993c2.935-3.637,7.187-5.79,10.368-9.106c3.434-3.58,8.002-5.988,10.624-10.382
		c4.207-9.777-3.442-18.247-11.58-19.909c-4.601-0.94-9.197-0.353-13.463,1.727c-6.276,3.059-12.102,6.888-17.699,11.028
		c-10.221,7.561-20.065,15.582-27.912,25.705c-6.146,7.928-4.252,18.923,3.879,23.698c4.304,3.19,9.308,2.753,14.229,2.748
		c0.966,0.045,1.514-0.393,1.587-1.377c0.492-0.031,0.984-0.062,1.476-0.093c0.622,0.002,1.178-0.133,1.518-0.724
		c0.227-0.036,0.457-0.056,0.687-0.059c3.178,1.416,3.913-0.25,3.789-3.002c0.012-0.233,0.039-0.465,0.083-0.695
		c0.909-0.044,1.397-0.515,1.449-1.427c0.473-0.04,0.946-0.079,1.419-0.117c1.562,0.009,1.583-1.086,1.579-2.2
		c0.986-0.759,1.973-1.52,2.959-2.279c2.898-1.093,6.671-1.299,6.04-5.966c0.494-0.508,0.986-1.018,1.479-1.525
		c2.741,0.241,5.277,0.236,4.514-3.745c0.049-0.955,0.569-1.436,1.508-1.493C207.072,231.898,207.193,230.958,207.301,229.993z
		 M284.443,323.872c-0.582,13.441,9.82,23.466,22.985,23.801c13.126,0.334,23.73-10.428,23.738-23.66
		c0.01-12.585-10.379-23.435-22.899-23.283C294.178,300.9,283.812,311.94,284.443,323.872z M282.373,378.365
		c0.005-6.276-5.399-11.749-11.641-11.787c-6.169-0.038-11.619,5.468-11.675,11.798c-0.059,6.417,5.336,12.123,11.374,12.029
		C276.828,390.306,282.367,384.722,282.373,378.365z M144.445,314.433c0.592-7.262-5.883-11.615-10.965-11.597
		c-6.475,0.023-11.705,5.258-11.577,11.655c0.124,6.266,4.963,10.874,11.423,10.876C139.707,325.371,144.476,320.68,144.445,314.433
		z M236.636,344.063c-5.728,0.054-10.474,4.781-10.506,10.461c-0.031,5.56,4.66,10.43,10.058,10.445
		c5.836,0.015,10.907-4.67,10.901-10.072C247.081,348.921,242.343,344.011,236.636,344.063z M220.583,387.438
		c-4.741-0.027-7.976,3.134-8.039,7.857c-0.061,4.525,3.146,7.947,7.51,8.013c4.367,0.064,8.27-3.604,8.262-7.767
		C228.308,390.669,225.25,387.466,220.583,387.438z M362.387,262.394c4.75-0.045,7.791-3.048,7.666-7.569
		c-0.113-4.085-3.58-7.389-7.773-7.409c-4.357-0.021-7.229,3.035-7.219,7.68C355.072,259.963,357.557,262.439,362.387,262.394z
		 M330.549,272.141c4.785,0.017,7.369-2.386,7.357-6.839c-0.012-4.356-2.918-7.526-6.93-7.559c-4.332-0.036-7.387,3.096-7.387,7.571
		C323.592,269.693,326.07,272.125,330.549,272.141z M412.287,216.457c3.611-0.063,7.324-3.801,7.207-7.255
		c-0.135-3.907-3.277-7.029-6.922-6.877c-3.773,0.158-7.256,3.663-7.18,7.227C405.477,213.414,408.578,216.521,412.287,216.457z
		 M138.328,363.74c-3.948-0.014-6.854,3.057-6.868,7.256c-0.015,4.238,2.515,6.865,6.601,6.857c3.988-0.009,6.881-2.759,6.989-6.644
		C145.162,367.182,142.076,363.753,138.328,363.74z M271.929,202.45c-0.032-3.852-2.557-6.688-6.012-6.756
		c-3.708-0.074-6.901,3.091-6.901,6.837c0,4.007,2.587,6.596,6.524,6.526C269.592,208.987,271.963,206.535,271.929,202.45z
		 M133.404,250.988c-4.533-0.034-7.089,2.449-7.023,6.822c0.053,3.489,2.694,6.021,6.276,6.016c3.711-0.005,7.153-3.349,7.057-6.854
		C139.621,253.623,136.87,251.015,133.404,250.988z M366.008,140.034c-3.189-0.007-6.338,2.986-6.377,6.062
		c-0.047,3.797,2.73,6.571,6.576,6.569c2.904-0.002,6.053-3.121,6.059-6.003C372.273,143.259,369.234,140.041,366.008,140.034z
		 M156.002,272.049c-4.463-0.044-6.764,2.364-7.088,7.415c-0.097,1.515,3.869,5.209,5.627,5.243
		c3.381,0.063,7.039-3.253,7.027-6.367C161.553,274.793,159.152,272.08,156.002,272.049z"/>
	<path fill-rule="evenodd" clip-rule="evenodd" fill="#EBE1C6" d="M99.933,362.074c1.25-0.067,1.686,0.839,2.14,1.759
		c4.482,9.086,10.143,17.323,16.996,24.832c8.544,9.36,18.695,16.227,29.803,22.271c12.905,7.021,26.625,10.984,40.83,13.473
		c13.632,2.389,27.434,3.012,41.274,1.503c4.188-0.457,8.372-0.729,12.52-1.633c6.204-1.354,11.418-4.378,16.762-7.728
		c3.941-2.47,9.179-2.93,13.88-4.12c6.786-1.72,13.22-4.414,19.666-7.036c9.059-3.686,17.661-8.31,26.304-12.898
		c17.28-9.176,32.989-20.61,48.489-32.388c9.105-6.919,17.662-14.506,25.615-22.714c3.131-3.229,6.551-6.517,7.295-11.385
		c1.008-1.787,2.152-2.305,4.445-1.784c4.572,1.04,8.592,0.091,11.963-3.929c6.354-7.574,8.762-16.843,12.064-25.76
		c2.889-3.646,7.268-5.146,11.059-7.422c9.023-5.417,18.297-10.418,27.4-15.706c1.551-0.9,2.764-2.382,4.73-4.123
		c-5.137,0.029-9.256,1.182-13.32,2.294c-10.006,2.738-19.135,7.551-28.107,12.61c-11.498,6.482-22.361,13.879-32.525,22.359
		c-4.217,3.519-7.688,8.265-13.15,9.99c-4.865,1.538-9.945,2.45-14.531-1.142c2.121-1.079,3.029-3.26,4.465-4.954
		c10.471-12.353,23.014-22.163,36.619-30.861c13.998-8.953,28.797-16.065,44.488-21.39c6.123-2.078,12.348-3.855,18.479-5.916
		c5.191-1.746,6.924-5.683,5.568-10.854c-1.475-5.633-5.863-7.32-10.635-8.729c-0.021-7.358,0.932-14.807-2.18-21.873
		c-0.445-1.013-0.645-2.116-1.58-2.84c0.227-6.957-0.711-8.608-5.938-10.445c-3.096-5.858-7.629-10.422-12.676-14.632
		c-2.945-2.457-6.982-2.392-9.814-4.876c0.502-4.625-1.748-7.325-5.818-9.27c-5.82-2.781-12.041-3.522-18.273-4.382
		c-0.246-2.35-2.299-3.192-3.877-4.182c-5.658-3.547-10.977-7.638-16.975-10.646c-0.85-0.426-1.566-1.119-2.936-2.121
		c10.914-0.353,21.076-0.187,31.125,2.146c4.951,1.149,9.824,2.532,14.629,4.171c0.752,0.256,1.445,0.354,2.059-0.281
		c18.369,10.579,34.895,23.516,49.512,38.866c6.883,7.23,13.396,14.779,18.865,23.168c-0.898,3.331,2.129,5.366,2.807,8.241
		c0.449,1.904,0.256,4.257,1.391,5.695c4.127,5.229,5.928,11.467,8.063,17.531c1.719,4.887,3.057,9.891,3.982,15.059
		c2.111,11.778,2.453,23.646,0.639,35.31c-3.084,19.83-10.449,38.29-20.359,55.744c-6.35,11.183-13.754,21.619-21.984,31.459
		c-8.664,10.359-18.76,19.252-29.102,27.908c-10.346,8.657-21.43,16.245-33.043,22.991c-13.857,8.051-28.387,14.76-43.484,20.275
		c-9.369,3.423-18.797,6.758-28.377,9.346c-11.236,3.035-22.682,5.387-34.204,7.402c-11.057,1.936-22.17,3.51-33.283,3.871
		c-19.644,0.636-39.305,0.577-58.875-2.619c-22.163-3.619-43.401-10.014-63.19-20.451c-7.15-3.771-14.344-7.999-20.623-13.416
		c-1.2-1.035-2.258-3.25-4.62-2.312c-16.294-21.236-26.85-45.069-32.233-71.241C99.995,363.571,100,362.815,99.933,362.074z
		 M396.34,414.065c0.314-3.525-0.961-6.075-4.004-7.506c-3.344-1.572-6.75-1.849-9.875,0.557c-4.051,3.118-8.07,6.328-12.645,8.61
		c-8.684,4.334-17.686,7.927-26.9,11.02c-5.697,1.911-7.781,6.175-6.082,11.337c1.498,4.554,6.303,6.708,11.633,5.256
		c3.959-1.078,7.844-2.471,11.688-3.813c11.92-4.154,23.07-9.902,32.732-18.213C395.16,419.358,396.869,417.135,396.34,414.065z
		 M433.805,383.396c-0.213,3.848,1.656,6.104,4.668,7.659c2.988,1.543,5.734,1.305,8.266-0.983
		c7.689-6.948,13.824-15.217,19.689-23.66c2.328-3.353,0.834-8.45-2.383-10.578c-3.701-2.451-8.594-1.707-11.42,1.621
		c-5.383,6.339-9.768,13.473-15.738,19.363C435.137,378.543,433.074,380.604,433.805,383.396z M239.367,440.791
		c-0.874,0-1.748-0.002-2.622,0c-5.044,0.015-8.106,2.378-8.427,6.501c-0.371,4.772,2.239,7.694,7.415,8.472
		c8.646,1.3,17.394,0.526,26.077,1.394c4.848,0.484,8.451-3.139,8.546-7.381c0.102-4.604-3.181-8.016-8.212-8.173
		C254.55,441.366,246.932,441.851,239.367,440.791z M474.275,318.55c-0.83,5.561,4.096,9.513,8.631,9.539
		c5.771,0.034,9.857-4.267,9.572-9.091c-0.348-5.91-3.604-9.475-9.559-9.447C477.543,309.576,474.295,312.956,474.275,318.55z
		 M366.334,369.142c0.012,4.303,4.859,8.557,9.604,8.426c2.492-0.068,8.283-7.521,8.051-10.359c-0.16-1.951-6.229-6.64-8.518-6.58
		C370.734,360.751,366.322,364.862,366.334,369.142z M502.771,235.322c0.127-3.545-2.42-5.89-6.488-5.975
		c-3.371-0.07-6,2.329-6.172,5.632c-0.189,3.6,2.727,6.936,6.125,7.008C499.688,242.062,502.639,239.051,502.771,235.322z
		 M506.229,272.752c-3.787-0.02-6.342,2.435-6.43,6.177c-0.092,3.904,2.611,6.648,6.477,6.576c3.078-0.057,6.223-3.215,6.256-6.284
		C512.566,275.923,509.494,272.769,506.229,272.752z"/>
	<path fill-rule="evenodd" clip-rule="evenodd" fill="#D5B78B" d="M132.377,435.537c2.362-0.938,3.419,1.276,4.62,2.312
		c6.279,5.417,13.473,9.645,20.623,13.416c19.789,10.438,41.027,16.832,63.19,20.451c19.571,3.196,39.231,3.255,58.875,2.619
		c11.113-0.361,22.227-1.936,33.283-3.871c11.522-2.016,22.967-4.367,34.204-7.402c9.58-2.588,19.008-5.923,28.377-9.346
		c15.098-5.516,29.627-12.225,43.484-20.275c11.613-6.746,22.697-14.334,33.043-22.991c10.342-8.656,20.438-17.549,29.102-27.908
		c8.23-9.84,15.635-20.276,21.984-31.459c9.91-17.454,17.275-35.915,20.359-55.744c1.814-11.663,1.473-23.531-0.639-35.31
		c-0.926-5.168-2.264-10.172-3.982-15.059c-2.135-6.064-3.936-12.302-8.063-17.531c-1.135-1.438-0.941-3.792-1.391-5.695
		c-0.678-2.875-3.705-4.911-2.807-8.241c7.836,10.851,14.006,22.604,19.771,34.676c4.371,9.154,8.023,18.492,10.529,28.241
		c13.48,52.443,6.969,102.135-21.715,148.315c-17.068,27.479-40.385,48.752-68.354,64.885c-28.096,16.207-58.553,25.2-90.602,29.257
		c-36.599,4.634-72.846,2.425-108.425-6.981c-35.167-9.298-66.777-25.572-93.259-51.082
		C146.457,452.98,139.186,444.483,132.377,435.537z"/>
	<path fill-rule="evenodd" clip-rule="evenodd" fill="#F7FCFA" d="M232.829,106.3c-0.186,0.802-2.574,2.612,0.833,1.818
		c0.128-0.03,0.442,0.736,0.668,1.131c-1.5,0.515-3,1.029-4.501,1.543C228.38,107.66,230.173,106.692,232.829,106.3z"/>
	<path fill-rule="evenodd" clip-rule="evenodd" fill="#F7FCFA" d="M83.662,254.083c-1.321-1.285-0.909-1.982,0.764-2.252
		C84.168,252.581,84.846,253.648,83.662,254.083z"/>
	<path fill-rule="evenodd" clip-rule="evenodd" fill="#F7FCFA" d="M88.218,408.271c-0.289,0.322-0.558,0.9-1.067,0.517
		c-0.768-0.579-0.31-1.18,0.168-1.724C88.025,407.172,88.165,407.689,88.218,408.271z"/>
	<path fill-rule="evenodd" clip-rule="evenodd" fill="#F7FCFA" d="M100.927,216.714c0.207-0.303,0.414-0.605,0.621-0.909
		C101.691,216.348,101.382,216.581,100.927,216.714z"/>
	<path fill-rule="evenodd" clip-rule="evenodd" fill="#F7FCFA" d="M74.611,364.385c0.026-0.403,0.052-0.807,0.078-1.211
		C75.333,363.62,75.389,364.029,74.611,364.385z"/>
	<path fill-rule="evenodd" clip-rule="evenodd" fill="#D5B78B" d="M414.238,162.379c6.232,0.86,12.453,1.602,18.273,4.382
		c4.07,1.944,6.32,4.645,5.818,9.27c-5.242,0.03-10.484,0.06-15.727,0.089c-3.264,0.479-7.168-1.665-9.568,2.34
		c-3.068,1.227-6.137,2.454-9.205,3.68c-1.076-0.083-1.83,0.392-2.313,1.334c0,0-0.012-0.023-0.012-0.022
		c-1.467,0.033-2.775,0.46-3.828,1.531c-0.58-0.039-1.092,0.082-1.428,0.612c-1.982,0.784-4.145,1.135-5.91,2.447l-0.018,0.011
		c-3.258,0.438-5.828,2.243-8.32,4.198c-0.24,0.059-0.469,0.142-0.689,0.251c-6.256,2.521-12.205,5.686-18.057,8.994
		c-5.066,2.864-10.586,5.008-14.973,9.008c0,0-0.016-0.011-0.014-0.011c-1.07,0.042-1.789,0.662-2.404,1.456
		c-5.932,2.531-11.115,6.352-16.574,9.691c-5.697,3.484-11.309,7.109-16.959,10.673c-1.421-0.072-2.264-0.997-2.904-2.1
		c-1.241-2.133-2.98-2.126-4.779-1.009c-4.318,2.684-8.784,5.201-12.801,8.292c-10.824,8.33-21.905,16.314-32.347,25.163
		c-8.924,7.562-17.929,15.036-26.377,23.11c-18.499,17.683-35.618,36.584-48.95,58.588c-6.68,11.023-12.552,22.335-6.84,35.789
		c-6.78-2.957-10.454-8.729-13.067-15.156c-2.821-6.939-2.953-14.087-0.035-21.152c6.144-14.871,15.003-28.143,24.721-40.8
		c10.948-14.26,23.18-27.424,36.035-40.015c13.123-12.853,27.15-24.621,41.837-35.613c19.187-14.36,39.195-27.454,60.475-38.541
		c16.506-8.599,33.48-16.205,51.369-21.324C390.199,164.245,402.041,161.728,414.238,162.379z"/>
	<path fill-rule="evenodd" clip-rule="evenodd" fill="#D5B78B" d="M470.518,230.697c4.771,1.408,9.16,3.095,10.635,8.729
		c1.355,5.172-0.377,9.109-5.568,10.854c-6.131,2.06-12.355,3.838-18.479,5.916c-15.691,5.325-30.49,12.437-44.488,21.39
		c-13.605,8.699-26.148,18.508-36.619,30.861c-1.436,1.694-2.344,3.875-4.465,4.954c-7.523-3.809-10.025-13.219-7.16-20.186
		c2.865-6.972,8.338-11.752,13.752-16.497c12.115-10.62,25.283-19.807,39.539-27.325
		C434.355,240.592,451.559,233.133,470.518,230.697z"/>
	<path fill-rule="evenodd" clip-rule="evenodd" fill="#EBE1C6" d="M177.333,380.146c-5.712-13.454,0.161-24.766,6.84-35.789
		c13.332-22.004,30.451-40.905,48.95-58.588c8.448-8.075,17.453-15.548,26.377-23.11c10.441-8.849,21.523-16.833,32.347-25.163
		c4.017-3.091,8.482-5.607,12.801-8.292c1.799-1.117,3.538-1.124,4.779,1.009c0.641,1.104,1.483,2.028,2.904,2.1
		c-10.364,8.261-21.394,15.645-31.526,24.224c-10.509,8.898-21.216,17.533-31.001,27.278c-11.454,11.407-22.793,22.931-32.49,35.858
		c-6.15,8.2-12.235,16.554-16.7,25.893c-1.206,1.265-2.388,2.541-2.309,4.469c-1.138,0.96-1.538,2.229-1.529,3.668
		c-0.896,0.155-1.417,0.643-1.412,1.595c-0.256,0.754-0.512,1.506-0.769,2.26c-0.597,0.307-0.748,0.863-0.815,1.466
		c-2.981,6.86-4.109,13.858-1.775,21.183c1.365,4.283,1.011,4.903-3.418,4.245C184.6,383.857,180.218,383.816,177.333,380.146z"/>
	<path fill-rule="evenodd" clip-rule="evenodd" fill="#D5B78B" d="M161.517,252.753c-8.131-4.775-10.024-15.77-3.879-23.698
		c7.847-10.123,17.691-18.144,27.912-25.705c5.597-4.14,11.423-7.969,17.699-11.028c4.266-2.08,8.862-2.667,13.463-1.727
		c8.138,1.663,15.787,10.132,11.58,19.909c-3.428-0.149-6.812-1.418-10.297-0.005c-2.997,1.217-5.714,2.847-8.498,4.473
		c-16.483,9.631-31.106,21.492-43.789,35.75C164.564,252.009,163.25,252.767,161.517,252.753z"/>
	<path fill-rule="evenodd" clip-rule="evenodd" fill="#D5B78B" d="M284.443,323.872c-0.631-11.932,9.735-22.972,23.824-23.143
		c12.52-0.152,22.909,10.698,22.899,23.283c-0.008,13.232-10.612,23.994-23.738,23.66
		C294.263,347.338,283.861,337.313,284.443,323.872z"/>
	<path fill-rule="evenodd" clip-rule="evenodd" fill="#D5B78B" d="M270.222,177.861c-5.066-1.329-7.912-4.957-8.231-10.072
		c-0.549-8.782,4.02-14.575,11.281-18.194c12.336-6.147,25.406-10.426,39.179-11.562c7.447-0.614,13.801,1.902,17.053,9.963
		c1.68,4.163,0.23,7.518-2.211,10.749c-4.025-1.631-8.055-1.646-12.35-0.847c-6.151,1.145-11.902,3.416-17.771,5.375
		C287.344,166.556,278.11,170.975,270.222,177.861z"/>
	<path fill-rule="evenodd" clip-rule="evenodd" fill="#EBE1C6" d="M161.517,252.753c1.732,0.013,3.047-0.744,4.192-2.031
		c12.683-14.258,27.306-26.119,43.789-35.75c2.783-1.626,5.5-3.256,8.498-4.473c3.485-1.414,6.869-0.145,10.297,0.005
		c-2.621,4.394-7.19,6.802-10.624,10.382c-3.182,3.316-7.433,5.469-10.368,9.106c-0.597,0.072-1.158,0.21-1.469,0.805
		c-0.938,0.058-1.458,0.538-1.508,1.493c-2.206,0.403-3.25,2.207-4.514,3.745c-0.493,0.508-0.986,1.017-1.479,1.525
		c-2.396,1.601-4.606,3.391-6.04,5.966c-0.987,0.759-1.973,1.52-2.959,2.279c-0.988,0.402-1.465,1.171-1.579,2.2
		c-0.473,0.039-0.946,0.078-1.419,0.117c-0.964-0.012-1.448,0.463-1.449,1.428c-0.043,0.23-0.071,0.462-0.083,0.696
		c-1.646,0.516-3.15,1.213-3.789,3.001c-0.23,0.002-0.46,0.022-0.687,0.058c-0.617,0.01-1.171,0.149-1.518,0.724
		c-0.492,0.031-0.984,0.063-1.476,0.093c-0.966-0.044-1.442,0.477-1.588,1.377C170.825,255.507,165.821,255.943,161.517,252.753z"/>
	<path fill-rule="evenodd" clip-rule="evenodd" fill="#D5B78B" d="M282.373,378.365c-0.006,6.356-5.545,11.94-11.942,12.04
		c-6.038,0.094-11.433-5.612-11.374-12.029c0.057-6.33,5.506-11.836,11.675-11.798C276.973,366.616,282.377,372.089,282.373,378.365
		z"/>
	<path fill-rule="evenodd" clip-rule="evenodd" fill="#EBE1C6" d="M270.222,177.861c7.888-6.886,17.122-11.305,26.95-14.587
		c5.868-1.959,11.619-4.23,17.771-5.375c4.295-0.799,8.325-0.784,12.35,0.847c-0.494,0.753-0.99,1.506-1.484,2.261
		c-2.029,0.665-4.184,1.007-5.969,2.305c-1.002,0.265-2.004,0.531-3.006,0.795c-0.617-0.022-1.163,0.111-1.504,0.691
		c-0.498,0.031-0.995,0.063-1.492,0.093c-0.994-0.066-1.439,0.467-1.52,1.396v-0.002c-1.627,0.122-3.198,0.405-4.459,1.57
		c-1.758,0.747-3.518,1.493-5.275,2.24c-1.094-0.055-2.121,0-2.305,1.421c-5.871,2.321-11.632,5-17.651,6.836
		C278.646,179.567,274.263,180.229,270.222,177.861z"/>
	<path fill-rule="evenodd" clip-rule="evenodd" fill="#D5B78B" d="M144.445,314.433c0.031,6.247-4.738,10.938-11.119,10.935
		c-6.459-0.003-11.299-4.61-11.423-10.876c-0.127-6.397,5.103-11.631,11.577-11.655
		C138.562,302.817,145.037,307.171,144.445,314.433z"/>
	<path fill-rule="evenodd" clip-rule="evenodd" fill="#D5B78B" d="M236.636,344.063c5.708-0.053,10.445,4.857,10.453,10.834
		c0.006,5.402-5.064,10.087-10.901,10.072c-5.398-0.016-10.088-4.886-10.058-10.445
		C226.162,348.845,230.908,344.117,236.636,344.063z"/>
	<path fill-rule="evenodd" clip-rule="evenodd" fill="#D5B78B" d="M220.583,387.438c4.668,0.028,7.726,3.231,7.733,8.104
		c0.008,4.163-3.896,7.831-8.262,7.767c-4.364-0.065-7.571-3.487-7.51-8.013C212.606,390.571,215.841,387.41,220.583,387.438z"/>
	<path fill-rule="evenodd" clip-rule="evenodd" fill="#D5B78B" d="M362.387,262.394c-4.83,0.045-7.314-2.43-7.326-7.298
		c-0.01-4.645,2.861-7.701,7.219-7.68c4.193,0.02,7.66,3.324,7.773,7.409C370.178,259.346,367.137,262.349,362.387,262.394z"/>
	<path fill-rule="evenodd" clip-rule="evenodd" fill="#D5B78B" d="M330.549,272.141c-4.479-0.016-6.957-2.447-6.959-6.828
		c0-4.475,3.055-7.607,7.387-7.571c4.012,0.033,6.918,3.203,6.93,7.559C337.918,269.755,335.334,272.157,330.549,272.141z"/>
	<path fill-rule="evenodd" clip-rule="evenodd" fill="#D5B78B" d="M412.287,216.457c-3.709,0.064-6.811-3.043-6.895-6.905
		c-0.076-3.563,3.406-7.068,7.18-7.227c3.645-0.152,6.787,2.97,6.922,6.877C419.611,212.656,415.898,216.395,412.287,216.457z"/>
	<path fill-rule="evenodd" clip-rule="evenodd" fill="#D5B78B" d="M138.328,363.74c3.748,0.013,6.833,3.441,6.722,7.47
		c-0.108,3.885-3.001,6.635-6.989,6.644c-4.086,0.008-6.616-2.619-6.601-6.857C131.475,366.797,134.38,363.727,138.328,363.74z"/>
	<path fill-rule="evenodd" clip-rule="evenodd" fill="#D5B78B" d="M460.82,195.539c5.227,1.837,6.164,3.488,5.938,10.445
		c-1.721,1.339-3.008,3.187-5.656,3.181c-4.332-0.008-6.596-1.169-7.551-4.497c-1.006-3.498,0.439-6.378,4.24-8.447
		c0.301-0.173,0.604-0.347,0.904-0.521C459.404,195.647,460.111,195.593,460.82,195.539z"/>
	<path fill-rule="evenodd" clip-rule="evenodd" fill="#D5B78B" d="M271.929,202.45c0.034,4.084-2.337,6.537-6.389,6.607
		c-3.937,0.069-6.524-2.52-6.524-6.526c0-3.746,3.193-6.911,6.901-6.837C269.373,195.763,271.897,198.599,271.929,202.45z"/>
	<path fill-rule="evenodd" clip-rule="evenodd" fill="#D5B78B" d="M133.404,250.988c3.466,0.026,6.217,2.635,6.31,5.983
		c0.097,3.506-3.345,6.85-7.057,6.854c-3.582,0.005-6.223-2.526-6.276-6.016C126.314,253.438,128.871,250.954,133.404,250.988z"/>
	<path fill-rule="evenodd" clip-rule="evenodd" fill="#D5B78B" d="M366.008,140.034c3.227,0.007,6.266,3.226,6.258,6.627
		c-0.006,2.883-3.154,6.001-6.059,6.003c-3.846,0.002-6.623-2.772-6.576-6.569C359.67,143.02,362.818,140.027,366.008,140.034z"/>
	<path fill-rule="evenodd" clip-rule="evenodd" fill="#EBE1C6" d="M413.035,178.46c2.4-4.005,6.305-1.861,9.568-2.34
		C419.486,177.201,416.299,177.984,413.035,178.46z"/>
	<path fill-rule="evenodd" clip-rule="evenodd" fill="#EBE1C6" d="M458.695,195.701c-0.301,0.174-0.604,0.348-0.904,0.521
		C458.092,196.048,458.393,195.875,458.695,195.701z"/>
	<path fill-rule="evenodd" clip-rule="evenodd" fill="#D5B78B" d="M396.34,414.065c0.529,3.069-1.18,5.293-3.453,7.248
		c-9.662,8.311-20.813,14.059-32.732,18.213c-3.844,1.342-7.729,2.734-11.688,3.813c-5.33,1.452-10.135-0.702-11.633-5.256
		c-1.699-5.162,0.385-9.426,6.082-11.337c9.215-3.093,18.217-6.686,26.9-11.02c4.574-2.282,8.594-5.492,12.645-8.61
		c3.125-2.405,6.531-2.129,9.875-0.557C395.379,407.99,396.654,410.54,396.34,414.065z"/>
	<path fill-rule="evenodd" clip-rule="evenodd" fill="#D5B78B" d="M433.805,383.396c-0.73-2.791,1.332-4.853,3.082-6.578
		c5.971-5.891,10.355-13.024,15.738-19.363c2.826-3.328,7.719-4.072,11.42-1.621c3.217,2.128,4.711,7.226,2.383,10.578
		c-5.865,8.443-12,16.712-19.689,23.66c-2.531,2.288-5.277,2.526-8.266,0.983C435.461,389.499,433.592,387.243,433.805,383.396z"/>
	<path fill-rule="evenodd" clip-rule="evenodd" fill="#D5B78B" d="M239.367,440.791c7.565,1.06,15.184,0.575,22.777,0.813
		c5.031,0.157,8.313,3.569,8.212,8.173c-0.095,4.242-3.698,7.865-8.546,7.381c-8.684-0.867-17.432-0.094-26.077-1.394
		c-5.176-0.777-7.786-3.699-7.415-8.472c0.32-4.123,3.383-6.486,8.427-6.501C237.619,440.789,238.493,440.791,239.367,440.791z"/>
	<path fill-rule="evenodd" clip-rule="evenodd" fill="#D5B78B" d="M474.275,318.55c0.02-5.594,3.268-8.974,8.645-8.999
		c5.955-0.028,9.211,3.537,9.559,9.447c0.285,4.824-3.801,9.125-9.572,9.091C478.371,328.063,473.445,324.11,474.275,318.55z"/>
	<path fill-rule="evenodd" clip-rule="evenodd" fill="#D5B78B" d="M366.334,369.142c-0.012-4.279,4.4-8.391,9.137-8.514
		c2.289-0.06,8.357,4.629,8.518,6.58c0.232,2.838-5.559,10.291-8.051,10.359C371.193,377.698,366.346,373.444,366.334,369.142z"/>
	<path fill-rule="evenodd" clip-rule="evenodd" fill="#D5B78B" d="M502.771,235.322c-0.133,3.729-3.084,6.739-6.535,6.665
		c-3.398-0.072-6.314-3.408-6.125-7.008c0.172-3.303,2.801-5.702,6.172-5.632C500.352,229.433,502.898,231.777,502.771,235.322z"/>
	<path fill-rule="evenodd" clip-rule="evenodd" fill="#D5B78B" d="M506.229,272.752c3.266,0.017,6.338,3.171,6.303,6.469
		c-0.033,3.069-3.178,6.228-6.256,6.284c-3.865,0.072-6.568-2.672-6.477-6.576C499.887,275.187,502.441,272.732,506.229,272.752z"/>
	<path fill-rule="evenodd" clip-rule="evenodd" fill="#F7FCFA" d="M382.002,192.251c-0.066,0.535-0.193,0.896-0.689,0.252
		C381.533,192.393,381.762,192.31,382.002,192.251z"/>
</g>
</svg>
