<?xml version="1.0" encoding="utf-8"?>
<!-- Generator: Adobe Illustrator 16.0.0, SVG Export Plug-In . SVG Version: 6.00 Build 0)  -->
<!DOCTYPE svg PUBLIC "-//W3C//DTD SVG 1.1//EN" "http://www.w3.org/Graphics/SVG/1.1/DTD/svg11.dtd">
<svg version="1.1" id="Layer_1" xmlns="http://www.w3.org/2000/svg" xmlns:xlink="http://www.w3.org/1999/xlink" x="0px" y="0px"
	 width="640px" height="640px" viewBox="0 0 640 640" enable-background="new 0 0 640 640" xml:space="preserve">
<g>
	<path fill-rule="evenodd" clip-rule="evenodd" fill="#324D55" d="M76.788,352.646c2.84-13.1,6.691-25.888,11.799-38.29
		c0.02-1.063,1.391-1.748,0.828-2.974c0.102-0.193,0.14-0.398,0.115-0.615c0.959-1.553,1.918-3.105,2.877-4.658
		c1.137-1.576,1.81-3.354,2.254-5.229c0.008-0.256,0.016-0.511,0.023-0.767c2.816-1.365,3.545-4.073,4.337-6.741
		c0.64-0.931,1.707-1.694,1.202-3.072c0.875-0.782,2.333-1.125,2.072-2.76c3.907-2.957,5.765-7.474,8.576-11.264
		c0.138-0.251,0.275-0.503,0.414-0.754c1.482-1.085,2.295-2.707,3.324-4.154l0.094-0.164c0.391-0.573,0.782-1.146,1.174-1.719
		l-0.037,0.036c1.543-1.862,3.086-3.725,4.629-5.586c1.255-1.423,2.509-2.845,3.764-4.268c0.392-0.422,0.783-0.844,1.176-1.266
		c5.273-5.591,10.546-11.181,15.819-16.771c3.8-3.646,7.599-7.292,11.397-10.938c2.041-0.99,2.771-3.256,4.467-4.582
		c2.395-0.334,3.605-2.33,5.24-3.732c0.605-0.516,1.211-1.031,1.817-1.548c0.827-0.31,1.475-0.821,1.85-1.64
		c2.774-2.203,5.548-4.404,8.321-6.606c1.996-1.276,4.229-2.284,5.254-4.655c0.241-0.209,0.481-0.418,0.723-0.627
		c2.576-0.348,4.08-2.268,5.756-3.935c1.733-1.192,3.467-2.383,5.2-3.573l0.257-0.172c2.76-2.189,5.876-3.927,8.297-6.546
		c3.186-1.022,5.729-3.089,8.301-5.11c2.99-2.089,5.917-4.277,8.984-6.244c4.711-3.018,9.725-5.562,14.175-8.992
		c1.669-0.055,3.136-0.445,3.752-2.254c1.249,0,2.171-0.66,3.007-1.493c4.619-1.604,8.643-4.335,12.809-6.794
		c4.213-2.279,8.427-4.559,12.64-6.838c1.542,0.238,2.633-0.656,3.747-1.492c1.461-2.205,4.047-2.076,6.137-2.992
		c8.305-3.638,16.554-7.406,24.885-10.984c3.071-1.318,6.311-2.242,9.475-3.348c2.115-0.71,4.592-0.686,5.948-2.934
		c4.896,0.149,8.935-2.91,13.598-3.629c2.128-0.074,4.029-0.924,5.945-1.728c6.006-1.494,12.012-2.987,18.018-4.481
		c5.99-1.062,11.895-2.611,17.979-3.129c2.631-0.369,5.26-0.738,7.889-1.106c6.217-0.265,12.438-0.771,18.65-0.73
		c7.547,0.048,15.111-0.596,22.65,0.618c5.578,0.898,11.219,1.414,16.832,2.102c6.773,1.779,13.625,3.219,20.35,5.24
		c6.512,1.957,12.676,4.818,19.139,6.775c6.162,1.867,11.484,5.438,17.074,8.25c5.273,2.654,10.295,6.393,15.236,9.933
		c0.633,0.896,1.422,1.596,2.461,1.982c13.732,11.141,26.045,23.605,35.65,38.552c11.16,17.367,18.195,36.188,19.752,56.898
		c-1.082,5.491-1.086,10.981,0.002,16.473c-0.41,15.283-4.213,29.811-10.164,43.779c-9.871,23.177-24.885,42.873-42.191,60.9
		c-44.09,45.927-95.26,82.31-151.441,111.884c-27.599,14.529-56.338,26.178-86.692,33.545c-27.949,6.783-56.067,7.672-84.217,1.195
		c-12.811-2.949-24.89-8.002-36.73-13.633c-2.589-2.164-5.725-3.361-8.669-4.896c-0.349-0.074-0.696-0.148-1.045-0.225
		c-2.122-1.602-3.826-3.754-6.36-4.809c-2.295-1.65-4.59-3.301-6.885-4.951c-0.652-1.072-1.619-1.736-2.784-2.143
		c-1.181-1.076-2.361-2.152-3.542-3.229c-2.1-2.027-4.2-4.055-6.301-6.08c-3.951-4.223-7.902-8.445-11.854-12.666
		c-0.464-0.494-0.927-0.988-1.391-1.482c-0.167-1.494-1.114-2.486-2.188-3.396c-1.176-1.646-2.352-3.293-3.527-4.939
		c-1.834-2.807-3.065-6.023-5.651-8.32c-0.48-0.926-0.962-1.852-1.442-2.777c-0.918-3.361-2.947-6.18-4.495-9.234
		c-0.533-0.672-1.067-1.346-1.601-2.016c0.435-2.658-1.034-4.711-2.177-6.869c-2.007-3.453-2.491-7.416-3.728-11.129
		c-1.574-8.017-3.457-15.956-4.178-24.144c-0.548-6.215-0.096-12.416-0.527-18.607c0.199-2.496,0.398-4.992,0.598-7.488
		c0.234-2.254,0.469-4.508,0.704-6.762C76.536,355.635,76.662,354.141,76.788,352.646z M137.698,459.808
		c0.205,0.197,0.412,0.395,0.618,0.592l0.097,0.09c2.49,2.719,5.209,5.107,8.23,7.295c2.991,2.168,6.463,3.725,9.141,5.998
		c4.178,3.545,8.916,6.008,13.614,8.326c13.417,6.619,27.667,10.467,42.578,12.59c17.098,2.432,33.799,0.586,50.434-2.6
		c14.339-2.746,28.141-7.486,41.92-12.393c15.788-5.619,30.685-13.027,45.582-20.496c8.045-4.033,15.848-8.551,23.76-12.85
		c2.004-0.191,4.939,1.092,4.559-2.879c8.436-5.615,17.203-10.705,25.492-16.564c9.1-6.432,18.502-12.447,27.307-19.284
		c12.104-9.395,24.273-18.693,35.705-28.951c8.877-7.967,17.416-16.246,25.746-24.762c5.549-5.674,10.359-11.986,15.525-17.979
		c3.787-4.39,7.502-8.94,10.748-13.593c5.492-7.88,10.094-16.428,13.518-25.576c4.361-11.648,6.861-23.563,7.213-35.97
		c0.23-8.146-0.586-16.234-2.494-24.086c-1.535-6.328-3.158-12.791-7.057-18.282c-4.539-11.542-11.725-21.267-20.525-29.882
		l-0.133-0.137c-0.148-0.206-0.297-0.412-0.445-0.618c-9.295-10.896-20.953-18.618-33.594-25.022
		c-4.711-2.652-9.529-5.057-14.623-6.917c-10.975-4.009-21.988-7.844-33.641-9.413c-0.57-0.104-1.139-0.208-1.709-0.313
		c-0.424-0.114-0.848-0.229-1.271-0.342c-1.002-0.059-2.006-0.117-3.008-0.176c-0.832-0.219-1.654-0.539-2.502-0.639
		c-11.537-1.359-23.123-1.188-34.686-0.639c-6.418,0.304-12.846,1.038-19.105,2.702c-0.486,0.06-0.971,0.12-1.457,0.179
		c-10.684,1.619-21.166,4.023-31.244,8.006c-4.613,1.084-9.056,2.7-13.485,4.353c-34.625,12.913-67.126,29.917-97.642,50.737
		c-11.939,8.146-23.821,16.371-34.679,25.961c-6.57,4.76-12.402,10.385-18.383,15.826c-9.302,8.463-18.121,17.402-25.992,27.24
		c-0.908,1.057-1.814,2.113-2.722,3.17c-0.281,0.245-0.601,0.457-0.838,0.739c-18.098,21.441-30.751,45.607-35.771,73.356
		c-2.229,12.322-2.406,24.824-0.221,37.258c0.047,0.518,0.094,1.037,0.141,1.555c0.269,2.078,0.387,4.184,1.256,6.137
		c0.809,6.01,2.805,11.64,5.504,17.038c-0.216,1.201,0.449,2.176,0.896,3.176c6.391,14.273,15.525,26.582,26.809,37.346
		c0.231,0.191,0.462,0.383,0.693,0.576L137.698,459.808z"/>
	<path fill-rule="evenodd" clip-rule="evenodd" fill="#FCFCFB" d="M363.234,147.219c0.486-0.059,0.971-0.119,1.457-0.179
		c1.053,1.292,2.521,0.8,3.828,0.82c7.174,0.112,14.209-1.642,21.4-1.52c9.064,0.153,18.133,0.057,27.199,0.02
		c1.311-0.005,2.766,0.467,3.865-0.745c1.002,0.059,2.006,0.117,3.008,0.176c0.424,0.113,0.848,0.228,1.271,0.342
		c0.57,0.104,1.139,0.209,1.709,0.313c-0.451,1.312-0.408,3.755-1.412,3.736c-3.41-0.064-2.014,2.243-2.313,3.737
		c-2,5.19-1.457,6.452,3.504,8.131c4.096,3.51,8.189,7.021,12.283,10.53c-0.252,0.563-0.41,1.198-0.771,1.682
		c-5.793,7.752-11.609,15.488-17.426,23.222c-0.703,0.934-1.574,1.575-2.836,1.392c-6.932-7.336-14.496-13.946-22.596-19.972
		c-6.809-5.064-14.307-8.931-21.738-12.93c0.285-1.535,1.965-2.509,1.568-4.38c-0.311-1.471-1.559-2.277-2.215-1.38
		c-1.809,2.472-4.406,2.161-6.799,2.694l-0.021-0.008c-2.613-4.117-7.398-3.372-11.1-4.253c-6.285-1.495-12.664,0.333-18.513,3.108
		c-1.85,0.879-3.14,2.484-3.488,4.945c-0.322,2.266-0.659,5.265-2.609,6.423c-2.134,1.267-2.012,2.337-0.994,3.776
		c1.224,1.731,2.544,0.977,3.664-0.326c1.235-1.436,2.353-1.033,3.412,0.219c2.118,2.503,2.118,2.504,3.435-0.5
		c13.695,5.334,25.906,13.162,37.191,22.452c8.848,7.284,17.258,15.037,23.668,24.682c-0.848,1.063-2.152,1.499-3.074,2.595
		c-7.287,8.668-13.328,18.302-20.828,26.818c-1.113,1.266-2.021,1.519-3.354,1.612c-8.502-13.319-18.568-25.227-30.867-35.264
		c-17.117-13.971-34.95-26.275-57.706-29.162c-6.09-0.772-14.243,1.536-17.129,6.002c-3.153,4.88-1.709,9.286,3.627,11.063
		c17.638,8.685,34.302,18.858,48.994,32.048c10.162,9.122,19.462,18.974,26.253,30.956c-7.541,6.773-14.964,13.687-22.688,20.244
		c-2.696,2.289-5.771,4.406-8.216,6.791c-1.69,1.65-2.398,1.159-3.79,0.826c-0.354-0.51-0.751-0.995-1.057-1.533
		c-12.585-22.073-30.808-38.544-52.032-51.91c-7.972-5.02-16.339-9.231-25.482-12.086c-6.978-2.179-13.834-4.068-21.108-3.436
		c-6.802,0.592-12.476,3.465-15.712,9.862c-2.579,5.101-0.413,9.021,5.082,9.479c0.802,1.057,2.051,1.331,3.181,1.811
		c8.824,3.744,17.531,7.754,25.765,12.671c23.032,13.751,42.436,31.238,55.815,54.834c1.053,5.484,4.477,9.115,9.183,11.741
		c0.346,2.112-0.737,3.543-2.218,4.847c-4.643,4.087-9.267,8.224-13.858,12.339c-8.115,7.271-16.724,13.813-25.316,20.451
		c-8.013,6.191-17.035,10.691-25.47,16.162c-8.519,5.521-17.71,9.9-27.105,13.826c-9.365,3.914-18.907,7.275-28.647,10.105
		c-2.175,0.633-4.5-0.195-6.646,0.785c-4.404,2.016-9.199,2.249-13.873,2.386c-9.168,0.268-18.339,0.561-27.242-2.798
		c-7.169-2.701-14.176-5.361-18.629-12.113c-0.104-1.695,0.43-3.492-1.062-4.941c-0.553-0.537-0.63-1.787,0.005-1.996
		c3.318-1.09,2.589-3.971,2.766-6.242c0.604-7.773,1.63-15.576-0.69-23.289c-0.495-1.646-0.929-3.746,0.496-4.982
		c3.821-3.313,4.927-7.666,5.581-12.352c0.375-2.682,0.718-5.381,3.561-6.997c1.109-0.632,1.752-2.317,1.177-3.699
		c-1.555-3.737,0.194-5.711,3.466-6.861c2.986-1.051,3.46-3.587,2.463-5.728c-1.141-2.447-0.732-3.097,1.653-3.684
		c1.03-0.254,1.806-1.439,1.382-2.735c-0.487-1.486-1.115-3.445,0.9-3.579c1.148-0.077,4.178-1.06,4.14,2.261
		c-0.009,0.727,0.86,0.674,1.459,0.833c2.707,0.723,3.566-1.548,4.954-2.971c31.389,10.417,57.381,27.907,74.602,56.897
		c0.715,2.545,1.83,4.945,3.304,7.09c5.654,8.236,15.886,8.83,22.542,0.551c5.133-6.383,4.999-13.621,2.205-20.811
		c-4.354-11.203-11.84-20.342-20.005-28.96c-10.007-10.562-21.746-18.935-33.897-26.786c0.177-1.482-0.52-2.5-1.91-2.745
		c-1.406-0.247-2.441-1.137-3.677-1.642c-2.95-1.207-4.251-6.046-9.051-3.785c-0.743,0.35-3.813-0.707-5.873-0.734
		c-0.188,0.071-0.353,0.033-0.489-0.114c-3.97-3.58-8.79-4.655-13.945-4.697c-1.115-0.01-2.23,0.162-3.348,0.183
		c-1.041,0.02-2.074-0.09-2.086-1.509c-0.01-1.169,0.961-1.114,1.725-1.518c3.245-1.71,6.709-1.464,11.615-0.777
		c1.305-0.702,0.239-0.548-0.719-0.689c-1.189-0.177-0.686,0.661-0.699,1.106c-0.035,1.121,0.383,1.928,1.688,1.794
		c0.889-0.091,1.212-0.692-0.27-2.21c-2.5-3.495-4.893-1.699-6.625-2.154c-0.811-0.213-1.902,0.102-2.126-1.037
		c-0.198-1.008,0.479-1.668,1.419-1.889c2.515-0.59,3.197-2.162,3.908-4.647c0.75-2.62,0.711-7.358,5.121-6.744
		c3.082,0.429,4.446-1.316,6.309-2.604c0.752-0.521,1.074-1.629,2.211-1.816c3.154-0.518,3.725-3.037,3.827-5.534
		c0.083-2.036,1.117-4.081,2.276-4.742c2.07-1.181,3.993-3.482,6.988-2.59c0.859,0.257,2.013-0.428,1.98-1.304
		c-0.093-2.587,1.815-5.117,0.217-7.723c10.857-9.59,22.739-17.815,34.679-25.961c30.516-20.82,63.017-37.824,97.642-50.737
		c4.43-1.652,8.872-3.269,13.487-4.352c5.137,1.303,9.898-1.185,14.639-2.14c4.875-0.981,9.393-3.973,14.721-3.723
		C362.865,149.435,363.25,148.499,363.234,147.219z M340.473,155.767c2.561,1.448,5.211,0.989,7.803,1.09
		c0.693,0.026,1.711,0.153,1.758-0.833c0.049-1.086-0.959-1.428-1.834-1.33C345.615,154.981,343.047,155.4,340.473,155.767z"/>
	<path fill-rule="evenodd" clip-rule="evenodd" fill="#F4E9CE" d="M106.718,395.381c4.453,6.752,11.46,9.412,18.629,12.113
		c8.903,3.358,18.074,3.065,27.242,2.798c4.674-0.137,9.469-0.37,13.873-2.386c2.146-0.98,4.472-0.152,6.646-0.785
		c9.74-2.83,19.282-6.191,28.647-10.105c9.396-3.926,18.587-8.305,27.105-13.826c8.435-5.471,17.457-9.971,25.47-16.162
		c8.593-6.639,17.201-13.18,25.316-20.451c4.592-4.115,9.216-8.252,13.858-12.339c1.48-1.304,2.563-2.734,2.218-4.847
		c10.33,3.393,18.167-4.789,19.778-12.37c1.47-6.915-1.066-12.929-3.412-19.063c1.392,0.333,2.1,0.824,3.79-0.826
		c2.444-2.385,5.52-4.502,8.216-6.791c7.724-6.558,15.146-13.471,22.686-20.245c1.266,1.987,2.531,3.975,3.797,5.962
		c1.283,6.056,4.361,10.699,10.719,12.039c8.936,1.882,17.09-4.918,17.705-14.187c0.477-7.171-2.084-13.392-5.391-19.456
		c1.332-0.095,2.24-0.348,3.354-1.613c7.5-8.517,13.541-18.15,20.828-26.818c0.922-1.096,2.227-1.531,3.072-2.596
		c4.15,4.491,6.662,10.026,9.701,15.225c1.127,4.799,3.373,8.819,7.928,11.168c8.531,4.4,16.924-1.991,18.936-9.86
		c1.902-7.435-1.135-13.692-4.223-19.962c-3.879-7.879-9.43-14.589-15.205-21.121c1.262,0.184,2.133-0.458,2.836-1.392
		c5.816-7.733,11.633-15.47,17.426-23.222c0.361-0.483,0.52-1.118,0.771-1.683c1.035,0.883,2.115,1.718,3.1,2.655
		c10.193,9.719,18.521,20.813,24.654,33.521c0.52,6.028,5.564,11.052,11.092,11.044c6.234-0.01,11.619-5.166,12.139-11.484
		c0.557-6.781-1.73-12.736-5.125-18.393c-5.492-9.148-12.529-16.971-20.6-23.9c4.166,0.666,6.906-3.476,10.941-3.246
		c12.641,6.404,24.299,14.127,33.592,25.021c0.148,0.205,0.299,0.412,0.447,0.619c0,0,0.133,0.137,0.131,0.137
		c0.203,1.349,0.283,2.73,0.627,4.043c2.123,8.092,2.342,16.349,1.346,24.537c-1.816,14.975-8.508,28.166-16.896,40.336
		c-14.123,20.49-31.424,38.183-49.867,54.841c-15.475,13.978-31.693,26.954-48.742,38.952
		c-16.717,11.764-33.846,22.824-51.674,32.861c-22.546,12.691-45.823,23.736-69.991,32.942
		c-17.038,6.492-34.462,11.764-52.259,15.611c-20.274,4.383-40.744,6.566-61.604,4.891c-18.104-1.453-34.811-5.938-48.809-18.102
		c-0.695-0.604-1.438-0.982-2.377-0.871c-2.699-5.398-4.695-11.028-5.503-17.036c-0.492-2.031,1.37-4.545-1.257-6.139
		c-0.047-0.518-0.094-1.037-0.141-1.555C104.499,392.154,104.907,395.83,106.718,395.381z"/>
	<path fill-rule="evenodd" clip-rule="evenodd" fill="#D9AC6A" d="M109.159,418.595c0.939-0.111,1.682,0.268,2.377,0.871
		c13.998,12.164,30.704,16.648,48.809,18.102c20.86,1.676,41.33-0.508,61.604-4.891c17.797-3.848,35.221-9.119,52.259-15.611
		c24.168-9.206,47.445-20.251,69.991-32.942c17.828-10.037,34.957-21.098,51.674-32.861c17.049-11.998,33.268-24.974,48.742-38.952
		c18.443-16.658,35.744-34.351,49.867-54.841c8.389-12.17,15.08-25.361,16.896-40.336c0.996-8.188,0.777-16.445-1.346-24.537
		c-0.344-1.313-0.424-2.694-0.627-4.043c8.803,8.615,15.988,18.34,20.525,29.881c-0.254,0.258-0.756,0.554-0.725,0.771
		c0.838,5.588,0.18,11.132-0.113,16.726c-0.801,15.273-4.82,29.715-10.904,43.576c-9.682,22.067-24.244,40.911-40.396,58.498
		c-17.672,19.24-37.824,35.768-58.619,51.492c-13.412,10.139-27.115,19.865-41.42,28.743c-12.824,7.959-25.74,15.748-39.092,22.783
		c-17.754,9.352-36.028,17.465-55.07,23.959c-21.759,7.424-44.029,11.428-66.946,12.055c-7.849,0.213-15.66-0.605-23.472-1.338
		c-13.724-1.287-26.899-4.779-39.886-9.264c-5.067-1.752-9.531-4.941-14.875-5.945l-0.097-0.09
		c-0.207-0.197-0.413-0.395-0.618-0.592l-0.141-0.115c-0.231-0.191-0.463-0.385-0.693-0.576
		c-11.283-10.764-20.418-23.072-26.809-37.346C109.608,420.771,108.943,419.796,109.159,418.595z"/>
	<path fill-rule="evenodd" clip-rule="evenodd" fill="#BE6E32" d="M138.413,460.489c5.344,1.004,9.808,4.193,14.875,5.945
		c12.986,4.484,26.162,7.977,39.886,9.264c7.812,0.732,15.623,1.551,23.472,1.338c22.917-0.627,45.188-4.631,66.946-12.055
		c19.042-6.494,37.316-14.607,55.07-23.959c13.352-7.035,26.268-14.824,39.092-22.783c14.305-8.878,28.008-18.604,41.42-28.743
		c20.795-15.725,40.947-32.252,58.619-51.492c16.152-17.586,30.715-36.43,40.396-58.498c6.084-13.861,10.104-28.303,10.904-43.576
		c0.293-5.594,0.951-11.138,0.113-16.726c-0.031-0.217,0.471-0.513,0.725-0.771c3.9,5.492,5.523,11.955,7.059,18.283
		c1.908,7.852,2.725,15.94,2.494,24.086c-0.352,12.406-2.852,24.321-7.213,35.97c-3.424,9.147-8.025,17.695-13.518,25.576
		c-3.246,4.652-6.961,9.203-10.748,13.593c-5.166,5.992-9.977,12.305-15.525,17.979c-8.33,8.516-16.869,16.795-25.746,24.762
		c-11.432,10.258-23.602,19.557-35.705,28.951c-8.805,6.837-18.207,12.853-27.307,19.284c-8.289,5.859-17.057,10.949-25.492,16.563
		c-2.279-0.24-3.568,1.084-4.559,2.881c-7.912,4.299-15.715,8.816-23.76,12.85c-14.897,7.469-29.794,14.877-45.582,20.496
		c-13.779,4.906-27.581,9.646-41.92,12.393c-16.635,3.186-33.336,5.031-50.434,2.6c-14.911-2.123-29.161-5.971-42.578-12.59
		c-4.698-2.318-9.437-4.781-13.614-8.326c-2.678-2.273-6.149-3.83-9.141-5.998C143.622,465.597,140.903,463.208,138.413,460.489z"/>
	<path fill-rule="evenodd" clip-rule="evenodd" fill="#F3F8F7" d="M106.718,395.381c-1.811,0.449-2.219-3.227-4.459-1.516
		c-2.186-12.434-2.009-24.936,0.221-37.258c5.02-27.749,17.673-51.915,35.771-73.356c0.237-0.282,0.557-0.494,0.839-0.738
		c1.514,0.386,2.715,3.063,4.467,1.11c1.548-1.727-1.619-2.078-1.598-3.555c0.003-0.241-0.097-0.484-0.148-0.727
		c7.871-9.838,16.69-18.777,25.992-27.24c5.98-5.441,11.813-11.066,18.383-15.826c1.599,2.605-0.31,5.136-0.217,7.723
		c0.032,0.876-1.121,1.561-1.98,1.304c-2.995-0.893-4.918,1.409-6.988,2.59c-1.159,0.661-2.193,2.706-2.276,4.742
		c-0.103,2.497-0.673,5.017-3.827,5.534c-1.137,0.188-1.459,1.296-2.211,1.816c-1.862,1.288-3.227,3.033-6.309,2.604
		c-4.41-0.614-4.371,4.124-5.121,6.744c-0.711,2.485-1.394,4.058-3.908,4.647c-0.939,0.221-1.617,0.881-1.419,1.889
		c0.224,1.139,1.48,0.822,2.294,0.621c1.621-0.4,6.373-0.316,7.422,2.5c-3.455-0.008-9.335-0.863-12.58,0.847
		c-0.764,0.403-1.734,0.349-1.725,1.518c0.012,1.419,1.045,1.528,2.086,1.509c1.117-0.021,2.232-0.192,3.348-0.183
		c5.155,0.042,9.976,1.117,13.945,4.697c-1.459-0.271-2.929-0.493-4.373-0.824c-5.623-1.292-11.246-1.955-16.996-0.726
		c-7.111,1.52-12.357,5.092-14.293,12.473c-1.392,5.308,0.889,8.517,6.428,9.146c0.494,0.324,0.99,0.646,1.484,0.97
		c-1.388,1.423-2.247,3.693-4.954,2.971c-0.599-0.159-1.468-0.106-1.459-0.833c0.038-3.32-2.991-2.338-4.14-2.261
		c-2.016,0.134-1.388,2.093-0.9,3.579c0.424,1.296-0.352,2.481-1.382,2.735c-2.386,0.587-2.794,1.236-1.653,3.684
		c0.997,2.141,0.523,4.677-2.463,5.728c-3.271,1.15-5.021,3.124-3.466,6.861c0.575,1.382-0.067,3.067-1.177,3.699
		c-2.843,1.616-3.186,4.315-3.561,6.997c-0.654,4.686-1.76,9.039-5.581,12.352c-1.425,1.236-0.991,3.336-0.496,4.982
		c2.32,7.713,1.295,15.516,0.69,23.289c-0.177,2.271,0.553,5.152-2.766,6.242c-0.635,0.209-0.558,1.459-0.005,1.996
		C107.147,391.889,106.614,393.686,106.718,395.381z"/>
	<path fill-rule="evenodd" clip-rule="evenodd" fill="#EFF6F4" d="M475.236,162.776c-4.035-0.229-6.775,3.912-10.939,3.245
		c-6.748-5.087-13.482-10.259-21.65-12.882c-6.49-2.084-13.143-4.572-19.398,0.78c0.299-1.494-1.098-3.802,2.313-3.737
		c1.004,0.019,0.961-2.425,1.412-3.736c11.652,1.569,22.666,5.404,33.641,9.413C465.707,157.719,470.525,160.124,475.236,162.776z
		 M429.475,149.221c0.635,0.014,0.961-0.246,0.846-0.643c-0.068-0.242-0.514-0.535-0.771-0.519
		c-0.244,0.016-0.463,0.407-0.693,0.632C429.104,148.904,429.35,149.115,429.475,149.221z"/>
	<path fill-rule="evenodd" clip-rule="evenodd" fill="#EFF6F4" d="M420.984,145.616c-1.1,1.212-2.555,0.74-3.865,0.745
		c-9.066,0.037-18.135,0.134-27.199-0.02c-7.191-0.122-14.227,1.632-21.4,1.52c-1.307-0.021-2.775,0.472-3.828-0.82
		c6.26-1.664,12.688-2.398,19.105-2.702c11.563-0.55,23.148-0.721,34.686,0.639C419.33,145.077,420.152,145.397,420.984,145.616z"/>
	<path fill-rule="evenodd" clip-rule="evenodd" fill="#EFF6F4" d="M363.234,147.219c0.016,1.279-0.369,2.216-1.883,2.145
		c-5.328-0.25-9.846,2.741-14.721,3.723c-4.74,0.955-9.502,3.442-14.639,2.14C342.068,151.243,352.551,148.838,363.234,147.219z"/>
	<path fill-rule="evenodd" clip-rule="evenodd" fill="#FCFCFB" d="M141.81,279.342c0.052,0.242,0.151,0.485,0.148,0.727
		c-0.021,1.477,3.146,1.828,1.598,3.555c-1.752,1.953-2.953-0.725-4.467-1.11C139.995,281.456,140.901,280.399,141.81,279.342z"/>
	<path fill-rule="evenodd" clip-rule="evenodd" fill="#354D54" d="M373.672,446.36c0.99-1.797,2.279-3.121,4.559-2.881
		C378.611,447.452,375.676,446.169,373.672,446.36z"/>
	<path fill-rule="evenodd" clip-rule="evenodd" fill="#F3F8F7" d="M102.399,395.42c2.627,1.594,0.765,4.107,1.257,6.139
		C102.786,399.604,102.668,397.498,102.399,395.42z"/>
	<path fill-rule="evenodd" clip-rule="evenodd" fill="#EFF6F4" d="M425.264,146.133c-0.424-0.114-0.848-0.229-1.271-0.342
		C424.416,145.905,424.84,146.019,425.264,146.133z"/>
	<path fill-rule="evenodd" clip-rule="evenodd" fill="#D9AC6A" d="M509.275,188.417c-0.148-0.207-0.299-0.414-0.447-0.619
		C508.979,188.004,509.127,188.21,509.275,188.417z"/>
	<path fill-rule="evenodd" clip-rule="evenodd" fill="#BE6E32" d="M136.864,459.116c0.23,0.191,0.462,0.385,0.693,0.576
		C137.326,459.499,137.096,459.308,136.864,459.116z"/>
	<path fill-rule="evenodd" clip-rule="evenodd" fill="#BE6E32" d="M137.698,459.808c0.205,0.197,0.411,0.395,0.618,0.592
		C138.11,460.202,137.903,460.005,137.698,459.808z"/>
	<path fill-rule="evenodd" clip-rule="evenodd" fill="#354D54" d="M286.541,317.65c-13.38-23.596-32.783-41.083-55.815-54.834
		c-8.233-4.917-16.94-8.927-25.765-12.671c-1.13-0.479-2.379-0.754-3.18-1.809c0.12-3.863,1.274-7.273,5.148-8.77
		c3.986-1.539,8.155-2.111,12.477-1.287c13.709,2.615,25.97,8.598,37.508,16.172c16.312,10.707,30.56,23.617,41.565,39.875
		c2.525,3.73,4.838,7.615,5.912,12.025c0.909,3.734,1.032,7.447-2.223,10.396c-3.193,2.895-6.848,2.642-10.547,1.513
		C289.927,317.744,288.329,317.101,286.541,317.65z"/>
	<path fill-rule="evenodd" clip-rule="evenodd" fill="#354D54" d="M138.968,308.417c-0.494-0.323-0.99-0.646-1.483-0.969
		c-1.027-9.237,4.179-12.167,13.233-13.263c1.572-0.189,3.234,0.124,4.827,0.375c10.788,1.699,20.441,6.306,29.683,11.854
		c17.121,10.277,31.778,23.212,42.693,40.109c1.908,2.955,3.353,6.131,3.953,9.613c1.514,8.783-5.73,13.045-11.826,10.756
		c-2.082-0.783-4.145-1.779-6.479-1.578C196.349,336.324,170.356,318.834,138.968,308.417z"/>
	<path fill-rule="evenodd" clip-rule="evenodd" fill="#354D54" d="M350.578,276.057c-1.266-1.987-2.531-3.975-3.797-5.962
		c-6.789-11.981-16.089-21.833-26.251-30.955c-14.692-13.189-31.356-23.363-48.993-32.047c0.603-5.026,3.456-7.799,8.469-8.188
		c4.27-0.331,8.405,0.423,12.42,1.78c10.685,3.613,20.671,8.645,30.008,14.972c16.777,11.368,31.592,24.669,41.855,42.459
		c2.141,3.711,3.896,7.517,3.615,11.977c-0.303,4.772-3.057,7.35-7.863,7.728C356.668,278.087,353.807,276.208,350.578,276.057z"/>
	<path fill-rule="evenodd" clip-rule="evenodd" fill="#354D54" d="M410.566,238.651c-3.039-5.198-5.551-10.733-9.701-15.225
		c-6.408-9.644-14.818-17.396-23.666-24.681c-11.285-9.29-23.496-17.118-37.191-22.452c-0.523-0.438-1.047-0.876-1.568-1.314
		c1.328-4.552,4.627-6.031,9.068-6.13c4.188-0.092,8.174,0.667,12.096,1.995c25.084,8.494,44.615,24.43,60.217,45.419
		c3.592,4.832,7.207,9.987,7.119,16.535c-0.074,5.418-4.207,8.676-9.504,7.523C415.133,239.822,412.855,239.211,410.566,238.651z"/>
	<path fill-rule="evenodd" clip-rule="evenodd" fill="#CEA060" d="M286.541,317.65c1.788-0.549,3.386,0.094,5.081,0.611
		c3.699,1.129,7.354,1.382,10.547-1.513c3.255-2.949,3.132-6.662,2.223-10.396c-1.074-4.41-3.387-8.295-5.912-12.025
		c-11.006-16.258-25.254-29.168-41.565-39.875c-11.538-7.574-23.799-13.557-37.508-16.172c-4.321-0.824-8.49-0.252-12.477,1.287
		c-3.874,1.496-5.028,4.906-5.148,8.77c-5.496-0.46-7.662-4.381-5.083-9.481c3.236-6.397,8.91-9.271,15.712-9.862
		c7.274-0.633,14.131,1.257,21.108,3.436c9.144,2.854,17.511,7.066,25.482,12.086c21.225,13.366,39.447,29.837,52.032,51.91
		c0.306,0.538,0.703,1.023,1.057,1.533c2.346,6.135,4.882,12.148,3.412,19.063c-1.611,7.581-9.448,15.762-19.778,12.37
		C291.018,326.765,287.594,323.134,286.541,317.65z"/>
	<path fill-rule="evenodd" clip-rule="evenodd" fill="#CEA060" d="M213.569,365.314c2.334-0.201,4.396,0.795,6.479,1.578
		c6.096,2.289,13.34-1.973,11.826-10.756c-0.601-3.482-2.045-6.658-3.953-9.613c-10.915-16.896-25.572-29.832-42.693-40.109
		c-9.241-5.548-18.895-10.154-29.683-11.854c-1.593-0.251-3.255-0.564-4.827-0.375c-9.055,1.096-14.261,4.025-13.233,13.263
		c-5.54-0.631-7.82-3.84-6.429-9.147c1.936-7.381,7.182-10.953,14.293-12.473c5.75-1.229,11.373-0.566,16.996,0.726
		c1.444,0.331,2.914,0.553,4.373,0.824c0.137,0.147,0.301,0.186,0.491,0.114c6.837,2.968,13.673,5.938,20.509,8.906
		c12.151,7.851,23.891,16.224,33.897,26.786c8.165,8.618,15.651,17.757,20.005,28.96c2.794,7.189,2.928,14.428-2.205,20.811
		c-6.656,8.279-16.888,7.686-22.542-0.551C215.399,370.26,214.284,367.859,213.569,365.314z"/>
	<path fill-rule="evenodd" clip-rule="evenodd" fill="#CEA060" d="M350.578,276.057c3.229,0.15,6.09,2.03,9.463,1.764
		c4.807-0.378,7.561-2.955,7.863-7.728c0.281-4.46-1.475-8.266-3.615-11.977c-10.264-17.79-25.078-31.091-41.855-42.459
		c-9.337-6.327-19.323-11.358-30.008-14.972c-4.015-1.357-8.15-2.111-12.42-1.78c-5.013,0.389-7.866,3.161-8.469,8.188
		c-5.337-1.778-6.781-6.185-3.628-11.064c2.886-4.466,11.039-6.774,17.129-6.002c22.756,2.887,40.589,15.191,57.706,29.162
		c12.299,10.037,22.365,21.944,30.867,35.264c3.307,6.065,5.867,12.286,5.391,19.457c-0.615,9.269-8.77,16.068-17.705,14.187
		C354.939,286.756,351.861,282.113,350.578,276.057z"/>
	<path fill-rule="evenodd" clip-rule="evenodd" fill="#CEA060" d="M410.566,238.651c2.289,0.561,4.566,1.171,6.869,1.671
		c5.297,1.152,9.43-2.105,9.504-7.523c0.088-6.548-3.527-11.703-7.119-16.535c-15.602-20.989-35.133-36.925-60.217-45.419
		c-3.922-1.328-7.908-2.087-12.096-1.995c-4.441,0.099-7.74,1.578-9.068,6.13c-4.177-0.748-5.35-2.406-4.507-6.377
		c0.495-2.34,1.977-4.048,3.843-5.317c4.406-2.999,9.365-3.938,14.574-3.096c4.643,0.751,9.236,1.796,13.852,2.712l0.021,0.008
		c2.311,1.437,4.783,2.482,7.445,3.065c7.432,3.999,14.93,7.865,21.738,12.93c8.1,6.025,15.664,12.636,22.596,19.972
		c5.775,6.532,11.326,13.242,15.205,21.121c3.088,6.27,6.125,12.527,4.223,19.962c-2.012,7.869-10.404,14.261-18.936,9.86
		C413.939,247.47,411.693,243.45,410.566,238.651z"/>
	<path fill-rule="evenodd" clip-rule="evenodd" fill="#CEA060" d="M423.248,153.919c6.256-5.353,12.908-2.864,19.398-0.78
		c8.168,2.623,14.902,7.795,21.65,12.882c8.068,6.931,15.105,14.753,20.598,23.901c3.395,5.656,5.682,11.611,5.125,18.393
		c-0.52,6.318-5.904,11.475-12.139,11.484c-5.527,0.008-10.572-5.016-11.092-11.045c1.559-0.241,2.908,0.556,4.336,0.918
		c5.932,1.507,10.125-2.65,8.586-8.627c-0.369-1.433-0.865-2.877-1.564-4.175c-7.744-14.398-19.02-25.401-32.922-33.785
		c-2.748-1.658-5.66-3.255-8.9-3.734c-3.523-0.521-7.309-1.463-9.572,2.699C421.791,160.372,421.248,159.11,423.248,153.919z"/>
	<path fill-rule="evenodd" clip-rule="evenodd" fill="#354D54" d="M426.752,162.05c2.264-4.162,6.049-3.221,9.572-2.699
		c3.24,0.479,6.152,2.076,8.9,3.734c13.902,8.384,25.178,19.387,32.922,33.785c0.699,1.298,1.195,2.742,1.564,4.175
		c1.539,5.977-2.654,10.134-8.586,8.627c-1.428-0.362-2.777-1.159-4.336-0.918c-6.133-12.707-14.461-23.801-24.654-33.52
		c-0.984-0.938-2.064-1.772-3.1-2.655C434.941,169.071,430.848,165.56,426.752,162.05z"/>
	<path fill-rule="evenodd" clip-rule="evenodd" fill="#EFF6F4" d="M366.201,162.901c-4.615-0.916-9.209-1.961-13.852-2.712
		c-5.209-0.843-10.168,0.097-14.574,3.096c-1.866,1.27-3.348,2.978-3.843,5.317c-0.843,3.971,0.33,5.629,4.507,6.377
		c0.521,0.438,1.045,0.877,1.568,1.314c-1.316,3.004-1.316,3.003-3.435,0.5c-1.06-1.252-2.177-1.654-3.412-0.219
		c-1.12,1.303-2.44,2.058-3.664,0.326c-1.018-1.439-1.14-2.51,0.994-3.776c1.95-1.158,2.287-4.157,2.609-6.423
		c0.349-2.461,1.639-4.066,3.488-4.945c5.849-2.775,12.228-4.604,18.513-3.108C358.803,159.529,363.588,158.784,366.201,162.901z"/>
	<path fill-rule="evenodd" clip-rule="evenodd" fill="#F3F8F7" d="M187.718,296.399c-6.836-2.969-13.672-5.938-20.509-8.906
		c2.058,0.027,5.128,1.084,5.871,0.734c4.8-2.261,6.101,2.578,9.051,3.785c1.235,0.505,2.271,1.395,3.677,1.642
		C187.198,293.899,187.895,294.917,187.718,296.399z"/>
	<path fill-rule="evenodd" clip-rule="evenodd" fill="#EFF6F4" d="M373.668,165.974c-2.662-0.583-5.135-1.629-7.445-3.065
		c2.393-0.533,4.99-0.223,6.799-2.694c0.656-0.897,1.904-0.091,2.215,1.38C375.633,163.465,373.953,164.439,373.668,165.974z"/>
	<path fill-rule="evenodd" clip-rule="evenodd" fill="#EFF6F4" d="M340.473,155.767c2.574-0.367,5.143-0.786,7.727-1.073
		c0.875-0.098,1.883,0.244,1.834,1.33c-0.047,0.986-1.064,0.859-1.758,0.833C345.684,156.756,343.033,157.215,340.473,155.767z"/>
	<path fill-rule="evenodd" clip-rule="evenodd" fill="#F3F8F7" d="M162.129,279.739c0.031,0.84-0.292,1.441-1.181,1.532
		c-1.305,0.134-1.723-0.673-1.688-1.794c0.014-0.445-0.49-1.283,0.699-1.106C160.918,278.512,161.983,278.358,162.129,279.739z"/>
	<path fill-rule="evenodd" clip-rule="evenodd" fill="#FCFCFB" d="M429.475,149.221c-0.125-0.106-0.371-0.317-0.619-0.529
		c0.23-0.225,0.449-0.616,0.693-0.632c0.258-0.017,0.703,0.276,0.771,0.519C430.436,148.975,430.109,149.235,429.475,149.221z"/>
</g>
</svg>
