<?xml version="1.0" encoding="utf-8"?>
<!-- Generator: Adobe Illustrator 16.0.0, SVG Export Plug-In . SVG Version: 6.00 Build 0)  -->
<!DOCTYPE svg PUBLIC "-//W3C//DTD SVG 1.1//EN" "http://www.w3.org/Graphics/SVG/1.1/DTD/svg11.dtd">
<svg version="1.1" id="Layer_1" xmlns="http://www.w3.org/2000/svg" xmlns:xlink="http://www.w3.org/1999/xlink" x="0px" y="0px"
	 width="640px" height="640px" viewBox="0 0 640 640" enable-background="new 0 0 640 640" xml:space="preserve">
<g>
	<path fill-rule="evenodd" clip-rule="evenodd" fill="#742C0F" d="M89.029,563.087c-17.348-13.52-30.662-30.373-40.124-50.107
		c-4.88-10.182-8.214-21.032-9.228-32.429c0.844,0.156,1.738,0.388,1.844,1.375c0.774,7.267,4.038,13.724,6.541,20.432
		c0.258,0.693,0.511,1.203,1.294,1.181c0.904-0.024,1.894-0.517,1.924-1.287c0.119-2.99,1.924-4.521,4.237-5.971
		c1.468-0.923,2.351-3.438,1.726-4.377c-4.093-6.143,1.528-6.469,4.652-8.325c0.161,0.203,0.194,0.425,0.1,0.667
		c-0.16,2.355-5.972,6.342,1.847,6.395c0.332,0.62,0.665,1.241,0.996,1.861c-0.177,4.354,2.056,7.855,4.059,11.437
		c7.185,17.803,19.755,31.412,34.615,42.885c4.289,3.311,8.824,7.122,14.593,8.24c4.111,3.445,8.819,5.492,14.166,6.045
		l-0.008-0.013c1.129,1.408,2.779,1.741,4.396,2.188c21.217,5.867,42.69,7.808,64.458,3.797
		c26.274-4.839,50.287-14.522,70.105-33.142c15.374-14.443,31.009-28.607,46.35-43.086c21.673-20.451,43.183-41.074,64.759-61.629
		c14.033-13.368,28.045-26.76,42.085-40.122c20.25-19.273,40.501-38.545,60.784-57.781c9.596-9.102,19.442-17.947,28.866-27.22
		c13.471-13.256,28.294-25.153,40.321-39.861c18.332-22.419,27.05-48.368,26.572-77.092c-0.281-17.024-2.653-33.876-10.572-49.528
		c-1.985-3.923-4.378-7.833-5.43-12.244c-1.458-7.293,3.792-14.546,0.123-21.855c-1.879-3.742,1.569-6.978,1.03-10.596
		c9.099,8.851,15.883,19.384,22.064,30.355c-0.251,2.173,2.18,2.044,2.902,3.382c-0.509,2.312,0.313,4.18,1.926,5.782
		c3.278,10.541,6.134,21.193,8.322,32.017c0.11,1.994,0.138,3.997,0.34,5.981c1.411,13.838,1.102,27.624-1.119,41.361
		c-2.992,17.81-9.574,34.264-18.944,49.621c-12.209,20.005-29.664,35.37-46.315,51.344c-27.682,26.561-55.829,52.633-83.721,78.975
		c-49.447,46.698-98.857,93.434-148.261,140.176c-11.913,11.272-23.307,23.218-37.346,31.911
		c-33.693,20.858-70.251,30.234-109.816,25.275c-11.729-1.471-23.662-3.13-34.599-8.353c-6.721-3.209-13.425-6.451-20.138-9.678
		C97.28,568.41,93.154,565.75,89.029,563.087z M571.102,102.099c-0.992,0.136-1.916,0.377-1.819,1.662
		c0.016,0.216,0.386,0.607,0.521,0.58c1.199-0.251,1.199-1.28,1.332-2.208c0.067-0.14,0.134-0.28,0.201-0.42
		C571.257,101.841,571.18,101.97,571.102,102.099z M56.754,505.634c-0.272-1.093-0.426-2.827-1.837-2.344
		c-1.734,0.594-1.343,3.44-3.3,4.39c-0.139,0.068,1.247,1.95,2.492,1.852C56.433,509.352,55.731,506.959,56.754,505.634z
		 M570.873,113.331c-0.205-0.42-0.31-0.95-0.632-1.221c-0.484-0.409-0.964-0.074-0.946,0.474c0.012,0.399,0.363,0.816,0.651,1.151
		C570.003,113.798,570.462,113.515,570.873,113.331z"/>
	<path fill-rule="evenodd" clip-rule="evenodd" fill="#985123" d="M164.105,269.296c0.338,0.045,0.527-0.104,0.566-0.449
		c1.578-0.736,2.285-2.289,3.314-3.539c0.258-0.164,0.515-0.327,0.772-0.492c12.073-11.803,24.152-23.602,36.22-35.413
		c19.389-18.975,38.769-37.958,58.153-56.938c3.653-3.015,7.171-6.166,10.171-9.854l-0.031-0.001
		c2.363-1.737,4.53-3.671,6.179-6.129c13.078-10.969,24.774-23.404,37.203-35.066c16.578-15.554,32.551-31.814,51.77-44.267
		c22.56-14.62,47.349-23.026,73.954-26.281c0.648-0.08,1.326,0.072,1.989,0.115c1.619,1.316,3.537,0.76,5.328,0.775
		c7.194,0.059,14.393,0.024,22.08,0.024c-0.88,1.205-2.314,1.543-2.271,2.839c0.063,1.755-1.841,3.416-0.272,5.23
		c0.585,0.675,1.433,1.136,2.215,0.611c1.75-1.177,0.89-3.012,0.889-4.596c0-0.809-0.427-1.729,0.831-1.912
		c1.128-0.165,1.854,0.292,2.25,1.444c0.865,2.516,1.559,5.149,2.84,7.447c1.227,2.197,0.666,2.265-1.454,3.197
		c-7.485,3.29-15.274,1.729-22.929,2.133c-2.094,0.111-3.346,0.606-3.251,2.902c-1.468,0.26-2.926,0.623-4.405,0.765
		c-24.173,2.321-46.657,9.584-67.176,22.729c-17.771,11.383-31.977,26.842-47.177,41.155c-4.541,4.276-8.711,8.948-13.755,14.168
		c13.64,0.194,26.068,1.52,38.509,2.692c15.221,3.299,30.399,6.738,44.478,13.742c-2.089,1.983-4.665,2.389-7.374,2.148
		c-5.759-0.51-6.796,0.954-4.832,6.19c0.854,2.277,2.452,1.841,4.005,1.97c2.346,0.197,3.159,1.626,3.042,3.727
		c-0.077,1.398,0.664,3.22-1.179,3.966c-2.389,0.967-2.558-1.279-3.391-2.587c-1.002-1.575-2.269-2.109-4.24-1.42
		c-1.189,0.415-2.688,0.994-3.892-0.878c-0.923-1.439-2.76-1.531-2.951,0.815c-0.149,1.823-2.323,1.209-2.571,2.646
		c-0.951-0.312-1.915-0.592-2.854-0.94c-22.833-8.453-46.417-12.326-70.731-11.08c-4.418,0.228-9.203-0.432-13.117,3.272
		c-22.223,21.022-43.585,42.929-65.951,63.816c-10.091,9.424-19.699,19.485-29.383,29.396c-7.203,7.375-14.153,14.998-21.156,22.45
		c10.347-0.013,21.289,0.791,32.228,1.638c0.731,0.881,1.788,0.752,2.763,0.915c10.48,1.74,20.568,4.901,30.538,8.487
		c-2.704,2.251-5.486,4.156-9.188,2.144c-0.833-0.454-1.596-0.353-2.217,0.39c-0.632,0.755-0.501,1.521,0.037,2.262
		c1.617,2.23,1.788,5.318,4.614,6.895c2.009,1.121,1.999,3.462,1.427,5.409c-0.705,2.409-2.888,0.587-4.068,1.072
		c-3.497,1.437-6.452-3.38-9.821-0.524c-0.658-0.011-1.318-0.021-1.978-0.032c-0.11-0.255-0.191-0.52-0.245-0.793
		c0.669-0.578,1.329-1.27,0.207-1.896c-0.467-0.26-1.571-0.191-1.819,0.145c-0.494,0.67,0.377,1.079,0.819,1.522
		c-0.663-0.053-1.363,0.016-1.983-0.173c-19.298-5.908-38.997-7.61-59.055-5.758c-4.324,0.399-7.901,1.926-11.027,5.115
		c-7.501,7.651-15.341,14.969-22.886,22.58c-12.372,12.478-25.658,24.108-36.436,38.079c-9.91,12.846-17.273,27.076-21.624,42.779
		c-3.422,8.125-4.236,16.796-5.303,25.413c-0.2-0.02-0.401-0.018-0.6,0.009c-5.571-2.088-9.866-6.142-14.881-9.656
		c-0.275,3.984-0.699,7.827-3.338,11.159c-1.539-1.768-0.721-3.301-0.421-4.876c0.456-2.388,1.346-4.888-0.802-7
		c0.765-11.681,4.63-22.554,8.804-33.324c8.003-20.655,21.184-37.802,36.617-53.348c17.448-17.573,35.041-35.003,52.517-52.55
		c1.609-1.616,2.827-3.621,4.226-5.445c1.909-1.006,3.954-1.841,4.984-3.956l-0.042,0.047c3.3-2.826,6.712-5.543,9.044-9.31
		c1.527-3.005,5.684-3.186,6.953-6.472C163.077,270.275,163.592,269.786,164.105,269.296z M47.655,432.222
		c-0.043-0.655-0.074-1.413-0.931-1.418c-0.873-0.006-0.925,0.762-0.92,1.411c0.004,0.645,0.05,1.41,0.918,1.416
		C47.602,433.635,47.597,432.862,47.655,432.222z M224.25,316.077c-0.286-0.089-0.467-0.148-0.646-0.204
		c0.034,0.122,0.067,0.244,0.101,0.367C223.843,316.197,223.982,316.157,224.25,316.077z"/>
	<path fill-rule="evenodd" clip-rule="evenodd" fill="#853B12" d="M450.622,71.077c-0.095-2.296,1.157-2.791,3.251-2.902
		c7.654-0.404,15.443,1.157,22.929-2.133c2.12-0.932,2.681-1,1.454-3.197c-1.281-2.297-1.975-4.931-2.84-7.447
		c-0.396-1.153-1.122-1.609-2.25-1.444c-1.258,0.183-0.831,1.104-0.831,1.912c0.001,1.584,0.861,3.419-0.889,4.596
		c-0.782,0.525-1.63,0.064-2.215-0.611c-1.568-1.814,0.336-3.475,0.272-5.23c-0.044-1.295,1.391-1.634,2.271-2.839
		c-7.688,0-14.886,0.035-22.08-0.024c-1.791-0.015-3.709,0.541-5.328-0.775c1.062-0.102,2.122-0.205,3.181-0.309
		c8.229-0.021,16.461-0.043,24.692-0.065c34.169,2.189,64.174,14.315,89.498,37.56c1.581,1.451,2.921,3.163,4.373,4.753
		c0.539,3.618-2.909,6.854-1.03,10.596c3.669,7.309-1.581,14.563-0.123,21.855c-1.247-1.41-2.498-2.818-3.748-4.227
		c-6.503-9.771-14.385-18.222-23.967-25.047c-1.205-1.333-2.512-2.518-4.289-3.04c-9.705-7.266-20.495-12.334-31.983-16.108
		C484.566,71.566,467.658,70.856,450.622,71.077z"/>
	<path fill-rule="evenodd" clip-rule="evenodd" fill="#F7BB59" d="M472.239,50.61c-8.231,0.022-16.464,0.043-24.692,0.065
		C455.776,49.311,464.007,49.181,472.239,50.61z"/>
	<path fill-rule="evenodd" clip-rule="evenodd" fill="#853B12" d="M39.46,435.123c2.148,2.112,1.258,4.612,0.802,7
		c-0.3,1.575-1.118,3.108,0.421,4.876c2.639-3.332,3.063-7.175,3.338-11.159c5.016,3.515,9.31,7.568,14.881,9.656
		c-0.297,12.795,0.5,25.505,2.993,38.082c-3.124,1.856-8.745,2.183-4.652,8.325c0.625,0.938-0.258,3.454-1.726,4.377
		c-2.313,1.449-4.118,2.98-4.237,5.971c-0.03,0.771-1.02,1.263-1.924,1.287c-0.783,0.022-1.036-0.487-1.294-1.181
		c-2.503-6.708-5.766-13.165-6.541-20.432c-0.106-0.987-1-1.219-1.844-1.375c-0.668-0.927-0.975-1.937-0.713-3.08
		c2.942-3.999,2.027-7.61-1.113-10.995c-0.125-5.367-0.249-10.733-0.372-16.101C38.118,445.289,38.111,440.118,39.46,435.123z
		 M56.518,447.381c-0.064-0.123-0.13-0.246-0.194-0.368c-0.088,0.104-0.236,0.206-0.247,0.317c-0.012,0.116,0.113,0.243,0.178,0.366
		C56.344,447.591,56.43,447.485,56.518,447.381z"/>
	<path fill-rule="evenodd" clip-rule="evenodd" fill="#742C0F" d="M38.002,469.532c-0.05-1.019-0.101-2.037-0.151-3.057
		c3.14,3.385,4.055,6.996,1.113,10.995c-0.089-0.995-0.177-1.993-0.266-2.99C38.629,472.809,39.178,471.048,38.002,469.532z"/>
	<path fill-rule="evenodd" clip-rule="evenodd" fill="#853B12" d="M38.002,469.532c1.175,1.516,0.626,3.276,0.696,4.948
		c-0.188-0.065-0.379-0.119-0.573-0.162C38.085,472.723,38.043,471.127,38.002,469.532z"/>
	<path fill-rule="evenodd" clip-rule="evenodd" fill="#D65104" d="M118.104,555.063c-5.769-1.118-10.304-4.93-14.593-8.24
		c-14.859-11.473-27.43-25.082-34.616-42.886c1.288-1.908,2.255-1.202,3.802,0.008c6.131,4.791,12.753,8.778,20.308,10.982
		c2.024,2.738,5.173,3.8,8.125,4.672c14.71,4.349,29.404,7.499,45.149,6.594c18.74-1.079,36.771-3.986,53.85-11.782
		c19.349-8.835,36.885-20.759,53.774-33.466c14.121-10.625,27.966-21.661,41.685-32.846c14.351-11.7,28.649-23.49,42.703-35.511
		c17.006-14.544,33.753-29.426,50.508-44.275c19.222-17.033,38.388-34.164,56.91-51.947c18.234-17.51,37.695-33.713,55.196-51.988
		c7.02-7.332,14.332-14.33,20.914-22.156c5.094-6.058,10.979-11.873,15.306-18.278c6.252-9.255,12.672-18.694,16.922-29.233
		c1.39-0.199,3.613,0.571,3.744-1.488c0.486-7.655,7.292-11.792,9.845-18.297c1.222-3.115,4.459-2.336,7.1-2.32
		c1.674,0.011,2.361,0.948,2.402,2.547c0.195,7.623,0.589,15.236-0.557,22.84c-2.42,16.064-10.354,29.833-18.581,43.315
		c-5.683,9.313-13,17.456-20.974,25.107c-13.253,12.72-26.56,25.385-39.801,38.117c-15.265,14.674-30.452,29.396-46.365,43.386
		c-5.675,4.987-10.79,10.643-16.466,15.72c-17.214,15.403-33.021,32.286-50.291,47.678c-14.59,13.003-28.014,27.313-41.938,41.059
		c-5.488,5.417-10.699,11.142-16.454,16.255c-10.363,9.212-20.504,18.634-30.182,28.57c-7.799,8.008-16.513,15.051-24.465,22.926
		c-6.025,5.967-12.919,11.056-19.453,16.507c-0.665,0.555-1.126,1.021-1.185,2.001c-0.478,7.85-1.848,8.995-8.841,11.451
		c-4,1.405-9.001,1.573-11.393,6.286c-0.281,0.553-1.832,0.702-2.767,0.638c-2.198-0.152-3.968,0.694-5.445,2.116
		c-1.556,1.5-3.326,2.485-5.402,1.92c-6.652-1.81-12.661,2.439-19.826,1.226c-6.219-1.055-13.68,1.39-20.648,2.029
		c-11.014,1.009-21.884,1.607-32.862-0.839c-3.626-0.811-6.963-3.384-10.981-2.362c0,0,0.008,0.013,0.008,0.011
		C128.102,557.795,123.357,555.829,118.104,555.063z M242.078,544.359c2.434,0.899,3.886,0.648,4.689-1.272
		c0.275-0.662,0.076-1.591-0.593-1.604C244.404,541.446,243.334,542.666,242.078,544.359z M217.014,556.603
		c-0.272-0.157-0.507-0.335-0.771-0.427c-0.117-0.04-0.294,0.097-0.442,0.152c0.114,0.201,0.234,0.576,0.339,0.572
		C216.428,556.889,216.711,556.718,217.014,556.603z"/>
	<path fill-rule="evenodd" clip-rule="evenodd" fill="#F39A2D" d="M93.005,514.93c-7.555-2.207-14.177-6.194-20.308-10.985
		c-1.546-1.21-2.514-1.916-3.802-0.008c-2.001-3.58-4.234-7.081-4.058-11.435c3.519-5.147,8.003-1.808,11.745-0.842
		c5.702,1.471,6.68,1.456,8.832-4.033c0.426-1.087,1.382-1.118,2.013-0.64c3.612,2.74,7.742,1.295,11.65,1.603
		c1.129,0.221,2.25,0.514,3.39,0.651c8.127,0.984,16.394,3.16,23.764-2.649c1.334-0.034,2.013-0.689,1.948-2.053l0.017-0.03
		c4.297-1.44,6.203-6.365,11.764-6.786c3.171-0.241,7.492-2.307,10.19-4.859c1.741-1.646,3.358-2.66,5.423-3.743
		c4.248-2.23,10.649-2.059,11.178-9.182c0.167-2.235,2.688-1.423,4.234-1.48c2.192-0.079,4.768,0.304,5.817-2.014
		c1.924-4.25,6.096-5.688,9.633-6.537c4.448-1.067,7.553-3.853,11.272-5.821c0.367,0.396,0.734,0.789,1.1,1.184
		c-0.027,1.156-0.282,2.68,1.241,2.854c5.719,0.654,9.313,4.63,13.336,8.048c4.207,3.572,11.371,2.185,13.185-2.929
		c1.033-2.905,2.571-2.953,4.798-2.896c1.498,0.038,3.023,0.159,4.493-0.054c1.352-0.195,3.094,0.978,4.027-0.971
		c6.39-3.535,8.293-9.068,7.118-15.974c0.616-5.623-3.371-10.699-6.521-12.481c-4.613-2.61-7.221-7.044-11.939-9.382
		c2.031-1.363,3.732-1.762,5.79-0.492c2.516,1.555,4.831,2.478,5.936-1.844c0.596-2.334,3.211-3.25,5.396-4.07
		c2.254-0.848,4.299-1.842,5.438-4.135c1.105-2.226,1.75-4.767,5.359-2.306c1.379,0.941,3.83-0.672,4.514-2.918
		c0.335-1.105,0.181-2.468,1.32-3.134c4.55-2.654,7.168-7.495,11.699-10.203c1.309-0.783,2.848-1.76,2.736-3.849
		c-0.149-2.839-0.069-2.843,2.508-1.646c4.541,2.107,12.965,1.665,14.87-1.744c2.173-3.885,5.68-6.499,7.912-10.225
		c1.321-2.207,2.038-3.633-0.854-5.208c-1.676-0.914-1.98-2.808,0.244-3.896c0.759-0.369,1.27-0.584,1.685-1.482
		c2.7-5.837,7.098-9.577,13.313-11.729c6.104-2.113,13.494-2.727,15.994-10.531c0.429-1.337,1.426-2.564,2.916-2.348
		c2.636,0.386,4.312-1.446,6.407-2.296c0.615,0.076,1.23,0.151,1.846,0.226c4.396,5.821,9.335,10.688,17.464,9.96
		c4.2-0.377,10.41-8.063,8.427-10.707c-2.671-3.563,0.137-5.036,2.278-5.113c4.427-0.162,4.283-2.669,4.052-5.669
		c0.418-0.909,0.837-1.819,1.257-2.729c3.509-1.135,3.744-2.345,0.949-4.889c-0.122-0.609-0.244-1.219-0.365-1.83
		c2.309-2.792,0.838-4.234-1.869-5.234l-0.011,0.118c-0.118-1.143,0.207-2.814-0.425-3.345c-5.082-4.269,0.611-3.744,1.914-3.708
		c7.926,0.229,15.029-2.589,22.065-5.564c2.768-1.169,6.331-2.176,6.371-6.156c0.036-3.667,2.152-5.265,5.155-6.452
		c3.315-1.312,5.845-3.84,8.634-5.953c1.217-0.92,2.481-2.152,3.991-1.819c3.868,0.852,3.832-1.255,3.408-3.958
		c-0.561-3.589,8.162-14.123,11.636-13.292c4.949,1.186,7.245-1.747,9.454-4.791c2.199-3.031,4.723-5.779,7.593-7.972
		c2.739-2.092,4.029-4.586,5.063-7.666c1.978-5.888,5.738-10.516,10.971-13.912c7.714-5.005,16.869-7.876,22.835-15.474
		c0.989-1.26,2.353-1.756,3.978-1.784c2.116-0.039,3.967-0.961,5.262-2.578c1.716-2.143,4.435-3.101,6.158-4.817
		c4.981-4.962,13.322-6.72,14.813-15.128c0.181-1.023,1.119-2.202,2.039-2.756c4.679-2.82,7.054-7.412,8.73-12.153
		c4.21-11.896,6.444-24.246,5.321-36.876c-0.396-4.476-0.252-9.478-3.771-13.226c-0.045-0.986-0.091-1.973-0.137-2.959
		c0.085-0.877-0.088-1.636-0.954-2.075c0.457-2.372-1.421-4.024-2.272-5.792c-2.22-4.605-0.905-5.821,3.655-5.258
		c9.581,6.825,17.463,15.276,23.965,25.047c-1.283,1.754-1.495,3.83-1.029,5.765c1.394,5.782,0.709,11.632,0.904,17.451
		c-0.223,0.245-0.605,0.466-0.647,0.738c-2.468,16.292-10.436,29.957-20.085,42.927c-7.977,10.723-16.913,20.509-26.045,30.26
		c-8.789,9.384-18.389,17.861-27.407,26.96c-12.085,12.191-24.915,23.641-37.447,35.388c-10.714,10.045-21.403,20.117-32.2,30.072
		c-13.745,12.675-27.599,25.232-41.381,37.866c-6.738,6.178-13.159,12.734-20.19,18.553c-12.976,10.735-25.22,22.298-38.191,33.062
		c-11.116,9.224-22.197,18.426-33.658,27.237c-10.589,8.137-22.617,13.016-34.765,17.839c-1.861,0.737-3.026,1.65-4.045,3.331
		c-4.894,8.081-10.883,15.52-17.821,21.7c-8.122,7.234-16.646,14.27-26.303,19.558c-6.95,3.805-13.833,7.895-21.164,10.806
		c-10.23,4.064-20.983,6.722-31.51,9.959c-15.956,4.906-31.858,4.835-48.075,3.301C97.81,513.699,95.118,512.779,93.005,514.93z"/>
	<path fill-rule="evenodd" clip-rule="evenodd" fill="#D35B18" d="M561.083,144.364c-0.195-5.819,0.489-11.669-0.904-17.451
		c-0.466-1.935-0.254-4.011,1.029-5.765c1.251,1.408,2.502,2.816,3.749,4.227c1.052,4.41,3.444,8.321,5.43,12.244
		c7.919,15.652,10.291,32.503,10.572,49.528c0.478,28.724-8.24,54.673-26.572,77.092c-12.027,14.708-26.851,26.605-40.321,39.861
		c-9.424,9.272-19.271,18.118-28.866,27.22c-20.283,19.236-40.534,38.508-60.784,57.781c-14.04,13.362-28.052,26.754-42.085,40.122
		c-21.576,20.555-43.086,41.178-64.759,61.629c-15.341,14.479-30.976,28.643-46.35,43.086
		c-19.818,18.619-43.832,28.303-70.105,33.142c-21.767,4.011-43.241,2.07-64.458-3.797c-1.617-0.446-3.267-0.779-4.396-2.188
		c4.018-1.021,7.354,1.552,10.981,2.362c10.979,2.446,21.848,1.848,32.862,0.839c6.968-0.64,14.429-3.084,20.648-2.029
		c7.165,1.214,13.173-3.035,19.826-1.226c2.076,0.565,3.847-0.42,5.402-1.92c1.477-1.422,3.248-2.269,5.445-2.116
		c0.935,0.064,2.486-0.085,2.767-0.638c2.392-4.713,7.393-4.881,11.393-6.286c6.993-2.456,8.364-3.602,8.841-11.451
		c0.059-0.98,0.52-1.446,1.185-2.001c6.533-5.451,13.428-10.54,19.453-16.507c7.952-7.875,16.666-14.918,24.465-22.926
		c9.677-9.937,19.818-19.358,30.182-28.57c5.755-5.113,10.966-10.838,16.454-16.255c13.925-13.746,27.349-28.056,41.938-41.059
		c17.271-15.392,33.077-32.274,50.291-47.678c5.676-5.077,10.791-10.732,16.466-15.72c15.913-13.989,31.101-28.711,46.365-43.386
		c13.241-12.732,26.548-25.397,39.801-38.117c7.974-7.651,15.291-15.793,20.974-25.107c8.228-13.481,16.161-27.25,18.581-43.315
		c1.146-7.604,0.752-15.217,0.557-22.84c-0.041-1.6-0.729-2.536-2.402-2.547c-2.641-0.017-5.878-0.795-7.1,2.32
		c-2.553,6.506-9.358,10.643-9.845,18.297c-0.131,2.06-2.354,1.29-3.745,1.488c0.112-1.485-0.203-3.183,0.409-4.421
		c4.945-10.007,6.332-20.871,7.432-31.712C562.358,153.927,563.139,148.99,561.083,144.364z"/>
	<path fill-rule="evenodd" clip-rule="evenodd" fill="#F7BB59" d="M99.077,488.59c-3.908-0.308-8.038,1.138-11.65-1.603
		c-0.63-0.479-1.587-0.447-2.013,0.64c-2.152,5.489-3.13,5.504-8.832,4.033c-3.742-0.966-8.227-4.306-11.745,0.842
		c-0.332-0.621-0.665-1.242-0.996-1.862c-0.093-2.283-0.654-4.43-1.847-6.395c0.094-0.242,0.062-0.464-0.1-0.667
		c-2.493-12.577-3.291-25.287-2.993-38.082c0.199-0.026,0.4-0.028,0.6-0.013c-0.253,5.928,1.816,11.156,4.866,16.088l0.031,0.438
		l0.446,0.076c0.073,0.18,0.207,0.269,0.398,0.268c2.735,6.052,7.616,10.192,12.664,14.181c1.455,2.174,3.487,3.493,6.024,4.063
		c0.322,0.008,0.637,0.063,0.944,0.164c0.263,2.072,2.255,2.138,3.516,3.074C91.607,486.225,95.996,485.932,99.077,488.59z"/>
	<path fill-rule="evenodd" clip-rule="evenodd" fill="#D35B18" d="M118.104,555.063c5.254,0.767,9.999,2.732,14.166,6.043
		C126.922,560.555,122.215,558.508,118.104,555.063z"/>
	<path fill-rule="evenodd" clip-rule="evenodd" fill="#853B12" d="M56.754,505.634c-1.022,1.325-0.321,3.718-2.646,3.897
		c-1.245,0.099-2.63-1.783-2.492-1.852c1.957-0.949,1.566-3.796,3.3-4.39C56.328,502.807,56.481,504.541,56.754,505.634z"/>
	<path fill-rule="evenodd" clip-rule="evenodd" fill="#853B12" d="M61.995,484.245c1.193,1.965,1.753,4.111,1.847,6.395
		C56.022,490.587,61.835,486.601,61.995,484.245z"/>
	<path fill-rule="evenodd" clip-rule="evenodd" fill="#853B12" d="M571.135,102.132c-0.133,0.929-0.133,1.957-1.332,2.208
		c-0.135,0.027-0.505-0.364-0.521-0.58c-0.097-1.285,0.827-1.526,1.819-1.662L571.135,102.132z"/>
	<path fill-rule="evenodd" clip-rule="evenodd" fill="#853B12" d="M570.873,113.331c-0.411,0.184-0.87,0.467-0.927,0.403
		c-0.288-0.334-0.64-0.752-0.651-1.151c-0.018-0.547,0.462-0.883,0.946-0.474C570.563,112.381,570.668,112.911,570.873,113.331z"/>
	<path fill-rule="evenodd" clip-rule="evenodd" fill="#853B12" d="M571.102,102.099c0.078-0.128,0.155-0.258,0.234-0.387
		c-0.067,0.14-0.134,0.28-0.201,0.42L571.102,102.099z"/>
	<path fill-rule="evenodd" clip-rule="evenodd" fill="#F9FAF6" d="M206.748,291.457c-10.939-0.848-21.881-1.651-32.228-1.638
		c7.003-7.452,13.954-15.075,21.156-22.45c9.684-9.91,19.292-19.972,29.383-29.396c22.366-20.888,43.728-42.794,65.951-63.816
		c3.915-3.704,8.699-3.044,13.117-3.272c24.314-1.246,47.898,2.626,70.731,11.08c0.938,0.348,1.902,0.629,2.854,0.94
		c4.781,2.217,9.562,4.434,14.343,6.651c0.375,0.972,1.15,1.114,2.055,0.995c0.65,0.306,1.298,0.611,1.948,0.917
		c1.352,5.151-1.975,7.914-6.512,10.345c2.41,1.167,5.269,1.113,4.043,3.727c-0.993,2.121-2.614,1.03-4.036-0.067
		c-1.568-1.209-3.537-0.481-5.305-0.79l-0.282-0.189c-0.35-1.745-1.672-1.751-3.028-1.696c-1.325-0.142-2.861,0.102-3.941-0.488
		c-8.515-4.634-17.777-6.937-27.139-8.915c-18.389-3.885-36.601-3.311-54.576,2.407c-5.964,1.914-7.951,6.748-10.702,11.972
		c-3.398,6.453,1.511,9.676,3.02,14.098c0.604,1.768,1.278,3.123,0.673,4.901c-12.264,8.012-26.404,12.187-39.179,19.155
		c-2.989,0.351-5.979,0.704-8.968,1.054c-5.084,0.596-9.306,5.734-8.951,10.896c0.337,4.878,4.085,8.239,9.425,8.391
		c4.174,0.119,8.381-0.203,12.462,1.023c0.184,0.858,0.562,1.809,1.489,1.752c4.196-0.255,8.049,1.081,12.039,2.034
		c2.731,0.653,5.106,2.337,8.139,2.209c7.563-0.319,12.664,5.812,19.57,7.665c-4.804-0.875-8.816,1.692-13.156,2.352
		c-1.057,0.162-2.676-0.275-2.388,1.615c0.265,1.725,1.484,2.38,3.269,2.392c1.721,0.009,2.41-1.804,3.964-1.917
		c0.991-0.071,2.071-0.241,2.785,0.663c0.671,0.849,0.626,1.901,0.324,2.869c-0.437,1.393-1.479,0.764-2.451,0.717
		c-3.5-0.167-7.005-0.196-10.509-0.276c-0.316,0.06-0.629,0.04-0.936-0.062c-1.573-3.688-4.767-1.318-7.166-1.919
		c-1.333-0.01-2.701,0.17-3.995-0.064c-18.282-3.308-36.356-1.556-54.371,2.093C208.28,289.693,207.012,289.747,206.748,291.457z
		 M274.017,280.422c2.591,1.073,4.338,1.004,6.566,0.468C278.499,279.159,276.768,278.753,274.017,280.422z"/>
	<path fill-rule="evenodd" clip-rule="evenodd" fill="#F9FAF6" d="M450.622,71.077c17.036-0.221,33.944,0.489,50.348,5.877
		c11.488,3.774,22.278,8.842,31.982,16.107c-1.986,1.512-4.09,0.758-6.213,0.388c-16.594-2.896-33.307-1.75-49.906-0.625
		c-7.651,0.518-15.449,1.822-22.961,4.099c-11.698,3.545-23.129,8.511-35.799,7.422c-6.689-0.069-13.379-0.134-20.067-0.208
		c-2.675-0.029-5.334-0.064-7.92,0.857c-4.656,1.659-7.813,6.414-7.097,10.82c0.729,4.493,4.549,7.887,9.634,7.782
		c17.351-0.36,34.134,2.858,50.715,7.55c5.046,2.01,10.091,4.02,15.134,6.03c0.865,3.976,4.104,2.968,6.746,3.212l0.245,0.069
		c3.219,6.238-1.738,13.951-8.989,13.989c-3.82-1.107-7.709-2.022-11.448-3.359c-11.282-4.033-22.693-7.165-34.846-6.76
		c-7.689,0.257-15.614-0.899-23.028,0.591c-10.248,2.059-20.675,3.862-30.533,7.667c-12.441-1.172-24.869-2.499-38.509-2.692
		c5.044-5.22,9.214-9.892,13.755-14.168c15.2-14.313,29.406-29.772,47.177-41.155c20.519-13.145,43.003-20.408,67.176-22.729
		C447.696,71.7,449.154,71.337,450.622,71.077z"/>
	<path fill-rule="evenodd" clip-rule="evenodd" fill="#F9FAF6" d="M218.609,317.682c0.054,0.273,0.135,0.538,0.245,0.793
		c0.736,1.168,1.879,1.101,3.034,0.999c0.335,0.079,0.67,0.159,1.004,0.239c2.659,4.218,2.869,4.298,4.964,1.898
		c1.198-0.027,2.253,0.306,3.081,1.211c0,1.241,0.001,2.483,0.003,3.727l-0.044,0.042c-1.561,0.143-3.737-0.572-3.875,1.941
		c-0.098,1.797-1.127,4.23,1.763,5.027c1.297,0.356,2.19,0.931,1.97,2.386c-0.284,1.87-1.82,1.638-3.127,1.684
		c-1.17,0.042-2.343,0.014-3.515,0.015c-2.29-1.561-5.093-1.253-7.601-2.092c-9.617-3.216-19.451-5.14-29.605-6.178
		c-9.588-0.979-19.006-0.208-28.497,0.252c-11.483,0.839-19.59,11.706-14.904,23.352c1.185,2.945,1.328,5.79-0.1,8.664
		c-9.62,5.231-19.844,9.298-29.178,15.086c-1.453,0.282-2.895,0.677-4.363,0.832c-5.354,0.564-8.352,3.673-9.222,8.781
		c-0.903,5.29,2.245,8.246,6.561,10.35c1.564,2.341,4.031,1.475,5.959,1.244c7.192-0.858,13.585,2.906,21.313,2.325
		c-2.219,2.875-4.086,4.09-6.646,3.8c-2.092-0.238-3.872,0.512-4.43,2.424c-1.524,5.208-5.988,4.975-9.901,5.56
		c-2.448,0.365-4.995,0.042-7.496,0.097c-1.588,0.034-3.518-0.471-3.896,1.985c-4.09,1.326-8.188,2.626-12.27,3.98
		c-7.118,2.362-13.168,6.309-17.909,12.176c-2.928-0.261-3.81,1.639-3.996,4.007c-0.133,1.693-0.261,3.222-1.497,4.611
		c-1.054,1.186-0.633,4.278-3.432,3.01c-2.098-0.952-1.034-3.246-1.016-4.978c0.005-0.579,0.805-1.134,0.855-1.732
		c0.437-5.072,3.647-9.785,1.965-15.124c4.351-15.703,11.714-29.934,21.624-42.779c10.778-13.971,24.064-25.602,36.436-38.079
		c7.545-7.61,15.385-14.929,22.886-22.58c3.126-3.188,6.704-4.715,11.027-5.115c20.058-1.852,39.757-0.149,59.055,5.758
		c0.62,0.189,1.32,0.121,1.981,0.172c0-0.001,0.346,0.276,0.346,0.276L218.609,317.682z"/>
	<path fill-rule="evenodd" clip-rule="evenodd" fill="#FAD184" d="M356.618,152.587c9.858-3.805,20.285-5.608,30.533-7.667
		c7.414-1.49,15.339-0.334,23.028-0.591c12.152-0.405,23.563,2.727,34.846,6.76c3.739,1.337,7.628,2.251,11.446,3.359
		c3.311,2.629,6.878,4.757,11.059,5.696c0.091,0.686,0.18,1.372,0.271,2.06c-6.41-0.79-9.62,4.138-13.533,7.691
		c-4.144,3.762-7.708,8.304-12.268,11.421c-3.525,2.41-4.358,3.507-0.922,6.549c1.306,1.155,3.515,1.596,2.953,4.083
		c-2.317-0.656-3.873-2.454-5.709-3.825c-11.597-8.65-23.673-16.485-37.227-21.793C387.018,159.325,371.839,155.886,356.618,152.587
		z"/>
	<path fill-rule="evenodd" clip-rule="evenodd" fill="#853B12" d="M222.892,319.712c-0.334-0.08-0.668-0.16-1.004-0.239
		c-0.351-0.322-0.702-0.645-1.056-0.967c3.37-2.856,6.325,1.96,9.821,0.524c1.18-0.485,3.363,1.337,4.068-1.072
		c0.571-1.946,0.582-4.288-1.427-5.409c-2.827-1.577-2.997-4.665-4.614-6.895c-0.538-0.742-0.668-1.507-0.037-2.262
		c0.621-0.743,1.384-0.844,2.217-0.39c3.702,2.012,6.485,0.107,9.188-2.144c13.33,4.965,25.983,11.303,38.087,18.755
		c6.444,5.215,13.717,9.363,19.654,15.229c4.249,4.197,6.057,9.168,3.888,14.938c-2.041,5.428-5.711,7.19-13.386,7.021
		c-2.96-2.143-5.938-4.262-8.878-6.434c-7.209-5.324-14.236-10.919-22.383-14.827c-2.833-1.908-5.727-3.708-8.968-4.865
		c-5.386-3.32-11.153-5.812-17.125-7.855c-0.83-0.905-1.885-1.238-3.081-1.211C226.386,320.499,224.704,319.935,222.892,319.712z"/>
	<path fill-rule="evenodd" clip-rule="evenodd" fill="#853B12" d="M401.096,166.329c13.554,5.308,25.63,13.143,37.227,21.793
		c1.836,1.371,3.392,3.169,5.706,3.824c-0.001-0.001,0.089-0.122,0.089-0.122c-0.056,1.476,1.219,1.778,2.123,2.405
		c0.26,0.184,0.52,0.368,0.777,0.553c0.754,0.687,1.508,1.374,2.263,2.062l-0.049-0.1c0.36,0.394,0.722,0.788,1.082,1.183
		c0.819,1.247,1.681,2.47,2.451,3.747c5.243,8.688,2.206,16.531-7.529,19.489c-4.354,0.255-7.562-2.116-10.684-4.674
		c-8.369-6.856-16.949-13.411-26.555-18.494c-3.966-2.202-7.531-5.136-11.938-6.527c-0.65-0.306-1.298-0.611-1.946-0.916
		c-0.423-0.875-1.222-0.975-2.057-0.996c-4.781-2.217-9.562-4.434-14.343-6.651c0.248-1.437,2.422-0.823,2.571-2.646
		c0.191-2.346,2.028-2.254,2.951-0.815c1.203,1.872,2.702,1.293,3.892,0.878c1.972-0.689,3.238-0.155,4.24,1.42
		c0.833,1.308,1.002,3.554,3.391,2.587c1.843-0.746,1.102-2.567,1.179-3.966c0.117-2.101-0.696-3.53-3.042-3.727
		c-1.553-0.129-3.15,0.307-4.005-1.97c-1.964-5.236-0.927-6.7,4.832-6.19C396.431,168.718,399.007,168.312,401.096,166.329z"/>
	<path fill-rule="evenodd" clip-rule="evenodd" fill="#FAD184" d="M278.136,319.614c-12.104-7.452-24.758-13.79-38.087-18.755
		c-9.97-3.586-20.057-6.747-30.538-8.487c-0.975-0.163-2.031-0.034-2.763-0.915c0.264-1.71,1.532-1.764,2.921-2.044
		c18.015-3.648,36.089-5.4,54.371-2.093c1.293,0.234,2.662,0.054,3.996,0.064c2.158,1.502,4.558,2.1,7.165,1.919
		c0.307,0.101,0.62,0.122,0.937,0.062c3.813,2.644,9.223,1.802,12.458,5.706c-1.777,5.144-5.736,8.71-9.427,12.318
		c-3.782,3.7-4.31,6.433-0.637,10.156C279.667,318.695,280.155,319.273,278.136,319.614z"/>
	<path fill-rule="evenodd" clip-rule="evenodd" fill="#E3EDED" d="M64.805,420.074c1.683,5.339-1.528,10.052-1.965,15.124
		c-0.051,0.599-0.851,1.153-0.855,1.732c-0.019,1.731-1.083,4.025,1.016,4.978c2.799,1.269,2.378-1.824,3.432-3.01
		c1.236-1.39,1.363-2.918,1.497-4.611c0.187-2.368,1.068-4.268,3.996-4.007c-0.419,2.232-0.653,4.363-0.477,6.751
		c0.338,4.602,1.383,8.963,2.51,13.361c-0.016,1.149,0.523,1.836,1.677,2.008l0.254,0.315c0.14,0.944,0.62,1.555,1.623,1.653
		c0.121,0.428,0.24,0.855,0.36,1.281c-2.746,4.268-4.912-1.088-7.461-0.451c-0.672,0.946-0.54,1.922,0.107,2.776
		c2.968,3.918,0.607,4.502-2.764,4.47c-0.836-0.008-1.672-0.06-2.507-0.094c-0.195,0.002-0.329-0.087-0.401-0.264
		c-0.136-0.191-0.296-0.364-0.479-0.517c-3.05-4.932-5.119-10.16-4.866-16.088C60.569,436.87,61.383,428.199,64.805,420.074z"/>
	<path fill-rule="evenodd" clip-rule="evenodd" fill="#853B12" d="M47.656,432.221c-0.059,0.642-0.054,1.414-0.933,1.41
		c-0.869-0.006-0.915-0.771-0.918-1.416c-0.005-0.649,0.047-1.417,0.92-1.411C47.581,430.809,47.611,431.566,47.656,432.221z"/>
	<path fill-rule="evenodd" clip-rule="evenodd" fill="#853B12" d="M218.609,317.682l-0.448,0.046c0,0-0.346-0.278-0.346-0.276
		c-0.44-0.442-1.312-0.851-0.817-1.521c0.248-0.336,1.352-0.405,1.819-0.145C219.938,316.412,219.278,317.104,218.609,317.682z"/>
	<path fill-rule="evenodd" clip-rule="evenodd" fill="#E3EDED" d="M220.832,318.507c0.354,0.322,0.705,0.645,1.056,0.967
		c-1.154,0.103-2.297,0.169-3.034-0.999C219.513,318.486,220.174,318.496,220.832,318.507z"/>
	<path fill-rule="evenodd" clip-rule="evenodd" fill="#853B12" d="M224.25,316.077c-0.268,0.08-0.406,0.121-0.545,0.163
		c-0.034-0.123-0.067-0.245-0.101-0.367C223.783,315.929,223.964,315.988,224.25,316.077z"/>
	<path fill-rule="evenodd" clip-rule="evenodd" fill="#FAD184" d="M418.074,104.345c12.669,1.089,24.1-3.877,35.798-7.422
		c7.512-2.276,15.31-3.581,22.961-4.099c16.6-1.125,33.313-2.271,49.906,0.625c2.123,0.371,4.227,1.125,6.213-0.388
		c1.778,0.522,3.085,1.707,4.29,3.04c-4.56-0.563-5.874,0.652-3.654,5.258c0.852,1.768,2.729,3.421,2.272,5.792
		c-1.513,1.534-0.26,1.796,0.954,2.075c0.046,0.986,0.092,1.973,0.137,2.959c-0.478,0.134-1.313,0.17-1.379,0.416
		c-1.736,6.431-8.301,8.313-12.146,12.782c-2.648,3.077-6.081,6.216-9.592,7.793c-4.815,2.163-3.039,4.328-1.805,7.16
		c0.188,0.432,0.174,0.953,0.256,1.43c-0.554-0.363-1.14-0.68-1.654-1.09c-14.596-11.646-30.377-21.19-48.153-27.207
		c-4.467-2.321-9.418-3.085-14.205-4.34C438.373,106.536,428.177,105.71,418.074,104.345z"/>
	<path fill-rule="evenodd" clip-rule="evenodd" fill="#985123" d="M56.518,447.381c-0.088,0.104-0.174,0.21-0.262,0.315
		c-0.065-0.123-0.19-0.25-0.178-0.366c0.01-0.111,0.159-0.213,0.247-0.317C56.388,447.135,56.454,447.258,56.518,447.381z"/>
	<path fill-rule="evenodd" clip-rule="evenodd" fill="#EA7A13" d="M561.083,144.364c2.056,4.626,1.275,9.563,0.804,14.212
		c-1.1,10.841-2.486,21.705-7.432,31.712c-0.612,1.239-0.297,2.937-0.409,4.421c-4.249,10.54-10.669,19.978-16.921,29.233
		c-4.327,6.406-10.212,12.221-15.306,18.278c-6.582,7.826-13.895,14.825-20.914,22.156c-17.501,18.275-36.962,34.478-55.196,51.988
		c-18.522,17.783-37.688,34.914-56.91,51.947c-16.755,14.85-33.502,29.731-50.508,44.275
		c-14.054,12.021-28.352,23.811-42.703,35.511c-13.719,11.185-27.564,22.221-41.685,32.846
		c-16.889,12.707-34.426,24.631-53.774,33.466c-17.078,7.796-35.11,10.703-53.85,11.782c-15.745,0.905-30.439-2.245-45.149-6.594
		c-2.953-0.872-6.102-1.934-8.125-4.672c2.113-2.147,4.805-1.228,7.143-1.007c16.217,1.534,32.119,1.605,48.075-3.301
		c10.526-3.237,21.28-5.895,31.51-9.959c7.332-2.911,14.214-7.001,21.164-10.806c9.658-5.288,18.182-12.323,26.303-19.558
		c6.938-6.181,12.927-13.619,17.821-21.7c1.02-1.681,2.185-2.594,4.045-3.331c12.148-4.823,24.176-9.702,34.765-17.839
		c11.461-8.812,22.542-18.014,33.658-27.237c12.971-10.764,25.215-22.326,38.191-33.062c7.031-5.818,13.452-12.375,20.19-18.553
		c13.782-12.634,27.636-25.191,41.381-37.866c10.797-9.955,21.486-20.027,32.2-30.072c12.532-11.747,25.362-23.196,37.447-35.388
		c9.019-9.099,18.618-17.576,27.407-26.96c9.132-9.751,18.068-19.537,26.045-30.26c9.649-12.97,17.617-26.635,20.085-42.927
		C560.478,144.83,560.86,144.609,561.083,144.364z"/>
	<path fill-rule="evenodd" clip-rule="evenodd" fill="#D35B18" d="M242.078,544.359c1.256-1.693,2.326-2.913,4.097-2.877
		c0.668,0.014,0.868,0.942,0.593,1.604C245.964,545.008,244.512,545.259,242.078,544.359z"/>
	<path fill-rule="evenodd" clip-rule="evenodd" fill="#D35B18" d="M217.014,556.603c-0.303,0.115-0.585,0.286-0.874,0.298
		c-0.105,0.004-0.226-0.371-0.339-0.572c0.148-0.056,0.325-0.192,0.442-0.152C216.507,556.268,216.741,556.445,217.014,556.603z"/>
	<path fill-rule="evenodd" clip-rule="evenodd" fill="#F7BB59" d="M512.283,141.768c-0.08-0.479-0.065-0.999-0.254-1.431
		c-1.234-2.832-3.011-4.998,1.805-7.16c3.511-1.577,6.943-4.716,9.592-7.793c3.846-4.47,10.41-6.351,12.146-12.782
		c0.065-0.245,0.901-0.282,1.379-0.416c3.52,3.748,3.376,8.75,3.771,13.226c1.123,12.63-1.111,24.98-5.321,36.876
		c-1.677,4.741-4.052,9.333-8.73,12.153c-0.92,0.554-1.858,1.733-2.039,2.756c-1.491,8.409-9.832,10.167-14.813,15.128
		c-1.724,1.716-4.442,2.674-6.158,4.817c-1.295,1.617-3.146,2.54-5.262,2.578c-1.625,0.028-2.988,0.523-3.978,1.784
		c-5.966,7.597-15.121,10.469-22.835,15.474c-5.232,3.396-8.993,8.024-10.971,13.912c-1.034,3.08-2.324,5.574-5.063,7.666
		c-2.87,2.192-5.394,4.94-7.593,7.972c-2.209,3.043-4.505,5.977-9.454,4.791c-3.474-0.831-12.196,9.703-11.636,13.292
		c0.424,2.703,0.46,4.811-3.408,3.958c-1.51-0.333-2.774,0.899-3.991,1.819c-2.789,2.112-5.318,4.641-8.634,5.953
		c-3.003,1.187-5.119,2.785-5.155,6.452c-0.04,3.98-3.604,4.987-6.371,6.156c-7.036,2.975-14.14,5.794-22.065,5.564
		c-1.303-0.037-6.996-0.561-1.914,3.708c0.632,0.531,0.307,2.202,0.425,3.343c-7.105-7.803-16.263-13.151-24.08-20.105
		c-3.376-5.442-7.976-9.553-13.782-12.204c-1.095-0.5-2.396-0.609-2.466-1.995c-0.079-1.557,1.76-0.651,2.2-1.309
		c2.899-4.342,8.423-5.184,11.756-9.373c2.371-2.982,5.364-8.25,11.424-4.819c1.574,0.892,2.021-1.238,1.931-2.599
		c-0.183-2.753,0.456-5.092,3.228-6.158c2.765-1.062,4.146-3.198,5.24-5.729c0.523-1.211,1.107-2.39,2.408-3.104
		c5.905-3.234,11.006-7.396,15.318-12.642c1.963-2.387,2.912-4.044-1.525-5.792c8.178-3.149,14.658-0.759,20.345,2.989
		c7.701,5.077,14.841,11.014,22.175,16.643c2.958,2.271,5.854,2.345,8.639-0.069c3.206-2.782,7.373-5.161,5.148-10.655
		c-0.613-1.516,1.648-2.03,1.522-3.478c9.735-2.958,12.772-10.801,7.529-19.489c-0.771-1.277-1.632-2.5-2.451-3.748
		c-0.36-0.395-0.722-0.789-1.082-1.183c0,0,0.049,0.1,0.049,0.099c-0.007-1.507-0.815-2.133-2.263-2.061
		c-0.258-0.185-0.518-0.369-0.777-0.554c0.054-1.475-0.389-2.509-2.123-2.404c0,0-0.09,0.121-0.089,0.122
		c0.564-2.486-1.645-2.928-2.95-4.083c-3.437-3.042-2.604-4.139,0.922-6.549c4.56-3.117,8.124-7.659,12.268-11.421
		c3.913-3.553,7.123-8.48,13.529-7.688c1.645,1.328,3.523,2.115,5.607,2.434c2.401,4.26,7.612,4.538,10.963,7.804
		c2.861,2.788,5.832,6.001,10.035,7.464c4.477,1.557,10.282-1.714,10.232-6.357c-0.03-2.655,0.023-4.938,3.334-5.568
		c0.358-0.067,0.468-1.436,0.693-2.202c6.227-1.807,9.844-5.792,9.951-11.351c0.084-4.346-2.243-7.776-4.818-11.032
		c1.432-1.903,0.041-1.847-1.278-1.84L512.283,141.768z"/>
	<path fill-rule="evenodd" clip-rule="evenodd" fill="#F7BB59" d="M278.136,319.614c2.02-0.341,1.532-0.919,0.397-2.071
		c-3.673-3.723-3.146-6.456,0.637-10.156c3.691-3.608,7.65-7.174,9.423-12.315c0.271,0.004,0.535,0.052,0.792,0.148
		c0.854,3.959,3.96,1.532,6.005,2.115c1.353,0.325,2.705,0.653,4.056,0.979c0.313,0.908,0.987,1.146,1.865,1.002l0.17,0.125
		c5.976,3.372,11.955,6.743,17.933,10.116c0.866,2.563,3.595,2.584,5.36,3.92c5.844,4.418,12.475,7.878,16.955,13.952
		c-2.097,0.851-3.772,2.683-6.408,2.297c-1.49-0.217-2.487,1.011-2.916,2.348c-2.5,7.805-9.89,8.418-15.994,10.531
		c-6.214,2.152-10.613,5.893-13.313,11.729c-0.416,0.898-0.926,1.113-1.685,1.482c-2.224,1.088-1.92,2.981-0.244,3.896
		c2.891,1.575,2.174,3.001,0.854,5.208c-2.232,3.726-5.739,6.34-7.912,10.225c-1.904,3.409-10.329,3.852-14.87,1.744
		c-2.578-1.196-2.658-1.192-2.508,1.646c0.111,2.089-1.427,3.065-2.736,3.849c-4.531,2.708-7.149,7.549-11.699,10.203
		c-1.139,0.666-0.984,2.028-1.32,3.134c-0.684,2.246-3.135,3.859-4.514,2.918c-3.609-2.461-4.254,0.08-5.359,2.306
		c-1.139,2.293-3.183,3.287-5.438,4.135c-2.185,0.82-4.799,1.736-5.396,4.07c-1.105,4.321-3.419,3.398-5.936,1.844
		c-2.058-1.27-3.759-0.871-5.79,0.492c4.718,2.338,7.326,6.771,11.939,9.382c3.149,1.782,7.136,6.858,6.521,12.48
		c-2.397-4.275-5.797-7.598-9.567-10.692c-10.964-9.001-22.58-17.036-34.807-24.205c0.556-1.134,2.178-2.2-0.338-3.234
		c-1.86-0.766-4.034-1.353-5.375-3.418c2.101-1.313,4.501-0.664,6.105-2.575c4.924-5.855,11.62-10.109,15.314-17.124
		c0.911-1.729,2.477-3.005,4.726-3.364c3.378-0.54,6.507-1.731,7.844-5.364c0.321-0.868,0.862-1.554,1.774-1.502
		c5.338,0.302,8.103-6.002,13.83-4.834c-1.618-1.59-3.298-1.217-4.871-1.236c-1.529-0.021-2.508-0.637-3.135-2.016
		c-0.619-1.365,0.1-2.238,0.999-3.048c1.143-1.03,2.118-0.761,3.564-0.135c5.01,2.161,8.958,6.526,14.059,7.913
		c6.319,1.721,11.141,5.175,15.698,9.421c1.268,1.183,2.531,2.313,4.411,1.687c2.334-0.774,1.839-2.834,2.034-4.622
		c0.262-2.395-0.058-5.127,2.975-6.217c0.143,0.073,0.286,0.147,0.428,0.223c-0.139-0.077-0.28-0.154-0.419-0.232
		c0.194-1.652,1.09-2.211,2.637-1.623c1.208,0.458,2.395,1.035,3.402-0.347c7.673,0.169,11.344-1.594,13.384-7.021
		c2.169-5.77,0.361-10.74-3.888-14.938C291.853,328.978,284.58,324.829,278.136,319.614z"/>
	<path fill-rule="evenodd" clip-rule="evenodd" fill="#F7BB59" d="M197.708,444.083c-3.719,1.972-6.824,4.757-11.272,5.824
		c-3.537,0.85-7.708,2.287-9.633,6.537c-1.05,2.317-3.625,1.935-5.817,2.014c-1.546,0.058-4.068-0.755-4.234,1.48
		c-0.528,7.123-6.93,6.951-11.178,9.182c-2.065,1.083-3.683,2.097-5.423,3.743c-2.698,2.553-7.019,4.618-10.19,4.859
		c-5.561,0.421-7.466,5.346-11.764,6.786c1.067-10.85-1.583-14.808-11.616-15.827c-8.18-0.83-16.577,0.718-24.582-2.215
		c-5.783-1.688-8.595-6.735-12.246-10.832c-0.011-3.326,2.275-3.122,4.652-3.34c1.887-0.17,4.83,1.647,5.394-2.105l0.041-0.021
		c1.705,0.307,3.06-0.012,4.604-1.132c4.399-3.194,8.699-6.714,14.602-6.939c1.721-0.065,3.02-1.355,3.701-3.034
		c1.273-3.135,2.605-5.993,6.705-3.004c0.435,0.317,1.718-0.027,2.283-0.476c3.753-2.97,9.142-4.219,10.396-9.876
		c0.224-1.018,1.335-1.709,2.377-1.456c9.212,2.242,18.137-3.938,27.704-0.354c4.705,1.763,8.656,4.742,13.368,6.259
		C184.131,432.907,190.327,439.446,197.708,444.083z"/>
	<path fill-rule="evenodd" clip-rule="evenodd" fill="#853B12" d="M351.675,281.456c7.817,6.954,16.975,12.302,24.08,20.105
		c0,0.001,0.011-0.117,0.011-0.117c0.622,1.745,1.246,3.49,1.869,5.234c0.121,0.611,0.243,1.22,0.365,1.83
		c-0.315,1.629-0.633,3.259-0.949,4.889c-0.42,0.911-0.839,1.82-1.257,2.732c-3.496,4.305-8.186,5.917-13.217,4.144
		c-3.092-1.091-5.576-3.9-8.335-5.938c-1.464-1.065-3.1-1.96-4.364-3.225c-6.565-6.563-14.281-11.499-22.291-16.037
		c-7.206-5.19-14.898-9.5-23.159-12.782c-11.309-5.636-23.168-9.751-35.407-12.82c5.646-1.548,7.47-5.197,5.887-10.714
		c-0.139-0.481-0.437-0.941-0.464-1.422c-0.19-3.196,0.148-5.966,4.55-4.84c2.508,0.641,4.484-0.726,6.587-1.649
		c8.025,1.182,15.462,4.291,22.941,7.185C323.9,263.982,338.003,272.333,351.675,281.456z M280.715,263.236
		c-2.308,1.025-3.28,3.578-3.917,5.717c-0.483,1.619,1.924,0.98,3.088,1.238c-0.138-2.579,3.609-3.135,3.085-5.874
		C282.775,263.301,281.835,263.276,280.715,263.236z"/>
	<path fill-rule="evenodd" clip-rule="evenodd" fill="#853B12" d="M202.63,398.451c12.228,7.169,23.843,15.204,34.807,24.205
		c3.771,3.095,7.17,6.417,9.567,10.692c1.175,6.906-0.728,12.439-7.118,15.975c-5.287,0.856-9.466-0.616-13.385-4.605
		c-4.988-5.081-10.508-9.713-16.714-13.378c-12.063-8.599-24.332-16.841-38.323-22.094c-7.028-2.327-13.615-5.962-21.041-7.115
		c-0.349-0.357-0.698-0.715-1.047-1.074c0.474-1.311,2.307-2.281,1.016-4.036c1.114-0.117,2.499,0.217,2.785-1.401
		c0.064-0.369-0.292-1.074-0.625-1.211c-1.608-0.667-2.465,0.363-3.16,1.612c-1.385,0.001-2.619,0.132-2.238-2.087
		c0.333-1.924,0.44-4.056-0.04-5.921c-1.566-6.092-1.685-6.056,4.629-6.092c0.848-0.005,1.695-0.074,2.542-0.114
		c-0.967-0.891-1.645-1.546-1.966-2.531c2.127,0.441,4.261,0.847,6.377,1.331C174.307,384.178,188.563,391.079,202.63,398.451z"/>
	<path fill-rule="evenodd" clip-rule="evenodd" fill="#FAD184" d="M171.464,409.246c13.993,5.253,26.261,13.495,38.323,22.094
		c-1.094,3.01-1.046,6.136-1.024,9.278c0.04,5.792-0.936,6.601-6.636,5.598c-1.127-0.198-2.214-0.625-3.32-0.946
		c-0.366-0.395-0.732-0.788-1.1-1.184c-7.381-4.64-13.577-11.179-22.127-13.931c-4.711-1.517-8.663-4.496-13.368-6.259
		c-9.567-3.584-18.492,2.597-27.704,0.354c-1.042-0.253-2.153,0.438-2.377,1.456c-1.254,5.657-6.643,6.906-10.396,9.876
		c-0.565,0.448-1.848,0.793-2.283,0.476c-4.1-2.989-5.431-0.131-6.705,3.004c-0.682,1.679-1.98,2.969-3.701,3.034
		c-5.903,0.226-10.203,3.745-14.602,6.939c-1.544,1.12-2.899,1.438-4.603,1.134c0.733-2.454,3.174-3.29,4.809-4.839
		c3.322-3.147,4.5-6.714,2.504-10.737c-2.942-5.932-7.273-8.189-12.313-7.054c-4.76,1.073-8.711,5.61-8.859,10.172
		c-0.282,8.758,3.939,12.569,13.817,12.478c-0.564,3.753-3.507,1.936-5.394,2.105c-2.377,0.218-4.663,0.014-4.651,3.337
		c-0.626,0.007-1.254,0.014-1.883,0.021c-0.119-0.429-0.238-0.856-0.355-1.284c0.205-1.283-0.388-1.787-1.626-1.653
		c0,0-0.254-0.315-0.251-0.315c0.248-1.345-0.363-1.973-1.68-2.008c-1.127-4.398-2.171-8.76-2.51-13.361
		c-0.176-2.388,0.058-4.519,0.477-6.751c4.74-5.867,10.791-9.813,17.909-12.176c4.081-1.354,8.179-2.654,12.27-3.979
		c13.583,0.08,27.232-1.209,40.669,1.938c1.235,1.298,3.115,1.102,4.508,1.88c4.042,2.257,8.801,1.358,12.842,3.085
		c2.14,0.915,4.441,2.185,5.869,0.299c2.195-2.904-2.229-2.666-3.2-4.585C167.328,415.882,171.13,414.445,171.464,409.246z"/>
	<path fill-rule="evenodd" clip-rule="evenodd" fill="#FAD184" d="M91.999,466.467c8.005,2.933,16.402,1.385,24.582,2.215
		c10.032,1.02,12.683,4.978,11.616,15.827l-0.017,0.03c-1.269,0.096-1.927,0.771-1.948,2.053c-7.37,5.81-15.637,3.634-23.764,2.649
		c-1.14-0.138-2.261-0.431-3.39-0.651c-3.082-2.658-7.47-2.365-10.685-4.755c-1.261-0.937-3.253-1.002-3.516-3.077
		c0.873-0.411,2.191-0.691,1.582-2.013c-1.456-3.153,0.671-4.283,2.998-5.04c-0.662-1.643-3.071-0.538-2.847-2.907
		C89.338,470.634,91.873,469.962,91.999,466.467z"/>
	<path fill-rule="evenodd" clip-rule="evenodd" fill="#FAD184" d="M327.587,295.071c8.01,4.54,15.726,9.475,22.291,16.039
		c1.265,1.265,2.9,2.16,4.363,3.225c-4.533,1.107-8.106,2.413-5.824,8.628c1.127,3.069-1.752,4.602-4.844,4.693
		c-0.615-0.074-1.23-0.149-1.846-0.226c-4.479-6.074-11.11-9.535-16.954-13.953c-1.766-1.335-4.494-1.356-5.359-3.921
		c1.297-0.472,3.234,0.494,3.847-1.453c0.553-1.763-0.173-3.434-1.658-4.312c-3.409-2.018-1.178-2.937,0.436-4.53
		C323.731,297.587,327.036,298.135,327.587,295.071z"/>
	<path fill-rule="evenodd" clip-rule="evenodd" fill="#F7BB59" d="M343.573,327.656c3.092-0.092,5.971-1.624,4.844-4.693
		c-2.282-6.215,1.291-7.521,5.824-8.628c2.76,2.038,5.244,4.848,8.336,5.938c5.031,1.773,9.721,0.161,13.217-4.144
		c0.231,2.997,0.375,5.504-4.052,5.667c-2.142,0.077-4.949,1.55-2.278,5.113c1.983,2.645-4.227,10.33-8.427,10.707
		C352.908,338.345,347.969,333.478,343.573,327.656z"/>
	<path fill-rule="evenodd" clip-rule="evenodd" fill="#F7BB59" d="M198.808,445.27c1.106,0.321,2.192,0.748,3.32,0.946
		c5.701,1.003,6.676,0.194,6.636-5.598c-0.022-3.143-0.07-6.269,1.024-9.278c6.207,3.665,11.727,8.297,16.715,13.378
		c3.918,3.989,8.098,5.462,13.385,4.605c-0.933,1.948-2.675,0.775-4.027,0.971c-1.469,0.213-2.995,0.092-4.493,0.054
		c-2.227-0.058-3.765-0.01-4.798,2.896c-1.814,5.113-8.978,6.501-13.185,2.929c-4.023-3.418-7.617-7.394-13.336-8.048
		C198.526,447.949,198.78,446.426,198.808,445.27z"/>
	<path fill-rule="evenodd" clip-rule="evenodd" fill="#F7BB59" d="M377.051,313.397c0.316-1.629,0.634-3.26,0.949-4.889
		C380.795,311.052,380.56,312.262,377.051,313.397z"/>
	<path fill-rule="evenodd" clip-rule="evenodd" fill="#F7BB59" d="M377.635,306.679c-0.623-1.744-1.247-3.49-1.869-5.234
		C378.473,302.444,379.943,303.887,377.635,306.679z"/>
	<path fill-rule="evenodd" clip-rule="evenodd" fill="#F7BB59" d="M536.814,109.227c-1.214-0.279-2.467-0.542-0.954-2.075
		C536.727,107.59,536.899,108.349,536.814,109.227z"/>
	<path fill-rule="evenodd" clip-rule="evenodd" fill="#F7BB59" d="M126.231,486.592c0.021-1.281,0.679-1.957,1.948-2.053
		C128.245,485.902,127.566,486.558,126.231,486.592z"/>
	<path fill-rule="evenodd" clip-rule="evenodd" fill="#D9E5E6" d="M91.999,466.467c-0.125,3.495-2.66,4.167-5.39,4.331
		c-0.224,2.369,2.185,1.265,2.847,2.907c-2.327,0.757-4.454,1.887-2.998,5.04c0.609,1.321-0.709,1.602-1.582,2.013
		c-0.307-0.098-0.622-0.153-0.944-0.161c-0.797-3.149-2.911-4.347-6.024-4.063c-5.048-3.988-9.929-8.129-12.664-14.181
		c0.839,0.033,1.675,0.085,2.511,0.093c3.371,0.032,5.732-0.552,2.764-4.47c-0.647-0.854-0.78-1.83-0.107-2.776
		c2.549-0.637,4.715,4.719,7.461,0.451c0.628-0.005,1.255-0.012,1.882-0.019C83.404,459.731,86.215,464.779,91.999,466.467z"/>
	<path fill-rule="evenodd" clip-rule="evenodd" fill="#FAD184" d="M77.908,476.533c3.114-0.283,5.228,0.914,6.024,4.063
		C81.395,480.026,79.362,478.707,77.908,476.533z"/>
	<path fill-rule="evenodd" clip-rule="evenodd" fill="#D9E5E6" d="M64.368,461.571c0.182,0.152,0.342,0.325,0.479,0.517
		c-0.001-0.003-0.447-0.079-0.447-0.079L64.368,461.571z"/>
	<path fill-rule="evenodd" clip-rule="evenodd" fill="#FAD184" d="M351.675,281.456c-13.672-9.123-27.774-17.474-43.153-23.426
		c-7.479-2.895-14.916-6.003-22.942-7.185c-11.854-3.924-24.163-4.468-36.485-4.918c12.775-6.968,26.915-11.144,39.179-19.153
		c3,0.563,4.115-3.236,6.97-3.01c3.718,2.759,6.886,0.245,10.179-1.06c2.845-1.054,6.396-1.4,5.877-5.839
		c0.376-1.454,0.851-2.89,1.11-4.366c0.891-5.089-1.398-9.513-6.034-11.826c-0.626-1.231-1.492-2.031-3.003-1.654
		c-1.676-0.024-3.352-0.047-5.03-0.071c-2.039-0.058-3.3-0.873-3.062-3.148c17.975-5.718,36.187-6.292,54.576-2.407
		c9.361,1.979,18.624,4.281,27.139,8.915c1.08,0.59,2.616,0.346,3.939,0.488c0.299,1.833,1.547,1.975,3.03,1.696
		c0,0,0.282,0.189,0.279,0.189c2.913,3.589,7.683,3.747,11.304,6.125c5.438,3.571,11.871,0.33,13.839-5.864
		c0.957-3.01-1.924-4.482-1.392-6.948c9.605,5.083,18.186,11.638,26.555,18.494c3.122,2.559,6.33,4.929,10.684,4.674
		c0.126,1.447-2.136,1.962-1.522,3.478c2.225,5.494-1.942,7.873-5.148,10.655c-2.785,2.414-5.681,2.341-8.639,0.069
		c-7.334-5.628-14.474-11.565-22.175-16.643c-5.687-3.748-12.167-6.138-20.345-2.989c4.438,1.748,3.488,3.405,1.525,5.792
		c-4.313,5.245-9.413,9.408-15.318,12.642c-1.301,0.714-1.885,1.893-2.408,3.104c-1.094,2.531-2.476,4.667-5.24,5.729
		c-2.771,1.065-3.41,3.405-3.228,6.158c0.091,1.36-0.356,3.491-1.931,2.599c-6.06-3.431-9.053,1.837-11.424,4.819
		c-3.333,4.189-8.856,5.031-11.756,9.373c-0.44,0.658-2.279-0.248-2.2,1.309c0.069,1.385,1.371,1.495,2.466,1.995
		C343.699,271.903,348.299,276.014,351.675,281.456z"/>
	<path fill-rule="evenodd" clip-rule="evenodd" fill="#985123" d="M249.095,245.927c12.322,0.45,24.631,0.995,36.485,4.918
		c-2.101,0.923-4.077,2.29-6.585,1.649c-4.402-1.126-4.74,1.645-4.55,4.84c0.027,0.481,0.325,0.941,0.464,1.422
		c1.583,5.517-0.241,9.166-5.887,10.714c-5.338-0.583-10.488-2.549-15.957-2.181c-4.081-1.226-8.288-0.904-12.462-1.023
		c-5.34-0.151-9.088-3.513-9.425-8.391c-0.355-5.162,3.867-10.3,8.951-10.896C243.116,246.63,246.105,246.278,249.095,245.927z"/>
	<path fill-rule="evenodd" clip-rule="evenodd" fill="#EEF5F4" d="M253.063,267.29c5.469-0.368,10.619,1.598,15.957,2.181
		c12.239,3.068,24.099,7.184,35.407,12.82c-0.489,1.182-0.715,1.767,0.489,3.227c2.224,2.693,6.225,1.952,8.752,5.625
		c-3.896-0.157-6.667,0.917-7.935,3.96c-1.144,2.75,2.872,1.567,3.08,3.814c-2.412,0.951-4.93,0.238-7.334,0.525
		c0,0-0.17-0.125-0.17-0.123c-0.127-1.251-0.341-2.343-1.865-1.004c-1.351-0.326-2.704-0.654-4.056-0.979
		c-1.532-2.038-3.73-2.186-6.005-2.115c-0.257-0.096-0.521-0.144-0.792-0.148c-3.232-3.907-8.642-3.065-12.455-5.709
		c3.503,0.08,7.009,0.109,10.508,0.276c0.971,0.047,2.014,0.676,2.451-0.717c0.303-0.967,0.347-2.02-0.324-2.869
		c-0.714-0.904-1.794-0.734-2.785-0.663c-1.554,0.113-2.244,1.926-3.964,1.917c-1.785-0.012-3.004-0.667-3.269-2.392
		c-0.288-1.89,1.332-1.453,2.388-1.615c4.34-0.66,8.352-3.227,13.156-2.352c-6.906-1.854-12.007-7.984-19.57-7.665
		c-3.033,0.128-5.407-1.556-8.139-2.209c-3.989-0.953-7.842-2.289-12.039-2.034C253.625,269.099,253.247,268.148,253.063,267.29z"/>
	<path fill-rule="evenodd" clip-rule="evenodd" fill="#E3EDED" d="M407.997,197.995c-0.532,2.466,2.349,3.938,1.392,6.948
		c-1.968,6.194-8.4,9.435-13.839,5.864c-3.621-2.378-8.391-2.536-11.304-6.125c1.771,0.308,3.739-0.419,5.308,0.79
		c1.422,1.097,3.043,2.188,4.036,0.067c1.226-2.614-1.633-2.561-4.043-3.727c4.537-2.431,7.863-5.194,6.512-10.345
		C400.466,192.859,404.031,195.792,407.997,197.995z"/>
	<path fill-rule="evenodd" clip-rule="evenodd" fill="#D9E5E6" d="M295.283,195.801c-0.238,2.275,1.022,3.09,3.063,3.145
		c-0.624,1.085-1.711,1.417-2.778,1.931c-3.482,1.683-8.245,9.786-7.127,13.201c1.228,3.756,3.748,7.006,6.803,9.686
		c-2.854-0.226-3.97,3.573-6.97,3.01c0.604-1.78-0.069-3.135-0.673-4.903c-1.509-4.422-6.418-7.645-3.02-14.098
		C287.332,202.549,289.318,197.715,295.283,195.801z"/>
	<path fill-rule="evenodd" clip-rule="evenodd" fill="#EEF5F4" d="M274.017,280.422c2.751-1.668,4.482-1.263,6.566,0.468
		C278.354,281.426,276.607,281.495,274.017,280.422z"/>
	<path fill-rule="evenodd" clip-rule="evenodd" fill="#EEF5F4" d="M275.201,289.302c-2.606,0.181-5.006-0.417-7.165-1.919
		C270.435,287.984,273.628,285.614,275.201,289.302z"/>
	<path fill-rule="evenodd" clip-rule="evenodd" fill="#E3EDED" d="M383.967,204.493c-1.483,0.279-2.731,0.137-3.03-1.696
		C382.295,202.741,383.617,202.748,383.967,204.493z"/>
	<path fill-rule="evenodd" clip-rule="evenodd" fill="#E3EDED" d="M392.056,189.556c0.835,0.021,1.634,0.121,2.057,0.996
		C393.206,190.67,392.431,190.527,392.056,189.556z"/>
	<path fill-rule="evenodd" clip-rule="evenodd" fill="#853B12" d="M513.795,143.398c2.575,3.256,4.902,6.686,4.818,11.032
		c-0.107,5.559-3.725,9.544-9.951,11.351c-3.755,0.082-6.531-1.954-9.335-4.113c-4.184-3.219-7.979-6.996-12.864-9.238
		c-4.342-3.19-8.851-6.103-13.808-8.263c-2.106-1.801-4.426-3.188-7.192-3.709c0,0-0.245-0.069-0.244-0.069
		c-1.942-1.712-4.295-2.565-6.747-3.212c-5.043-2.01-10.088-4.02-15.134-6.03c3.226-0.205,6.238-2.134,9.656-0.959
		c2.291,0.787,3.056-1.155,4.165-2.642c1.9-2.552-1.038-1.97-1.669-2.877c-1.289-1.857-2.502-3.771-3.752-5.672
		c0.613-0.347,0.876-0.58,1.175-0.645c0.487-0.106,1.19,0.096,1.468-0.174c2.314-2.253,6.765-0.818,8.097-4.708
		c17.776,6.016,33.558,15.561,48.153,27.207c0.515,0.41,1.101,0.728,1.654,1.09c-0.002,0.001,0.231-0.208,0.232-0.209
		C512.349,142.582,513.171,142.922,513.795,143.398z"/>
	<path fill-rule="evenodd" clip-rule="evenodd" fill="#985123" d="M462.478,113.469c-1.332,3.891-5.782,2.456-8.097,4.708
		c-0.277,0.271-0.98,0.068-1.468,0.174c-0.299,0.065-0.562,0.298-1.175,0.645c1.25,1.901,2.463,3.815,3.752,5.672
		c0.631,0.907,3.569,0.325,1.669,2.877c-1.109,1.487-1.874,3.429-4.165,2.642c-3.418-1.175-6.431,0.754-9.656,0.959
		c-16.581-4.692-33.364-7.911-50.715-7.55c-5.085,0.105-8.904-3.29-9.634-7.782c-0.716-4.406,2.44-9.161,7.097-10.82
		c2.586-0.921,5.245-0.886,7.92-0.857c6.688,0.073,13.378,0.138,20.067,0.208c10.104,1.366,20.3,2.191,30.199,4.785
		C453.06,110.384,458.011,111.148,462.478,113.469z"/>
	<path fill-rule="evenodd" clip-rule="evenodd" fill="#E3EDED" d="M465.463,140.458c2.767,0.521,5.086,1.908,7.192,3.709
		c-0.55,2.302,0.703,3.456,2.677,4.056c1.485,0.452,3.179,0.853,2.912,2.795c-0.254,1.847-2.038,1.257-3.277,1.452
		c-3.202,0.503-3.009,2.063-1.218,4.048c0.555,0.616,1.333,1.045,1.83,1.696c0.985,1.293,1.537,2.887-0.117,3.894
		c-1.314,0.8-2.362,0.14-3.012-1.492c-1.219-3.059-3.017-3.031-4.92-0.474c-4.181-0.939-7.748-3.067-11.059-5.696
		C463.725,154.409,468.682,146.697,465.463,140.458z"/>
	<path fill-rule="evenodd" clip-rule="evenodd" fill="#E3EDED" d="M458.472,137.177c2.452,0.647,4.805,1.5,6.747,3.212
		C462.575,140.145,459.337,141.153,458.472,137.177z"/>
	<path fill-rule="evenodd" clip-rule="evenodd" fill="#FAD184" d="M202.63,398.451c-14.067-7.372-28.324-14.273-43.932-17.845
		c-2.117-0.484-4.25-0.89-6.376-1.33c-12.565-2.833-25.317-2.882-38.097-2.55c9.334-5.788,19.559-9.854,29.178-15.085
		c1.153,0.023,2.537,0.15,2.721-1.363c0.339-2.779,2.362-2.701,4.322-2.855c2.111,2.676,5.035,2.75,7.731,1.694
		c6.679-2.615,14.522-7.894,12.024-18.517c0.311-1.455,0.359-2.755-1.67-2.825c-0.104-0.382-0.209-0.762-0.312-1.142
		c0.047-3.479-1.907-4.77-5.138-4.957c-1.734-0.102-4.136,0.92-4.676-2.052c9.491-0.46,18.909-1.23,28.497-0.252
		c10.154,1.038,19.989,2.962,29.605,6.178c2.508,0.839,5.312,0.531,7.599,2.092c2.358,2.978,6.501,1.813,9.216,3.971
		c4.418,3.903,9.543,6.527,15.218,7.945c2.02,0.504,4.242,0.074,4.405-2.716c0.242-4.201,4.562-6.878,4.083-11.301
		c8.148,3.908,15.175,9.503,22.384,14.827c2.94,2.172,5.917,4.291,8.878,6.434c-1.006,1.382-2.193,0.805-3.401,0.347
		c-1.546-0.588-2.443-0.029-2.637,1.623l-0.009,0.01c-3.033,1.09-2.713,3.822-2.975,6.217c-0.195,1.788,0.3,3.848-2.034,4.622
		c-1.88,0.626-3.144-0.504-4.411-1.687c-4.557-4.246-9.378-7.7-15.698-9.421c-5.101-1.387-9.048-5.752-14.059-7.913
		c-1.447-0.626-2.422-0.896-3.564,0.135c-0.899,0.81-1.617,1.683-0.999,3.048c0.626,1.379,1.605,1.995,3.135,2.016
		c1.573,0.02,3.253-0.354,4.871,1.236c-5.727-1.168-8.492,5.136-13.83,4.834c-0.912-0.052-1.454,0.634-1.774,1.502
		c-1.337,3.633-4.465,4.824-7.844,5.364c-2.249,0.359-3.815,1.635-4.726,3.364c-3.694,7.015-10.39,11.269-15.314,17.124
		c-1.604,1.911-4.005,1.262-6.105,2.575c1.34,2.065,3.515,2.652,5.375,3.418C204.809,396.251,203.186,397.317,202.63,398.451z"/>
	<path fill-rule="evenodd" clip-rule="evenodd" fill="#985123" d="M114.226,376.727c12.779-0.332,25.531-0.283,38.097,2.55
		c0.32,0.984,0.997,1.64,1.964,2.53c-0.848,0.04-1.694,0.109-2.542,0.114c-6.314,0.036-6.195,0-4.629,6.092
		c0.48,1.865,0.372,3.997,0.04,5.921c-0.38,2.219,0.853,2.088,2.238,2.087l-0.005-0.007c0.338,0.339,0.676,0.678,1.015,1.016
		l-0.009-0.009c1.291,1.755-0.542,2.726-1.016,4.036c-13.832-3.643-27.957-4.465-42.176-4.367c-4.316-2.104-7.464-5.06-6.561-10.35
		c0.87-5.108,3.869-8.217,9.222-8.781C111.331,377.403,112.772,377.009,114.226,376.727z"/>
	<path fill-rule="evenodd" clip-rule="evenodd" fill="#EEF5F4" d="M107.201,396.689c14.219-0.098,28.345,0.725,42.176,4.367
		c0.349,0.359,0.698,0.717,1.046,1.074c-0.787,2.911,1.227,3.985,3.959,4.759c-1.827,1.065-3.202,1.609-4.233,2.533
		c-1.228,1.104-3.367-0.043-4.284,1.679c1.076,1.875,4.875,0.028,4.297,3.194c-0.588,3.218-3.521,1.389-5.402,1.813
		c-0.628,0.142-1.324-0.021-1.988-0.045c-13.437-3.147-27.086-1.858-40.669-1.938c0.379-2.457,2.308-1.952,3.896-1.986
		c2.501-0.055,5.048,0.269,7.496-0.097c3.914-0.585,8.377-0.352,9.901-5.56c0.558-1.912,2.338-2.662,4.43-2.424
		c2.56,0.29,4.427-0.925,6.646-3.8c-7.727,0.581-14.12-3.184-21.313-2.325C111.232,398.164,108.766,399.03,107.201,396.689z"/>
	<path fill-rule="evenodd" clip-rule="evenodd" fill="#E3EDED" d="M233.324,341.613c-2.714-2.157-6.858-0.993-9.216-3.971
		c1.174-0.001,2.347,0.027,3.518-0.015c1.307-0.046,2.843,0.187,3.127-1.684c0.22-1.455-0.672-2.029-1.97-2.386
		c-2.89-0.797-1.861-3.23-1.763-5.027c0.139-2.514,2.314-1.799,3.875-1.941c0.012,0.82,0.029,1.641,0.034,2.46
		c0.009,1.526,0.557,2.547,2.295,2.449c1.157-0.067,1.71-0.89,2.102-1.812c0.883-2.077-0.975-1.997-2.044-2.457
		c-0.742-0.32-1.558-0.462-2.342-0.683c-0.001-1.243-0.003-2.485-0.003-3.727c5.974,2.044,11.74,4.535,17.125,7.855
		C246.377,340.075,244.044,341.807,233.324,341.613z"/>
	<path fill-rule="evenodd" clip-rule="evenodd" fill="#D9E5E6" d="M158.407,329.625c0.54,2.972,2.942,1.95,4.676,2.052
		c3.23,0.188,5.185,1.478,5.14,4.957c-0.47-0.142-1.018-0.177-1.406-0.443c-5.127-3.511-9.435-3.476-14.477,0.164
		c-4.346,3.136-6.407,9.959-5.154,14.956c0.612,2.442,4.325,2.982,3.261,6.112c-1.96,0.154-3.983,0.076-4.322,2.855
		c-0.184,1.514-1.567,1.387-2.721,1.363c1.427-2.875,1.284-5.72,0.1-8.665C138.817,341.331,146.924,330.464,158.407,329.625z"/>
	<path fill-rule="evenodd" clip-rule="evenodd" fill="#E3EDED" d="M222.892,319.712c1.813,0.223,3.494,0.786,4.966,1.898
		C225.761,324.011,225.551,323.931,222.892,319.712z"/>
	<path fill-rule="evenodd" clip-rule="evenodd" fill="#D9E5E6" d="M467.53,160.144c1.903-2.558,3.701-2.585,4.92,0.474
		c0.649,1.632,1.697,2.292,3.012,1.492c1.654-1.007,1.103-2.601,0.117-3.894c-0.497-0.651-1.275-1.08-1.83-1.696
		c-1.791-1.985-1.984-3.545,1.218-4.048c1.239-0.195,3.023,0.396,3.277-1.452c0.267-1.942-1.427-2.343-2.912-2.795
		c-1.974-0.601-3.227-1.754-2.677-4.056c4.957,2.16,9.466,5.073,13.808,8.264c-0.899,1.09-1.586,2.586-2.74,3.195
		c-3.659,1.93-3.98,2.806-0.936,5.106c2.067,1.563,2.159,3.206,0.781,5.111c-1.479,2.041-3.229,1.521-4.623,0.019
		c-1.646-1.777-3.563-1.426-5.541-1.224c-2.084-0.319-3.963-1.106-5.607-2.434C467.71,161.516,467.621,160.83,467.53,160.144z"/>
	<path fill-rule="evenodd" clip-rule="evenodd" fill="#D9E5E6" d="M233.324,341.613c10.72,0.193,13.053-1.538,14.739-10.937
		c3.242,1.157,6.136,2.957,8.969,4.865c0.477,4.423-3.843,7.1-4.085,11.301c-0.163,2.79-2.385,3.22-4.405,2.716
		C242.867,348.141,237.742,345.517,233.324,341.613z"/>
	<path fill-rule="evenodd" clip-rule="evenodd" fill="#FAD184" d="M444.117,191.824c1.734-0.105,2.177,0.929,2.123,2.404
		C445.336,193.602,444.062,193.3,444.117,191.824z"/>
	<path fill-rule="evenodd" clip-rule="evenodd" fill="#FAD184" d="M447.018,194.782c1.447-0.073,2.256,0.554,2.263,2.061
		C448.525,196.156,447.771,195.469,447.018,194.782z"/>
	<path fill-rule="evenodd" clip-rule="evenodd" fill="#FAD184" d="M449.231,196.744c0.36,0.394,0.722,0.788,1.082,1.183
		C449.953,197.532,449.592,197.137,449.231,196.744z"/>
	<path fill-rule="evenodd" clip-rule="evenodd" fill="#D9E5E6" d="M73.958,450.393c1.317,0.035,1.928,0.663,1.68,2.008
		C74.48,452.229,73.942,451.542,73.958,450.393z"/>
	<path fill-rule="evenodd" clip-rule="evenodd" fill="#D9E5E6" d="M75.889,452.716c1.239-0.134,1.831,0.37,1.626,1.653
		C76.509,454.271,76.029,453.66,75.889,452.716z"/>
	<path fill-rule="evenodd" clip-rule="evenodd" fill="#FAD184" d="M473.404,164.64c1.978-0.202,3.896-0.553,5.541,1.224
		c1.395,1.503,3.145,2.022,4.623-0.019c1.378-1.905,1.286-3.548-0.781-5.111c-3.045-2.3-2.724-3.177,0.936-5.106
		c1.154-0.609,1.841-2.105,2.74-3.195c4.886,2.241,8.681,6.018,12.864,9.237c2.804,2.159,5.58,4.195,9.335,4.113
		c-0.226,0.766-0.335,2.134-0.693,2.202c-3.311,0.63-3.364,2.913-3.334,5.568c0.05,4.643-5.756,7.914-10.232,6.357
		c-4.203-1.463-7.174-4.677-10.035-7.464C481.017,169.178,475.806,168.9,473.404,164.64z"/>
	<path fill-rule="evenodd" clip-rule="evenodd" fill="#FAD184" d="M513.795,143.398c-0.624-0.476-1.446-0.817-1.277-1.842
		C513.836,141.551,515.227,141.496,513.795,143.398z"/>
	<path fill-rule="evenodd" clip-rule="evenodd" fill="#D9E5E6" d="M301.48,299.442c2.404-0.287,4.922,0.426,7.334-0.525
		c-0.208-2.247-4.224-1.064-3.08-3.814c1.268-3.043,4.038-4.118,7.935-3.96c-2.527-3.673-6.528-2.932-8.752-5.625
		c-1.205-1.46-0.978-2.044-0.489-3.227c8.261,3.282,15.954,7.592,23.159,12.782c-0.551,3.063-3.855,2.515-5.549,4.188
		c-1.613,1.593-3.844,2.512-0.436,4.53c1.485,0.878,2.211,2.549,1.658,4.312c-0.612,1.947-2.549,0.981-3.847,1.453
		C313.436,306.185,307.457,302.814,301.48,299.442z"/>
	<path fill-rule="evenodd" clip-rule="evenodd" fill="#FAD184" d="M289.384,295.221c2.275-0.071,4.473,0.077,6.005,2.115
		C293.345,296.753,290.239,299.18,289.384,295.221z"/>
	<path fill-rule="evenodd" clip-rule="evenodd" fill="#D9E5E6" d="M299.445,298.315c1.524-1.339,1.738-0.248,1.865,1.004
		C300.432,299.46,299.758,299.223,299.445,298.315z"/>
	<path fill-rule="evenodd" clip-rule="evenodd" fill="#FAD184" d="M282.255,358.772c0.139,0.078,0.28,0.155,0.419,0.232
		c-0.143-0.075-0.286-0.149-0.428-0.223L282.255,358.772z"/>
	<path fill-rule="evenodd" clip-rule="evenodd" fill="#985123" d="M280.715,263.236c1.121,0.04,2.06,0.065,2.255,1.081
		c0.524,2.739-3.223,3.295-3.085,5.874c-1.164-0.257-3.571,0.381-3.088-1.238C277.435,266.813,278.407,264.261,280.715,263.236z"/>
	<path fill-rule="evenodd" clip-rule="evenodd" fill="#E3EDED" d="M142.772,416.063c0.665,0.023,1.36,0.187,1.988,0.045
		c1.881-0.424,4.814,1.405,5.402-1.813c0.578-3.166-3.222-1.319-4.297-3.194c0.917-1.722,3.056-0.575,4.284-1.679
		c1.031-0.924,2.406-1.468,4.233-2.533c-2.732-0.773-4.746-1.848-3.959-4.759c7.427,1.153,14.014,4.788,21.042,7.115
		c-0.335,5.199-4.137,6.636-8.674,7.496c0.971,1.919,5.396,1.681,3.2,4.585c-1.427,1.886-3.729,0.616-5.869-0.299
		c-4.042-1.727-8.8-0.828-12.842-3.085C145.887,417.165,144.007,417.361,142.772,416.063z"/>
	<path fill-rule="evenodd" clip-rule="evenodd" fill="#985123" d="M149.393,396.021c0.695-1.249,1.552-2.279,3.16-1.612
		c0.333,0.137,0.689,0.842,0.625,1.211c-0.286,1.618-1.671,1.284-2.785,1.401l0.009,0.009c-0.338-0.338-0.676-0.677-1.015-1.016
		L149.393,396.021z"/>
	<path fill-rule="evenodd" clip-rule="evenodd" fill="#EEF5F4" d="M89.799,450.189c-9.877,0.092-14.099-3.72-13.817-12.478
		c0.148-4.562,4.099-9.099,8.859-10.172c5.039-1.136,9.37,1.122,12.313,7.054c1.996,4.023,0.818,7.59-2.504,10.737
		c-1.634,1.549-4.076,2.385-4.809,4.839C89.84,450.168,89.799,450.189,89.799,450.189z"/>
	<path fill-rule="evenodd" clip-rule="evenodd" fill="#F9FAF6" d="M295.244,223.764c-3.055-2.68-5.575-5.93-6.803-9.686
		c-1.118-3.416,3.645-11.519,7.127-13.201c1.067-0.514,2.154-0.845,2.778-1.931c1.676,0.026,3.353,0.05,5.027,0.071
		c0.309,1.802,1.654,1.733,3.004,1.657c4.635,2.313,6.925,6.737,6.034,11.826c-0.26,1.476-0.734,2.912-1.109,4.366
		c-2.654,1.246-4.576,3.23-5.879,5.839C302.129,224.009,298.961,226.522,295.244,223.764z"/>
	<path fill-rule="evenodd" clip-rule="evenodd" fill="#E3EDED" d="M305.423,222.704c1.303-2.608,3.225-4.593,5.879-5.839
		C311.818,221.304,308.268,221.65,305.423,222.704z"/>
	<path fill-rule="evenodd" clip-rule="evenodd" fill="#D9E5E6" d="M306.377,200.673c-1.35,0.077-2.695,0.146-3.004-1.657
		C304.885,198.643,305.75,199.442,306.377,200.673z"/>
	<path fill-rule="evenodd" clip-rule="evenodd" fill="#F9FAF6" d="M150.447,357.423c1.064-3.13-2.648-3.67-3.261-6.112
		c-1.253-4.997,0.809-11.82,5.154-14.956c5.042-3.64,9.35-3.675,14.477-0.164c0.388,0.267,0.936,0.302,1.406,0.443
		c0.1,0.38,0.205,0.76,0.308,1.14c0.014,1.263,0.606,2.184,1.671,2.827c2.498,10.623-5.346,15.901-12.024,18.517
		C155.482,360.173,152.558,360.099,150.447,357.423z"/>
	<path fill-rule="evenodd" clip-rule="evenodd" fill="#D9E5E6" d="M170.202,340.601c-1.064-0.644-1.657-1.564-1.671-2.827
		C170.561,337.846,170.513,339.146,170.202,340.601z"/>
	<path fill-rule="evenodd" clip-rule="evenodd" fill="#853B12" d="M149.388,396.014c0.338,0.339,0.676,0.678,1.015,1.016
		C150.064,396.691,149.726,396.353,149.388,396.014z"/>
	<path fill-rule="evenodd" clip-rule="evenodd" fill="#F9FAF6" d="M230.94,326.548c0.784,0.221,1.6,0.362,2.342,0.683
		c1.069,0.46,2.928,0.38,2.044,2.457c-0.392,0.922-0.945,1.744-2.102,1.812c-1.738,0.098-2.286-0.923-2.295-2.449
		c-0.005-0.819-0.022-1.64-0.034-2.46L230.94,326.548z"/>
</g>
</svg>
