<?xml version="1.0" encoding="utf-8"?>
<!-- Generator: Adobe Illustrator 16.0.0, SVG Export Plug-In . SVG Version: 6.00 Build 0)  -->
<!DOCTYPE svg PUBLIC "-//W3C//DTD SVG 1.1//EN" "http://www.w3.org/Graphics/SVG/1.1/DTD/svg11.dtd">
<svg version="1.1" id="Layer_1" xmlns="http://www.w3.org/2000/svg" xmlns:xlink="http://www.w3.org/1999/xlink" x="0px" y="0px"
	 width="640px" height="640px" viewBox="0 0 640 640" enable-background="new 0 0 640 640" xml:space="preserve">
<g>
	<path fill-rule="evenodd" clip-rule="evenodd" fill="#1F3C49" d="M99.811,497.49c-19.273-9.125-35.547-21.803-47.27-39.881
		c-10.463-16.135-16.497-33.568-16.381-53.034c0.189-31.785,0.038-63.572,0.176-95.358c0.029-6.883,1.798-13.508,5.253-19.491
		c1.274-2.207,0.758-3.365-0.774-4.974c-5.753-6.045-8.084-13.435-8.421-21.668c-1.103-26.851,8.023-50.608,22.205-72.713
		c19.218-29.958,45.244-52.674,75.889-70.394c31.55-18.243,65.546-29.687,101.094-37.052c33.808-7.004,67.959-9.92,102.409-8.43
		c53.851,2.33,106.067,12.241,154.965,35.92c30.095,14.576,57.641,32.858,79.617,58.519c18.825,21.983,33.036,46.409,37.71,75.452
		c2.33,14.464,2.966,28.847-7.622,40.989c-1.358,1.559-0.909,3.033-0.249,4.485c4.881,10.735,5.721,22.05,5.609,33.68
		c-0.262,27.571,0.088,55.148-0.193,82.718c-0.211,20.586-7.37,39.06-19.501,55.414c-11.71,15.79-26.526,28.067-44.787,35.861
		c-4.876,1.706-9.687,3.637-14.639,5.077c-19.897,5.79-39.81,11.533-59.771,17.101c-28.2,7.863-55.841,17.81-84.918,22.425
		c-22.56,3.58-45.156,5.002-67.79,1.498c-31.543-4.886-62.742-11.632-93.84-18.771C178.984,515.771,138.929,508.658,99.811,497.49z
		 M204.275,133.458l0.276-0.148c1.667-1.184,3.333-2.366,5-3.55c0.688-0.436,1.377-0.872,2.064-1.308
		c14.616-9.183,30.132-16.398,46.686-21.342c10.096-2.39,20.034-5.48,30.367-6.809c3.639-0.438,7.278-0.875,10.089-1.213
		c-2.816-0.17-6.492-0.99-10.131,0.295c-13.915,0.729-27.82,1.555-41.424,4.92c-1.45,0.137-2.92,0.166-4.346,0.426
		c-32.364,5.908-63.446,15.738-92.467,31.368c-36.117,19.454-66.219,45.31-84.29,83.043c-7.894,16.483-12.689,33.758-7.958,52.751
		c12.519-9.808,26.885-12.817,42.032-13.187c12.042-0.295,23.764,2.179,35.523,4.279c3.721,0.357,7.32,1.122,10.967,2.075
		c7.645,2,15.492,3.219,23.258,4.75c47.208,9.297,94.421,18.569,141.621,27.902c16.835,3.33,33.67,6.539,50.972,5.346
		c5.259,1.142,10.591,0.645,15.89,0.608c5.924-0.041,10.867,1.518,13.52,7.33c2.64,5.791,0.312,10.246-3.954,14.135
		c-5.537,3.435-11.778,1.93-17.722,2.524c-1.315-0.007-2.63-0.01-3.944-0.017c-12.967-0.136-25.985-0.002-38.767-2.462
		c-49.258-9.479-98.472-19.185-147.721-28.715c-23.837-4.615-47.477-10.358-71.609-13.317c-11.958-1.465-23.7-0.256-34.261,6.233
		c-8.207,5.042-13.219,12.133-13.212,22.217c0.027,31.958,0.006,63.913-0.062,95.87c-0.014,6.563,1.11,12.94,3.362,19.013
		c11.101,29.927,32.228,48.009,63.864,53.473c8.581,2.395,17.378,3.722,26.129,5.283c1.107,1.115,2.622,0.702,3.931,1.047
		c8.366,2.441,16.852,4.326,25.497,5.459c0.606,0.08,1.212,0.161,1.816,0.241c8.824,2.387,17.667,4.682,26.772,5.771
		c4.799,2.249,10.224,2.074,15.135,3.899c1.199,1.126,2.735,1.468,4.267,1.764c15.105,2.935,30.214,5.851,45.321,8.771
		c1.928,0.073,3.855,0.148,5.783,0.223c0.826,1.783,2.577,1.677,4.109,1.983c6.112,1.221,12.229,2.421,18.342,3.628
		c1.754,0.101,3.58-0.086,5.25,0.343c14.674,3.767,29.536,3.843,44.485,2.485c1.131,0.022,2.272,0.157,3.391,0.049
		c18.168-1.732,36.103-4.977,53.578-10.12c17.569-5.17,35.061-10.588,52.706-15.515c17.209-4.806,34.261-10.166,51.422-15.147
		c16.839-4.887,32.28-12.098,43.927-25.769c11.908-13.975,19.938-29.52,19.887-48.461c-0.086-31.134-0.474-62.277,0.183-93.396
		c0.298-14.131-12.056-24.484-23.611-26.851c-10.924-3.733-22.053-3.106-33.223-1.562c-19.862,3.384-38.366,10.377-55.197,21.442
		c-8.636,5.677-16.783,12.07-22.73,20.777l0.025-0.017c-3.131,2.592-5.674,5.617-7.012,9.528l0.259,0.203
		c-1.001-0.267-1.118,0.285-0.991,1.067l-0.013-0.057c-6.301,7.666-9.187,16.67-10.344,26.356c-0.113,4.549-0.226,9.098-0.34,13.647
		c-0.952,1.666-0.507,3.488-0.515,5.234c-0.055,13.275-0.361,26.56,0.032,39.822c0.3,10.12-4.355,15.979-15.048,15.338
		c-4.526-2.627-9.071-5.218-8.839-11.521c1.007-27.312-3.497-54.891,4.039-81.879c2.263-4.81,4.242-9.778,6.838-14.401
		c15.364-27.353,38.596-45.628,67.118-57.721c21.412-9.079,43.594-14.121,66.99-12.819c12.188,2.202,24.132,5.116,35.207,13.182
		c4.167-33.004-8.771-58.628-27.854-82.161c-10.099-14.125-23.039-25.231-37.208-35.034c-1.915-1.881-4.091-3.369-6.594-4.36
		l-0.325,0.15l0.303-0.191c-1.443-1.563-3.192-2.651-5.188-3.362c0,0-0.042-0.025-0.041-0.024
		c-12.119-8.424-25.119-15.156-38.959-20.276c-6.069-3.073-12.416-5.491-18.832-7.691c-29.359-10.066-59.573-16.27-90.406-19.461
		c-11.157-1.154-22.357-2.043-33.592-1.968c7.851,2.399,11.879,7.844,10.772,14.782c-0.933,5.854-5.687,8.568-14.199,8.553
		c-4.633-0.009-9.349-0.94-13.903,0.739c-0.405-0.649-0.872-0.552-1.367-0.114c-40.258,3.651-75.889,17.852-104.94,46.602
		c-8.968,8.876-16.987,18.721-21.987,30.438c-2.475,5.799-5.682,10.239-11.581,12.55c-2.171-0.292-4.328,0.337-6.536-0.89
		c-7.742-4.297-9.341-10.053-5.282-20.252c3.096-5.097,6.086-10.263,9.31-15.279c8.713-13.556,19.929-24.873,32.014-35.39
		c1.844-1.061,3.655-2.164,4.99-3.878l-0.053,0.049C202.375,135.39,203.372,134.49,204.275,133.458z"/>
	<path fill-rule="evenodd" clip-rule="evenodd" fill="#1F3C49" d="M99.811,497.49c39.119,11.168,79.174,18.28,118.771,27.372
		c31.099,7.14,62.297,13.886,93.84,18.771c22.633,3.504,45.23,2.082,67.79-1.498c29.077-4.615,56.718-14.562,84.918-22.425
		c19.961-5.567,39.873-11.311,59.771-17.101c4.952-1.44,9.763-3.371,14.639-5.077c6.695,1.988,13.497,3.68,20.058,6.043
		c7.789,2.807,16.102,4.689,22.059,11.264c3.922,4.327,3.185,8.798-1.962,11.913c-11.971,7.24-25.103,11.419-38.557,14.622
		c-10.332,2.46-20.778,4.677-31.008,7.338c-18.768,4.884-37.917,7.014-56.927,10.083c-11.419,1.846-23.124,1.835-34.635,3.217
		c-21.231,2.545-42.568,2.133-63.853,3.12c-17.823,0.827-35.634,0.98-53.394,0.416c-12.127-0.386-24.31,0.283-36.357-0.857
		c-14.755-1.397-29.569-1.393-44.337-3.328c-15.134-1.981-30.37-3.614-45.546-5.434c-13.57-1.628-26.964-4.691-40.486-6.788
		c-13.246-2.053-26.235-5.352-39.011-9.104c-10.99-3.227-22.447-5.878-32.094-12.741c-0.262-0.186-0.596-0.27-0.859-0.451
		c-2.868-1.996-6.036-4.689-5.43-8.004c0.762-4.161,4.589-7.049,8.401-8.816c10.649-4.94,21.154-10.415,33.134-11.621
		C99.12,498.363,99.453,497.806,99.811,497.49z"/>
	<path fill-rule="evenodd" clip-rule="evenodd" fill="#FBFBF0" d="M362.517,303.056c-17.302,1.193-34.137-2.016-50.972-5.346
		c-47.2-9.333-94.414-18.605-141.621-27.902c-7.767-1.531-15.614-2.75-23.258-4.75c-3.647-0.953-7.247-1.717-10.967-2.075
		c-3.211-3.86-7.903-4.632-12.268-4.528c-5.235,0.127-7.134-5.955-12.168-5.509c-0.018,0.001-0.141-0.57-0.122-0.868
		c0.242-3.969-3.038-5.478-5.495-7.252c-2.247-1.622-3.324-3.354-3.025-6.026c4.339,0.219,7.958,1.339,9.89,5.919
		c0.933,2.217,3.437,4.692,5.178,1.047c1.006-2.106,3.508-4.523,1.771-7.596c-0.504-0.891-0.13-2.421,0.751-2.508
		c3.86-0.376,4.548-4.738,6.998-5.806c5.1-2.221,5.358-7.086,7.166-10.848c1.458-3.035,1.099-7.17,5.942-6.387
		c3.496,0.565,6.361-2.041,9.651-1.294c0.953,0.217,1.721,1.725,2.809,0.419c0.725-0.87,0.028-1.817-0.327-2.709
		c-2.139-5.396-1.62-10.97-1.153-16.558c0.2-2.404,1.759-2.331,3.461-2.194c-4.059,10.199-2.459,15.955,5.282,20.252
		c2.208,1.227,4.365,0.598,6.536,0.89c0.441,0.198,0.958,0.654,1.311,0.551c3.134-0.917,9.082,3.031,8.391-4.755
		c-0.029-0.323,1.251-1.021,1.968-1.093c0.996-0.103,1.115,0.863,1.288,1.672c0.371,1.748,0.707,3.572,3.068,3.678
		c2.098,0.094,12.492-6.733,12.976-8.851c1.027-4.5,4.213-6.048,8.261-6.652c-1.645,6.165-8.439,9.796-8.308,16.852
		c0.003,0.178-0.475,0.391-0.752,0.54c-8.797,4.706-7.51,12.998-7.356,20.85c0.014,0.694,0.668,1.947,1.085,1.972
		c3.996,0.246,7.142,3.356,10.341,3.996c4.086,0.817,10.264,3.775,13.565-2.764c0.227-0.448,1.469-0.541,2.237-0.529
		c4.165,0.066,6.08-1.597,4.985-5.964c-0.161-0.644,0.363-1.499,0.671-2.212c2.432-5.626,7.927-9.751,8.063-16.521
		c0.011-0.581,0.498-1.19,0.858-1.721c3.494-5.146,11.922-6.734,14.917-2.578c1.604,2.224,3.575,3.559,5.81,4.904
		c2.686,1.619,6.667,2.508,4.949,7.371c-0.393,1.113,1.313,0.988,2.213,1.113c-1.191,3.174-2.436,6.329-3.559,9.526
		c-2.602,7.406,0.152,14.119,6.878,16.911c5.954,2.473,12.066-0.7,15.305-8.106c1.937-4.424,3.29-9.137,5.528-13.392
		c13.293-25.262,31.587-46.098,55.682-61.59c16.006-10.291,33.106-18.126,51.841-22.064c1.657,1.622,3.248,0.581,4.846-0.124
		c1.067,0.307,2.116,0.732,3.206,0.892c1.377,0.199,3.724-1.823,3.922,0.725c0.179,2.299-2.514,0.966-3.877,1.384
		c-4.26,1.305-9.454,0.799-10.75,7.079c-0.341,1.655-2.956,2.737-5.311,2.605c-2.52-0.142-4.474,1.115-6.535,2.836
		c5.067,2.188,9.58,5.427,14.666,1.124c0.231-0.196,1.125,0.389,1.711,0.61c-19.484,12.306-36.396,27.451-50.197,45.936
		c-9.519,12.744-17.971,26.137-21.928,41.789c-1.778,7.035,2.09,13.606,8.419,15.297c5.769,1.541,11.999-2.281,14.127-8.921
		c1.383-4.313,3.038-8.482,5.084-12.515c9.598-18.904,22.984-34.735,39.298-48.123c16.964-13.921,35.779-24.339,57.373-29.183
		c7.974-1.79,10.706-4.707,11.269-12.713c1.313,2.566,2.804,5.016,5.043,6.888c3.773,3.15,6.621,7.091,8.599,11.464
		c1.33,2.94,2.99,5.074,5.912,6.277c-8.629,2.139-17.07,4.778-25.224,8.41c-18.858,8.399-34.424,21.05-47.738,36.614
		c-3.298,3.855-6.15,8.219-4.898,13.651c1.14,4.938,4.362,8.186,9.459,9.335c5.443,1.227,9.532-1.068,12.616-5.233
		c5.823-7.862,12.548-14.782,20.423-20.586c13.744-10.131,28.733-17.313,45.884-19.37c-2.116,2.289-1.935,5.389-2.832,8.104
		c-5.876,17.786-17.145,32.057-29.878,45.249c-10.222,10.588-21.896,19.5-34.544,27.031c-15.326,9.122-31.318,16.702-48.932,20.447
		C365.998,299.978,362.676,299.335,362.517,303.056z M150.096,219.325c-0.6-1.574-1.66-2.702-3.486-2.809
		c-1.386-0.081-2.125,0.666-2.037,2.066c0.133,2.072,1.496,2.692,3.327,2.669C149.125,221.236,150.196,221.004,150.096,219.325z
		 M161.361,213.627c-0.864,0.125-1.746,0.52-1.916,1.561c-0.172,1.079,0.479,1.823,1.564,1.835c1.086,0.014,1.63-0.783,1.763-1.795
		C162.893,214.3,162.376,213.804,161.361,213.627z M116.87,250.427c-0.477,0.393-0.803,0.664-1.13,0.934
		c0.294,0.298,0.573,0.813,0.89,0.836c0.337,0.027,0.708-0.411,1.066-0.645C117.451,251.218,117.205,250.884,116.87,250.427z
		 M155.412,219.937c0.11-0.261,0.368-0.58,0.293-0.77c-0.072-0.185-0.479-0.241-0.739-0.354c-0.113,0.26-0.37,0.579-0.297,0.766
		C154.744,219.767,155.148,219.824,155.412,219.937z"/>
	<path fill-rule="evenodd" clip-rule="evenodd" fill="#EABE89" d="M157.963,486.279c-1.312-0.347-2.826,0.066-3.933-1.049
		c-1.624-1.886-3.513-3.014-6.17-3.004c-6.82,0.024-12.823-3.022-19.083-5.178c-1.537-0.53-2.536-3.246-4.771-1.504
		c-3.272-0.597-5.091-3.479-7.8-4.96c0.276-2.38,2.664-4.126,1.999-6.807c-0.221-0.885,0.261-2.085-0.883-2.524
		c-1.019-0.39-1.937,0.255-2.512,1.017c-0.822,1.091-1.154,3.062-3.119,1.831c-1.285-0.805-3.088-1.354-3.114-3.366
		c-0.027-2.195,1.943-1.699,3.133-2.272c1.722-0.829,3.107-2.341,3.029-4.091c-0.113-2.533-2.554-0.952-3.852-1.52
		c-2.382-1.043-6.053-1.425-4.527-5.281c1.141-2.886-0.58-9.433,6.626-6.432c1.372,0.572,3.66-0.208,3.751,2.056
		c0.08,1.97-1.835,1.854-3.269,1.966c-1.172,0.093-2.452,0.294-2.559,1.674c-0.111,1.45,1.379,1.911,2.35,1.954
		c2.437,0.107,4.067,1.164,5.802,2.852c1.753,1.705,3.952,2.029,3.987-1.647c0.01-0.968-0.07-1.946,0.024-2.907
		c0.168-1.724-0.881-4.105,0.64-5.024c1.941-1.171,2.733,1.587,4.138,2.454c2.72,1.686,5.351,3.516,8.035,5.26
		c1.736,1.129,3.092,4.58,5.471,2.448c2.598-2.329,7.992-2.568,7.003-8.058c5.313-4.548,6.011-10.543,5.903-17.094
		c-0.231-14.086-0.056-28.179-0.046-42.269c3.605-0.169,4.618,2.104,5.15,5.139c0.237,1.344,0.97,3.026,2.962,2.291
		c1.437-0.53,1.745-1.789,1.242-3.218c-0.426-1.205-1.022-2.41,0.006-3.628c1.651-0.537,1.281,3.145,3.196,1.612
		c0.801-0.642,1.596-1.922,1.544-2.865c-0.104-1.908-1.987-1.012-3.087-1.383c-2.007-0.677-4.002-1.258-6.146-0.453
		c-1.21,0.455-1.839-0.186-1.846-1.401c-0.006-1.146,0.702-2.14,1.749-1.665c2.816,1.276,5.376-0.437,8.078-0.409
		c1.983,0.02,3.967-1.458,5.764,0.716c1.364,1.65,3.113,3.319,5.377,1.763c2.162-1.485,1.185-3.694,0.672-5.755
		c-0.554-2.222-0.894-4.53,1.18-6.285c2.726-2.308,2.235,2.867,4.397,1.922c0.003,10.689,0.005,21.381,0.008,32.072
		c-2.095,6.882-1.006,13.854-0.537,20.801c0.018,0.247,0.794,0.44,1.218,0.661c0.057,6.81,0.115,13.619,0.171,20.43
		c-0.118,0.094-0.352,0.229-0.336,0.278c0.083,0.242,0.232,0.463,0.357,0.691c0.234,0.427,0.451,0.862,0.702,1.277
		c4.626,7.663,9.947,10.234,17.058,8.25c6.907-1.928,9.529-6.135,9.552-15.352c0.042-16.218,0.079-32.437,0.118-48.655
		c2.135,0.143,2.835-0.985,2.805-2.968c-0.025-1.613,0.875-3.091,2.354-3.307c2.124-0.312,1.469,2.06,2.216,3.129
		c0.336,0.479,0.242,1.254,0.368,1.888c0.168,0.849,0.62,1.603,1.477,1.722c1.039,0.146,1.233-0.801,1.469-1.566
		c0.283-0.925,0.276-2.125,0.875-2.733c2.355-2.392,1.488-7.291,6.112-7.861c1.516-0.186,3.871,0.445,3.887-1.716
		c0.015-1.962-2.346-0.823-3.558-1.334c-0.383-0.161-0.708-0.459-1.247-0.817c0.914-1.249,2.167-0.802,3.141-1.121
		c1.224-0.402,2.376-1.028,3.603-1.422c4.917-1.571,6.495-0.442,6.499,4.676c0.012,25.274,0.006,50.548,0.008,75.822
		c0.001,8.093,5.845,14.084,14.068,14.471c2.005,0.094,3.624-0.174,3.475-2.745c0.961-0.065,1.923-0.129,2.885-0.195
		c1.72,1.616,3.936,1.561,5.117-0.008c1.634-2.165,4.354-4.31,2.683-7.75c1.199-4.579,0.914-9.257,0.921-13.914
		c0.026-17.1,0.044-34.196,0.066-51.297c2.436,0.328,1.843,2.266,1.945,3.771c0.09,1.333,0.856,2.018,1.959,2.496
		c0.833,0.363,2.06,0.258,2.09-0.452c0.167-3.764,4.153-5.907,3.81-9.981c-0.334-3.976,6.627-13.024,10.298-14.073
		c1.304-0.372,2.594-0.396,3.523,0.814c0.458,0.599,0.339,1.342-0.327,1.627c-3.438,1.479-1.132,5.05-2.674,7.261
		c-0.484,0.693-0.28,1.97,0.902,2.389c1.072,0.382,1.817-0.313,2.542-0.98c1.521-1.401,1.136-3.252,1.229-5.004
		c0.075-1.388-0.327-3.142,1.856-3.291c1.857-0.127,2.049,1.269,2.019,2.613c-0.036,1.557,1.361,2.105,2.01,3.171
		c-0.339,1.569-0.973,3.138-0.977,4.71c-0.057,25.427-0.152,50.857,0.047,76.284c0.055,6.887,7.227,13.376,13.71,13.28
		c6.843-0.102,14.404-6.861,14.323-13.321c-0.324-26.041,1.139-52.104-0.854-78.126c0.629-0.103,1.811-0.213,1.81-0.305
		c-0.112-7.006,5.955-5.261,9.612-7.151c2.848-1.472,4.665-1.483,6.751,0.781c0.928,1.009,2.83,2.742,3.481,1.149
		c1.728-4.229,5.674-2.86,8.479-4.219c0.209,14.242-1.157,28.437-1.109,42.693c0.045,13.259,1.526,26.524-1.611,39.826
		c-3.718,15.753-11.903,27.658-25.649,36.048c-11.119,6.786-23.235,8.846-36.024,9.022c-9.726,0.133-19.375-0.919-29.073-1.03
		c-9.516,1.396-18.559-1.675-27.649-3.392c-23.046-4.353-46.246-7.891-69.166-12.947
		C165.666,485.457,161.715,483.976,157.963,486.279z M332.318,400.37c-0.131-0.071-0.261-0.142-0.392-0.213
		c0.128,0.073,0.258,0.145,0.387,0.218c0.222,2.071-0.505,4.304,1.31,7.566C333.939,404.316,335.915,401.873,332.318,400.37z
		 M183.026,445.88c-0.261-0.111-0.579-0.367-0.769-0.293c-0.185,0.072-0.241,0.48-0.354,0.739c0.26,0.112,0.579,0.37,0.765,0.296
		C182.856,446.548,182.913,446.144,183.026,445.88z"/>
	<path fill-rule="evenodd" clip-rule="evenodd" fill="#E9D2B6" d="M473.667,175.898c-2.922-1.203-4.582-3.337-5.912-6.277
		c-1.978-4.374-4.825-8.314-8.599-11.464c-2.239-1.872-3.73-4.322-5.043-6.888c-1.156-4.487-4.154-7.467-7.992-9.761
		c1.202-0.901,0.521-1.556-0.267-2.245c-4.448-3.891-8.798-7.813-13.949-10.905c-8.262-4.961-17.45-8.037-25.605-13.147
		c14.293,0.448,28.062,3.76,41.743,7.584c6.192,1.73,11.842,5.408,18.579,5.183c2.097,5.32,8.139,4.379,12.011,7.162
		c3.722,2.675,8.952,4.355,13.737,5.907c4.671,1.515,7.758,6.363,13.197,6.225c0,0,0.042,0.025,0.04,0.025
		c1.049,2.172,2.003,4.49,5.19,3.362l-0.303,0.191c0,0,0.325-0.15,0.321-0.146c1.126,3.08,2.829,5.286,6.598,4.356
		c14.169,9.803,27.109,20.91,37.206,35.033c0.124,0.772,0.128,1.593,0.402,2.313c6.376,16.741,6.748,33.331-0.011,50.211
		c-2.275,5.684-6.84,10.205-7.742,16.456c-23.396-1.301-45.578,3.74-66.99,12.819c-28.522,12.093-51.754,30.368-67.118,57.721
		c-2.596,4.623-4.575,9.592-6.838,14.401c0.226-1.942-0.745-3.443-1.955-4.75c-1.842-1.988-3.981-3.72-5.7-5.803
		c-2.967-3.596-5.91-7.116-10.696-8.334c4.266-3.889,6.594-8.344,3.954-14.135c-2.652-5.812-7.596-7.371-13.52-7.33
		c-5.299,0.037-10.631,0.534-15.89-0.608c0.159-3.721,3.481-3.078,5.486-3.504c17.613-3.745,33.605-11.325,48.932-20.447
		c12.648-7.53,24.322-16.442,34.544-27.031c12.733-13.192,24.002-27.463,29.878-45.249c0.897-2.716,0.716-5.816,2.834-8.104
		c1.767-1.125,3.769-0.685,5.667-0.79c7.83-0.436,12.961-5.045,12.858-11.657c-0.11-7.05-5.207-11.688-13.136-11.962
		C484.204,174.127,478.964,175.283,473.667,175.898z"/>
	<path fill-rule="evenodd" clip-rule="evenodd" fill="#E7B57E" d="M387.972,325.129c4.786,1.218,7.729,4.738,10.696,8.334
		c1.719,2.083,3.858,3.814,5.7,5.803c1.21,1.307,2.181,2.808,1.955,4.75c-7.536,26.988-3.032,54.567-4.039,81.879
		c-0.232,6.303,4.313,8.894,8.839,11.521c-1.143,2.265-2.216,1.458-3.648,0.14c-1.54-1.417-2.609-3.598-5.593-4.044
		c0.967,13.907,0.807,27.453-1.368,40.904c-2.664,7.071-5.065,14.268-9.688,20.409c-0.999,0.973-1.997,1.943-2.996,2.916
		c-4.124-0.247-8.024,1.185-11.815,2.272c-18.634,5.343-37.604,8.487-56.935,9.24c-9.832,0.384-19.678-0.002-29.524-0.742
		c-7.885-0.594-15.673-1.564-23.42-3.036c-1.24-0.94-1.403-1.898-0.048-2.883c9.698,0.111,19.347,1.163,29.073,1.03
		c12.789-0.177,24.905-2.236,36.024-9.022c13.746-8.39,21.932-20.295,25.649-36.048c3.138-13.302,1.656-26.567,1.611-39.826
		c-0.048-14.257,1.318-28.451,1.109-42.693c0.307-5.511-0.754-11.104,0.995-16.528c-0.298-3.453,0.945-6.669,1.471-9.997
		c1.131-7.136,3.961-13.925,4.239-21.223l0.066-0.053c1.351,0.099,2.733,0.406,3.924-0.578
		C376.193,327.059,382.435,328.563,387.972,325.129z"/>
	<path fill-rule="evenodd" clip-rule="evenodd" fill="#FBF7E8" d="M257.115,221.284c-0.9-0.125-2.605,0-2.213-1.113
		c1.719-4.863-2.263-5.752-4.949-7.371c-2.234-1.346-4.206-2.68-5.81-4.904c-2.996-4.157-11.423-2.568-14.917,2.578
		c-0.36,0.531-0.847,1.141-0.858,1.721c-0.136,6.77-5.631,10.895-8.063,16.521c-0.308,0.713-0.833,1.569-0.671,2.212
		c1.095,4.367-0.82,6.03-4.985,5.964c-0.768-0.012-2.01,0.081-2.237,0.529c-3.301,6.54-9.479,3.582-13.565,2.764
		c-3.2-0.64-6.345-3.75-10.341-3.996c-0.417-0.025-1.071-1.278-1.085-1.972c-0.154-7.852-1.441-16.145,7.356-20.85
		c0.277-0.149,0.755-0.362,0.752-0.54c-0.132-7.055,6.663-10.687,8.308-16.852c1.224-2.896,2.501-5.608,5.803-6.917
		c2.931-1.162,1.324-4.708,3.004-6.75c4.228-5.137,8.602-10.257,13.249-14.884c8.634-8.595,17.403-17.166,27.578-24.124
		c5.005-3.423,8.413-9.306,15.014-10.237c3.571-0.504,4.2-5.201,7.626-5.106c6.27,0.174,12.028-2.669,18.432-2.376
		c3.341,0.153,7.894-0.121,10.538-3.746c0.496-0.438,0.962-0.535,1.367,0.114c4.481,0.203,8.838,0.152,13.337,1.662
		c7.209,2.419,15.104-3.125,16.387-10.812c0.504-3.021,2.516-2.324,4.338-2.475c13.754-1.129,26.995,1.2,39.933,5.789
		c1.334,0.473,2.572,0.601,2.309,2.364c-0.226,1.508-1.456,1.547-2.605,1.559c-3.078,0.03-6.167,0.166-9.235-0.013
		c-2.832-0.165-3.845,1.066-3.563,3.715c-1.482,0.625-2.933,1.352-4.454,1.856c-17.184,5.695-32.974,14.145-47.459,24.881
		C290.157,169.213,270.62,192.792,257.115,221.284z"/>
	<path fill-rule="evenodd" clip-rule="evenodd" fill="#F9FBF9" d="M116.205,470.585c2.709,1.48,4.528,4.363,7.8,4.959
		c-0.794,3.319,3.814,1.859,3.896,4.403c-31.636-5.464-52.764-23.546-63.864-53.473c-2.252-6.072-3.376-12.45-3.362-19.013
		c0.068-31.957,0.089-63.912,0.062-95.87c-0.007-10.084,5.005-17.176,13.212-22.217c10.561-6.489,22.304-7.698,34.261-6.233
		c24.132,2.959,47.772,8.703,71.609,13.317c49.249,9.53,98.462,19.237,147.721,28.715c12.781,2.46,25.8,2.326,38.767,2.462
		c-0.038,0.199-0.031,0.396,0.021,0.595c0,0-0.066,0.053-0.063,0.053c-6.266,0.005-12.425-0.214-18.66,1.707
		c-7.82,2.408-15.928,3.584-24.294,3.358c-12.73-0.343-25.147-2.452-37.56-4.965c-14.956-3.028-29.948-5.874-44.924-8.801
		c-0.461-0.802-1.189-0.945-2.025-0.813c-0.612-0.03-1.224-0.061-1.836-0.091c-9.747-1.96-19.486-3.948-29.238-5.875
		c-19.228-3.797-38.467-7.529-57.69-11.348c-15.025-2.985-29.908-5.248-44.111,3.408c-2.398,1.46-4.263,3.471-6.166,5.215
		c-3.848,3.531-8.648,6.632-9.817,12.397c-5.297,8.873-8.379,18.35-7.814,28.813c0.575,10.637-0.921,21.234-0.165,31.92
		c0.719,10.158,0.152,20.405,0.218,30.614c0.011,1.722-0.525,3.601,0.886,5.104c0.098,2.259-0.152,4.596,0.35,6.762
		c3.809,16.438,12.715,29.771,25.528,40.51C111.045,467.962,112.803,470.783,116.205,470.585z"/>
	<path fill-rule="evenodd" clip-rule="evenodd" fill="#B55C3A" d="M387.83,497.74c0.999-0.973,1.997-1.943,2.996-2.916
		c22.096-6.563,44.216-13.046,66.281-19.711c20.534-6.202,40.995-12.648,61.523-18.876c5.488-1.664,11.127-2.892,16.067,1.548
		c2.815,2.532,4.856,1.771,7.304-0.797c13.453-14.117,21.114-30.539,21.035-50.323c-0.102-24.814-0.209-49.633,0.053-74.444
		c0.139-13.155-3.439-24.443-13.76-33.09c0.028-1.797,1.58-2.624,2.432-3.903c1.965-2.958,4.699-5.598,4.457-9.594
		c11.556,2.367,23.909,12.72,23.611,26.851c-0.656,31.119-0.269,62.262-0.183,93.396c0.052,18.941-7.979,34.486-19.887,48.461
		c-11.646,13.671-27.088,20.882-43.927,25.769c-17.161,4.981-34.213,10.342-51.422,15.147
		c-17.646,4.927-35.137,10.345-52.706,15.515c-17.476,5.144-35.41,8.388-53.578,10.12c-1.118,0.108-2.26-0.026-3.391-0.048
		c6.878-1.359,13.091-4.119,18.557-8.575C378.637,507.915,384.512,504.113,387.83,497.74z"/>
	<path fill-rule="evenodd" clip-rule="evenodd" fill="#F9FBF9" d="M102.621,238.8c-0.299,2.671,0.778,4.404,3.025,6.026
		c2.458,1.774,5.737,3.283,5.495,7.252c-0.019,0.298,0.104,0.869,0.122,0.868c5.034-0.446,6.933,5.636,12.168,5.509
		c4.364-0.104,9.056,0.668,12.268,4.528c-11.76-2.1-23.481-4.574-35.523-4.279c-15.147,0.37-29.513,3.379-42.032,13.187
		c-4.732-18.994,0.063-36.269,7.958-52.751c18.071-37.733,48.173-63.589,84.29-83.043c29.021-15.63,60.103-25.459,92.467-31.368
		c1.426-0.26,2.896-0.289,4.346-0.426c2.72,0.048,5.437,0.162,8.151,0.123c1.915-0.028,3.141,0.497,2.948,2.684
		c-16.554,4.944-32.069,12.159-46.686,21.342c-0.296-4.845-1.55-5.652-5.816-3.455c-1.058,0.545-2.261,0.484-3.139,0.982
		c-4.118,2.336-9.282,0.508-12.929,2.541c-5.42,3.02-10.213,6.783-16.669,7.936c-5.362,0.957-8.463,6.631-13.955,8.001
		c-9.642,2.404-14.377,12.958-24.365,14.925c-0.404,0.08-0.827,0.983-0.918,1.555c-0.306,1.902-1.994,2.454-3.205,3.433
		c-5.191,4.192-10.204,8.512-12.7,14.997c-0.205,0.533-0.817,1.124-1.36,1.285c-5.636,1.671-5.605,8.224-9.896,11.248
		c-5.157,3.632-3.218,10.857-7.576,15.751c-5.699,6.401-0.474,15.24-1.652,22.994C96.976,233.665,99.65,236.839,102.621,238.8z"/>
	<path fill-rule="evenodd" clip-rule="evenodd" fill="#D08851" d="M556.219,285.634c0.242,3.996-2.492,6.636-4.457,9.594
		c-0.852,1.28-2.403,2.106-2.432,3.903c-0.952,0.072-1.985-0.06-2.621,0.902c-3.386,5.119-8.412,8.653-12.721,12.85
		c-3.541,3.448-7.573,6.467-12.085,8.807c-13.811,7.165-28.849,11.021-43.338,16.346c-5.427,1.995-10.798,3.712-14.822,8.473
		c-4.474,5.289-5.857,11.264-5.861,17.841c-0.015,26.734,0.095,53.47-0.134,80.2c-0.034,3.957,2.911,9.718-4.329,11.125
		c-1.938,6.067-7.519,4.988-11.981,6.102c-0.775-4.562,0.85-8.949,0.948-13.484c0.516-23.302-1.511-46.562-1.001-69.853
		c0.304-13.857,0.852-27.729,7.73-40.355c7.309-10.752,17.281-18.291,29.276-22.834c17.566-6.656,32.172-17.304,44.603-31.179
		C534.166,282.527,545.295,281.9,556.219,285.634z"/>
	<path fill-rule="evenodd" clip-rule="evenodd" fill="#FBF7E8" d="M102.621,238.8c-2.971-1.96-5.645-5.135-5.186-8.154
		c1.179-7.754-4.047-16.593,1.652-22.994c4.358-4.895,2.419-12.12,7.576-15.751c4.292-3.024,4.261-9.576,9.896-11.248
		c0.542-0.161,1.155-0.752,1.36-1.285c2.497-6.485,7.509-10.804,12.7-14.997c1.211-0.979,2.899-1.531,3.205-3.433
		c0.091-0.571,0.514-1.475,0.918-1.555c9.988-1.967,14.723-12.521,24.365-14.925c5.491-1.37,8.592-7.044,13.955-8.001
		c6.456-1.153,11.249-4.916,16.669-7.936c3.647-2.033,8.812-0.205,12.929-2.541c0.878-0.498,2.081-0.437,3.139-0.982
		c4.266-2.198,5.52-1.39,5.816,3.455c-0.687,0.436-1.376,0.872-2.064,1.308c-2.516-0.013-4.721,0.409-5,3.55
		c0,0-0.276,0.148-0.276,0.147c-2.461-1.147-3.098,0.26-3.258,2.331l0.053-0.049c-2.938-0.346-5.286,0.064-4.99,3.878
		c-12.085,10.518-23.301,21.834-32.014,35.39c-3.224,5.016-6.214,10.182-9.31,15.279c-1.702-0.137-3.261-0.21-3.461,2.194
		c-0.466,5.587-0.986,11.161,1.153,16.558c0.355,0.892,1.052,1.84,0.327,2.709c-1.087,1.305-1.855-0.203-2.809-0.419
		c-3.29-0.747-6.155,1.859-9.651,1.294c-4.844-0.783-4.485,3.352-5.942,6.387c-1.807,3.762-2.066,8.627-7.166,10.848
		c-2.45,1.067-3.138,5.429-6.998,5.806c-0.882,0.087-1.256,1.617-0.751,2.508c1.737,3.073-0.764,5.49-1.771,7.596
		c-1.741,3.645-4.246,1.17-5.178-1.047C110.579,240.139,106.96,239.019,102.621,238.8z"/>
	<path fill-rule="evenodd" clip-rule="evenodd" fill="#D89B60" d="M449.115,338.083c-6.879,12.626-7.427,26.498-7.73,40.355
		c-0.51,23.291,1.517,46.551,1.001,69.853c-0.099,4.535-1.724,8.923-0.949,13.483c-0.911,1.885-2.885,1.966-4.507,2.523
		c-3.633,1.25-7.288,2.478-11.007,3.428c-8.485,2.174-16.426,6.425-25.409,6.689c2.175-13.451,2.335-26.997,1.368-40.904
		c2.983,0.446,4.053,2.627,5.593,4.044c1.433,1.318,2.506,2.125,3.648-0.14c10.692,0.641,15.348-5.218,15.048-15.338
		c-0.394-13.263-0.087-26.547-0.032-39.822c0.008-1.746-0.438-3.568,0.515-5.235c0,17.137,0,34.273,0,51.41
		c0.389,0,0.777,0.002,1.165,0.002c0-21.021,0-42.041,0-63.063c3.563-1.88,1.231-5.184,1.823-7.779
		c0.375-1.645-0.362-3.622,2.372-3.946c3.956-0.466,3.409-3.537,3.404-6.293c-0.002-1.136-2.11-1.739-0.945-2.864
		c1.169-1.131,2.278-0.032,3.371,0.747c1.128,0.807,2.52,1.043,3.205-0.609c0.508-1.228,0.041-2.329-1.362-2.568
		c-3.29-0.564-1.822-3.247-2.35-5.039l0.013,0.057c0.329-0.356,0.66-0.712,0.991-1.067c0,0-0.259-0.203-0.256-0.198
		C441.879,336.01,444.764,340.61,449.115,338.083z"/>
	<path fill-rule="evenodd" clip-rule="evenodd" fill="#F9FBF9" d="M305.083,121.837c-2.644,3.625-7.197,3.899-10.538,3.746
		c-6.404-0.293-12.163,2.55-18.432,2.376c-3.427-0.095-4.055,4.602-7.626,5.106c-6.602,0.931-10.009,6.814-15.014,10.237
		c-10.175,6.958-18.944,15.529-27.578,24.124c-4.647,4.627-9.021,9.747-13.249,14.884c-1.68,2.042-0.073,5.587-3.004,6.75
		c-3.302,1.309-4.579,4.021-5.803,6.917c-4.048,0.604-7.234,2.152-8.261,6.652c-0.484,2.118-10.878,8.945-12.976,8.851
		c-2.361-0.105-2.697-1.93-3.068-3.678c-0.172-0.809-0.292-1.774-1.288-1.672c-0.717,0.072-1.998,0.77-1.968,1.093
		c0.69,7.786-5.257,3.837-8.391,4.755c-0.352,0.103-0.87-0.354-1.311-0.551c5.899-2.312,9.106-6.751,11.581-12.55
		c5-11.716,13.019-21.561,21.987-30.438C229.193,139.688,264.824,125.488,305.083,121.837z"/>
	<path fill-rule="evenodd" clip-rule="evenodd" fill="#F9FBF9" d="M367.35,123.739c-0.282-2.649,0.73-3.879,3.563-3.715
		c3.068,0.179,6.157,0.043,9.235,0.013c1.149-0.011,2.38-0.051,2.605-1.559c0.264-1.763-0.975-1.891-2.309-2.364
		c-12.938-4.589-26.179-6.918-39.933-5.789c-1.822,0.151-3.834-0.546-4.338,2.475c-1.282,7.687-9.178,13.231-16.387,10.812
		c-4.499-1.509-8.856-1.458-13.337-1.662c4.554-1.679,9.27-0.748,13.903-0.739c8.513,0.015,13.267-2.699,14.199-8.553
		c1.106-6.938-2.922-12.383-10.772-14.782c11.234-0.075,22.435,0.814,33.592,1.968c30.833,3.191,61.047,9.395,90.406,19.461
		c6.416,2.2,12.763,4.618,18.832,7.691c0.004,0.327,0.009,0.654,0.013,0.981c-6.737,0.225-12.387-3.453-18.579-5.183
		c-13.682-3.824-27.45-7.136-41.743-7.584c-1.021-1.146-2.763-1.569-3.241-0.296c-0.773,2.041,0.904,4.312,2.593,4.563
		c7.543,1.119,12.364,7.571,19.539,9.439c-2.982,1.18-6.68,1.982-8.713,0.226c-4.261-3.682-8.939-3.161-13.745-3.269
		c-1.504-0.033-3.324,0.635-4.198-1.466c-0.475-1.141-1.02-2.821-2.659-1.512c-1.142,0.914-1.808,2.639-0.931,3.963
		c1.021,1.546,1.866,2.983,1.616,4.876c-0.708,2.018,1.799,5.466-2.598,5.843c3.554-9.77-5.163-18.195-15.889-16.401
		C374.457,121.781,370.921,122.871,367.35,123.739z"/>
	<path fill-rule="evenodd" clip-rule="evenodd" fill="#D89B60" d="M547.27,259.074c0.902-6.251,5.467-10.772,7.742-16.456
		c6.759-16.881,6.387-33.47,0.011-50.211c-0.274-0.72-0.278-1.541-0.402-2.313c19.086,23.534,32.023,49.158,27.856,82.162
		C571.401,264.19,559.457,261.276,547.27,259.074z"/>
	<path fill-rule="evenodd" clip-rule="evenodd" fill="#D08851" d="M387.83,497.74c-3.318,6.373-9.193,10.175-14.536,14.529
		c-5.466,4.456-11.679,7.216-18.557,8.575c-14.949,1.356-29.812,1.28-44.485-2.486c-1.669-0.429-3.496-0.242-5.248-0.343
		c-0.322-2.415-2.573-1.988-4.028-2.653c-5.856-2.682-12.307-1.808-18.424-2.958c-1.928-0.074-3.855-0.149-5.781-0.223
		c-0.706-2.698-3.16-2.28-5.053-2.758c-3.944-0.995-7.75-2.493-12.432-2.369c2.498-3.068,4.98,0.287,6.851-1.58
		c7.747,1.472,15.535,2.442,23.42,3.036c9.846,0.74,19.692,1.126,29.524,0.742c19.33-0.753,38.301-3.897,56.935-9.24
		C379.806,498.925,383.706,497.493,387.83,497.74z"/>
	<path fill-rule="evenodd" clip-rule="evenodd" fill="#E7B57E" d="M449.115,338.083c-4.352,2.527-7.236-2.073-11.03-2.275
		c1.335-3.916,3.878-6.941,7.011-9.533c0.359,1.05-0.259,2.41,1.051,3.532c1.241-1.956,1.159-3.093-1.078-3.516
		c5.947-8.707,14.095-15.1,22.73-20.777c16.831-11.065,35.335-18.058,55.197-21.443c-12.433,13.874-27.038,24.521-44.604,31.177
		C466.396,319.792,456.424,327.331,449.115,338.083z"/>
	<path fill-rule="evenodd" clip-rule="evenodd" fill="#D89B60" d="M266.136,505.475c-1.871,1.867-4.354-1.488-6.851,1.58
		c4.683-0.124,8.488,1.374,12.432,2.369c1.894,0.478,4.347,0.06,5.053,2.758c-15.108-2.92-30.217-5.836-45.322-8.771
		c-1.532-0.296-3.068-0.638-4.267-1.764c-0.119-0.803-0.313-1.682-1.223-1.813c-4.64-0.679-9.047-2.927-13.912-2.086
		c-9.104-1.089-17.948-3.384-26.773-5.771c0.281-0.322,0.616-0.731-0.005-0.945c-0.73-0.252-1.384,0.008-1.81,0.704
		c-8.646-1.133-17.131-3.018-25.496-5.458c3.753-2.303,7.704-0.821,11.311-0.025c22.919,5.057,46.119,8.595,69.166,12.947
		c9.091,1.717,18.133,4.788,27.649,3.392C264.733,503.576,264.896,504.534,266.136,505.475z"/>
	<path fill-rule="evenodd" clip-rule="evenodd" fill="#D8E8E7" d="M258.301,107.11c0.193-2.188-1.033-2.712-2.948-2.684
		c-2.714,0.039-5.432-0.075-8.151-0.123c13.604-3.365,27.509-4.191,41.423-4.92c-0.074,0.311-0.057,0.616,0.043,0.918
		C278.335,101.63,268.397,104.72,258.301,107.11z"/>
	<path fill-rule="evenodd" clip-rule="evenodd" fill="#D8E8E7" d="M466.622,127.978c-0.004-0.327-0.009-0.654-0.013-0.981
		c13.84,5.12,26.84,11.853,38.959,20.275c-5.44,0.138-8.527-4.71-13.198-6.225c-4.785-1.551-10.016-3.231-13.737-5.907
		C474.761,132.357,468.719,133.298,466.622,127.978z"/>
	<path fill-rule="evenodd" clip-rule="evenodd" fill="#E7B57E" d="M437.337,337.017c0.527,1.792-0.94,4.475,2.35,5.039
		c1.403,0.239,1.87,1.341,1.362,2.568c-0.686,1.652-2.077,1.416-3.205,0.609c-1.093-0.779-2.202-1.878-3.371-0.747
		c-1.165,1.125,0.943,1.729,0.945,2.864c0.005,2.756,0.552,5.827-3.404,6.293c-2.734,0.324-1.997,2.302-2.372,3.946
		c-0.592,2.596,1.739,5.899-1.825,7.779c-0.274-0.665-0.549-1.331-0.823-1.996C428.15,353.687,431.036,344.683,437.337,337.017z"/>
	<path fill-rule="evenodd" clip-rule="evenodd" fill="#FBE5C4" d="M127.901,479.947c-0.081-2.544-4.69-1.084-3.896-4.403
		c2.235-1.741,3.234,0.975,4.771,1.505c6.261,2.155,12.264,5.202,19.083,5.178c2.657-0.01,4.547,1.118,6.17,3.004
		C145.279,483.669,136.482,482.342,127.901,479.947z"/>
	<path fill-rule="evenodd" clip-rule="evenodd" fill="#E9D2B6" d="M426.993,363.373c0.274,0.665,0.549,1.331,0.823,1.996
		c0.002,21.021,0.002,42.042,0.002,63.063c-0.388,0-0.776-0.002-1.165-0.002c0-17.137,0-34.273,0-51.41
		C426.768,372.471,426.88,367.922,426.993,363.373z"/>
	<path fill-rule="evenodd" clip-rule="evenodd" fill="#D89B60" d="M282.552,512.404c6.117,1.15,12.568,0.276,18.424,2.958
		c1.455,0.665,3.706,0.238,4.028,2.653c-6.115-1.207-12.231-2.407-18.343-3.628C285.128,514.081,283.378,514.188,282.552,512.404z"
		/>
	<path fill-rule="evenodd" clip-rule="evenodd" fill="#E7B57E" d="M212.046,497.748c4.864-0.841,9.272,1.407,13.912,2.086
		c0.91,0.132,1.104,1.011,1.223,1.813C222.27,499.822,216.846,499.997,212.046,497.748z"/>
	<path fill-rule="evenodd" clip-rule="evenodd" fill="#E9D2B6" d="M288.668,100.301c-0.1-0.302-0.117-0.607-0.043-0.918
		c3.641-1.285,7.316-0.465,10.132-0.295C295.946,99.427,292.307,99.864,288.668,100.301z"/>
	<path fill-rule="evenodd" clip-rule="evenodd" fill="#D8E8E7" d="M517.414,155.061c-3.769,0.93-5.472-1.276-6.598-4.356
		C513.323,151.692,515.499,153.18,517.414,155.061z"/>
	<path fill-rule="evenodd" clip-rule="evenodd" fill="#F9FBF9" d="M196.081,139.616c-0.296-3.813,2.052-4.224,4.99-3.878
		C199.736,137.453,197.925,138.555,196.081,139.616z"/>
	<path fill-rule="evenodd" clip-rule="evenodd" fill="#D8E8E7" d="M510.798,150.66c-3.188,1.128-4.142-1.19-5.19-3.362
		C507.605,148.008,509.354,149.097,510.798,150.66z"/>
	<path fill-rule="evenodd" clip-rule="evenodd" fill="#F9FBF9" d="M204.552,133.31c0.279-3.141,2.484-3.563,5-3.55
		C207.885,130.944,206.218,132.126,204.552,133.31z"/>
	<path fill-rule="evenodd" clip-rule="evenodd" fill="#F9FBF9" d="M201.017,135.788c0.161-2.071,0.797-3.478,3.258-2.331
		C203.372,134.49,202.375,135.39,201.017,135.788z"/>
	<path fill-rule="evenodd" clip-rule="evenodd" fill="#F4D3A7" d="M366.326,328.231c-0.052-0.198-0.059-0.396-0.021-0.595
		c1.314,0.007,2.629,0.01,3.944,0.017C369.06,328.638,367.677,328.33,366.326,328.231z"/>
	<path fill-rule="evenodd" clip-rule="evenodd" fill="#EABE89" d="M183.458,491.736c0.426-0.696,1.08-0.956,1.81-0.704
		c0.621,0.214,0.286,0.623,0.005,0.945C184.67,491.897,184.064,491.816,183.458,491.736z"/>
	<path fill-rule="evenodd" clip-rule="evenodd" fill="#E7B57E" d="M438.341,336.006c-0.331,0.355-0.662,0.711-0.991,1.067
		C437.223,336.291,437.34,335.739,438.341,336.006z"/>
	<path fill-rule="evenodd" clip-rule="evenodd" fill="#1F3C49" d="M367.35,123.739c3.571-0.868,7.107-1.958,10.725-2.563
		c10.726-1.794,19.442,6.631,15.889,16.401c-0.293,0.204-0.425,0.484-0.395,0.839c-1.593,1.385-3.185,2.769-4.777,4.154
		c-18.734,3.938-35.835,11.773-51.841,22.064c-24.095,15.492-42.389,36.328-55.682,61.59c-2.238,4.254-3.592,8.967-5.528,13.392
		c-3.239,7.406-9.352,10.579-15.305,8.106c-6.726-2.792-9.48-9.505-6.878-16.911c1.123-3.198,2.367-6.352,3.559-9.526
		c13.505-28.492,33.042-52.071,58.321-70.807c14.485-10.737,30.275-19.186,47.459-24.881
		C364.417,125.091,365.867,124.364,367.35,123.739z"/>
	<path fill-rule="evenodd" clip-rule="evenodd" fill="#1F3C49" d="M446.121,141.508c3.838,2.294,6.836,5.273,7.992,9.761
		c-0.563,8.006-3.295,10.923-11.269,12.713c-21.594,4.844-40.409,15.261-57.373,29.183c-16.313,13.388-29.7,29.219-39.298,48.123
		c-2.046,4.033-3.701,8.202-5.084,12.515c-2.128,6.64-8.358,10.462-14.127,8.921c-6.329-1.691-10.197-8.262-8.419-15.297
		c3.957-15.651,12.409-29.044,21.928-41.789c13.801-18.484,30.713-33.63,50.196-45.936c9.017-5.021,18.134-9.938,27.931-13.183
		C427.476,143.582,436.161,138.795,446.121,141.508z"/>
	<path fill-rule="evenodd" clip-rule="evenodd" fill="#1F3C49" d="M473.667,175.898c5.297-0.616,10.537-1.771,15.913-1.587
		c7.929,0.274,13.025,4.913,13.136,11.962c0.103,6.612-5.028,11.221-12.858,11.657c-1.898,0.105-3.9-0.334-5.667,0.79
		c-17.152,2.057-32.142,9.239-45.886,19.37c-7.875,5.804-14.6,12.724-20.423,20.586c-3.084,4.165-7.173,6.459-12.616,5.233
		c-5.097-1.149-8.319-4.398-9.459-9.335c-1.252-5.433,1.601-9.796,4.898-13.651c13.314-15.564,28.88-28.215,47.738-36.614
		C456.597,180.676,465.038,178.038,473.667,175.898z"/>
	<path fill-rule="evenodd" clip-rule="evenodd" fill="#FBF7E8" d="M446.121,141.508c-9.96-2.713-18.646,2.073-27.522,5.011
		c-9.797,3.245-18.914,8.162-27.931,13.183c-0.585-0.221-1.479-0.806-1.71-0.61c-5.086,4.303-9.599,1.064-14.666-1.124
		c2.062-1.721,4.016-2.978,6.535-2.836c2.354,0.132,4.97-0.95,5.311-2.605c1.296-6.28,6.49-5.774,10.75-7.079
		c1.363-0.418,4.056,0.915,3.877-1.384c-0.198-2.547-2.545-0.526-3.922-0.725c-1.09-0.16-2.139-0.585-3.206-0.892
		c0.319-0.333,0.639-0.667,0.958-1c2.89-0.712,3.644-3.466,4.644-5.575c0.862-1.815,0.625-4.319-2.677-4.137
		c0.249-1.893-0.596-3.33-1.617-4.876c-0.877-1.324-0.211-3.049,0.931-3.963c1.64-1.309,2.185,0.371,2.659,1.512
		c0.874,2.102,2.694,1.434,4.198,1.466c4.806,0.108,9.484-0.413,13.745,3.269c2.033,1.756,5.73,0.954,8.713-0.226
		c-7.175-1.868-11.996-8.32-19.539-9.439c-1.688-0.251-3.366-2.522-2.593-4.563c0.479-1.272,2.22-0.85,3.241,0.296
		c8.155,5.11,17.344,8.186,25.605,13.147c5.151,3.092,9.501,7.015,13.949,10.905C446.642,139.952,447.323,140.607,446.121,141.508z"
		/>
	<path fill-rule="evenodd" clip-rule="evenodd" fill="#FBF7E8" d="M150.096,219.325c0.1,1.679-0.971,1.911-2.196,1.926
		c-1.831,0.023-3.193-0.597-3.327-2.669c-0.089-1.4,0.65-2.147,2.037-2.066C148.436,216.623,149.496,217.75,150.096,219.325z"/>
	<path fill-rule="evenodd" clip-rule="evenodd" fill="#F9FBF9" d="M394.595,141.446c-0.319,0.333-0.639,0.667-0.958,1
		c-1.598,0.705-3.188,1.746-4.846,0.124c1.593-1.385,3.185-2.769,4.777-4.154C393.91,139.425,394.253,140.436,394.595,141.446z"/>
	<path fill-rule="evenodd" clip-rule="evenodd" fill="#FBF7E8" d="M161.361,213.627c1.015,0.177,1.532,0.673,1.411,1.602
		c-0.133,1.012-0.677,1.809-1.763,1.795c-1.085-0.013-1.736-0.757-1.564-1.835C159.615,214.146,160.497,213.752,161.361,213.627z"/>
	<path fill-rule="evenodd" clip-rule="evenodd" fill="#FBF7E8" d="M116.87,250.427c0.335,0.457,0.581,0.791,0.825,1.125
		c-0.357,0.234-0.729,0.672-1.066,0.645c-0.317-0.024-0.596-0.539-0.89-0.836C116.067,251.091,116.394,250.82,116.87,250.427z"/>
	<path fill-rule="evenodd" clip-rule="evenodd" fill="#FBF7E8" d="M155.411,219.937c-0.263-0.113-0.667-0.17-0.742-0.357
		c-0.073-0.187,0.184-0.506,0.297-0.766c0.26,0.113,0.667,0.168,0.739,0.354C155.78,219.357,155.522,219.676,155.411,219.937z"/>
	<path fill-rule="evenodd" clip-rule="evenodd" fill="#ECC391" d="M116.205,470.585c-3.402,0.198-5.16-2.623-7.261-4.385
		c-12.813-10.739-21.719-24.071-25.528-40.51c-0.502-2.166-0.252-4.503-0.349-6.762c0-19.377,0-38.754,0-58.13
		c0.301-0.004,0.602-0.01,0.902-0.015c0.117,2.129,0.233,4.259,0.351,6.39c-1.878-7.762,5.334-14.966,1.423-22.874
		c2.07,0.571,3.882,1.157,5.735,1.565c4.135,0.912,4.604,2.07,1.99,5.249c1.867,1.3,2.955-0.103,4.14-1.173
		c1.07-0.964,2.11-2.71,3.222-2.757c6.201-0.266,9.278-5.391,13.446-8.587c2.022-1.55,2.929-2.521,5.518-1.315
		c3.399,1.586,6.196,0.149,6.746-3.623c0.383-2.629,1.712-4.798,2.359-7.253c6.245-6.002,15.487-5.551,20.437-1.954
		c5.044,7.495,3.356,16.542,5.338,24.961c4.41-3.751,4.405-3.732,9.993-2.267c0.735,0.192,1.601-0.084,2.319,0.138
		c4.533,1.4,8.654-2.025,12.918-1.277c4.273,0.749,5.69-0.626,6.865-4.593c2.568-8.675,13.278-10.995,20.503-5.459
		c4.967,3.808,5.058,8.81,4.646,13.743c-0.257,3.075,0.99,4.779,2.802,6.085c1.774,1.278,4.218,1.797,5.769-0.931
		c0.189-0.333,0.972-0.74,1.066-0.655c2.017,1.826,5.48,0.255,7.123,3.23c0.736,1.333,2.617,1.458,3.982,0.694
		c3.814-2.131,7.436-1.234,11.073,0.385c1.239,2.934,2.327,7.468,5.381,7.287c5.141-0.306,10.324,0.066,15.421-0.595
		c3.469-0.451,4.153-3.039,1.674-5.691c-1.156-1.236-2.709-2.916-1.644-4.131c3.083-3.504,0.195-6.368-0.39-9.483
		c0.458,0.131,1.08,0.113,1.346,0.413c3.077,3.488,5.451,8.25,11.58,5.709c0.701-0.291,1.809,0.598,2.748,0.662
		c7.176,0.502,14.167,3.035,21.48,1.981c3.095-0.448,4.058,1.097,3.736,3.897c-0.208,3.834-2.249,7.253-2.042,11.275
		c0.355,6.873,0.295,7.085,6.993,7.229c-2.28,1.963-4.561,3.926-6.842,5.889c-0.649-1.065-2.045-1.614-2.01-3.171
		c0.03-1.345-0.162-2.74-2.019-2.613c-2.184,0.149-1.782,1.903-1.856,3.291c-0.094,1.752,0.292,3.603-1.229,5.004
		c-0.725,0.668-1.47,1.362-2.542,0.98c-1.183-0.419-1.387-1.695-0.902-2.389c1.542-2.211-0.764-5.781,2.674-7.261
		c0.667-0.285,0.786-1.028,0.327-1.627c-0.929-1.21-2.219-1.187-3.523-0.814c-3.671,1.049-10.633,10.098-10.298,14.073
		c0.344,4.074-3.642,6.218-3.81,9.981c-0.03,0.71-1.257,0.815-2.09,0.452c-1.103-0.479-1.869-1.163-1.959-2.496
		c-0.103-1.505,0.49-3.442-1.945-3.771c-0.019-4.214,0.104-8.436-0.086-12.643c-0.336-7.419-7.034-12.891-15.332-12.708
		c-7.581,0.168-12.784,5.277-12.8,12.844c-0.05,23.83-0.08,47.663,0.028,71.493c0.03,6.744,6.709,16.064,16.518,14.178
		c0.148,2.571-1.47,2.839-3.475,2.745c-8.224-0.387-14.067-6.378-14.068-14.471c-0.001-25.274,0.004-50.548-0.008-75.822
		c-0.003-5.118-1.582-6.247-6.499-4.676c-1.227,0.394-2.379,1.02-3.603,1.422c-0.974,0.319-2.227-0.128-3.141,1.121
		c0.539,0.358,0.864,0.656,1.247,0.817c1.211,0.511,3.573-0.628,3.558,1.334c-0.017,2.161-2.372,1.53-3.887,1.716
		c-4.625,0.57-3.757,5.47-6.112,7.861c-0.599,0.608-0.593,1.809-0.875,2.733c-0.236,0.766-0.43,1.713-1.469,1.566
		c-0.857-0.119-1.308-0.873-1.477-1.722c-0.125-0.634-0.032-1.408-0.368-1.888c-0.748-1.069-0.092-3.44-2.216-3.129
		c-1.479,0.216-2.379,1.693-2.354,3.307c0.03,1.982-0.669,3.11-2.806,2.968c-0.058-7.434,0.016-14.87-0.208-22.297
		c-0.227-7.556-6.219-13.867-13.158-13.496c-8.139,0.437-14.767,5.157-14.083,12.676c0.089,0.97-0.045,1.947-0.862,2.663
		c-2.162,0.945-1.671-4.229-4.397-1.922c-2.073,1.755-1.734,4.063-1.18,6.285c0.513,2.061,1.49,4.27-0.672,5.755
		c-2.265,1.557-4.014-0.112-5.377-1.763c-1.797-2.174-3.78-0.696-5.764-0.716c-2.702-0.027-5.262,1.686-8.078,0.409
		c-1.047-0.475-1.755,0.519-1.749,1.665c0.007,1.216,0.636,1.856,1.846,1.401c2.143-0.805,4.138-0.224,6.146,0.453
		c1.1,0.371,2.983-0.525,3.087,1.383c0.052,0.943-0.743,2.224-1.544,2.865c-1.915,1.532-1.545-2.149-3.196-1.612
		c-1.029,1.218-0.432,2.423-0.006,3.628c0.503,1.429,0.195,2.688-1.242,3.218c-1.992,0.735-2.725-0.947-2.962-2.291
		c-0.532-3.034-1.545-5.308-5.15-5.139c-0.427-9.507,0.897-19.089-0.99-28.524c-1.584-7.927-6.949-11.243-14.558-11.241
		c-6.64,0.003-12.672,5.982-12.686,12.223c-0.06,25.237-0.017,50.474,0.015,75.711c0.004,3.173,1.005,5.918,3.338,8.269
		c5.449,5.491,10.47,6.34,19.022,2.926c0.988,5.489-4.405,5.729-7.003,8.058c-2.379,2.132-3.735-1.319-5.471-2.448
		c-2.684-1.744-5.315-3.574-8.035-5.26c-1.404-0.867-2.196-3.625-4.138-2.454c-1.521,0.919-0.472,3.301-0.64,5.024
		c-0.094,0.961-0.014,1.939-0.024,2.907c-0.036,3.677-2.234,3.353-3.987,1.647c-1.735-1.688-3.365-2.744-5.802-2.852
		c-0.971-0.043-2.461-0.504-2.35-1.954c0.106-1.38,1.387-1.581,2.559-1.674c1.434-0.112,3.349,0.004,3.269-1.966
		c-0.091-2.264-2.379-1.483-3.751-2.056c-7.206-3.001-5.485,3.546-6.626,6.432c-1.526,3.856,2.145,4.238,4.527,5.281
		c1.298,0.567,3.739-1.014,3.852,1.52c0.079,1.75-1.307,3.262-3.029,4.091c-1.19,0.573-3.16,0.077-3.133,2.272
		c0.025,2.013,1.829,2.562,3.114,3.366c1.964,1.23,2.296-0.74,3.119-1.831c0.576-0.762,1.493-1.406,2.512-1.017
		c1.144,0.439,0.663,1.64,0.883,2.524C118.869,466.459,116.481,468.205,116.205,470.585z M279.417,383.65
		c-0.408-1.279-1.327-1.88-2.564-1.561c-1.006,0.262-2.605,0.503-2.295,1.893c0.292,1.314,1.765,1.741,3.115,1.584
		C278.726,385.443,279.394,384.792,279.417,383.65z"/>
	<path fill-rule="evenodd" clip-rule="evenodd" fill="#FBE5C4" d="M148.358,444.166c-8.552,3.414-13.573,2.565-19.022-2.926
		c-2.333-2.351-3.334-5.096-3.338-8.269c-0.032-25.237-0.075-50.474-0.015-75.711c0.014-6.24,6.046-12.22,12.686-12.223
		c7.609-0.002,12.974,3.314,14.558,11.241c1.887,9.436,0.563,19.018,0.99,28.524c-0.01,14.09-0.185,28.183,0.046,42.269
		C154.369,433.623,153.671,439.618,148.358,444.166z"/>
	<path fill-rule="evenodd" clip-rule="evenodd" fill="#FBE5C4" d="M303.172,382.949c2.281-1.963,4.563-3.926,6.841-5.889
		c4.18,0.125,8.43-0.657,12.488,0.988c2.741,2.186,5.035,4.773,6.92,7.728c1.992,26.022,0.529,52.085,0.854,78.126
		c0.081,6.46-7.48,13.22-14.323,13.321c-6.483,0.096-13.655-6.394-13.71-13.28c-0.199-25.427-0.104-50.857-0.047-76.284
		C302.199,386.087,302.833,384.519,303.172,382.949z"/>
	<path fill-rule="evenodd" clip-rule="evenodd" fill="#FBE5C4" d="M260.316,465.754c-9.809,1.887-16.488-7.434-16.518-14.178
		c-0.108-23.83-0.078-47.663-0.028-71.493c0.016-7.566,5.219-12.676,12.8-12.844c8.298-0.183,14.996,5.289,15.332,12.708
		c0.19,4.207,0.067,8.429,0.086,12.643c-0.021,17.101-0.04,34.197-0.066,51.297c-0.008,4.657,0.277,9.335-0.921,13.914
		c-1.999,3.189-4.367,6.009-7.8,7.758C262.239,465.625,261.277,465.688,260.316,465.754z"/>
	<path fill-rule="evenodd" clip-rule="evenodd" fill="#FBE5C4" d="M184.454,371.184c0.816-0.716,0.951-1.693,0.862-2.663
		c-0.684-7.519,5.944-12.239,14.083-12.676c6.939-0.371,12.931,5.94,13.158,13.496c0.223,7.427,0.149,14.863,0.208,22.297
		c-0.038,16.219-0.075,32.438-0.116,48.655c-0.023,9.217-2.645,13.424-9.552,15.352c-7.111,1.984-12.432-0.587-17.058-8.25
		c-0.251-0.415-0.468-0.851-0.702-1.276c0.029-0.324,0.023-0.649-0.021-0.971c-0.056-6.811-0.114-13.62-0.17-20.43
		c-0.118-7.157,1.089-14.357-0.682-21.462C184.459,392.564,184.457,381.873,184.454,371.184z"/>
	<path fill-rule="evenodd" clip-rule="evenodd" fill="#ECC391" d="M329.422,385.776c-1.885-2.954-4.179-5.542-6.919-7.728
		c6.121-3.889,7.902-12.203,3.977-18.565c11.357-0.57,22.711,4.666,34.07,0.021c-1.749,5.424-0.688,11.018-0.995,16.528
		c-2.805,1.358-6.751-0.01-8.479,4.219c-0.651,1.593-2.554-0.141-3.481-1.149c-2.086-2.265-3.903-2.253-6.751-0.781
		c-3.657,1.891-9.725,0.146-9.612,7.151C331.232,385.563,330.051,385.674,329.422,385.776z"/>
	<path fill-rule="evenodd" clip-rule="evenodd" fill="#ECC391" d="M184.462,403.256c1.771,7.104,0.564,14.305,0.682,21.462
		c-0.424-0.221-1.201-0.414-1.219-0.661C183.456,417.11,182.367,410.138,184.462,403.256z"/>
	<path fill-rule="evenodd" clip-rule="evenodd" fill="#ECC391" d="M263.201,465.559c3.433-1.749,5.802-4.568,7.8-7.758
		c1.671,3.44-1.049,5.585-2.683,7.75C267.137,467.119,264.921,467.175,263.201,465.559z"/>
	<path fill-rule="evenodd" clip-rule="evenodd" fill="#ECC391" d="M332.318,400.37c3.597,1.503,1.621,3.946,1.305,7.571
		c-1.814-3.263-1.088-5.495-1.31-7.566L332.318,400.37z"/>
	<path fill-rule="evenodd" clip-rule="evenodd" fill="#ECC391" d="M183.027,445.881c-0.114,0.263-0.171,0.667-0.359,0.741
		c-0.186,0.074-0.505-0.184-0.765-0.296c0.113-0.259,0.168-0.667,0.354-0.739C182.447,445.513,182.765,445.769,183.027,445.881z"/>
	<path fill-rule="evenodd" clip-rule="evenodd" fill="#ECC391" d="M332.313,400.375c-0.129-0.073-0.259-0.145-0.387-0.218
		c0.131,0.071,0.261,0.142,0.392,0.213L332.313,400.375z"/>
	<path fill-rule="evenodd" clip-rule="evenodd" fill="#ECC391" d="M185.313,445.147c0.044,0.321,0.051,0.646,0.021,0.971
		c-0.125-0.229-0.275-0.45-0.357-0.692C184.961,445.377,185.196,445.241,185.313,445.147z"/>
	<path fill-rule="evenodd" clip-rule="evenodd" fill="#C67243" d="M400.514,474.415c8.983-0.265,16.924-4.516,25.409-6.689
		c3.719-0.95,7.374-2.178,11.007-3.428c1.622-0.558,3.596-0.639,4.507-2.523c4.464-1.112,10.044-0.033,11.982-6.101
		c7.24-1.407,4.295-7.168,4.329-11.125c0.229-26.73,0.119-53.466,0.134-80.2c0.004-6.577,1.388-12.552,5.861-17.841
		c4.024-4.761,9.396-6.478,14.822-8.473c14.489-5.325,29.527-9.181,43.338-16.346c4.512-2.34,8.544-5.358,12.085-8.807
		c4.309-4.196,9.335-7.731,12.721-12.85c0.636-0.962,1.669-0.83,2.621-0.902c10.32,8.647,13.898,19.935,13.76,33.09
		c-0.262,24.812-0.154,49.63-0.053,74.444c0.079,19.784-7.582,36.206-21.035,50.323c-2.447,2.568-4.488,3.329-7.304,0.797
		c-4.94-4.439-10.579-3.212-16.067-1.548c-20.528,6.228-40.989,12.674-61.523,18.876c-22.065,6.665-44.186,13.148-66.281,19.711
		C395.448,488.683,397.85,481.486,400.514,474.415z M512.379,397.437c0-13.291-0.049-26.581,0.034-39.872
		c0.021-3.244-0.887-4.658-4.283-3.313c-1.477,0.584-3.069,1.206-4.508,1.515c-3.93,0.841-6.94,3.922-11.289,3.82
		c-7.165-0.168-10.125,3.116-10.125,10.363c-0.007,20.908-0.005,41.816-0.005,62.724c0,4.376,0.047,8.752-0.008,13.128
		c-0.032,2.514,1.023,4.105,3.465,2.811c5.85-3.106,13.254-1.259,18.546-6.005c0.405-0.365,1.239-0.368,1.868-0.352
		c5.158,0.132,6.498-2.567,6.396-7.381C512.208,422.398,512.383,409.916,512.379,397.437z"/>
	<path fill-rule="evenodd" clip-rule="evenodd" fill="#F4D3A7" d="M360.55,359.504c-11.359,4.646-22.713-0.591-34.07-0.021
		c-2.99-3.481-6.649-4.968-11.362-5.009c-4.142-0.035-6.779,2.575-10.054,4.082c0.322-2.801-0.642-4.346-3.736-3.897
		c-7.313,1.054-14.304-1.479-21.48-1.981c-0.939-0.064-2.046-0.953-2.748-0.662c-6.128,2.541-8.502-2.221-11.58-5.709
		c-0.266-0.3-0.888-0.282-1.346-0.414c-10.77-5.568-18.782,0.166-20.442,12.614c-3.637-1.619-7.258-2.516-11.073-0.385
		c-1.365,0.764-3.246,0.639-3.982-0.694c-1.643-2.976-5.106-1.404-7.123-3.23c-0.094-0.085-0.877,0.322-1.066,0.655
		c-1.551,2.728-3.994,2.209-5.769,0.931c-1.813-1.306-3.06-3.01-2.802-6.085c0.412-4.934,0.321-9.936-4.646-13.743
		c-7.225-5.536-17.935-3.216-20.503,5.459c-1.175,3.967-2.591,5.342-6.865,4.593c-4.264-0.748-8.385,2.678-12.918,1.277
		c-0.719-0.222-1.584,0.055-2.319-0.138c-5.587-1.466-5.583-1.484-9.993,2.267c-1.982-8.419-0.294-17.466-5.338-24.961
		c2.323-1.021,6.213,3.398,7.301-2.127c0.13-0.66,1.076-0.274,1.709-0.15c5.276,1.035,10.571,1.172,15.913,0.442
		c1.729-0.236,3.622-0.549,5.209,0.542c3.703,2.548,7.553,2.546,12.047,2.689c7.554,0.238,15.097-0.801,22.589,0.004
		c2.46,0.265,2.321-0.867,2.396-2.379l-0.015,0.016c6.101-2.576,12.458-3.484,19.05-3.085c0.87,0.053,1.241-0.901,1.428-1.725
		c0.612,0.031,1.224,0.061,1.836,0.09c0.312,1.171,0.65,2.279,2.025,0.814c14.976,2.927,29.968,5.772,44.924,8.801
		c12.413,2.513,24.83,4.622,37.56,4.965c8.366,0.226,16.474-0.95,24.294-3.358c6.235-1.921,12.395-1.702,18.66-1.707
		c-0.281,7.298-3.111,14.087-4.242,21.223C361.495,352.835,360.252,356.051,360.55,359.504z"/>
	<path fill-rule="evenodd" clip-rule="evenodd" fill="#FBE5C4" d="M216.5,323.474c-0.075,1.512,0.064,2.644-2.396,2.379
		c-7.492-0.805-15.035,0.234-22.589-0.004c-4.494-0.144-8.344-0.142-12.047-2.689c-1.587-1.091-3.48-0.778-5.209-0.542
		c-5.342,0.729-10.637,0.593-15.913-0.442c-0.633-0.124-1.579-0.51-1.709,0.15c-1.088,5.525-4.978,1.105-7.301,2.127
		c-4.95-3.597-14.191-4.048-20.437,1.954c-2.127-0.081-3.653-1.657-5.763-2.121c-5.074-1.117-11.264,2.697-15.302-3.337
		c-0.511-0.762-1.741-0.044-2.627,0.424c-4.915,2.606-9.953,3.869-15.267,1.104c1.168-5.765,5.969-8.867,9.817-12.397
		c1.902-1.744,3.768-3.755,6.166-5.215c14.203-8.656,29.085-6.393,44.111-3.408c19.223,3.818,38.462,7.551,57.69,11.348
		c9.752,1.927,19.491,3.915,29.238,5.875c-0.188,0.824-0.559,1.778-1.428,1.725c-6.593-0.399-12.95,0.509-19.05,3.085
		c-0.09-0.617-0.085-1.326-0.898-1.444c-0.157-0.022-0.553,0.374-0.53,0.53C215.176,323.39,215.883,323.384,216.5,323.474z"/>
	<path fill-rule="evenodd" clip-rule="evenodd" fill="#F4D3A7" d="M89.942,322.477c5.314,2.765,10.352,1.502,15.267-1.104
		c0.886-0.469,2.116-1.186,2.627-0.424c4.038,6.035,10.228,2.22,15.302,3.337c2.11,0.464,3.636,2.04,5.763,2.121
		c-0.646,2.455-1.976,4.624-2.359,7.253c-0.55,3.772-3.347,5.209-6.746,3.623c-2.589-1.206-3.496-0.234-5.518,1.315
		c-4.168,3.196-7.245,8.321-13.446,8.587c-1.111,0.047-2.152,1.793-3.222,2.757c-1.185,1.07-2.273,2.473-4.14,1.173
		c2.614-3.179,2.146-4.337-1.99-5.249c-1.853-0.408-3.665-0.994-5.735-1.565c3.911,7.908-3.301,15.112-1.423,22.874
		c-0.118-2.131-0.234-4.261-0.351-6.39c-0.3,0.005-0.602,0.011-0.902,0.015c0,19.376,0,38.753,0,58.13
		c-1.412-1.504-0.875-3.383-0.887-5.104c-0.066-10.209,0.5-20.456-0.218-30.614c-0.756-10.686,0.74-21.283,0.165-31.92
		C81.563,340.826,84.645,331.35,89.942,322.477z M90.856,325.584c-0.329,0.644-0.706,1.043-0.655,1.38
		c0.048,0.332,0.526,0.604,0.816,0.899c0.238-0.35,0.654-0.696,0.661-1.052C91.684,326.482,91.254,326.144,90.856,325.584z"/>
	<path fill-rule="evenodd" clip-rule="evenodd" fill="#FBE5C4" d="M240.825,319.584c-1.375,1.465-1.713,0.356-2.025-0.814
		C239.636,318.639,240.364,318.782,240.825,319.584z"/>
	<path fill-rule="evenodd" clip-rule="evenodd" fill="#FBFBF0" d="M394.595,141.446c-0.342-1.01-0.685-2.021-1.026-3.03
		c-0.03-0.355,0.102-0.635,0.395-0.839c4.396-0.376,1.89-3.825,2.598-5.843c3.303-0.182,3.54,2.322,2.678,4.137
		C398.238,137.98,397.484,140.734,394.595,141.446z"/>
	<path fill-rule="evenodd" clip-rule="evenodd" fill="#D89B60" d="M445.068,326.291c2.237,0.423,2.319,1.56,1.078,3.516
		c-1.31-1.122-0.691-2.482-1.051-3.532C445.094,326.274,445.068,326.291,445.068,326.291z"/>
	<path fill-rule="evenodd" clip-rule="evenodd" fill="#EABE89" d="M305.063,358.557c3.274-1.507,5.912-4.117,10.054-4.082
		c4.713,0.041,8.372,1.527,11.362,5.009c3.926,6.362,2.145,14.677-3.977,18.565c-4.059-1.646-8.31-0.863-12.489-0.988
		c-6.697-0.144-6.637-0.355-6.992-7.229C302.815,365.81,304.855,362.391,305.063,358.557z"/>
	<path fill-rule="evenodd" clip-rule="evenodd" fill="#EABE89" d="M243.732,358.507c1.66-12.448,9.672-18.183,20.442-12.614
		c0.585,3.116,3.473,5.98,0.39,9.484c-1.065,1.215,0.488,2.895,1.644,4.131c2.479,2.652,1.794,5.24-1.674,5.691
		c-5.097,0.661-10.28,0.289-15.421,0.595C246.059,365.975,244.972,361.44,243.732,358.507z"/>
	<path fill-rule="evenodd" clip-rule="evenodd" fill="#EABE89" d="M279.417,383.65c-0.023,1.142-0.691,1.793-1.744,1.916
		c-1.35,0.157-2.823-0.27-3.115-1.584c-0.311-1.39,1.289-1.631,2.295-1.893C278.089,381.771,279.008,382.371,279.417,383.65z"/>
	<path fill-rule="evenodd" clip-rule="evenodd" fill="#D08851" d="M512.381,397.437c0.002,12.479-0.173,24.962,0.09,37.438
		c0.102,4.813-1.238,7.513-6.396,7.381c-0.629-0.017-1.463-0.014-1.868,0.352c-5.292,4.746-12.696,2.898-18.546,6.005
		c-2.441,1.295-3.497-0.297-3.465-2.811c0.055-4.376,0.008-8.752,0.008-13.128c0-20.907-0.002-41.815,0.005-62.724
		c0-7.247,2.96-10.531,10.125-10.363c4.349,0.102,7.359-2.979,11.289-3.82c1.438-0.309,3.031-0.931,4.508-1.515
		c3.396-1.345,4.304,0.069,4.283,3.313C512.33,370.855,512.379,384.146,512.381,397.437z"/>
	<path fill-rule="evenodd" clip-rule="evenodd" fill="#F4D3A7" d="M216.5,323.474c-0.617-0.09-1.324-0.084-1.443-0.898
		c-0.023-0.156,0.373-0.553,0.53-0.53c0.813,0.118,0.808,0.827,0.898,1.444L216.5,323.474z"/>
	<path fill-rule="evenodd" clip-rule="evenodd" fill="#FBE5C4" d="M90.856,325.584c0.398,0.56,0.828,0.898,0.821,1.228
		c-0.006,0.355-0.422,0.702-0.661,1.052c-0.29-0.296-0.768-0.567-0.816-0.899C90.15,326.627,90.527,326.228,90.856,325.584z"/>
</g>
</svg>
