<?xml version="1.0" encoding="utf-8"?>
<!-- Generator: Adobe Illustrator 16.0.0, SVG Export Plug-In . SVG Version: 6.00 Build 0)  -->
<!DOCTYPE svg PUBLIC "-//W3C//DTD SVG 1.1//EN" "http://www.w3.org/Graphics/SVG/1.1/DTD/svg11.dtd">
<svg version="1.1" id="Layer_1" xmlns="http://www.w3.org/2000/svg" xmlns:xlink="http://www.w3.org/1999/xlink" x="0px" y="0px"
	 width="640px" height="640px" viewBox="0 0 640 640" enable-background="new 0 0 640 640" xml:space="preserve">
<path fill-rule="evenodd" clip-rule="evenodd" fill="#64381C" d="M83.296,586.563c-1.204-1.799-2.935-3.019-4.624-4.305
	c-13.646-10.39-21.069-23.906-21.072-41.319c-0.013-81.309-0.118-162.619-0.067-243.926c0.003-4.115-1.079-6.558-4.545-9.248
	c-20.045-15.55-31.163-36.578-34.846-61.358C9.26,166.657,39.757,116.598,86.916,89.092c13.125-7.656,27.133-13.144,42.143-15.921
	c1.234-0.229,2.458-0.88,3.527-1.582c35.489-23.313,75.015-35.573,116.427-42.834c16.543-2.901,33.387-2.611,49.924-4.928
	c31.191-4.368,62.451-6.368,93.808-3.712c56.744,4.804,110.434,19.135,157.447,53.052c12.978,9.362,24.391,20.366,34.58,32.672
	c0.348,0.353,0.695,0.704,1.046,1.056c0,0-0.032-0.027-0.032-0.027c0.189,0.445,0.295,0.956,0.583,1.324
	c16.088,20.626,27.063,43.547,31.253,69.521c0.119,1.631,0.224,3.264,0.358,4.894c1.571,19.059,0.671,37.803-6.966,55.718
	c-5.809,13.626-14.526,24.918-26.852,33.235c-2.3,1.552-3.157,3.141-3.154,5.975c0.09,72.78,0.059,145.56,0.059,218.339
	c0,4.784-0.478,9.504-1.709,14.132c-4.674,17.535-16.319,29.097-31.923,37.268c-3.674-0.064-6.986,1.446-10.352,2.556
	c-13.171,4.337-26.555,8.039-39.824,11.977c-12.625,3.748-25.364,7.391-38.164,10.669c-1.478,0.378-3.291,1.433-3.944,2.695
	c-2.665,5.147-7.786,7.605-12.189,10.183c-7.958,4.661-16.938,6.511-26.431,6.476c-58.001-0.205-116-0.146-174.001-0.153
	c-45.17-0.004-90.341,0.018-135.512,0.043C98.728,591.72,90.846,589.923,83.296,586.563z M580.13,141.214
	c-0.109-0.603-0.188-1.239-1.074-1.036l0.125-0.014c0.328-1.05-0.185-1.919-0.666-2.752c-8.4-14.546-18.941-27.276-32.12-37.759
	c-2.072-3.238-5.864-4.288-8.564-6.726c-2.045-2.011-4.42-3.557-6.924-4.921c-6.427-4.35-12.621-9.082-19.892-12.035
	c-4.674-3.623-10.161-5.622-15.558-7.8c-14.639-7.279-30.124-11.769-46.271-14.284c12.033,5.93,23.354,12.946,34.855,19.642
	c3.186,2.844,6.683,5.256,10.338,7.451c4.177,3.379,8.354,6.759,12.53,10.138c2.303,2.244,4.605,4.487,6.908,6.73
	c1.381,1.952,3.078,3.571,5.118,4.824c8.271,10.285,16.769,20.402,23.492,31.829c0.038,0.75,0.099,1.49,0.896,1.877
	c1.314,3.5,2.972,6.826,4.995,9.969c4.986,11.993,7.817,24.569,10.082,37.298c0.965,18.896-0.701,37.42-7.814,55.172
	c-1.051,1.436-2.305,2.778-2.197,4.751c-4.481,7.251-9.586,13.998-15.899,19.774c-1.81,1.063-3.609,2.141-5.431,3.184
	c-8.39,4.794-16.987,8.976-26.98,8.893c-4.819-0.04-7.507-2.949-8.622-7.187c-0.728-2.765-0.6-5.754-0.854-8.645
	c3.483-2.655,7.061-4.81,11.506-5.926c10.179-2.558,18.41-8.174,23.886-17.417c6.913-11.671,9.988-24.297,9.621-37.81
	c-0.026-1.344-0.055-2.687-0.082-4.031c-0.353-18.062-5.37-34.776-14.522-50.298c-9.093-15.552-20-29.535-34.746-40.201
	c-1.745-1.643-3.524-3.24-5.758-4.216c-2.475-2.153-4.871-4.411-7.86-5.877c-5.176-3.957-10.663-7.397-16.643-10.017
	c-2.935-2.48-6.454-3.869-9.942-5.31c-3.658-1.851-7.238-3.879-10.986-5.525C368.318,43.626,299.483,39.49,228.98,56.169
	c-6.738,1.593-13.576,2.946-21.397,5.922c25.113-0.89,48.692,0.034,72.278,1.921c21.144,1.691,41.968,5.217,62.719,9.345
	c1.702,0.534,3.388,1.127,5.108,1.59c23.847,6.42,47.293,13.92,69.021,25.946c6.855,3.795,13.517,7.939,20.268,11.924l-0.042-0.069
	c0.698,1.085,1.688,1.769,2.919,2.123l-0.012-0.077c0.632,1.119,1.476,1.963,2.82,2.14l0.049-0.004
	c4.336,4.007,8.672,8.015,13.009,12.022c5.882,6.856,12.013,13.51,17.074,21.031c13.15,20.843,19.186,43.514,17.519,68.164
	c-1.641,2.757-0.809,5.807-1.033,8.732c-2.621,9.469-5.702,18.774-9.875,27.69c0,0,0.027-0.022,0.027-0.021
	c-2.988,3.864-5.598,8.12-9.076,11.476c-3.059,2.951-3.853,6.035-3.847,10.011c0.095,88.55,0.1,177.096,0.169,265.646
	c0,1.51-0.822,3.323,0.941,4.517c0.815-0.004,1.687,0.179,2.44-0.038c18.386-5.307,36.783-10.579,55.123-16.043
	c5.78-1.723,11.731-3.346,17.025-6.122c11.194-5.869,16.063-15.748,16.05-28.285c-0.052-43.866-0.007-87.733-0.033-131.6
	c-0.019-31.212-0.094-62.425-0.145-93.639c0.709-3.895-0.765-8.094,1.637-11.753c4.047-2.064,8.331-3.772,12.1-6.261
	c13.011-8.594,19.098-21.488,21.792-36.348c0.273-2.02,0.546-4.04,0.819-6.06c0.116-1.91,0.234-3.821,0.353-5.73
	c1.429-4.289,1.291-8.583,0.049-12.881c0.563-5.296-0.897-10.365-1.987-15.422c-2.536-11.752-4.92-23.597-11.891-33.804
	c-0.287-0.362-0.575-0.724-0.862-1.086L580.13,141.214z M400.673,569.836c5.574,0.031,11.17,0.37,16.721,0.023
	c10.201-0.637,18.808-4.271,23.696-14.063c2.424-4.854,2.765-10.026,2.765-15.314c0.003-73.36,0.033-146.721,0.054-220.082
	c0.004-9.847-0.063-19.694,0.018-29.54c0.025-3.132,0.063-4.881-4.188-3.28c-5.397,2.036-11.201,2.829-16.312-1.376
	c-4.83-8.797-2.749-14.546,6.799-17.813c16.001-5.475,27.031-16.46,32.743-31.899c8.995-24.313,6.314-48.095-6.504-70.594
	c-7.735-13.574-19.067-23.725-31.246-33.365c-16.912-13.388-36.032-21.87-56.23-28.489c-4.485-1.318-8.831-3.205-13.605-3.347
	c0,0-0.01,0.05-0.011,0.05c-5.354-2.503-11.008-4.207-16.724-5.512c-19.905-4.548-40.093-7.608-60.414-9.256
	c-40.98-3.323-81.874-3.678-122.614,3.785c-14.854,2.721-29.584,5.444-43.513,11.325c-41.537,17.538-79.151,59.917-72.313,117.403
	c2.888,24.276,12.625,44.45,35.094,56.424c4.012,2.139,5.123,4.487,5.118,8.685c-0.069,53.561-0.076,107.119,0.075,160.679
	c0.096,34.333-0.566,68.669,0.357,102.999c3.119,12.311,10.647,19.882,23.435,21.797c1.517,1.007,3.17,0.892,4.846,0.592
	c2.672,0.037,5.345,0.075,8.017,0.11c1.964,0.073,3.927,0.207,5.89,0.207c57.087,0,114.173-0.004,171.26-0.032
	C329.482,569.937,365.077,569.878,400.673,569.836z"/>
<path fill-rule="evenodd" clip-rule="evenodd" fill="#DFE9E4" d="M585.817,106.895c-0.351-0.352-0.698-0.703-1.046-1.056
	C585.119,106.192,585.467,106.543,585.817,106.895z"/>
<path fill-rule="evenodd" clip-rule="evenodd" fill="#F6B966" d="M116.738,569.778c-2.672-0.035-5.345-0.073-8.018-0.11
	c-1.519-0.981-3.217-0.51-4.846-0.592c-12.788-1.915-20.316-9.486-23.435-21.797c0.772-0.775,0.741-1.77,0.76-2.758
	c0.7-34.634-1.264-69.29,1.608-103.936c0.602-7.265,0.75-14.912,0.337-22.38c-0.198-3.577-1.324-7.247-0.815-10.694
	c1.545-10.471,0.345-20.958,0.885-31.415c0.286-5.548,3.393-10.652,1.995-16.525c0.662,0.033,1.325,0.065,1.988,0.099
	c0,14.7,0,29.399,0,44.098c0.682-0.013,1.364-0.027,2.046-0.04c0-25.813,0-51.625,0-77.601c1.755,0.363,1.808,1.099,1.771,1.689
	c-1.004,16.153,3.102,32.059,2.137,48.253c-0.625,10.469-0.138,21.007-0.073,31.514c0.009,1.404-0.694,3.2,1.917,4.608
	c0-9.729-0.001-18.876,0-28.021c0.001-9.194,0.006-18.388,0.008-27.581c0.002-9.028,0.002-18.058,0.003-27.088
	c0.001-9.193-0.025-18.387,0.01-27.579c0.033-8.904,0.128-17.808,0.196-26.712c0.584,0.024,1.169,0.048,1.754,0.073
	c0,1.613,0,3.224,0,4.836c0.003,18.715-0.018,37.431,0.044,56.145c0.006,1.805-0.876,4.089,1.708,5.105
	c-0.498,9.339,0.245,18.666,0.263,27.997c0.104,55.682,0.086,111.363,0.111,167.046c0.005,10.491,2.325,12.838,12.658,12.834
	c92.803-0.025,185.607-0.05,278.411-0.086c1.636-0.001,3.289-0.015,4.907-0.225c7.108-0.918,7.67-1.542,7.671-8.62
	c0.013-88.697,0.021-177.395,0.008-266.091c-0.002-13.122,3.518-17.93,15.97-21.804c4.666-1.452,9.309-3.041,13.417-5.818
	c8.482-4.814,13.688-12.018,15.711-21.544c8.749-27.189-6.052-63.463-31.427-77.026c0.955-4.048-2.976-4.214-4.879-5.499
	c-4.209-2.842-7.792-7.515-13.903-6.218c-9.448-2.913-18.279-7.392-27.659-10.59c-13.267-4.524-26.716-8.111-40.314-11.305
	c-3.326-2.753-7.832-4.189-11.42-5.132c-6.691-1.758-13.806-3.606-21.106-2.644c-3.548,0.469-7.213,0.109-10.824,0.03
	c-1.236-0.027-2.75,0.525-3.586-0.886c-0.607-1.022-0.021-1.947,0.855-2.502c1.362-0.864,2.883-2.133,4.49-0.88
	c5.624,4.388,11.903,2.215,17.908,1.735c2.904-0.232,5.337-0.118,7.985,1.233c6.074,3.098,12.988,3.386,19.457,5.21
	c1.311,0.37,3.739,0.768,3.858-1.693c0.143-2.931-2.415-2.168-3.997-2.098c-3.872,0.173-8.603,0.166-9.996-3.313
	c-1.232-3.07-3.053-5.379-5.545-7.938c6.277-1.917,11.391,1.36,16.794,1.28c2.185-0.031,4.49-0.362,6.722,0.8
	c4.384,2.283,9.078,3.584,14.114,3.123l0.01-0.05c-0.684,0.576-1.366,1.151-2.236,1.886c2.678,0.645,5.438-0.597,7.66,0.93
	c2.697,1.854,5.374,1.611,8.182,0.53c20.198,6.62,39.318,15.102,56.23,28.489c12.179,9.64,23.511,19.791,31.246,33.365
	c12.818,22.499,15.499,46.282,6.504,70.594c-5.712,15.438-16.742,26.424-32.743,31.899c-9.548,3.267-11.629,9.016-6.802,17.812
	c-0.066,3.281-0.189,6.563-0.192,9.845c-0.022,63.041-0.033,126.083-0.044,189.123c-1.199,0.196-2.61,0.099-2.749,1.848
	c-0.161,2.03,1.317,2.153,2.747,2.316c-0.004,1.564-0.007,3.128-0.011,4.692c-3.291,0.047-3.726,3.709-6.277,4.885
	c-5.03,2.319-6.614,6.627-6.492,12.031c0.215,9.516,0.035,19.041,0.103,28.56c0.021,3.124-0.552,5.796-2.109,8.736
	c-1.777,3.356-5,3.446-7,5.137c-4.136,3.496-7.355,5.905-12.685,3.146c-1.547-0.801-2.994,0.199-3.314,1.91
	c-0.423,2.264,1.486,1.682,2.613,1.713c3.28,0.091,6.738-0.616,9.807,0.196c4.462,1.182,6.937-1.039,8.903-4.054
	c1.902-2.916,3.462-5.888,7.011-7.188c1.502-0.551,1.066-1.917,1.008-3.319c-0.277-6.712-0.269-13.438-0.325-20.157
	c-0.01-1.123-0.105-2.502,1.487-2.637c1.353-0.113,2.085,0.837,2.319,2.082c1.693,8.918,3.035,17.838,1.155,26.938
	c-0.359,1.741-1.368,2.872-2.63,3.23c-3.834,1.091-7.97,1.584-7.191,7.206c0.026,0.201-0.388,0.626-0.652,0.683
	c-5.791,1.233-9.87,6.107-16.58,6.088c-89.949-0.253-179.899-0.163-269.85-0.124C120.56,569.09,118.521,568.5,116.738,569.778z
	 M97.753,366.307c-0.829,1.717-1.026,3.617,0,5.501C97.753,369.974,97.753,368.14,97.753,366.307z M398.243,552.091
	c0.547-0.462,1.003-0.846,1.457-1.229c-0.398-0.136-0.799-0.388-1.194-0.381c-0.592,0.012-1.369,0.041-1.308,0.911
	C397.215,551.628,397.819,551.821,398.243,552.091z"/>
<path fill-rule="evenodd" clip-rule="evenodd" fill="#E66F0B" d="M558.079,270.475c0.052,31.212,0.127,62.425,0.146,93.637
	c0.026,43.866-0.019,87.733,0.033,131.6c0.014,12.537-4.855,22.416-16.05,28.285c-5.294,2.776-11.245,4.399-17.025,6.122
	c-18.34,5.464-36.737,10.736-55.123,16.043c-0.754,0.217-1.625,0.034-2.44,0.04c0.014-36.741,0.029-73.482,0.043-110.223
	c0.122-0.091,0.359-0.22,0.346-0.268c-0.077-0.242-0.22-0.464-0.339-0.694c0-4.275-0.002-8.552-0.002-12.829
	c4.761-1.246,3.258,3.553,4.743,5.518c1.719-1.411,0.799-3.017,1.16-4.338c0.872-3.185,1.83-6.345,2.754-9.515
	c3.435,1.455,6.501-2.072,9.351-1.26c5.632,1.608,5.811-1.291,5.636-5.255c-0.071-1.649,1.354-3.771,2.253-2.576
	c2.369,3.151,6.51,2.856,8.708,5.146c2.518,2.623,3.624,3.707,5.324-0.266c0.499-1.171,2.018-0.983,2.922-1.604
	c2.726-1.865,5.195-4.042,6.258-7.319c0.295-0.912-1.625-3.003,0.865-2.583c1.729,0.292,5.487-2.604,5.19,3.071
	c-0.208,0.189,0.638-0.997-0.961-0.687c-1.033,0.198-1.887,0.451-1.804,1.725c0.059,0.889,0.578,1.648,1.397,1.718
	c1.413,0.12,1.26-1.098,1.367-2.756c5.339-0.409,4.593-5.116,5.835-8.039c0.547-1.281,0.601-2.596,2.388-2.364
	c1.527,0.197,1.501,1.431,1.643,2.594c0.22,1.772,0.565,3.528,0.836,5.295c0.311,2.026-0.105,4.784,3.063,4.585
	c3.135-0.196,1.063-3.548,2.146-4.548c3.001-2.769-3.729-11.342,5.98-9.923c0.703,0.103,1.689-1.436,2.429-0.166
	c0.603,1.039-0.373,1.726-1.202,2.331c-1.315,0.963-1.675,2.184-0.098,3.112c1.598,0.94,2.379,0.007,2.662-1.606
	c0.104-0.584,0.207-1.374,1.244-1.143c1.242,1.132-0.021,3.53,0.973,3.981c5.901,2.693,2.493,8.52,4.442,12.504
	c0.577,1.175,0.688,3.053-0.582,4.155c-5.192,4.502,0.769,3.938,1.454,5.756c0.429-0.135,0.858-0.271,1.289-0.405
	c0-1.948,0-3.897,0-5.845c0.001-45.097-0.004-90.193,0.035-135.29C557.371,274.284,556.756,272.242,558.079,270.475z
	 M550.522,405.145c-3.285-1.143-5.996-0.535-8.632-0.663c-0.816-0.04-1.745,0.112-1.778,1.146c-0.03,0.901,0.749,1.534,1.542,1.58
	C544.479,407.369,547.464,408.184,550.522,405.145z M528.707,403.797c-1.315,0.196-1.785,1.151-1.858,2.377
	c-0.051,0.828,0.085,1.885,1.097,1.756c1.342-0.172,2.355-1.118,2.389-2.597C530.355,404.442,529.668,403.94,528.707,403.797z
	 M556.849,421.442c-0.603,1.827-0.739,3.717-0.057,5.938C557.671,425.225,557.354,423.366,556.849,421.442z"/>
<path fill-rule="evenodd" clip-rule="evenodd" fill="#EA7810" d="M522.834,400.503c0.294-4.97-3.465-2.074-5.193-2.366
	c-2.49-0.42-0.57,1.671-0.865,2.583c-1.063,3.277-3.532,5.454-6.258,7.319c-0.904,0.62-2.423,0.433-2.922,1.604
	c-1.7,3.973-2.807,2.889-5.324,0.266c-2.198-2.29-6.339-1.995-8.708-5.146c-0.898-1.194-2.324,0.927-2.253,2.576
	c0.175,3.964-0.004,6.863-5.636,5.255c-2.85-0.813-5.916,2.715-9.351,1.26c-0.924,3.17-1.882,6.33-2.754,9.515
	c-0.361,1.321,0.559,2.927-1.16,4.338c-1.485-1.965,0.018-6.764-4.743-5.518c-0.009-21.348,0.519-42.714-0.181-64.039
	c-0.686-20.938,3.345-41.651,2.066-62.555c-0.204-3.333,2.08-4.04,4.289-5.122c3.187-1.56,3.412,1.724,5.105,3.728
	c0.689-5.756,3.385-3.905,4.384-1.444c2.509,6.177,7.591,5.044,11.456,3.647c6.846-2.473,13.94-4.271,20.597-7.367
	c3.901-1.813,8.027-3.061,12.644-3.048c5.811,0.018,11.208,2.5,16.984,2.12c1.201-0.079,3.208,0.451,3.077-1.401
	c-0.164-2.319-1.97-0.497-3.034-0.633c-2.151-0.277-5.139,1.425-5.497-2.787c-0.412-4.853-4.269-8.657-9.15-8.887
	c-2.951-0.139-4.983-1.537-7.155-3.517c2.477,0.534,3.499-1.965,5.867-2.175c1.637-0.144,4.646-2.065,3.369-5.364
	c6.315-5.775,11.42-12.522,15.901-19.772c-0.36,5.621-3.165,10.016-7.36,13.714c0.116,0.479,0.23,0.957,0.346,1.435
	c6.113,0,12.229,0,18.342,0c-2.401,3.66-0.928,7.858-1.637,11.755c-1.324,1.768-0.709,3.81-0.711,5.719
	c-0.039,45.096-0.034,90.193-0.035,135.29c0,1.947,0,3.896,0,5.845c-0.431,0.135-0.86,0.271-1.289,0.405
	c-0.686-1.818-6.646-1.254-1.454-5.756c1.271-1.103,1.159-2.98,0.582-4.155c-1.949-3.984,1.459-9.811-4.442-12.504
	c-0.993-0.451,0.27-2.85-0.973-3.981c-1.037-0.231-1.141,0.559-1.244,1.143c-0.283,1.613-1.064,2.547-2.662,1.606
	c-1.577-0.929-1.218-2.149,0.098-3.112c0.829-0.605,1.805-1.292,1.202-2.331c-0.739-1.27-1.726,0.269-2.429,0.166
	c-9.71-1.419-2.979,7.154-5.98,9.923c-1.083,1,0.988,4.352-2.146,4.548c-3.169,0.199-2.753-2.559-3.063-4.585
	c-0.271-1.767-0.616-3.522-0.836-5.295c-0.142-1.163-0.115-2.396-1.643-2.594c-1.787-0.231-1.841,1.083-2.388,2.364
	C527.424,396.092,528.17,400.799,522.834,400.503z"/>
<path fill-rule="evenodd" clip-rule="evenodd" fill="#F7C582" d="M98.722,341.371c-2.585-1.017-1.703-3.301-1.708-5.105
	c-0.062-18.714-0.042-37.43-0.044-56.145c0-1.613,0-3.224,0-4.836c-0.585-0.025-1.17-0.049-1.754-0.073
	c-0.068,8.904-0.163,17.808-0.196,26.712c-0.035,9.192-0.009,18.386-0.01,27.579c0,9.03-0.001,18.06-0.003,27.088
	c-0.002,9.193-0.006,18.387-0.008,27.581c-0.001,9.145,0,18.291,0,28.021c-2.611-1.408-1.908-3.204-1.917-4.608
	c-0.065-10.507-0.552-21.045,0.073-31.514c0.965-16.194-3.141-32.1-2.137-48.253c0.037-0.591-0.017-1.326-1.771-1.689
	c0,25.976,0,51.788,0,77.601c-0.682,0.013-1.365,0.027-2.046,0.04c0-14.698,0-29.397,0-44.098c-0.663-0.033-1.326-0.065-1.988-0.099
	c1.398,5.873-1.709,10.978-1.995,16.525c-0.54,10.457,0.66,20.944-0.885,31.415c-0.509,3.447,0.617,7.117,0.815,10.694
	c0.413,7.468,0.265,15.115-0.337,22.38c-2.873,34.646-0.908,69.302-1.608,103.936c-0.019,0.988,0.012,1.982-0.76,2.758
	c-0.923-34.33-0.261-68.666-0.357-102.999c-0.151-53.56-0.144-107.118-0.075-160.679c0.005-4.198-1.105-6.546-5.118-8.685
	c-22.47-11.974-32.207-32.148-35.094-56.424c-6.839-57.485,30.775-99.865,72.313-117.403c13.928-5.881,28.659-8.604,43.513-11.325
	c40.74-7.463,81.633-7.108,122.614-3.785c20.321,1.647,40.508,4.708,60.414,9.256c5.716,1.305,11.37,3.009,16.724,5.512
	c-5.035,0.462-9.729-0.84-14.113-3.123c-2.231-1.163-4.537-0.832-6.722-0.8c-5.403,0.08-10.517-3.197-16.794-1.28
	c2.492,2.559,4.313,4.868,5.545,7.938c1.394,3.479,6.124,3.486,9.996,3.313c1.582-0.07,4.14-0.833,3.997,2.098
	c-0.119,2.461-2.548,2.063-3.858,1.693c-6.469-1.825-13.382-2.113-19.457-5.21c-2.647-1.351-5.081-1.465-7.985-1.233
	c-6.005,0.48-12.285,2.653-17.908-1.735c-1.607-1.253-3.128,0.016-4.49,0.88c-0.875,0.555-1.462,1.479-0.855,2.502
	c0.836,1.411,2.35,0.859,3.586,0.886c3.611,0.08,7.276,0.439,10.824-0.03c7.3-0.962,14.415,0.886,21.106,2.644
	c3.588,0.943,8.094,2.379,11.42,5.133c-2.29-0.059-4.731,0.376-6.848-0.264c-9.238-2.796-18.865-3.747-28.282-5.072
	c-16.477-2.317-33.182-3.582-49.825-4.01c-27.917-0.719-55.739,0.49-83.424,5.218c-14.057,2.4-27.791,5.319-41.361,9.731
	c-21.07,6.849-39.025,17.983-51.444,36.467c-16.264,24.206-20.546,50.047-8.094,77.487c5.583,12.303,13.531,21.275,28.018,22.862
	c6.689,0.732,10.619,6.208,10.65,13.174c0.063,13.951,0.064,27.902,0.006,41.854C99.02,321.704,98.84,331.537,98.722,341.371z"/>
<path fill-rule="evenodd" clip-rule="evenodd" fill="#EC8D23" d="M423.175,494.027c0.004-1.564,0.007-3.128,0.012-4.693
	c0.001-1.388,0.001-2.775,0.001-4.163c0.011-63.04,0.021-126.082,0.044-189.123c0.003-3.282,0.126-6.564,0.192-9.845
	c5.113,4.206,10.917,3.413,16.314,1.377c4.251-1.602,4.213,0.148,4.188,3.28c-0.08,9.846-0.014,19.693-0.018,29.54
	c-0.021,73.361-0.051,146.721-0.054,220.082c0,5.288-0.341,10.46-2.765,15.314c-4.889,9.792-13.495,13.427-23.696,14.063
	c-5.551,0.347-11.146,0.008-16.722-0.021c15.309-3.82,22.343-13.224,22.534-27.159C423.43,526.465,423.206,510.245,423.175,494.027z
	"/>
<path fill-rule="evenodd" clip-rule="evenodd" fill="#F3F7F0" d="M342.585,73.359c-20.756-4.13-41.58-7.655-62.724-9.347
	c-23.586-1.887-47.165-2.811-72.278-1.921c7.821-2.976,14.66-4.329,21.397-5.922c70.503-16.68,139.338-12.543,206.095,16.791
	c3.748,1.646,7.328,3.675,10.983,5.523c-0.34,1.348-1.315,1.626-2.575,1.778c-12.785,1.55-25.556,3.227-38.352,4.694
	c-2.719,0.312-5.773,0.801-8.183-0.806c-6.571-4.386-14.058-6.531-21.394-8.948c-8.317-2.738-16.771-5.763-25.69-2.515
	C347.43,73.575,344.996,73.009,342.585,73.359z"/>
<path fill-rule="evenodd" clip-rule="evenodd" fill="#F6B966" d="M486.265,103.906c14.746,10.666,25.653,24.649,34.745,40.201
	c-0.857,0.972-2.014,0.954-3.161,0.948c-11.407-0.063-22.754,1.683-34.179,1.124c-2.613-0.128-5.195,0.6-7.732,0.673
	c-2.601,0.076-2.592,1.615-3.144,3.133c-5.062-7.521-11.192-14.175-17.075-21.032c0.01-1.245,0.349-2.572-0.906-3.485l0.007,0.006
	c-1.138-1.245-2.552-2.456-3.703-3.405c-2.452-2.021-4.313-5.655-8.405-5.138c0,0-0.049,0.004-0.045,0.001
	c0.424-2.52-1.226-2.294-2.824-2.137c0,0,0.012,0.077,0.012,0.076c0.2-2.323-1.356-2.226-2.919-2.121c0,0,0.042,0.069,0.042,0.067
	c0.332-4.423-5.648-3.548-6.191-7.268c1.547-1.798,4.251,0.34,5.85-1.917c-2.377-1.957-5.799,0.371-8.072-1.815
	c1.055-1.39,2.117-1.594,3.585-1.529c7.868,0.348,15.796,2.073,23.536-1.24c1.47-0.629,3.815-0.894,5.146,0.39
	c1.127,1.088-1.462,1.939-1.093,3.345l-0.008,0.008c-3.439,1.517-2.34,3.91-0.756,5.829c1.196,1.447,2.712,4.438,5.124,0.85
	c0.827-1.232,2.426-0.734,3.701-0.754c3.448-0.055,6.902-0.121,10.348-0.013c2.829,0.089,4.43-0.908,4.27-3.94
	C483.702,104.492,485.166,105.019,486.265,103.906z"/>
<path fill-rule="evenodd" clip-rule="evenodd" fill="#EC8D23" d="M472.794,149.984c0.552-1.519,0.543-3.057,3.144-3.133
	c2.537-0.073,5.119-0.801,7.732-0.673c11.425,0.559,22.771-1.187,34.179-1.124c1.147,0.006,2.304,0.024,3.161-0.948
	c9.153,15.521,14.171,32.236,14.525,50.298c-1.729-1.566-2.894-3.216-2.986-5.834c-0.061-1.692,2.221-5.14-1.962-5.106
	c-3.681,0.029-0.934,3.365-2.021,4.827c-0.18,0.242-0.439,0.426-0.837,0.8c-4.416-3.123-8.892-4.44-13.241,0.312
	c-1.115,1.22-2.134,1.317-3.583-0.281c-2.52-2.778-11.499-3.935-15.017-2.414c1.669,2.179,5.061-0.552,7.103,2.721
	c-3.204,0-6.54,1.03-8.226-0.2c-4.533-3.312-3.391,0.622-3.414,2.362c-0.13,9.836-0.067,19.674-0.073,29.512
	c-1.108-0.727-0.878-1.893-0.966-2.955C491.979,193.499,485.944,170.827,472.794,149.984z"/>
<path fill-rule="evenodd" clip-rule="evenodd" fill="#E66F0B" d="M490.313,218.148c0.088,1.062-0.143,2.228,0.966,2.955
	c0.187,0.661-0.386,1.679,0.692,1.846c1.684-2.487-2.939-8.563,4.65-7.343c-0.065-1.702-2.44-2.996-0.87-4.52
	c1.352-1.31,2.61,0.62,3.974,0.82c3.245,0.477,7.193,1.505,9.572-0.259c3.951-2.926,7.998-2.113,12.121-2.411
	c1.612-0.117,3.516,0.698,4.876-1.025c-1.348-1.66-3.696-0.14-4.843-2.661c4.431,1.933,8.378-3.009,12.839-0.11
	c1.131-2.202-0.646-4.959,1.325-7.004c0.367,13.513-2.708,26.139-9.621,37.81c-5.476,9.243-13.707,14.86-23.886,17.417
	c-4.445,1.117-8.022,3.271-11.508,5.926c-1.01,0.254-1.229,1.034-1.283,1.923c-3.983,1.304-7.216,0.12-9.878-2.971
	c-0.003-1.331-0.006-2.661-0.008-3.993c0,0-0.027,0.022-0.026,0.022c1.288-0.887,3.552-0.497,3.939-2.48
	c1.657-8.482,7.831-15.901,5.935-25.21C489.504,223.955,488.672,220.905,490.313,218.148z"/>
<path fill-rule="evenodd" clip-rule="evenodd" fill="#EC8D23" d="M479.432,254.55c0.002,1.331,0.005,2.661,0.009,3.991
	c-2.98,2.172-3.739,6.208-7.046,8.187c-2.467,1.477-2.952,3.963-2.864,6.791c0.1,3.271,0.852,4.568,3.786,2.04
	c1.435-1.236,2.981-2.03,3.921,0.118c1.66,3.789,2.945,3.798,4.388-0.021c0.425-1.126,1.402-1.442,2.373-1.279
	c5.619,0.939,5.602-2.584,5.332-6.49c-0.144-2.115-0.017-4.249-0.013-6.373c0.055-0.89,0.273-1.669,1.283-1.923
	c0.257,2.89,0.129,5.88,0.856,8.645c1.115,4.238,3.803,7.147,8.622,7.187c9.993,0.083,18.591-4.098,26.98-8.893
	c1.821-1.042,3.621-2.121,5.429-3.184c1.277,3.298-1.732,5.22-3.369,5.364c-2.368,0.21-3.391,2.709-5.867,2.175
	c2.172,1.98,4.204,3.378,7.155,3.517c4.882,0.23,8.738,4.034,9.15,8.887c0.358,4.212,3.346,2.509,5.497,2.787
	c1.064,0.136,2.87-1.687,3.034,0.633c0.131,1.852-1.876,1.322-3.077,1.401c-5.776,0.381-11.174-2.102-16.984-2.12
	c-4.616-0.013-8.742,1.235-12.644,3.048c-6.656,3.096-13.751,4.894-20.597,7.367c-3.865,1.397-8.947,2.53-11.456-3.647
	c-0.999-2.46-3.694-4.312-4.384,1.444c-1.693-2.003-1.919-5.288-5.105-3.728c-2.209,1.082-4.493,1.788-4.289,5.122
	c1.278,20.904-2.752,41.617-2.066,62.555c0.699,21.325,0.172,42.691,0.181,64.039c0,4.277,0.002,8.554,0,12.829
	c-0.024,0.321-0.025,0.641-0.005,0.962c-0.014,36.74-0.029,73.481-0.043,110.223c-1.764-1.195-0.941-3.009-0.941-4.519
	c-0.069-88.55-0.074-177.096-0.169-265.646c-0.006-3.976,0.788-7.06,3.847-10.011C473.834,262.67,476.443,258.415,479.432,254.55z"
	/>
<path fill-rule="evenodd" clip-rule="evenodd" fill="#E66F0B" d="M559.717,258.719c-6.113,0-12.229,0-18.342,0
	c-0.115-0.478-0.229-0.956-0.346-1.435c4.195-3.698,7-8.093,7.36-13.714c-0.107-1.974,1.146-3.316,2.197-4.752
	c1.685-0.171,3.063-1.571,3.232-2.674c0.956-6.158,5.057-11.461,4.562-18.021c-0.388-5.145,1.851-9.347,5.826-12.601
	c2.429-1.988,8.041-1.206,8.215,1.182c0.064,0.882-1.671,2.495,0.469,2.356c2.985-0.196,6.931,2.547,8.637-0.008
	c3.136-4.7,9.377-4.216,12.288-8.68c-0.011,2.639-0.021,5.278-0.031,7.916c-1.285,0.394-3.944-2.368-3.715,1.193
	c0.157,2.461,0.249,5.566,3.538,6.628c-2.693,14.86-8.78,27.754-21.791,36.348C568.048,254.947,563.764,256.655,559.717,258.719z"/>
<path fill-rule="evenodd" clip-rule="evenodd" fill="#EC8D23" d="M593.784,208.288c0.011-2.638,0.021-5.277,0.031-7.915
	c-0.357-6.736,1.018-13.534-3.217-19.98c-1.245-1.894-1.738-2.574-3.698-2.735c-1.335-0.11-3.871,0.966-3.301-1.973
	c0.576-2.972-1.17-2.855-3.084-2.915c-1.96-0.062-4.079,0.243-5.844-0.4c-3.084-1.122-3.91,0.711-5.309,2.731
	c-1.699,2.458-0.258,5.713-2.456,8.461c-0.546-1.741-0.813-3.022-1.344-4.183c-0.798-1.747-0.427-4.993-3.553-4.256
	c-3.087,0.728-2.558,3.349-1.575,5.591c0.978,2.228,0.217,3.046-2.034,2.93c-2.265-12.729-5.096-25.306-10.082-37.298
	c0.389-0.716,0.78-1.429,1.172-2.145c2.113,0.001,4.229-0.002,6.346,0.005c8.092,0.033,16.153-0.288,24.108-1.96
	c0.354,0.518,0.69,0.515,1.006-0.037c6.971,10.208,9.354,22.053,11.891,33.805c1.09,5.057,2.55,10.126,1.987,15.422
	c-0.017,4.294-0.033,8.587-0.049,12.881c-0.118,1.91-0.236,3.82-0.352,5.733C594.216,209.465,594,208.877,593.784,208.288z"/>
<path fill-rule="evenodd" clip-rule="evenodd" fill="#F7C582" d="M459.737,102.784c-0.369-1.406,2.22-2.257,1.093-3.345
	c-1.331-1.284-3.677-1.019-5.146-0.39c-7.74,3.313-15.668,1.588-23.536,1.24c-1.468-0.065-2.53,0.139-3.585,1.529
	c2.273,2.186,5.695-0.142,8.072,1.815c-1.599,2.258-4.303,0.119-5.85,1.917c0.543,3.719,6.523,2.845,6.191,7.268
	c-6.751-3.983-13.412-8.127-20.268-11.923c-21.728-12.026-45.174-19.526-69.021-25.946c-1.721-0.463-3.406-1.057-5.105-1.589
	c2.413-0.35,4.847,0.216,7.282-0.671c8.919-3.248,17.373-0.223,25.69,2.515c7.336,2.417,14.822,4.562,21.394,8.948
	c2.409,1.607,5.464,1.118,8.183,0.806c12.796-1.468,25.566-3.144,38.352-4.694c1.26-0.152,2.235-0.43,2.575-1.778
	c3.491,1.443,7.011,2.832,9.945,5.313c-1.068,0.386-2.156,1.152-3.204,1.097c-7.444-0.39-14.526,2.309-21.972,2.323
	c-4.694,0.008-9.386,1.578-14.77,2.574c7.989,5.938,15.457,10.753,25.297,8.957c2.41-0.441,4.876-0.574,7.301-0.953
	c8.01-1.25,16.274-0.966,23.99-3.981c2.989,1.466,5.386,3.724,7.861,5.877C473.586,100.723,466.661,101.753,459.737,102.784z"/>
<path fill-rule="evenodd" clip-rule="evenodd" fill="#EA7810" d="M558.401,183.646c2.251,0.116,3.012-0.702,2.034-2.93
	c-0.982-2.243-1.512-4.864,1.575-5.591c3.126-0.737,2.755,2.51,3.553,4.256c0.53,1.161,0.798,2.442,1.344,4.183
	c2.198-2.748,0.757-6.003,2.456-8.461c1.398-2.021,2.225-3.853,5.309-2.731c1.765,0.643,3.884,0.338,5.844,0.4
	c1.914,0.06,3.66-0.058,3.084,2.915c-0.57,2.938,1.966,1.862,3.301,1.973c1.96,0.161,2.453,0.842,3.698,2.735
	c4.234,6.446,2.859,13.244,3.217,19.98c-2.911,4.462-9.152,3.979-12.288,8.679c-1.706,2.555-5.651-0.188-8.637,0.008
	c-2.14,0.139-0.404-1.474-0.469-2.356c-0.174-2.388-5.786-3.17-8.215-1.182c-3.976,3.254-6.214,7.456-5.826,12.601
	c0.495,6.561-3.605,11.864-4.562,18.021c-0.17,1.103-1.548,2.503-3.232,2.674C557.7,221.066,559.366,202.542,558.401,183.646z"/>
<path fill-rule="evenodd" clip-rule="evenodd" fill="#F39E32" d="M423.175,494.027c0.031,16.218,0.255,32.438,0.031,48.651
	c-0.191,13.936-7.226,23.339-22.534,27.159c-35.595,0.04-71.189,0.099-106.784,0.115c-57.086,0.028-114.173,0.032-171.26,0.032
	c-1.963,0-3.926-0.134-5.89-0.207c1.782-1.278,3.822-0.688,5.736-0.688c89.951-0.039,179.901-0.129,269.85,0.124
	c6.71,0.02,10.789-4.854,16.58-6.088c0.265-0.057,0.679-0.481,0.652-0.683c-0.778-5.622,3.357-6.115,7.191-7.206
	c1.262-0.358,2.271-1.489,2.63-3.23c1.88-9.101,0.538-18.021-1.155-26.938c-0.234-1.245-0.967-2.195-2.319-2.082
	c-1.593,0.135-1.497,1.514-1.487,2.637c0.057,6.719,0.048,13.445,0.325,20.157c0.059,1.402,0.494,2.769-1.008,3.319
	c-3.549,1.3-5.108,4.271-7.011,7.188c-1.967,3.015-4.441,5.235-8.903,4.054c-3.068-0.813-6.526-0.105-9.807-0.196
	c-1.127-0.031-3.036,0.551-2.613-1.713c0.32-1.711,1.768-2.711,3.314-1.91c5.329,2.76,8.549,0.351,12.685-3.146
	c2-1.69,5.223-1.78,7-5.137c1.558-2.94,2.131-5.612,2.109-8.736c-0.067-9.519,0.112-19.044-0.103-28.56
	c-0.122-5.404,1.462-9.712,6.492-12.031C419.449,497.736,419.884,494.074,423.175,494.027z"/>
<path fill-rule="evenodd" clip-rule="evenodd" fill="#EA7810" d="M535.615,198.435c-1.972,2.045-0.194,4.802-1.325,7.004
	c-4.461-2.899-8.408,2.043-12.839,0.11c1.146,2.521,3.495,1.001,4.843,2.661c-1.36,1.724-3.264,0.909-4.876,1.025
	c-4.123,0.298-8.17-0.515-12.121,2.411c-2.379,1.764-6.327,0.736-9.572,0.259c-1.363-0.2-2.622-2.13-3.974-0.82
	c-1.57,1.524,0.805,2.818,0.87,4.52c-7.59-1.22-2.967,4.856-4.65,7.343c-1.078-0.167-0.506-1.185-0.692-1.846
	c0.006-9.837-0.057-19.676,0.073-29.512c0.023-1.741-1.119-5.674,3.414-2.362c1.686,1.23,5.021,0.2,8.226,0.2
	c-2.042-3.273-5.434-0.542-7.103-2.721c3.518-1.521,12.497-0.365,15.017,2.414c1.449,1.598,2.468,1.501,3.583,0.281
	c4.35-4.751,8.825-3.435,13.241-0.312c0.397-0.374,0.657-0.558,0.837-0.8c1.087-1.462-1.66-4.798,2.021-4.827
	c4.183-0.034,1.901,3.414,1.962,5.106c0.093,2.618,1.257,4.269,2.986,5.834C535.561,195.748,535.589,197.091,535.615,198.435z
	 M503.028,193.664c-0.054-0.794-0.089-1.626-1.07-1.855c-0.976-0.228-1.561,0.301-1.588,1.208c-0.032,1.022,0.46,1.861,1.598,1.949
	C502.811,195.03,502.878,194.275,503.028,193.664z"/>
<path fill-rule="evenodd" clip-rule="evenodd" fill="#F6B966" d="M546.395,99.653c13.179,10.483,23.72,23.213,32.12,37.759
	c0.481,0.833,0.994,1.702,0.666,2.751c-1.325,0.062-2.34,0.019-3.125-1.554c-4.124-8.272-9.419-15.677-16.61-21.661
	c-1.727,1.232-0.767,4.138-3.018,4.323c-3.568,0.292-5.201,3.101-7.398,5.165c-2.546,2.391-2.455,6.961-6.601,8.066
	c-6.724-11.427-15.221-21.544-23.49-31.829C527.857,99.549,537.271,100.917,546.395,99.653z"/>
<path fill-rule="evenodd" clip-rule="evenodd" fill="#F39E32" d="M542.429,134.502c4.146-1.105,4.055-5.676,6.601-8.066
	c2.197-2.064,3.83-4.873,7.398-5.165c2.251-0.185,1.291-3.09,3.018-4.323c7.191,5.984,12.486,13.389,16.61,21.661
	c0.785,1.572,1.8,1.616,3.125,1.554c0,0.001-0.125,0.015-0.125,0.015c0.357,0.345,0.717,0.69,1.074,1.036
	c0,0-0.041-0.088-0.041-0.088c-0.049,0.375-0.098,0.749-0.144,1.122c-7.955,1.672-16.017,1.993-24.108,1.96
	c-2.116-0.008-4.232-0.004-6.348-0.005c-1.545-1.24-0.948-3.302-1.891-4.841c-1.042-1.704-1.749-3.54-4.274-2.983
	C542.527,135.992,542.467,135.252,542.429,134.502z"/>
<path fill-rule="evenodd" clip-rule="evenodd" fill="#F3F7F0" d="M472.646,93.813c-7.716,3.015-15.98,2.732-23.99,3.981
	c-2.425,0.379-4.891,0.512-7.301,0.953c-9.84,1.797-17.308-3.019-25.297-8.957c5.384-0.996,10.075-2.566,14.77-2.574
	c7.445-0.014,14.527-2.713,21.972-2.323c1.048,0.055,2.136-0.711,3.204-1.097C461.983,86.416,467.471,89.856,472.646,93.813z"/>
<path fill-rule="evenodd" clip-rule="evenodd" fill="#F3F7F0" d="M511.015,75.972c7.271,2.953,13.465,7.685,19.889,12.033
	c-7.998,1.037-15.995,2.076-23.993,3.114c-4.177-3.379-8.354-6.759-12.53-10.139c0.886-2.206,2.874-1.689,4.598-1.901
	C503.122,78.567,507.318,78.229,511.015,75.972z"/>
<path fill-rule="evenodd" clip-rule="evenodd" fill="#EEF4ED" d="M484.042,73.529c-11.501-6.695-22.822-13.712-34.855-19.642
	c16.146,2.515,31.632,7.004,46.269,14.283c-0.073,1.293-0.106,2.911-1.769,2.888C490.205,71.01,487.379,73.217,484.042,73.529z"/>
<path fill-rule="evenodd" clip-rule="evenodd" fill="#EBF1EA" d="M546.395,99.653c-9.123,1.265-18.537-0.104-27.456,3.021
	c-2.042-1.254-3.739-2.873-5.12-4.823c0.938-1.676,2.565-1.685,4.219-1.952c6.586-1.068,13.371-0.828,19.793-2.971
	C540.53,95.365,544.322,96.415,546.395,99.653z"/>
<path fill-rule="evenodd" clip-rule="evenodd" fill="#F7C582" d="M484.042,73.529c3.337-0.313,6.163-2.52,9.645-2.471
	c1.662,0.023,1.695-1.594,1.769-2.888c5.398,2.18,10.886,4.179,15.56,7.801c-3.696,2.258-7.893,2.596-12.037,3.107
	c-1.724,0.212-3.712-0.305-4.598,1.901C490.725,78.786,487.228,76.373,484.042,73.529z"/>
<path fill-rule="evenodd" clip-rule="evenodd" fill="#F7C582" d="M537.83,92.927c-6.422,2.143-13.207,1.903-19.793,2.971
	c-1.653,0.268-3.281,0.276-4.219,1.952c-2.303-2.245-4.605-4.489-6.908-6.732c7.998-1.038,15.995-2.076,23.993-3.113
	C533.41,89.371,535.785,90.916,537.83,92.927z"/>
<path fill-rule="evenodd" clip-rule="evenodd" fill="#EBF1EA" d="M459.737,102.784c6.924-1.03,13.849-2.061,20.771-3.093
	c2.232,0.976,4.012,2.573,5.757,4.215c-1.099,1.113-2.563,0.586-3.849,0.858c-6.05-0.266-11.853,1.801-17.869,1.897
	c-2.752,0.044-4.942-0.42-4.817-3.87L459.737,102.784z"/>
<path fill-rule="evenodd" clip-rule="evenodd" fill="#EA7810" d="M489.279,226.881c1.896,9.309-4.277,16.728-5.935,25.21
	c-0.388,1.983-2.651,1.593-3.939,2.48C483.577,245.655,486.658,236.35,489.279,226.881z"/>
<path fill-rule="evenodd" clip-rule="evenodd" fill="#F7C582" d="M442.711,116.931c4.092-0.517,5.953,3.117,8.405,5.138
	c1.151,0.949,2.565,2.16,3.703,3.405c-0.075,0.132-0.149,0.264-0.224,0.396c0.071-0.135,0.145-0.269,0.217-0.403
	c1.255,0.913,0.916,2.241,0.906,3.485C451.383,124.946,447.047,120.938,442.711,116.931z"/>
<path fill-rule="evenodd" clip-rule="evenodd" fill="#EA7810" d="M593.784,208.288c0.216,0.589,0.432,1.177,0.645,1.765
	c-0.274,2.018-0.547,4.037-0.821,6.057c-3.289-1.062-3.381-4.167-3.538-6.628C589.84,205.92,592.499,208.682,593.784,208.288z"/>
<path fill-rule="evenodd" clip-rule="evenodd" fill="#F7C582" d="M368.988,104.044c-2.808,1.081-5.484,1.324-8.182-0.53
	c-2.222-1.527-4.982-0.285-7.66-0.93c0.87-0.735,1.553-1.311,2.236-1.886C360.157,100.839,364.503,102.726,368.988,104.044z"/>
<path fill-rule="evenodd" clip-rule="evenodd" fill="#F6B966" d="M543.324,136.379c2.525-0.556,3.232,1.279,4.274,2.983
	c0.942,1.539,0.346,3.601,1.891,4.841c-0.39,0.715-0.781,1.429-1.17,2.145C546.296,143.205,544.639,139.878,543.324,136.379z"/>
<path fill-rule="evenodd" clip-rule="evenodd" fill="#EA7810" d="M594.78,204.32c0.016-4.293,0.032-8.587,0.049-12.881
	C596.071,195.736,596.209,200.031,594.78,204.32z"/>
<path fill-rule="evenodd" clip-rule="evenodd" fill="#F7C582" d="M439.842,114.795c1.599-0.157,3.248-0.382,2.824,2.137
	C441.317,116.758,440.474,115.915,439.842,114.795z"/>
<path fill-rule="evenodd" clip-rule="evenodd" fill="#F39E32" d="M103.875,569.076c1.629,0.082,3.328-0.39,4.846,0.592
	C107.044,569.968,105.391,570.083,103.875,569.076z"/>
<path fill-rule="evenodd" clip-rule="evenodd" fill="#F7C582" d="M436.935,112.75c1.563-0.104,3.119-0.202,2.919,2.121
	C438.623,114.519,437.633,113.835,436.935,112.75z"/>
<path fill-rule="evenodd" clip-rule="evenodd" fill="#F6B966" d="M579.945,142.249c0.046-0.374,0.095-0.747,0.144-1.122
	c0.287,0.362,0.575,0.724,0.862,1.085C580.636,142.763,580.299,142.766,579.945,142.249z"/>
<path fill-rule="evenodd" clip-rule="evenodd" fill="#F6B966" d="M580.13,141.214c-0.357-0.346-0.717-0.691-1.074-1.036
	C579.942,139.975,580.021,140.612,580.13,141.214z"/>
<path fill-rule="evenodd" clip-rule="evenodd" fill="#F8FBF4" d="M98.722,341.371c0.118-9.834,0.298-19.667,0.339-29.5
	c0.058-13.952,0.057-27.903-0.006-41.854c-0.031-6.965-3.961-12.442-10.65-13.174c-14.487-1.586-22.436-10.559-28.018-22.862
	c-12.452-27.44-8.169-53.281,8.094-77.487c12.419-18.484,30.375-29.618,51.444-36.467c13.571-4.412,27.304-7.331,41.361-9.731
	c27.686-4.729,55.508-5.938,83.424-5.218c16.643,0.428,33.349,1.692,49.825,4.01c9.417,1.325,19.043,2.276,28.282,5.072
	c2.116,0.64,4.558,0.205,6.848,0.264c13.599,3.192,27.048,6.779,40.314,11.303c9.38,3.198,18.211,7.677,27.659,10.59
	c6.26,3.905,12.521,7.811,18.782,11.717c25.375,13.563,40.176,49.837,31.429,77.026c-2.051,0.544-3.62,1.902-3.725,3.914
	c-0.12,2.315-1.324,3.754-2.514,5.51c-2.412,3.558-4.266,7.451-8.817,8.968c-1.047,0.351-0.56,2.05-0.657,3.152
	c-4.108,2.777-8.751,4.367-13.417,5.818c-12.452,3.874-15.972,8.682-15.97,21.804c0.014,88.697,0.005,177.394-0.008,266.091
	c-0.001,7.078-0.563,7.702-7.671,8.62c-1.618,0.21-3.271,0.224-4.907,0.225c-92.804,0.036-185.608,0.061-278.411,0.086
	c-10.333,0.004-12.652-2.343-12.658-12.834c-0.025-55.683-0.006-111.364-0.111-167.046C98.966,360.037,98.224,350.71,98.722,341.371
	z M141.354,378.811l-0.028,0.019c-3.128,0.27-4.966,1.732-4.736,5.112l0.022-0.087c-3.023,2.924-3.123,8.004-0.212,10.715
	l0.026,0.033c0.547,4.789,3.054,7.349,8.775,7.512c2.843,0.079,6.498-0.34,6.916-4.661l-0.022,0.048
	c0.35-0.322,0.699-0.644,1.049-0.965c0,0,0-0.004,0-0.003c2.174,0.416,3.26-1.233,4.494-2.466
	c32.186-32.16,64.349-64.343,96.533-96.503c1.554-1.553,2.948-3.091,2.482-5.511c0.783-1.967,2.97-2.493,4.154-4.07
	c2.521-3.356,6.02-6.328,5.128-11.143c-0.805-4.343-3.396-7.632-7.67-8.763c-4.401-1.165-8.203,0.354-11.44,3.788
	c-7.925,8.407-15.983,16.691-24.104,24.911c-12.366,12.519-24.848,24.921-37.244,37.411c-14.422,14.531-28.803,29.104-43.202,43.658
	C141.969,378.167,141.661,378.49,141.354,378.811z M268.363,399.389l-0.017-0.006c-3.714,3.296-8.038,6.134-10.964,10.023
	c-2.749,3.652-7.354,5.938-8.373,10.887c-0.092,0.616-0.184,1.231-0.275,1.848c-1.541,6.746,2.073,11.727,8.646,11.98
	c8.723,0.338,12.28-6.527,16.835-12.011c0.205-0.231,0.314-0.504,0.327-0.815c0.325-0.314,0.651-0.63,0.976-0.944
	c8.962-7.417,16.491-16.292,24.763-24.413c13.144-12.903,25.951-26.15,38.939-39.214c8.396-8.447,16.913-16.774,25.262-25.268
	c2.933-2.984,5.29-6.31,3.461-10.978c-3.289-8.396-11.817-10.158-18.53-3.422c-16.528,16.583-32.885,33.336-49.312,50.023
	c-5.204,3.144-8.257,8.478-12.669,12.472c-6.443,5.829-12.706,11.917-18.096,18.803l-0.001,0.026
	C269.011,398.715,268.687,399.052,268.363,399.389z M246.84,499.362c5.292-2.938,7.789-7.705,8.598-13.464
	c1.161-8.271-6.293-16.979-15.229-17.934c-8.188-0.875-16.371,6.377-17.134,14.646c-0.789,8.524,2.422,14.543,9.999,18.345
	c0.202,2.426,2.047,2,3.598,2.061c1.602,0.063,3.482-0.438,4.757,0.232C246.157,505.732,246.477,502.642,246.84,499.362z
	 M171.981,494.879c0.123-12.127-9.484-22-21.12-22.66c-12.93-0.734-23.5,10.19-23.458,22.302
	c0.046,13.543,9.687,22.614,20.658,23.142C161.171,518.292,171.85,507.659,171.981,494.879z M217.127,196.152
	c0.119,4.075,1.979,7.258,5.559,9.109c3.458,1.788,6.833,1.488,10.038-1.164c8.191-6.778,14.945-14.979,22.466-22.417
	c5.416-5.355,11.617-10.052,15.553-16.764c2.69-4.583,0.752-10.459-4.015-12.786c-5.25-2.563-9.154-1.964-13.33,2.184
	c-10.265,10.191-20.107,20.798-30.609,30.763C219.82,187.894,216.894,191.351,217.127,196.152z M361.203,489.314
	c11.301,1.169,19.063-10.232,18.731-18.783c-0.395-10.124-9.132-18.865-19.112-18.574c-10.077,0.295-18.372,9.002-18.401,19.318
	C342.389,481.992,350.118,489.413,361.203,489.314z M329.597,209.828c-0.494,4.253,1.516,7.467,5.187,9.113
	c3.971,1.782,8.196,1.309,11.407-1.897c8.296-8.28,16.479-16.679,24.577-25.154c4.117-4.309,4.296-9.785,0.806-13.709
	c-3.789-4.262-9.871-4.878-14.452-0.833c-8.791,7.762-16.879,16.257-24.838,24.874C330.229,204.443,329.233,206.813,329.597,209.828
	z M159.792,155.84c-9.926-0.042-17.49,6.827-17.409,16.021c0.085,9.69,6.054,18.39,17.613,17.949
	c9.602-0.368,16.19-7.739,16.541-16.174C176.99,162.705,167.559,154.623,159.792,155.84z M110.491,223.072
	c6.915,0.093,12.032-4.727,12.141-11.434c0.106-6.55-4.815-11.975-10.985-12.109c-6.431-0.14-11.678,5.165-11.676,11.807
	C99.973,218.182,104.281,222.988,110.491,223.072z M143.426,276.38c7.174-0.005,11.222-3.839,11.334-10.734
	c0.087-5.404-4.854-10.181-10.515-10.162c-6.256,0.02-11.693,5.194-11.574,11.015C132.779,271.722,137.854,276.384,143.426,276.38z"
	/>
<path fill-rule="evenodd" clip-rule="evenodd" fill="#EBF1EA" d="M432.137,246.604c0.098-1.103-0.39-2.802,0.657-3.152
	c4.552-1.518,6.405-5.41,8.817-8.968c1.189-1.756,2.394-3.195,2.514-5.51c0.104-2.011,1.674-3.37,3.725-3.914
	C445.825,234.585,440.619,241.789,432.137,246.604z"/>
<path fill-rule="evenodd" clip-rule="evenodd" fill="#F7C582" d="M416.421,148.033c-6.261-3.906-12.522-7.812-18.782-11.717
	c6.111-1.297,9.694,3.376,13.903,6.218C413.445,143.819,417.376,143.985,416.421,148.033z"/>
<path fill-rule="evenodd" clip-rule="evenodd" fill="#F39E32" d="M423.188,485.171c0,1.388,0,2.775-0.001,4.163
	c-1.431-0.162-2.909-0.285-2.748-2.315C420.577,485.27,421.988,485.367,423.188,485.171z"/>
<path fill-rule="evenodd" clip-rule="evenodd" fill="#F7C582" d="M97.753,366.307c0,1.833,0,3.667,0,5.501
	C96.728,369.924,96.925,368.023,97.753,366.307z"/>
<path fill-rule="evenodd" clip-rule="evenodd" fill="#F39E32" d="M398.243,552.091c-0.424-0.27-1.028-0.463-1.045-0.699
	c-0.062-0.87,0.716-0.899,1.308-0.911c0.396-0.007,0.796,0.245,1.194,0.381C399.246,551.245,398.79,551.629,398.243,552.091z"/>
<path fill-rule="evenodd" clip-rule="evenodd" fill="#EA7810" d="M550.522,405.145c-3.059,3.039-6.043,2.225-8.868,2.063
	c-0.793-0.046-1.572-0.679-1.542-1.58c0.033-1.033,0.962-1.186,1.778-1.146C544.526,404.609,547.237,404.002,550.522,405.145z"/>
<path fill-rule="evenodd" clip-rule="evenodd" fill="#EA7810" d="M528.707,403.797c0.961,0.144,1.648,0.646,1.627,1.536
	c-0.033,1.479-1.047,2.425-2.389,2.597c-1.012,0.129-1.147-0.928-1.097-1.756C526.922,404.948,527.392,403.993,528.707,403.797z"/>
<path fill-rule="evenodd" clip-rule="evenodd" fill="#EA7810" d="M522.829,401.912c-0.105,0.954,0.048,2.172-1.365,2.052
	c-0.819-0.069-1.339-0.829-1.397-1.718c-0.083-1.273,0.771-1.526,1.804-1.725C523.469,400.211,522.623,401.397,522.829,401.912z"/>
<path fill-rule="evenodd" clip-rule="evenodd" fill="#EA7810" d="M556.849,421.442c0.505,1.924,0.822,3.782-0.057,5.938
	C556.109,425.159,556.246,423.27,556.849,421.442z"/>
<path fill-rule="evenodd" clip-rule="evenodd" fill="#EA7810" d="M467.662,435.979c-0.021-0.321-0.02-0.641,0.005-0.962
	c0.121,0.23,0.264,0.452,0.341,0.694C468.021,435.759,467.784,435.888,467.662,435.979z"/>
<path fill-rule="evenodd" clip-rule="evenodd" fill="#F7C582" d="M459.729,102.792c-0.125,3.449,2.065,3.914,4.817,3.87
	c6.017-0.097,11.819-2.164,17.869-1.897c0.16,3.032-1.44,4.029-4.27,3.94c-3.445-0.108-6.899-0.042-10.348,0.013
	c-1.275,0.02-2.874-0.478-3.701,0.754c-2.412,3.588-3.928,0.597-5.124-0.85C457.39,106.701,456.29,104.309,459.729,102.792z"/>
<path fill-rule="evenodd" clip-rule="evenodd" fill="#EA7810" d="M489.317,261.512c-0.004,2.125-0.131,4.258,0.013,6.373
	c0.27,3.906,0.287,7.43-5.332,6.49c-0.971-0.163-1.948,0.153-2.373,1.279c-1.442,3.82-2.728,3.811-4.388,0.021
	c-0.939-2.148-2.486-1.354-3.921-0.118c-2.935,2.529-3.687,1.232-3.786-2.04c-0.088-2.828,0.397-5.314,2.864-6.791
	c3.307-1.979,4.065-6.014,7.046-8.187C482.102,261.632,485.334,262.816,489.317,261.512z"/>
<path fill-rule="evenodd" clip-rule="evenodd" fill="#EC8D23" d="M503.027,193.668c-0.149,0.607-0.217,1.362-1.06,1.298
	c-1.138-0.087-1.63-0.927-1.598-1.949c0.027-0.908,0.612-1.436,1.588-1.208C502.939,192.038,502.975,192.87,503.027,193.668z"/>
<path fill-rule="evenodd" clip-rule="evenodd" fill="#F6B966" d="M454.813,125.467c-0.072,0.134-0.146,0.268-0.217,0.403
	c0.074-0.132,0.148-0.265,0.224-0.396L454.813,125.467z"/>
<path fill-rule="evenodd" clip-rule="evenodd" fill="#F39E32" d="M142.276,377.846c14.399-14.555,28.78-29.127,43.202-43.658
	c12.396-12.489,24.878-24.892,37.244-37.411c8.12-8.22,16.179-16.504,24.104-24.911c3.237-3.434,7.039-4.953,11.44-3.788
	c4.274,1.131,6.866,4.42,7.67,8.763c0.891,4.814-2.608,7.786-5.128,11.143c-1.184,1.577-3.371,2.103-4.153,4.07
	c-1.118,0.059-1.597,0.944-2.286,1.641c-19.769,19.995-39.564,39.965-59.354,59.938c-2.699-0.771-3.701,0.204-3.005,2.924
	c-0.062,0.238-0.19,0.435-0.387,0.585c-0.927,0.064-1.721,0.268-1.556,1.479c-1.852,2.012-3.577,4.158-5.576,6.01
	c-10.949,10.146-21.253,20.92-31.346,31.902v0.004c-0.349,0.321-0.7,0.643-1.049,0.965l0.022-0.048
	c-6.041,3.505-11.189,2.101-15.691-2.851l-0.026-0.033c-0.302-3.58-1.09-7.169,0.212-10.715c0,0-0.022,0.087-0.023,0.086
	c2.251-1.081,3.364-3.217,4.737-5.111l0.028-0.019C141.661,378.49,141.968,378.167,142.276,377.846z"/>
<path fill-rule="evenodd" clip-rule="evenodd" fill="#F39E32" d="M274.542,421.295c-0.013,0.312-0.122,0.584-0.327,0.815
	c-4.455-0.08-6.021,4.025-8.741,6.306c-4.64,3.891-8.068,4.419-12.66,0.757c-2.253-1.797-2.634-4.736-4.081-7.032
	c0.091-0.616,0.184-1.231,0.275-1.848c7.078-5.187,12.459-12.124,18.71-18.165c0.762-0.735,0.747-1.753,0.627-2.745
	c0,0,0.017,0.006,0.018,0.006c0.323-0.336,0.647-0.674,0.97-1.009c0,0,0.001-0.026,0.002-0.025c1.662,0.372,2.698-0.548,3.782-1.639
	c8.446-8.512,16.918-16.996,25.428-25.444c1.22-1.211,2.302-2.322,1.556-4.192c16.425-16.687,32.782-33.44,49.311-50.023
	c6.713-6.736,15.241-4.975,18.53,3.422c1.829,4.668-0.528,7.994-3.461,10.978c-8.349,8.493-16.866,16.82-25.262,25.268
	c-12.988,13.063-25.796,26.311-38.939,39.214c-8.271,8.121-15.801,16.996-24.761,24.413
	C274.924,420.386,274.588,420.691,274.542,421.295z M256.499,423.975c-0.062-0.69-0.461-1.489-1.082-1.122
	c-0.882,0.522-2.08,1.13-2.025,2.404c0.033,0.763,0.896,0.751,1.534,0.708C256.168,425.883,256.513,425.063,256.499,423.975z"/>
<path fill-rule="evenodd" clip-rule="evenodd" fill="#F6B966" d="M171.981,494.879c-0.131,12.78-10.811,23.413-23.921,22.783
	c-10.971-0.527-20.611-9.599-20.658-23.142c-0.042-12.111,10.529-23.036,23.458-22.302
	C162.497,472.879,172.104,482.752,171.981,494.879z"/>
<path fill-rule="evenodd" clip-rule="evenodd" fill="#F39E32" d="M217.127,196.152c-0.233-4.801,2.693-8.259,5.662-11.075
	c10.502-9.965,20.345-20.572,30.609-30.763c4.175-4.147,8.079-4.747,13.33-2.184c4.767,2.327,6.706,8.202,4.015,12.786
	c-3.937,6.712-10.138,11.409-15.553,16.764c-7.521,7.438-14.275,15.64-22.466,22.417c-3.205,2.652-6.581,2.952-10.038,1.164
	C219.106,203.41,217.246,200.227,217.127,196.152z"/>
<path fill-rule="evenodd" clip-rule="evenodd" fill="#F6B966" d="M361.203,489.314c-11.085,0.099-18.814-7.322-18.782-18.039
	c0.029-10.316,8.324-19.023,18.401-19.318c9.98-0.291,18.718,8.45,19.112,18.574C380.266,479.082,372.504,490.483,361.203,489.314z"
	/>
<path fill-rule="evenodd" clip-rule="evenodd" fill="#F39E32" d="M329.597,209.828c-0.363-3.015,0.633-5.385,2.687-7.607
	c7.959-8.616,16.047-17.112,24.838-24.874c4.581-4.045,10.663-3.429,14.452,0.833c3.49,3.925,3.312,9.401-0.806,13.709
	c-8.099,8.476-16.281,16.874-24.577,25.154c-3.211,3.206-7.437,3.679-11.407,1.897C331.112,217.295,329.103,214.081,329.597,209.828
	z"/>
<path fill-rule="evenodd" clip-rule="evenodd" fill="#F7C582" d="M159.792,155.84c7.766-1.218,17.197,6.864,16.744,17.796
	c-0.351,8.435-6.939,15.806-16.541,16.174c-11.559,0.44-17.528-8.259-17.613-17.949C142.303,162.667,149.867,155.799,159.792,155.84
	z"/>
<path fill-rule="evenodd" clip-rule="evenodd" fill="#F6B966" d="M233.073,500.955c-7.577-3.802-10.788-9.82-9.999-18.345
	c0.764-8.269,8.946-15.521,17.134-14.646c8.936,0.954,16.391,9.663,15.229,17.934c-0.809,5.759-3.305,10.525-8.598,13.463
	C242.371,500.935,237.8,501.625,233.073,500.955z"/>
<path fill-rule="evenodd" clip-rule="evenodd" fill="#F7C582" d="M110.491,223.072c-6.21-0.084-10.518-4.891-10.52-11.736
	c-0.002-6.642,5.245-11.947,11.676-11.807c6.169,0.134,11.091,5.559,10.985,12.109C122.522,218.346,117.405,223.165,110.491,223.072
	z"/>
<path fill-rule="evenodd" clip-rule="evenodd" fill="#F7C582" d="M143.426,276.38c-5.572,0.004-10.647-4.658-10.754-9.881
	c-0.119-5.821,5.318-10.995,11.574-11.015c5.66-0.019,10.602,4.758,10.515,10.162C154.648,272.541,150.6,276.375,143.426,276.38z"/>
<path fill-rule="evenodd" clip-rule="evenodd" fill="#E3EDE6" d="M191.622,357.142c0.197-0.15,0.326-0.347,0.385-0.588
	c1.467-0.494,2.434-1.506,3.007-2.921c19.79-19.974,39.586-39.943,59.354-59.938c0.689-0.697,1.168-1.583,2.286-1.641
	c0.464,2.42-0.93,3.958-2.484,5.511c-32.184,32.161-64.348,64.343-96.533,96.503c-1.233,1.232-2.32,2.882-4.494,2.466
	c10.093-10.983,20.397-21.757,31.346-31.903c1.999-1.852,3.724-3.998,5.573-6.011C190.842,358.402,191.414,357.965,191.622,357.142z
	"/>
<path fill-rule="evenodd" clip-rule="evenodd" fill="#F6B966" d="M300.101,367.079c0.747,1.87-0.335,2.981-1.555,4.192
	c-8.51,8.448-16.981,16.933-25.428,25.444c-1.084,1.091-2.12,2.011-3.782,1.639c5.389-6.887,11.652-12.975,18.095-18.804
	C291.844,375.557,294.897,370.223,300.101,367.079z"/>
<path fill-rule="evenodd" clip-rule="evenodd" fill="#F6B966" d="M248.733,422.141c1.446,2.296,1.828,5.235,4.081,7.032
	c4.591,3.662,8.02,3.134,12.66-0.757c2.72-2.28,4.287-6.386,8.741-6.306c-4.555,5.483-8.112,12.349-16.835,12.011
	C250.806,433.867,247.193,428.887,248.733,422.141z"/>
<path fill-rule="evenodd" clip-rule="evenodd" fill="#F6B966" d="M268.346,399.383c0.12,0.992,0.135,2.01-0.627,2.745
	c-6.251,6.041-11.632,12.979-18.71,18.165c1.019-4.948,5.624-7.234,8.373-10.887C260.309,405.517,264.632,402.679,268.346,399.383z"
	/>
<path fill-rule="evenodd" clip-rule="evenodd" fill="#E3EDE6" d="M136.425,394.603c4.502,4.951,9.651,6.355,15.691,2.851
	c-0.418,4.321-4.073,4.74-6.916,4.661C139.479,401.951,136.972,399.392,136.425,394.603z"/>
<path fill-rule="evenodd" clip-rule="evenodd" fill="#EBF1EA" d="M233.073,500.955c4.727,0.67,9.298-0.021,13.767-1.594
	c-0.363,3.28-0.683,6.371-5.413,3.887c-1.274-0.671-3.155-0.17-4.757-0.232C235.12,502.955,233.275,503.381,233.073,500.955z"/>
<path fill-rule="evenodd" clip-rule="evenodd" fill="#E3EDE6" d="M136.611,383.854c-1.302,3.546-0.514,7.135-0.212,10.715
	C133.488,391.858,133.588,386.778,136.611,383.854z"/>
<path fill-rule="evenodd" clip-rule="evenodd" fill="#E3EDE6" d="M141.326,378.829c-1.373,1.895-2.486,4.03-4.737,5.111
	C136.36,380.562,138.197,379.099,141.326,378.829z"/>
<path fill-rule="evenodd" clip-rule="evenodd" fill="#F6B966" d="M274.542,421.295c0.046-0.604,0.382-0.909,0.977-0.944
	C275.193,420.665,274.867,420.98,274.542,421.295z"/>
<path fill-rule="evenodd" clip-rule="evenodd" fill="#E3EDE6" d="M142.276,377.846c-0.308,0.321-0.615,0.645-0.922,0.965
	C141.661,378.49,141.969,378.167,142.276,377.846z"/>
<path fill-rule="evenodd" clip-rule="evenodd" fill="#E3EDE6" d="M152.094,397.501c0.35-0.322,0.7-0.644,1.049-0.965
	C152.793,396.857,152.444,397.179,152.094,397.501z"/>
<path fill-rule="evenodd" clip-rule="evenodd" fill="#F6B966" d="M269.334,398.38c-0.323,0.335-0.647,0.673-0.97,1.009
	C268.687,399.052,269.011,398.715,269.334,398.38z"/>
<path fill-rule="evenodd" clip-rule="evenodd" fill="#F6B966" d="M195.014,353.633c-0.574,1.415-1.541,2.427-3.007,2.921
	C191.313,353.837,192.314,352.862,195.014,353.633z"/>
<path fill-rule="evenodd" clip-rule="evenodd" fill="#F6B966" d="M191.622,357.142c-0.208,0.823-0.78,1.261-1.559,1.478
	C189.9,357.409,190.694,357.206,191.622,357.142z"/>
<path fill-rule="evenodd" clip-rule="evenodd" fill="#F6B966" d="M256.5,423.975c0.013,1.088-0.332,1.908-1.575,1.99
	c-0.637,0.043-1.5,0.055-1.534-0.708c-0.055-1.274,1.143-1.882,2.025-2.404C256.038,422.485,256.438,423.284,256.5,423.975z"/>
</svg>
