<?xml version="1.0" encoding="utf-8"?>
<!-- Generator: Adobe Illustrator 16.0.0, SVG Export Plug-In . SVG Version: 6.00 Build 0)  -->
<!DOCTYPE svg PUBLIC "-//W3C//DTD SVG 1.1//EN" "http://www.w3.org/Graphics/SVG/1.1/DTD/svg11.dtd">
<svg version="1.1" id="Layer_1" xmlns="http://www.w3.org/2000/svg" xmlns:xlink="http://www.w3.org/1999/xlink" x="0px" y="0px"
	 width="640px" height="640px" viewBox="0 0 640 640" enable-background="new 0 0 640 640" xml:space="preserve">
<g>
	<path fill="#DDD1C2" d="M504.336,298.71c3.689-5.208,5.659-10.657,5.659-16.267c0-36.977-85.063-66.953-189.995-66.953
		s-189.995,29.976-189.995,66.953c0,5.61,1.97,11.059,5.659,16.267C95.486,312.099,71,329.881,71,349.396
		c0,41.64,111.481,75.395,249,75.395c137.52,0,249-33.755,249-75.395C569,329.881,544.513,312.099,504.336,298.71z"/>
	<path opacity="0.3" d="M543.748,316.288c5.177,6.054,7.943,12.402,7.943,18.948c0,41.64-111.48,75.395-249,75.395
		c-98.297,0-183.277-17.247-223.764-42.292c27.747,32.471,125.158,56.453,241.072,56.453c137.52,0,249-33.755,249-75.395
		C569,337.517,559.912,326.281,543.748,316.288z"/>
	<path opacity="0.3" fill="#FFFFFF" d="M152.972,312.59c-3.688-5.208-5.659-10.657-5.659-16.267
		c0-36.977,85.064-66.953,189.996-66.953c70.431,0,131.909,13.505,164.724,33.567c-23.445-27.606-96.063-47.728-182.032-47.728
		c-104.932,0-189.995,29.976-189.995,66.953c0,5.61,1.971,11.059,5.658,16.267C95.487,311.817,71,329.6,71,349.115
		c0,11.876,9.081,23.108,25.236,33.103c-5.172-6.053-7.927-12.4-7.927-18.941C88.309,343.761,112.795,325.979,152.972,312.59z"/>
	<path opacity="0.3" d="M309.921,349.313c3.334,0.063,6.69,0.095,10.067,0.095c104.932,0,189.995-29.977,189.995-66.954
		c0-2.604-0.437-5.172-1.257-7.699C497.042,309.144,405.299,347.268,309.921,349.313z"/>
	<circle opacity="0.3" cx="443.837" cy="344.347" r="1.911"/>
	<circle opacity="0.3" cx="519.437" cy="346.257" r="1.911"/>
	<circle opacity="0.3" cx="485.803" cy="284.933" r="1.911"/>
	<circle opacity="0.3" cx="365.434" cy="368.628" r="1.912"/>
	<circle opacity="0.3" cx="455.711" cy="261.573" r="1.912"/>
	<circle opacity="0.3" cx="487.713" cy="370.54" r="1.912"/>
	<circle opacity="0.3" cx="539.048" cy="320.141" r="1.911"/>
	<circle opacity="0.3" cx="310.048" cy="399.811" r="1.911"/>
	<circle opacity="0.3" cx="358.042" cy="302.67" r="1.912"/>
	<circle opacity="0.3" fill="#FFFFFF" cx="125.733" cy="333.136" r="1.911"/>
	<circle opacity="0.3" cx="426.208" cy="382.218" r="1.912"/>
	<circle opacity="0.3" cx="260.568" cy="298.848" r="1.911"/>
	<circle opacity="0.3" cx="198.001" cy="389.19" r="1.911"/>
	<circle opacity="0.3" cx="422.387" cy="288.754" r="1.911"/>
	<circle opacity="0.3" fill="#FFFFFF" cx="273.097" cy="259.662" r="1.911"/>
	<circle opacity="0.3" fill="#FFFFFF" cx="201.823" cy="296.937" r="1.911"/>
	<circle opacity="0.3" fill="#FFFFFF" cx="339.331" cy="253.929" r="1.912"/>
	<circle opacity="0.3" fill="#FFFFFF" cx="181.788" cy="276.667" r="1.911"/>
	<circle opacity="0.3" fill="#FFFFFF" cx="225.104" cy="255.839" r="1.911"/>
	<circle opacity="0.3" fill="#FFFFFF" cx="147.706" cy="359.688" r="1.911"/>
	<circle opacity="0.3" fill="#FFFFFF" cx="201.823" cy="342.436" r="1.911"/>
	<circle opacity="0.3" fill="#FFFFFF" cx="262.48" cy="238" r="1.911"/>
	<circle opacity="0.3" fill="#FFFFFF" cx="302.404" cy="234.178" r="1.911"/>
	<circle opacity="0.3" cx="508.072" cy="312.082" r="1.911"/>
	<circle opacity="0.3" cx="266.302" cy="357.777" r="1.911"/>
	<circle opacity="0.3" cx="397.117" cy="248.619" r="1.911"/>
</g>
</svg>
