<?xml version="1.0" encoding="utf-8"?>
<!-- Generator: Adobe Illustrator 16.0.0, SVG Export Plug-In . SVG Version: 6.00 Build 0)  -->
<!DOCTYPE svg PUBLIC "-//W3C//DTD SVG 1.1//EN" "http://www.w3.org/Graphics/SVG/1.1/DTD/svg11.dtd">
<svg version="1.1" id="Layer_1" xmlns="http://www.w3.org/2000/svg" xmlns:xlink="http://www.w3.org/1999/xlink" x="0px" y="0px"
	 width="640px" height="640px" viewBox="0 0 640 640" enable-background="new 0 0 640 640" xml:space="preserve">
<g>
	<path fill="#7FCDEE" d="M552.5,259.765c0,16.3-104.094,170.596-232.5,170.596S87.5,276.064,87.5,259.765
		s104.094-29.512,232.5-29.512S552.5,243.465,552.5,259.765z"/>
	<ellipse opacity="0.3" cx="320" cy="259.765" rx="232.5" ry="29.513"/>
	<path fill="#DDD1C2" d="M397.11,231.802c-22.013-12.466-48.594-22.163-77.22-22.163c-28.828,0-55.577,9.833-77.679,22.424
		c-32.974,18.786-55.583,43.704-59.266,51.298c38.884,3.714,87.237,5.916,139.644,5.916c50.103,0,96.503-2.012,134.463-5.434
		C454.142,276.849,431.07,251.033,397.11,231.802z"/>
	<circle opacity="0.3" cx="447.578" cy="279.834" r="1.62"/>
	<circle opacity="0.3" cx="428.512" cy="281.453" r="1.62"/>
	<circle opacity="0.3" cx="435.35" cy="275.421" r="1.62"/>
	<circle opacity="0.3" cx="421.854" cy="271.282" r="1.62"/>
	<circle opacity="0.3" cx="425.093" cy="258.325" r="1.62"/>
	<circle opacity="0.3" cx="400.979" cy="256.706" r="1.62"/>
	<circle opacity="0.3" cx="384.063" cy="275.421" r="1.619"/>
	<circle opacity="0.3" cx="407.637" cy="278.214" r="1.62"/>
	<circle opacity="0.3" cx="357.43" cy="281.453" r="1.62"/>
	<circle opacity="0.3" fill="#FFFFFF" cx="375.606" cy="263.004" r="1.62"/>
	<circle opacity="0.3" cx="318.38" cy="269.662" r="1.62"/>
	<circle opacity="0.3" cx="274.832" cy="278.214" r="1.62"/>
	<circle opacity="0.3" cx="241.54" cy="268.042" r="1.619"/>
	<circle opacity="0.3" cx="347.533" cy="246.628" r="1.62"/>
	<circle opacity="0.3" fill="#FFFFFF" cx="285.449" cy="245.009" r="1.62"/>
	<circle opacity="0.3" fill="#FFFFFF" cx="244.779" cy="241.77" r="1.62"/>
	<circle opacity="0.3" fill="#FFFFFF" cx="276.451" cy="226.653" r="1.62"/>
	<circle opacity="0.3" fill="#FFFFFF" cx="310.282" cy="223.414" r="1.619"/>
	<circle opacity="0.3" cx="360.669" cy="220.175" r="1.62"/>
	<circle opacity="0.3" cx="194.212" cy="279.834" r="1.62"/>
	<circle opacity="0.3" cx="390.542" cy="235.651" r="1.62"/>
</g>
</svg>
